<?xml version="1.0" encoding="utf-8"?>
<!-- Generator: Adobe Illustrator 21.1.0, SVG Export Plug-In . SVG Version: 6.00 Build 0)  -->
<svg version="1.1" id="Layer_1" xmlns="http://www.w3.org/2000/svg" xmlns:xlink="http://www.w3.org/1999/xlink" x="0px" y="0px"
	 viewBox="0 0 119.4 129.5" style="enable-background:new 0 0 119.4 129.5;" xml:space="preserve">
<style type="text/css">
	.st0{fill:#231F20;}
	.st1{fill:#FFFFFF;}
	.st2{fill:#08B2A0;}
	.st3{fill:#84DBFF;}
	.st4{fill:#E6E9EE;}
	.st5{fill:#FFD05B;}
</style>
<g>
	<path class="st0" d="M116.8,6.8c-0.2,0-0.4-0.1-0.5-0.2c-0.3-0.3-0.3-0.8,0-1.1l1.3-1.3c0.3-0.3,0.8-0.3,1.1,0
		c0.3,0.3,0.3,0.8,0,1.1l-1.3,1.3C117.2,6.7,117,6.8,116.8,6.8z"/>
	<path class="st0" d="M112.8,10.9c-0.2,0-0.4-0.1-0.5-0.2c-0.3-0.3-0.3-0.8,0-1.1l1.3-1.3c0.3-0.3,0.8-0.3,1.1,0
		c0.3,0.3,0.3,0.8,0,1.1l-1.3,1.3C113.1,10.8,113,10.9,112.8,10.9z"/>
	<path class="st0" d="M118.2,10.9c-0.2,0-0.4-0.1-0.5-0.2l-1.3-1.3c-0.3-0.3-0.3-0.8,0-1.1c0.3-0.3,0.8-0.3,1.1,0l1.3,1.3
		c0.3,0.3,0.3,0.8,0,1.1C118.5,10.8,118.3,10.9,118.2,10.9z"/>
	<path class="st0" d="M114.1,6.8c-0.2,0-0.4-0.1-0.5-0.2l-1.3-1.3c-0.3-0.3-0.3-0.8,0-1.1c0.3-0.3,0.8-0.3,1.1,0l1.3,1.3
		c0.3,0.3,0.3,0.8,0,1.1C114.5,6.7,114.3,6.8,114.1,6.8z"/>
	<path class="st0" d="M4.8,37.3c-0.2,0-0.4-0.1-0.5-0.2C4,36.7,4,36.3,4.3,36l1.3-1.3c0.3-0.3,0.8-0.3,1.1,0C7,35,7,35.4,6.7,35.7
		L5.4,37C5.2,37.2,5,37.3,4.8,37.3z"/>
	<path class="st0" d="M0.8,41.3c-0.2,0-0.4-0.1-0.5-0.2c-0.3-0.3-0.3-0.8,0-1.1l1.3-1.3c0.3-0.3,0.8-0.3,1.1,0
		c0.3,0.3,0.3,0.8,0,1.1l-1.3,1.3C1.1,41.3,0.9,41.3,0.8,41.3z"/>
	<path class="st0" d="M6.1,41.3c-0.2,0-0.4-0.1-0.5-0.2l-1.3-1.3C4,39.5,4,39,4.3,38.8c0.3-0.3,0.8-0.3,1.1,0l1.3,1.3
		c0.3,0.3,0.3,0.8,0,1.1C6.5,41.3,6.3,41.3,6.1,41.3z"/>
	<path class="st0" d="M2.1,37.3c-0.2,0-0.4-0.1-0.5-0.2l-1.3-1.3c-0.3-0.3-0.3-0.8,0-1.1c0.3-0.3,0.8-0.3,1.1,0L2.6,36
		c0.3,0.3,0.3,0.8,0,1.1C2.4,37.2,2.2,37.3,2.1,37.3z"/>
	<path class="st0" d="M11.6,9.7H3.4C3,9.7,2.7,9.4,2.7,9c0-0.4,0.3-0.8,0.8-0.8h8.2c0.4,0,0.8,0.3,0.8,0.8
		C12.4,9.4,12.1,9.7,11.6,9.7z"/>
	<path class="st0" d="M14.9,12.7h-4c-0.4,0-0.8-0.3-0.8-0.8c0-0.4,0.3-0.8,0.8-0.8h4c0.4,0,0.8,0.3,0.8,0.8
		C15.6,12.4,15.3,12.7,14.9,12.7z"/>
	<path class="st0" d="M19.2,9.7h-3.8c-0.4,0-0.8-0.3-0.8-0.8c0-0.4,0.3-0.8,0.8-0.8h3.8c0.4,0,0.8,0.3,0.8,0.8
		C19.9,9.4,19.6,9.7,19.2,9.7z"/>
	<path class="st0" d="M7.9,12.7H7.2c-0.4,0-0.8-0.3-0.8-0.8c0-0.4,0.3-0.8,0.8-0.8h0.8c0.4,0,0.8,0.3,0.8,0.8
		C8.7,12.4,8.3,12.7,7.9,12.7z"/>
	<path class="st0" d="M23.7,77.3h-8.2c-0.4,0-0.8-0.3-0.8-0.8c0-0.4,0.3-0.8,0.8-0.8h8.2c0.4,0,0.8,0.3,0.8,0.8
		C24.5,77,24.2,77.3,23.7,77.3z"/>
	<path class="st0" d="M27,80.3h-4c-0.4,0-0.8-0.3-0.8-0.8s0.3-0.8,0.8-0.8h4c0.4,0,0.8,0.3,0.8,0.8S27.4,80.3,27,80.3z"/>
	<path class="st0" d="M31.3,77.3h-3.8c-0.4,0-0.8-0.3-0.8-0.8c0-0.4,0.3-0.8,0.8-0.8h3.8c0.4,0,0.7,0.3,0.7,0.8
		C32,77,31.7,77.3,31.3,77.3z"/>
	<path class="st0" d="M20,80.3h-0.8c-0.4,0-0.8-0.3-0.8-0.8s0.3-0.8,0.8-0.8H20c0.4,0,0.8,0.3,0.8,0.8S20.4,80.3,20,80.3z"/>
	<path class="st1" d="M103.9,128.7v-6.7c0-21.9-17.7-39.6-39.6-39.6h0c-21.9,0-39.6,17.7-39.6,39.6v6.7H103.9z"/>
	<path class="st1" d="M74.7,78v4.1c0,2.9-1.2,5.5-3.1,7.4c-1.9,1.9-4.5,3.1-7.4,3.1c-5.7,0-10.4-4.7-10.4-10.4V78H74.7z"/>
	<line class="st1" x1="86.7" y1="128.7" x2="86.7" y2="115.3"/>
	<line class="st1" x1="41.8" y1="128.7" x2="41.8" y2="115.3"/>
	<polygon class="st2" points="70.3,115.7 64.3,122 58.2,115.7 58.2,115.7 61.9,100.4 60.8,96.8 67.7,96.8 66.7,100.4 	"/>
	<path class="st0" d="M114.8,91.9c-0.2,0-0.4-0.1-0.5-0.2c-0.3-0.3-0.3-0.8,0-1.1l1.3-1.3c0.3-0.3,0.8-0.3,1.1,0
		c0.3,0.3,0.3,0.8,0,1.1l-1.3,1.3C115.2,91.9,115,91.9,114.8,91.9z"/>
	<path class="st0" d="M110.7,96c-0.2,0-0.4-0.1-0.5-0.2c-0.3-0.3-0.3-0.8,0-1.1l1.3-1.3c0.3-0.3,0.8-0.3,1.1,0
		c0.3,0.3,0.3,0.8,0,1.1l-1.3,1.3C111.1,96,110.9,96,110.7,96z"/>
	<path class="st0" d="M116.1,96c-0.2,0-0.4-0.1-0.5-0.2l-1.3-1.3c-0.3-0.3-0.3-0.8,0-1.1s0.8-0.3,1.1,0l1.3,1.3
		c0.3,0.3,0.3,0.8,0,1.1C116.5,96,116.3,96,116.1,96z"/>
	<path class="st0" d="M112,91.9c-0.2,0-0.4-0.1-0.5-0.2l-1.3-1.3c-0.3-0.3-0.3-0.8,0-1.1c0.3-0.3,0.8-0.3,1.1,0l1.3,1.3
		c0.3,0.3,0.3,0.8,0,1.1C112.4,91.9,112.2,91.9,112,91.9z"/>
	<circle class="st3" cx="5.9" cy="86.3" r="2.5"/>
	<circle class="st1" cx="64.3" cy="41.6" r="40.8"/>
	<path class="st0" d="M75.4,83.3c0-0.4,0.1-0.7,0.1-1.1v-0.5c17.5-4.9,30.4-21,30.4-40.1C105.8,18.7,87.2,0,64.3,0
		C41.3,0,22.7,18.7,22.7,41.6c0,19.1,12.9,35.2,30.4,40.1v0.5c0,0.4,0,0.7,0.1,1.1c-16.9,4.8-29.3,20.4-29.3,38.8v7.4h80.8v-7.4
		C104.6,103.7,92.2,88.1,75.4,83.3z M24.2,41.6c0-22.1,18-40.1,40.1-40.1c22.1,0,40.1,18,40.1,40.1c0,22.1-18,40.1-40.1,40.1
		C42.1,81.7,24.2,63.7,24.2,41.6z M73.9,82v0.1c0,2.6-1,5-2.8,6.8c-1.8,1.8-4.3,2.8-6.8,2.8c-5.3,0-9.7-4.3-9.7-9.7V82
		c3.1,0.7,6.3,1.1,9.7,1.1C67.6,83.2,70.8,82.8,73.9,82z M103.1,128H87.4v-12.7h-1.5V128H42.6v-12.7h-1.5V128H25.4v-5.9
		c0-17.7,11.9-32.6,28-37.3c1.2,4.9,5.6,8.6,10.9,8.6c3,0,5.8-1.2,7.9-3.3c1.5-1.5,2.5-3.3,3-5.3c16.2,4.7,28,19.6,28,37.3V128z"/>
	<circle class="st4" cx="64.3" cy="41.6" r="37"/>
	<g>
		<path class="st1" d="M91,57.1c-0.1,0-0.2,0-0.4-0.1c-0.4-0.2-0.5-0.6-0.3-1c4-7.4,4.6-16.3,1.6-24.2c-0.1-0.4,0.1-0.8,0.4-1
			c0.4-0.1,0.8,0.1,1,0.4c3.1,8.3,2.5,17.6-1.7,25.4C91.5,56.9,91.3,57.1,91,57.1z"/>
	</g>
	<g>
		<path class="st1" d="M90.1,27c-0.3,0-0.5-0.1-0.6-0.4c-1.2-2-2.7-3.8-4.3-5.5c-0.3-0.3-0.3-0.8,0-1.1c0.3-0.3,0.8-0.3,1.1,0
			c1.7,1.7,3.3,3.7,4.6,5.8c0.2,0.4,0.1,0.8-0.2,1C90.4,27,90.3,27,90.1,27z"/>
	</g>
	<g>
		<path class="st1" d="M83.2,61.7c-0.2,0-0.4-0.1-0.5-0.2c-0.3-0.3-0.3-0.8,0-1.1c2.3-2.3,4.2-5,5.5-8c0.2-0.4,0.6-0.6,1-0.4
			c0.4,0.2,0.6,0.6,0.4,1c-1.4,3.2-3.3,6-5.8,8.5C83.6,61.7,83.4,61.7,83.2,61.7z"/>
	</g>
	<g>
		<path class="st1" d="M90.7,46.9c0,0-0.1,0-0.1,0c-0.4-0.1-0.7-0.4-0.6-0.9c1-6.6-0.5-13.3-4.3-18.8c-0.2-0.3-0.2-0.8,0.2-1
			c0.3-0.2,0.8-0.2,1,0.2c4,5.8,5.7,12.9,4.6,19.9C91.4,46.6,91.1,46.9,90.7,46.9z"/>
	</g>
	<g>
		<path class="st1" d="M83.9,54.8c-0.1,0-0.3,0-0.4-0.1c-0.4-0.2-0.5-0.7-0.2-1c2.9-4.8,3.9-10.5,2.8-16c-0.1-0.4,0.2-0.8,0.6-0.9
			c0.4-0.1,0.8,0.2,0.9,0.6c1.2,5.9,0.1,12-3,17.1C84.4,54.7,84.1,54.8,83.9,54.8z"/>
	</g>
	<g>
		<path class="st1" d="M35.8,52.4c-0.3,0-0.6-0.2-0.7-0.5c-3.1-8.3-2.5-17.6,1.7-25.4c0.2-0.4,0.6-0.5,1-0.3c0.4,0.2,0.5,0.6,0.3,1
			c-4,7.4-4.6,16.3-1.6,24.2c0.1,0.4-0.1,0.8-0.4,1C36,52.4,35.9,52.4,35.8,52.4z"/>
	</g>
	<g>
		<path class="st1" d="M42.8,63.3c-0.2,0-0.4-0.1-0.5-0.2c-1.7-1.7-3.3-3.7-4.6-5.8c-0.2-0.4-0.1-0.8,0.2-1c0.4-0.2,0.8-0.1,1,0.2
			c1.2,2,2.7,3.8,4.3,5.5c0.3,0.3,0.3,0.8,0,1.1C43.2,63.2,43,63.3,42.8,63.3z"/>
	</g>
	<g>
		<path class="st1" d="M39.7,31.2c-0.1,0-0.2,0-0.3-0.1c-0.4-0.2-0.6-0.6-0.4-1c1.4-3.2,3.3-6,5.8-8.5c0.3-0.3,0.8-0.3,1.1,0
			c0.3,0.3,0.3,0.8,0,1.1c-2.3,2.3-4.2,5-5.5,8C40.3,31,40,31.2,39.7,31.2z"/>
	</g>
	<g>
		<path class="st1" d="M42.3,57.1c-0.2,0-0.5-0.1-0.6-0.3c-4-5.8-5.7-12.9-4.6-19.9c0.1-0.4,0.4-0.7,0.9-0.6
			c0.4,0.1,0.7,0.4,0.6,0.9c-1,6.6,0.5,13.3,4.3,18.8c0.2,0.3,0.2,0.8-0.2,1C42.6,57.1,42.4,57.1,42.3,57.1z"/>
	</g>
	<g>
		<path class="st1" d="M41.7,46.4c-0.3,0-0.7-0.2-0.7-0.6c-1.2-5.9-0.1-12,3-17.1c0.2-0.4,0.7-0.5,1-0.2c0.4,0.2,0.5,0.7,0.2,1
			c-2.9,4.8-3.9,10.5-2.8,16c0.1,0.4-0.2,0.8-0.6,0.9C41.8,46.4,41.8,46.4,41.7,46.4z"/>
	</g>
	<circle class="st1" cx="64.3" cy="41.6" r="7"/>
	<path class="st0" d="M64.3,49.3c-4.3,0-7.7-3.5-7.7-7.7s3.5-7.7,7.7-7.7c4.3,0,7.7,3.5,7.7,7.7S68.5,49.3,64.3,49.3z M64.3,35.4
		c-3.4,0-6.2,2.8-6.2,6.2c0,3.4,2.8,6.2,6.2,6.2c3.4,0,6.2-2.8,6.2-6.2C70.5,38.2,67.7,35.4,64.3,35.4z"/>
	<path d="M63.2,67.8c0.1,0.1,0.1,0.3,0.1,0.4c0,0.2-0.1,0.3-0.2,0.4c-0.1,0.1-0.3,0.2-0.5,0.2c-0.2,0-0.3-0.1-0.5-0.2l-3.5-4.5
		l-1.5,1.6v2.5c0,0.2-0.1,0.3-0.2,0.4c-0.1,0.1-0.3,0.2-0.4,0.2c-0.2,0-0.3-0.1-0.4-0.2c-0.1-0.1-0.2-0.3-0.2-0.4v-8.3
		c0-0.2,0.1-0.3,0.2-0.4c0.1-0.1,0.3-0.2,0.4-0.2c0.2,0,0.3,0.1,0.4,0.2c0.1,0.1,0.2,0.3,0.2,0.4v4.3l4.6-4.7
		c0.1-0.1,0.3-0.2,0.4-0.2c0.2,0,0.3,0.1,0.4,0.2c0.1,0.1,0.2,0.2,0.2,0.4c0,0.2,0,0.3-0.1,0.4l-3.1,3.1L63.2,67.8z"/>
	<path d="M69.4,67.7c0.8,0,1.6-0.2,2.4-0.6v-2.4h-2.2c-0.2,0-0.3-0.1-0.4-0.2c-0.1-0.1-0.2-0.2-0.2-0.4c0-0.2,0.1-0.3,0.2-0.4
		c0.1-0.1,0.2-0.2,0.4-0.2h2.7c0.2,0,0.3,0.1,0.5,0.2c0.1,0.1,0.2,0.3,0.2,0.5v3.1c0,0.2,0,0.4-0.1,0.5c-0.1,0.1-0.2,0.3-0.4,0.3
		c-1,0.5-2,0.8-3.1,0.8c-1.4,0-2.6-0.5-3.4-1.4c-0.9-0.9-1.3-2.1-1.3-3.5c0-1.4,0.5-2.6,1.4-3.5c0.9-0.9,2-1.3,3.3-1.3
		c0.8,0,1.4,0.1,1.9,0.3c0.5,0.2,1,0.4,1.4,0.7c0.2,0.1,0.3,0.2,0.3,0.4c0,0.2,0,0.3-0.1,0.4c-0.1,0.1-0.2,0.2-0.4,0.2
		c-0.1,0-0.3,0-0.3-0.1c-0.9-0.5-1.8-0.8-2.7-0.8c-1,0-1.9,0.3-2.6,0.9c-0.7,0.7-1,1.6-1,2.7c0,1.1,0.3,1.9,1,2.6
		C67.4,67.3,68.3,67.7,69.4,67.7z"/>
	<path d="M63.2,22.7c0.1,0.1,0.1,0.3,0.1,0.4c0,0.2-0.1,0.3-0.2,0.4c-0.1,0.1-0.3,0.2-0.5,0.2c-0.2,0-0.3-0.1-0.5-0.2L58.8,19
		l-1.5,1.6v2.5c0,0.2-0.1,0.3-0.2,0.4c-0.1,0.1-0.3,0.2-0.4,0.2c-0.2,0-0.3-0.1-0.4-0.2c-0.1-0.1-0.2-0.3-0.2-0.4v-8.3
		c0-0.2,0.1-0.3,0.2-0.4c0.1-0.1,0.3-0.2,0.4-0.2c0.2,0,0.3,0.1,0.4,0.2c0.1,0.1,0.2,0.3,0.2,0.4v4.3l4.6-4.7
		c0.1-0.1,0.3-0.2,0.4-0.2c0.2,0,0.3,0.1,0.4,0.2c0.1,0.1,0.2,0.2,0.2,0.4c0,0.2,0,0.3-0.1,0.4l-3.1,3.1L63.2,22.7z"/>
	<path d="M69.4,22.6c0.8,0,1.6-0.2,2.4-0.6v-2.4h-2.2c-0.2,0-0.3-0.1-0.4-0.2C69.1,19.3,69,19.2,69,19c0-0.2,0.1-0.3,0.2-0.4
		c0.1-0.1,0.2-0.2,0.4-0.2h2.7c0.2,0,0.3,0.1,0.5,0.2c0.1,0.1,0.2,0.3,0.2,0.5v3.1c0,0.2,0,0.4-0.1,0.5c-0.1,0.1-0.2,0.3-0.4,0.3
		c-1,0.5-2,0.8-3.1,0.8c-1.4,0-2.6-0.5-3.4-1.4c-0.9-0.9-1.3-2.1-1.3-3.5c0-1.4,0.5-2.6,1.4-3.5c0.9-0.9,2-1.3,3.3-1.3
		c0.8,0,1.4,0.1,1.9,0.3c0.5,0.2,1,0.4,1.4,0.7c0.2,0.1,0.3,0.2,0.3,0.4c0,0.2,0,0.3-0.1,0.4c-0.1,0.1-0.2,0.2-0.4,0.2
		c-0.1,0-0.3,0-0.3-0.1c-0.9-0.5-1.8-0.8-2.7-0.8c-1,0-1.9,0.3-2.6,0.9c-0.7,0.7-1,1.6-1,2.7c0,1.1,0.3,1.9,1,2.6
		C67.4,22.3,68.3,22.6,69.4,22.6z"/>
	<circle class="st5" cx="116.4" cy="24.7" r="3"/>
	<circle class="st2" cx="6.1" cy="55.8" r="1.4"/>
	<circle class="st1" cx="106.7" cy="73.4" r="3.1"/>
	<path class="st0" d="M106.7,77.3c-2.1,0-3.9-1.7-3.9-3.9c0-2.1,1.7-3.9,3.9-3.9c2.1,0,3.9,1.7,3.9,3.9
		C110.6,75.6,108.8,77.3,106.7,77.3z M106.7,71c-1.3,0-2.4,1.1-2.4,2.4c0,1.3,1.1,2.4,2.4,2.4c1.3,0,2.4-1.1,2.4-2.4
		C109.1,72.1,108,71,106.7,71z"/>
</g>
</svg>
