<?xml version="1.0" encoding="utf-8"?>
<!-- Generator: Adobe Illustrator 21.1.0, SVG Export Plug-In . SVG Version: 6.00 Build 0)  -->
<svg version="1.1" id="Layer_1" xmlns="http://www.w3.org/2000/svg" xmlns:xlink="http://www.w3.org/1999/xlink" x="0px" y="0px"
	 viewBox="0 0 128.8 126.5" style="enable-background:new 0 0 128.8 126.5;" xml:space="preserve">
<style type="text/css">
	.st0{fill:#FFFFFF;}
	.st1{fill:#231F20;}
	.st2{fill:#08B2A0;}
	.st3{fill:#FFD05B;}
	.st4{fill:#FF7058;}
	.st5{fill:#84DBFF;}
	.st6{fill:#E6E9EE;}
</style>
<g>
	<g>
		<path class="st0" d="M41.5,7.9l-4.7-2.1l-0.2,0.3c-1,1.8-3,2.8-5.1,2.6c-0.4,0-0.8,0-1.2,0c-2.1,0-4-1.1-4.9-2.9l-0.1-0.3
			l-4.8,1.8l0.1,0.3c0.6,2-0.2,4.1-1.7,5.5c-0.3,0.3-0.6,0.5-0.9,0.8c-1.5,1.5-3.6,2.1-5.5,1.4l-0.3-0.1L10,19.9l0.3,0.2
			c1.8,1,2.8,3,2.6,5.1c0,0.4,0,0.8,0,1.2c0,2.1-1.1,4-2.9,4.9l-0.3,0.1l1.8,4.8l0.3-0.1c2-0.6,4.1,0.2,5.5,1.7
			c0.3,0.3,0.5,0.6,0.8,0.9c1.5,1.5,2.1,3.6,1.4,5.5l-0.1,0.3l4.7,2.1l0.2-0.3c1-1.8,3-2.8,5.1-2.6c0.4,0,0.8,0,1.2,0
			c2.1,0,4,1.1,4.9,2.9l0.1,0.3l4.8-1.8l-0.1-0.3c-0.6-2,0.2-4.1,1.7-5.5c0.3-0.3,0.6-0.5,0.9-0.8c1.5-1.5,3.6-2.1,5.5-1.4l0.3,0.1
			l2.1-4.7l-0.3-0.2c-1.8-1-2.8-3-2.6-5.1c0-0.4,0-0.8,0-1.2c0-2.1,1.1-4,2.9-4.9l0.3-0.1l-1.8-4.8L49,16.4c-2,0.6-4.1-0.2-5.5-1.7
			c-0.3-0.3-0.5-0.6-0.8-0.9c-1.5-1.5-2.1-3.6-1.4-5.5L41.5,7.9z"/>
		<path class="st1" d="M35.6,47.8c-0.3,0-0.5-0.2-0.7-0.4l-0.1-0.3c-0.8-1.6-2.4-2.5-4.2-2.5c0,0,0,0,0,0c-0.5,0-0.9,0-1.3,0
			c-1.8-0.1-3.5,0.8-4.4,2.3l-0.2,0.3c-0.2,0.3-0.6,0.5-1,0.3l-4.7-2.1c-0.4-0.2-0.5-0.6-0.4-0.9l0.1-0.3c0.6-1.7,0.1-3.5-1.2-4.8
			c-0.3-0.3-0.6-0.6-0.9-0.9c-1.2-1.4-3-2-4.7-1.5l-0.3,0.1c-0.4,0.1-0.8-0.1-0.9-0.5l-1.8-4.8c-0.1-0.4,0-0.8,0.4-0.9l0.3-0.1
			c1.6-0.8,2.5-2.4,2.5-4.2c0-0.4,0-0.8,0-1.3c0.1-1.8-0.8-3.5-2.3-4.4l-0.3-0.2c-0.3-0.2-0.5-0.6-0.3-1l2.1-4.7
			c0.2-0.4,0.6-0.5,0.9-0.4l0.3,0.1c1.6,0.6,3.5,0.1,4.8-1.2c0.3-0.3,0.6-0.6,0.9-0.9c1.4-1.2,2-3,1.5-4.7l-0.1-0.3
			c-0.1-0.4,0.1-0.8,0.5-0.9L25,4.8c0.4-0.1,0.8,0,0.9,0.4l0.1,0.3C26.8,7,28.5,8,30.3,8h0.1c0.4,0,0.8,0,1.2,0
			c1.8,0.1,3.5-0.8,4.4-2.3l0.2-0.3c0.2-0.3,0.6-0.5,1-0.3l4.7,2.1c0.4,0.2,0.5,0.6,0.4,0.9l-0.1,0.3c-0.6,1.7-0.1,3.5,1.2,4.8
			c0.3,0.3,0.6,0.6,0.9,0.9c1.2,1.4,3,2,4.7,1.5l0.3-0.1c0.4-0.1,0.8,0.1,0.9,0.5l1.8,4.8c0.1,0.4,0,0.8-0.4,0.9l-0.3,0.1
			c-1.6,0.8-2.5,2.4-2.5,4.2c0,0.4,0,0.8,0,1.3c-0.1,1.8,0.8,3.5,2.3,4.4l0.3,0.2c0.3,0.2,0.5,0.6,0.3,1l-2.1,4.7
			c-0.2,0.4-0.6,0.5-0.9,0.4l-0.3-0.1c-1.6-0.5-3.5-0.1-4.8,1.2c-0.3,0.3-0.6,0.6-0.9,0.9c-1.4,1.2-2,3-1.5,4.7l0.1,0.3
			c0.1,0.4-0.1,0.8-0.5,0.9l-4.8,1.8C35.7,47.8,35.6,47.8,35.6,47.8z M28.9,43c0.1,0,0.3,0,0.4,0c0.4,0,0.7,0,1.1,0
			c2.4,0,4.4,1.2,5.5,3l3.6-1.4c-0.5-2.1,0.3-4.4,2-5.9c0.3-0.3,0.6-0.5,0.8-0.8c1.6-1.6,3.9-2.2,6-1.7l1.6-3.5
			c-1.8-1.2-2.9-3.3-2.7-5.6c0-0.4,0-0.8,0-1.2c0-2.3,1.1-4.3,3-5.4l-1.4-3.6c-2.1,0.5-4.4-0.3-5.9-2c-0.3-0.3-0.5-0.6-0.8-0.8
			c-1.6-1.6-2.3-3.9-1.7-6l-3.5-1.6c-1.2,1.8-3.3,2.9-5.6,2.7c-0.4,0-0.7,0-1.1,0l-0.1-0.8v0.8c-2.3,0-4.3-1.2-5.4-3l-3.6,1.4
			c0.5,2.1-0.3,4.4-2,5.9c-0.3,0.3-0.6,0.5-0.8,0.8c-1.6,1.6-3.9,2.2-6,1.7l-1.6,3.5c1.8,1.2,2.9,3.3,2.7,5.6c0,0.4,0,0.8,0,1.2
			c0,2.3-1.1,4.3-3,5.4l1.4,3.6c2.1-0.5,4.4,0.3,5.9,2c0.3,0.3,0.5,0.6,0.8,0.8c1.6,1.6,2.3,3.9,1.7,6l3.5,1.6
			C24.9,44,26.8,43,28.9,43z"/>
	</g>
	<g>
		<path class="st1" d="M30.4,40.3c-0.3,0-0.5,0-0.8,0l0.1-1.5c0.2,0,0.5,0,0.7,0l0.2,0l0,1.5L30.4,40.3
			C30.4,40.3,30.4,40.3,30.4,40.3z M32.7,40.1l-0.2-1.5c0.3-0.1,0.6-0.1,0.9-0.2l0.4,1.5C33.4,40,33.1,40.1,32.7,40.1z M27.5,40
			c-0.3-0.1-0.7-0.2-1-0.3l0.4-1.4c0.3,0.1,0.6,0.2,0.9,0.2L27.5,40z M35.8,39.3l-0.6-1.4c0.3-0.1,0.6-0.3,0.9-0.4l0.7,1.3
			C36.4,39,36.1,39.1,35.8,39.3z M24.5,39c-0.3-0.1-0.6-0.3-0.9-0.5l0.7-1.3c0.3,0.2,0.6,0.3,0.8,0.4L24.5,39z M38.5,37.7l-0.9-1.2
			c0.3-0.2,0.5-0.4,0.7-0.6l1,1.2C39.1,37.3,38.8,37.5,38.5,37.7z M21.8,37.4c-0.3-0.2-0.5-0.4-0.8-0.7l1-1.1
			c0.2,0.2,0.5,0.4,0.7,0.6L21.8,37.4z M40.9,35.6l-1.1-1c0.2-0.2,0.4-0.5,0.6-0.7l1.2,0.9C41.4,35.1,41.1,35.4,40.9,35.6z
			 M19.5,35.2c-0.2-0.3-0.4-0.6-0.6-0.8l1.2-0.9c0.2,0.3,0.4,0.5,0.6,0.8L19.5,35.2z M42.7,33l-1.3-0.7c0.2-0.3,0.3-0.6,0.4-0.8
			l1.4,0.6C43.1,32.4,42.9,32.7,42.7,33z M17.8,32.5c-0.2-0.3-0.3-0.6-0.4-1l1.4-0.6c0.1,0.3,0.2,0.6,0.4,0.9L17.8,32.5z M43.9,30.1
			l-1.4-0.4c0.1-0.3,0.2-0.6,0.2-0.9l1.5,0.3C44.1,29.4,44,29.8,43.9,30.1z M16.7,29.5c-0.1-0.3-0.2-0.7-0.2-1l1.5-0.2
			c0,0.3,0.1,0.6,0.2,0.9L16.7,29.5z M44.5,27L43,26.9c0-0.2,0-0.4,0-0.7l0-0.3l1.5,0l0,0.3C44.5,26.5,44.5,26.8,44.5,27z
			 M16.3,26.4l0-0.1c0-0.3,0-0.6,0-0.9l1.5,0.1c0,0.3,0,0.5,0,0.8l0,0.1L16.3,26.4z M42.8,24.1c-0.1-0.3-0.1-0.6-0.2-0.9l1.5-0.4
			c0.1,0.3,0.2,0.7,0.2,1L42.8,24.1z M18.1,23.6l-1.5-0.3c0.1-0.3,0.2-0.7,0.3-1l1.4,0.4C18.3,23,18.2,23.3,18.1,23.6z M42,21.4
			c-0.1-0.3-0.3-0.6-0.4-0.9l1.3-0.7c0.2,0.3,0.3,0.6,0.4,1L42,21.4z M19.1,20.9l-1.4-0.6c0.2-0.3,0.3-0.6,0.5-0.9l1.3,0.7
			C19.3,20.3,19.2,20.6,19.1,20.9z M40.6,18.9c-0.2-0.3-0.4-0.5-0.6-0.7l1.1-1c0.2,0.3,0.4,0.5,0.6,0.8L40.6,18.9z M20.5,18.5
			l-1.2-0.9c0.2-0.3,0.4-0.5,0.7-0.8l1.1,1C20.9,18,20.7,18.2,20.5,18.5z M38.7,16.8c-0.2-0.2-0.5-0.4-0.7-0.6l0.9-1.2
			c0.3,0.2,0.6,0.4,0.8,0.7L38.7,16.8z M22.5,16.5l-0.9-1.2c0.3-0.2,0.6-0.4,0.8-0.6l0.8,1.2C23,16.1,22.8,16.3,22.5,16.5z
			 M36.4,15.2c-0.3-0.1-0.6-0.3-0.8-0.4l0.6-1.4c0.3,0.1,0.6,0.3,0.9,0.5L36.4,15.2z M24.9,15l-0.7-1.3c0.3-0.2,0.6-0.3,1-0.4
			l0.6,1.4C25.5,14.7,25.2,14.8,24.9,15z M34.1,14.2c-0.3-0.1-0.6-0.2-0.9-0.2l0.3-1.5c0.3,0.1,0.7,0.2,1,0.3L34.1,14.2z M27.6,14
			l-0.3-1.5c0.3-0.1,0.7-0.1,1-0.2l0.2,1.5C28.2,13.9,27.9,13.9,27.6,14z M31.3,13.7c-0.3,0-0.6,0-0.9,0l0-1.5h0c0.3,0,0.7,0,1,0
			L31.3,13.7z"/>
	</g>
	<g>
		
			<ellipse transform="matrix(0.4094 -0.9123 0.9123 0.4094 -5.9949 43.2506)" class="st2" cx="30.4" cy="26.3" rx="10.6" ry="10.6"/>
	</g>
	<g>
		<ellipse transform="matrix(0.4094 -0.9123 0.9123 0.4094 -5.995 43.2505)" class="st0" cx="30.4" cy="26.3" rx="5.3" ry="5.3"/>
		<path class="st1" d="M30.4,32.3c-0.9,0-1.7-0.2-2.5-0.5c-3-1.4-4.4-4.9-3-8c1-2.2,3.1-3.6,5.5-3.6c0.9,0,1.7,0.2,2.5,0.5
			c3,1.4,4.4,4.9,3,8C34.9,30.9,32.8,32.3,30.4,32.3z M30.4,21.7c-1.8,0-3.4,1.1-4.1,2.7c-1,2.3,0,5,2.3,6c0.6,0.3,1.2,0.4,1.9,0.4
			c1.8,0,3.4-1.1,4.1-2.7c1-2.3,0-5-2.3-6C31.7,21.9,31.1,21.7,30.4,21.7z"/>
	</g>
	<g>
		<path class="st0" d="M115.4,71.8l-3.2-1.4l-0.1,0.2c-0.7,1.2-2,1.9-3.4,1.8c-0.3,0-0.5,0-0.8,0c-1.4,0-2.7-0.7-3.3-2l-0.1-0.2
			l-3.3,1.2l0.1,0.2c0.4,1.4-0.1,2.8-1.2,3.7c-0.2,0.2-0.4,0.4-0.6,0.6c-1,1-2.4,1.4-3.8,0.9l-0.2-0.1l-1.4,3.2l0.2,0.1
			c1.2,0.7,1.9,2,1.8,3.4c0,0.3,0,0.5,0,0.8c0,1.4-0.7,2.7-2,3.3l-0.2,0.1l1.2,3.3l0.2-0.1c1.4-0.4,2.8,0.1,3.7,1.2
			c0.2,0.2,0.4,0.4,0.6,0.6c1,1,1.4,2.4,0.9,3.8l-0.1,0.2l3.2,1.4l0.1-0.2c0.7-1.2,2-1.9,3.4-1.8c0.3,0,0.5,0,0.8,0
			c1.4,0,2.7,0.7,3.3,2l0.1,0.2l3.3-1.2l-0.1-0.2c-0.4-1.4,0.1-2.8,1.2-3.7c0.2-0.2,0.4-0.4,0.6-0.6c1-1,2.4-1.4,3.8-0.9l0.2,0.1
			l1.4-3.2l-0.2-0.1c-1.2-0.7-1.9-2-1.8-3.4c0-0.3,0-0.5,0-0.8c0-1.4,0.7-2.7,2-3.3l0.2-0.1l-1.2-3.3l-0.2,0.1
			c-1.4,0.4-2.8-0.1-3.7-1.2c-0.2-0.2-0.4-0.4-0.6-0.6c-1-1-1.4-2.4-0.9-3.8L115.4,71.8z"/>
		<path class="st1" d="M111.4,99c-0.3,0-0.5-0.2-0.7-0.4l-0.1-0.2c-0.5-1-1.5-1.6-2.6-1.6c-0.4,0-0.6,0-0.9,0
			c-1.2-0.1-2.2,0.5-2.7,1.4l-0.1,0.2c-0.2,0.3-0.6,0.5-1,0.3l-3.2-1.4c-0.4-0.2-0.5-0.6-0.4-0.9l0.1-0.2c0.4-1,0.1-2.2-0.8-3
			c-0.2-0.2-0.4-0.4-0.6-0.6c-0.8-0.9-1.9-1.2-2.9-0.9l-0.2,0.1c-0.4,0.1-0.8-0.1-0.9-0.5L93.1,88c-0.1-0.4,0-0.8,0.4-0.9l0.2-0.1
			c1-0.5,1.6-1.5,1.6-2.6c0-0.3,0-0.6,0-0.9c0.1-1.1-0.5-2.2-1.4-2.7l-0.2-0.1c-0.3-0.2-0.5-0.6-0.3-1l1.4-3.2
			c0.2-0.4,0.6-0.5,0.9-0.4l0.2,0.1c1,0.3,2.2,0,3-0.8c0.2-0.2,0.4-0.4,0.6-0.6c0.9-0.8,1.2-1.9,0.9-2.9l-0.1-0.2
			c-0.1-0.4,0.1-0.8,0.5-0.9l3.3-1.2c0.4-0.1,0.8,0,0.9,0.4l0.1,0.2c0.5,1,1.5,1.6,2.6,1.6c0.4,0,0.6,0,0.9,0
			c1.2,0.1,2.2-0.5,2.7-1.4l0.1-0.2c0.2-0.3,0.6-0.5,1-0.3l3.2,1.4c0.4,0.2,0.5,0.6,0.4,0.9l-0.1,0.2c-0.4,1-0.1,2.2,0.8,3
			c0.2,0.2,0.4,0.4,0.6,0.6c0.8,0.9,1.9,1.2,2.9,0.9l0.2-0.1c0.4-0.1,0.8,0.1,0.9,0.5l1.2,3.3c0.1,0.4,0,0.8-0.4,0.9l-0.2,0.1
			c-1,0.5-1.6,1.5-1.6,2.7c0,0.3,0,0.6,0,0.9c-0.1,1.1,0.5,2.2,1.4,2.7l0.2,0.1c0.3,0.2,0.5,0.6,0.3,1L121,92
			c-0.2,0.4-0.6,0.5-0.9,0.4l-0.2-0.1c-1-0.3-2.2,0-3,0.8c-0.2,0.2-0.4,0.4-0.6,0.6c-0.9,0.8-1.2,1.9-0.9,2.9l0.1,0.2
			c0.1,0.4-0.1,0.8-0.5,0.9l-3.3,1.2C111.6,99,111.5,99,111.4,99z M106.9,95.3c0.1,0,0.2,0,0.3,0c0.2,0,0.5,0,0.7,0
			c1.6,0,3,0.8,3.8,2l2-0.8c-0.2-1.5,0.3-3,1.5-4c0.2-0.2,0.4-0.3,0.6-0.5c1.1-1.1,2.6-1.6,4.1-1.2l0.9-2c-1.2-0.9-1.9-2.3-1.8-3.9
			c0-0.3,0-0.5,0-0.8c0-1.6,0.7-3,2-3.8l-0.8-2c-1.5,0.2-3-0.3-4-1.5c-0.2-0.2-0.3-0.4-0.5-0.6c-1.1-1.1-1.6-2.6-1.2-4.1l-2-0.9
			c-0.9,1.2-2.3,1.9-3.9,1.8c-0.2,0-0.5,0-0.7,0h0c-1.6,0-3.1-0.8-3.8-2l-2,0.8c0.2,1.5-0.3,3-1.5,4c-0.2,0.2-0.4,0.3-0.6,0.5
			c-1.1,1.1-2.6,1.6-4.1,1.2l-0.9,2c1.2,0.9,1.9,2.3,1.8,3.9c0,0.3,0,0.5,0,0.8c0,1.6-0.7,3-2,3.8l0.8,2c1.5-0.2,3,0.3,4,1.5
			c0.2,0.2,0.3,0.4,0.5,0.6c1.1,1.1,1.6,2.6,1.2,4.1l2,0.9C104.1,96,105.4,95.3,106.9,95.3z"/>
	</g>
	<g>
		<path class="st1" d="M107.9,94c-0.2,0-0.4,0-0.5,0l0.1-1.5c0.3,0,0.6,0,0.9,0l0.1,1.5C108.3,94,108.1,94,107.9,94z M110.6,93.6
			l-0.4-1.4c0.3-0.1,0.6-0.2,0.9-0.3l0.6,1.4C111.3,93.4,110.9,93.5,110.6,93.6z M105.2,93.6c-0.3-0.1-0.7-0.2-1-0.4l0.6-1.4
			c0.3,0.1,0.6,0.2,0.9,0.3L105.2,93.6z M113.5,92.2l-0.9-1.2c0.2-0.2,0.5-0.4,0.7-0.6l1,1.1C114.1,91.8,113.8,92,113.5,92.2z
			 M102.3,92.2c-0.3-0.2-0.6-0.4-0.9-0.7l1-1.1c0.2,0.2,0.5,0.4,0.7,0.6L102.3,92.2z M115.8,90l-1.2-0.9c0.2-0.2,0.3-0.5,0.5-0.8
			l1.3,0.7C116.2,89.4,116,89.7,115.8,90z M100,90c-0.2-0.3-0.4-0.6-0.6-0.9l1.3-0.7c0.2,0.3,0.3,0.5,0.5,0.8L100,90z M117.2,87.1
			l-1.4-0.4c0.1-0.3,0.2-0.6,0.2-0.9l1.5,0.3C117.4,86.4,117.3,86.7,117.2,87.1z M98.6,87.1c-0.1-0.3-0.2-0.7-0.3-1.1l1.5-0.3
			c0.1,0.3,0.1,0.6,0.2,0.9L98.6,87.1z M116.1,83.9c0-0.3,0-0.6-0.1-0.9l1.5-0.2c0.1,0.4,0.1,0.7,0.1,1.1L116.1,83.9z M99.6,83.9
			l-1.5-0.1c0-0.4,0-0.7,0.1-1.1l1.5,0.2C99.7,83.3,99.7,83.6,99.6,83.9z M115.6,81.2c-0.1-0.3-0.2-0.6-0.4-0.8l1.3-0.7
			c0.2,0.3,0.3,0.6,0.4,1L115.6,81.2z M100.2,81.2l-1.4-0.5c0.1-0.1,0.1-0.3,0.2-0.4c0.1-0.2,0.2-0.4,0.3-0.5l1.3,0.7
			c-0.1,0.2-0.2,0.3-0.2,0.5C100.3,81,100.3,81.1,100.2,81.2z M114.2,78.9c-0.2-0.2-0.4-0.5-0.6-0.7l1-1.1c0.3,0.2,0.5,0.5,0.7,0.8
			L114.2,78.9z M101.6,78.9l-1.1-1c0.2-0.3,0.5-0.5,0.7-0.8l1,1.1C102,78.4,101.8,78.6,101.6,78.9z M112.1,77.1
			c-0.3-0.2-0.5-0.3-0.8-0.4l0.6-1.4c0.3,0.1,0.7,0.3,1,0.5L112.1,77.1z M103.7,77.1l-0.8-1.3c0.3-0.2,0.6-0.3,1-0.5l0.6,1.4
			C104.2,76.8,104,77,103.7,77.1z M109.9,76.2c-0.3-0.1-0.6-0.1-0.9-0.2l0.2-1.5c0.4,0,0.7,0.1,1.1,0.2L109.9,76.2z M106.3,76.1
			l-0.3-1.5c0.4-0.1,0.7-0.1,1.1-0.2l0.1,1.5C106.9,76,106.6,76.1,106.3,76.1z"/>
	</g>
	<g>
		
			<ellipse transform="matrix(0.4094 -0.9123 0.9123 0.4094 -13.1264 148.1825)" class="st3" cx="107.9" cy="84.2" rx="7.1" ry="7.1"/>
	</g>
	<g>
		
			<ellipse transform="matrix(0.4094 -0.9123 0.9123 0.4094 -13.1265 148.1821)" class="st0" cx="107.9" cy="84.2" rx="3.6" ry="3.6"/>
		<path class="st1" d="M107.9,88.6c-0.6,0-1.2-0.1-1.8-0.4c-1.1-0.5-1.9-1.3-2.3-2.4c-0.4-1.1-0.4-2.3,0.1-3.3
			c0.7-1.6,2.2-2.6,3.9-2.6c0.6,0,1.2,0.1,1.8,0.4c1.1,0.5,1.9,1.3,2.3,2.4c0.4,1.1,0.4,2.3-0.1,3.3
			C111.1,87.6,109.6,88.6,107.9,88.6z M107.9,81.4c-1.1,0-2.1,0.7-2.6,1.7c-0.3,0.7-0.3,1.5-0.1,2.2c0.3,0.7,0.8,1.3,1.5,1.6
			c1.4,0.6,3.1,0,3.7-1.4c0.3-0.7,0.3-1.5,0.1-2.2c-0.3-0.7-0.8-1.3-1.5-1.6C108.7,81.5,108.3,81.4,107.9,81.4z"/>
	</g>
	<path class="st0" d="M8.8,70.7v32.8l9.1,0V70.7c0-2.5-2-4.6-4.6-4.6l0,0C10.8,66.1,8.8,68.2,8.8,70.7z"/>
	<path class="st0" d="M17.9,79.1v-8.4c0-2.5-2-4.6-4.6-4.6l0,0c-2.5,0-4.6,2-4.6,4.6v8.4L17.9,79.1z"/>
	<polygon class="st0" points="17.9,103.5 13.3,114.6 8.8,103.5 	"/>
	<path class="st1" d="M13.3,65.4c-2.9,0-5.3,2.4-5.3,5.3v32.8c0,0.1,0,0.2,0.1,0.3c0,0,0,0,0,0l4.6,11.1c0.1,0.3,0.4,0.5,0.7,0.5
		s0.6-0.2,0.7-0.5l4.6-11.1c0,0,0,0,0,0c0-0.1,0.1-0.2,0.1-0.3V70.7C18.6,67.8,16.3,65.4,13.3,65.4z M9.5,70.7c0-1,0.4-2,1.1-2.7
		c0.7-0.7,1.7-1.1,2.7-1.1c2.1,0,3.8,1.7,3.8,3.8v7.6H9.5V70.7z M12.6,79.8v22.9l-3.1,0V79.8H12.6z M13.3,112.6l-3.4-8.4l3.4,0
		l3.4,0L13.3,112.6z M17.1,102.7l-3.1,0V79.8h3.1V102.7z"/>
	<polyline class="st0" points="106.9,126.2 99.8,108.9 79.1,102.5 76,98 64.6,102.2 53.1,98 50.1,102.5 29.4,108.9 21.1,126.2 	"/>
	<g>
		<path class="st1" d="M125.7,38.7H75.9V6.2h49.8V38.7z M77.4,37.2h46.8V7.7H77.4V37.2z"/>
	</g>
	<g>
		
			<rect x="87.2" y="0.3" transform="matrix(-1.836970e-16 1 -1 -1.836970e-16 123.2099 -78.2997)" class="st2" width="27" height="44.3"/>
	</g>
	<g>
		<path class="st1" d="M125.7,7.7H75.9V0h49.8V7.7z M77.4,6.2h46.8V1.5H77.4V6.2z"/>
	</g>
	<g>
		<rect x="120.5" y="3.1" class="st1" width="2" height="1.5"/>
	</g>
	<g>
		<rect x="116.3" y="3.1" class="st1" width="2" height="1.5"/>
	</g>
	<g>
		<rect x="112" y="3.1" class="st1" width="2" height="1.5"/>
	</g>
	<g>
		<circle class="st3" cx="2.5" cy="47" r="2.5"/>
	</g>
	<g>
		<circle class="st2" cx="120.5" cy="52.2" r="2.5"/>
	</g>
	<g>
		<circle class="st4" cx="31.8" cy="79.1" r="2.5"/>
	</g>
	<g>
		<circle class="st5" cx="66.5" cy="26.3" r="2.5"/>
	</g>
	<g>
		<circle class="st6" cx="64" cy="112.1" r="2.5"/>
	</g>
	<g>
		<circle class="st6" cx="64" cy="120.4" r="2.5"/>
	</g>
	<g>
		<g>
			<path class="st1" d="M28.8,59.2h-8.1c-0.4,0-0.8-0.3-0.8-0.8c0-0.4,0.3-0.8,0.8-0.8h8.1c0.4,0,0.8,0.3,0.8,0.8
				C29.6,58.9,29.3,59.2,28.8,59.2z"/>
		</g>
		<g>
			<path class="st1" d="M21.5,56.3h-4c-0.4,0-0.8-0.3-0.8-0.8c0-0.4,0.3-0.8,0.8-0.8h4c0.4,0,0.8,0.3,0.8,0.8
				C22.3,55.9,21.9,56.3,21.5,56.3z"/>
		</g>
		<g>
			<path class="st1" d="M17.1,59.2h-3.8c-0.4,0-0.8-0.3-0.8-0.8c0-0.4,0.3-0.8,0.8-0.8h3.8c0.4,0,0.8,0.3,0.8,0.8
				C17.8,58.9,17.5,59.2,17.1,59.2z"/>
		</g>
		<g>
			<path class="st1" d="M25.2,56.3h-0.8c-0.4,0-0.8-0.3-0.8-0.8c0-0.4,0.3-0.8,0.8-0.8h0.8c0.4,0,0.8,0.3,0.8,0.8
				C25.9,55.9,25.6,56.3,25.2,56.3z"/>
		</g>
	</g>
	<g>
		<g>
			<path class="st1" d="M63.4,8.3c-0.2,0-0.4-0.1-0.5-0.2c-0.3-0.3-0.3-0.8,0-1.1l1.3-1.3c0.3-0.3,0.8-0.3,1.1,0
				c0.3,0.3,0.3,0.8,0,1.1L64,8.1C63.8,8.2,63.6,8.3,63.4,8.3z"/>
		</g>
		<g>
			<path class="st1" d="M59.4,12.3c-0.2,0-0.4-0.1-0.5-0.2c-0.3-0.3-0.3-0.8,0-1.1l1.3-1.3c0.3-0.3,0.8-0.3,1.1,0
				c0.3,0.3,0.3,0.8,0,1.1l-1.3,1.3C59.8,12.3,59.6,12.3,59.4,12.3z"/>
		</g>
		<g>
			<path class="st1" d="M64.7,12.3c-0.2,0-0.4-0.1-0.5-0.2l-1.3-1.3c-0.3-0.3-0.3-0.8,0-1.1c0.3-0.3,0.8-0.3,1.1,0l1.3,1.3
				c0.3,0.3,0.3,0.8,0,1.1C65.1,12.3,64.9,12.3,64.7,12.3z"/>
		</g>
		<g>
			<path class="st1" d="M60.7,8.3c-0.2,0-0.4-0.1-0.5-0.2l-1.3-1.3c-0.3-0.3-0.3-0.8,0-1.1c0.3-0.3,0.8-0.3,1.1,0L61.2,7
				c0.3,0.3,0.3,0.8,0,1.1C61.1,8.2,60.9,8.3,60.7,8.3z"/>
		</g>
	</g>
	<g>
		<g>
			<path class="st1" d="M100.3,52.9c-0.2,0-0.4-0.1-0.5-0.2c-0.3-0.3-0.3-0.8,0-1.1l1.3-1.3c0.3-0.3,0.8-0.3,1.1,0
				c0.3,0.3,0.3,0.8,0,1.1l-1.3,1.3C100.6,52.9,100.5,52.9,100.3,52.9z"/>
		</g>
		<g>
			<path class="st1" d="M96.2,57c-0.2,0-0.4-0.1-0.5-0.2c-0.3-0.3-0.3-0.8,0-1.1l1.3-1.3c0.3-0.3,0.8-0.3,1.1,0
				c0.3,0.3,0.3,0.8,0,1.1l-1.3,1.3C96.6,56.9,96.4,57,96.2,57z"/>
		</g>
		<g>
			<path class="st1" d="M101.5,57c-0.2,0-0.4-0.1-0.5-0.2l-1.3-1.3c-0.3-0.3-0.3-0.8,0-1.1s0.8-0.3,1.1,0l1.3,1.3
				c0.3,0.3,0.3,0.8,0,1.1C101.9,56.9,101.7,57,101.5,57z"/>
		</g>
		<g>
			<path class="st1" d="M97.5,52.9c-0.2,0-0.4-0.1-0.5-0.2l-1.3-1.3c-0.3-0.3-0.3-0.8,0-1.1s0.8-0.3,1.1,0l1.3,1.3
				c0.3,0.3,0.3,0.8,0,1.1C97.9,52.9,97.7,52.9,97.5,52.9z"/>
		</g>
	</g>
	<g>
		<g>
			<path class="st1" d="M31.8,95.9c-0.2,0-0.4-0.1-0.5-0.2c-0.3-0.3-0.3-0.8,0-1.1l1.3-1.3c0.3-0.3,0.8-0.3,1.1,0
				c0.3,0.3,0.3,0.8,0,1.1l-1.3,1.3C32.2,95.9,32,95.9,31.8,95.9z"/>
		</g>
		<g>
			<path class="st1" d="M27.8,100c-0.2,0-0.4-0.1-0.5-0.2c-0.3-0.3-0.3-0.8,0-1.1l1.3-1.3c0.3-0.3,0.8-0.3,1.1,0
				c0.3,0.3,0.3,0.8,0,1.1l-1.3,1.3C28.1,99.9,27.9,100,27.8,100z"/>
		</g>
		<g>
			<path class="st1" d="M33.1,100c-0.2,0-0.4-0.1-0.5-0.2l-1.3-1.3c-0.3-0.3-0.3-0.8,0-1.1c0.3-0.3,0.8-0.3,1.1,0l1.3,1.3
				c0.3,0.3,0.3,0.8,0,1.1C33.5,99.9,33.3,100,33.1,100z"/>
		</g>
		<g>
			<path class="st1" d="M29,95.9c-0.2,0-0.4-0.1-0.5-0.2l-1.3-1.3c-0.3-0.3-0.3-0.8,0-1.1c0.3-0.3,0.8-0.3,1.1,0l1.3,1.3
				c0.3,0.3,0.3,0.8,0,1.1C29.4,95.9,29.2,95.9,29,95.9z"/>
		</g>
	</g>
	<g>
		<path class="st1" d="M124.6,118.7c-2.3,0-4.1-1.8-4.1-4.1c0-2.3,1.8-4.1,4.1-4.1c2.3,0,4.1,1.8,4.1,4.1
			C128.8,116.9,126.9,118.7,124.6,118.7z M124.6,112c-1.4,0-2.6,1.2-2.6,2.6c0,1.4,1.2,2.6,2.6,2.6c1.4,0,2.6-1.2,2.6-2.6
			C127.2,113.1,126.1,112,124.6,112z"/>
	</g>
	<polygon class="st5" points="79.1,64.8 67.1,64.8 68.4,70.9 77.8,70.9 	"/>
	<polygon class="st5" points="62.1,64.8 50.1,64.8 51.4,70.9 60.8,70.9 	"/>
	<path class="st1" d="M100.3,108.3l-20.8-6.4l-3.2-4.8L76,97.3v-8.5c2.6-2.9,4.9-6.7,6.6-11.3c1.7-0.8,3.3-2.3,4.4-4.4
		c0.9-1.8,1.4-3.7,1.3-5.4c-0.1-1.8-0.9-3.2-2.2-3.9c-0.2-0.1-0.5-0.2-0.8-0.3c0-0.2,0-0.3,0-0.5c0-16.2-10.7-22-20.7-22
		s-20.7,5.8-20.7,22c0,0.2,0,0.3,0,0.5c-0.3,0.1-0.5,0.2-0.8,0.3c-1.3,0.7-2.1,2.1-2.2,3.9c-0.1,1.7,0.3,3.6,1.3,5.4
		c1.1,2.1,2.7,3.6,4.4,4.4c1.9,5.1,4.5,9.3,7.5,12.2v7.9l-1.3-0.5l-3.2,4.8l-20.7,6.4l-8.5,17.5l1.4,0.7l8.2-17l20.6-6.4l2.9-4.2
		l11.2,4l11.2-4l2.9,4.2l20.6,6.4l7,16.9l1.4-0.6L100.3,108.3z M64.6,42.5c9.3,0,19.2,5.4,19.2,20.5c0,0.1,0,0.3,0,0.4L79,64.1H50.2
		l-4.7-0.6c0-0.1,0-0.3,0-0.4C45.4,47.9,55.3,42.5,64.6,42.5z M78.2,65.6l-1,4.6H69l-1-4.6H78.2z M61.1,65.6l-1,4.6H52l-1-4.6H61.1z
		 M74.5,90.3v7.5l-9.9,3.6l-9-3.2v-7l0-0.1c2.8,2.3,5.9,3.6,9,3.6C68,94.6,71.4,93,74.5,90.3L74.5,90.3z M64.6,93.1
		c-6.5,0-13.1-6.5-16.7-16.5l-0.1-0.3l-0.3-0.1c-1.5-0.6-2.9-2-3.9-3.8c-0.8-1.5-1.2-3.2-1.1-4.6c0.1-1.3,0.6-2.2,1.4-2.7
		c0.2-0.1,0.5-0.2,0.8-0.2l4.8,0.6l1.3,6.1h10.6l1.3-6.1h3.9l1.3,6.1h10.6l1.3-6.1l4.8-0.6c0.3,0,0.6,0.1,0.8,0.2
		c0.8,0.4,1.3,1.4,1.4,2.7c0.1,1.4-0.3,3.1-1.1,4.6c-1,1.8-2.4,3.3-3.9,3.8l-0.3,0.1l-0.1,0.3C77.7,86.7,71.1,93.1,64.6,93.1z"/>
	<g>
		<g>
			<path d="M96.2,26.7c0,0.2-0.1,0.3-0.2,0.4c-0.1,0.1-0.3,0.2-0.4,0.2c-0.1,0-0.3,0-0.3,0l-6.5-2.9c-0.4-0.2-0.6-0.5-0.6-0.9v-0.1
				c0-0.4,0.2-0.7,0.6-0.9l6.5-2.9c0.1,0,0.2,0,0.3,0c0.1,0,0.3,0.1,0.4,0.2c0.1,0.1,0.2,0.3,0.2,0.4c0,0.3-0.1,0.5-0.4,0.7
				l-5.9,2.6l5.9,2.6c0.1,0.1,0.2,0.1,0.3,0.3C96.2,26.4,96.2,26.6,96.2,26.7z"/>
		</g>
		<g>
			<path d="M102.3,16.2c0.1-0.3,0.3-0.5,0.7-0.5c0.2,0,0.3,0.1,0.5,0.2c0.1,0.1,0.2,0.3,0.2,0.4c0,0.2,0,0.3,0,0.4l-4.3,12.7
				c-0.1,0.3-0.3,0.5-0.6,0.5c-0.2,0-0.4-0.1-0.5-0.2c-0.1-0.1-0.2-0.3-0.2-0.4c0-0.2,0-0.3,0-0.3L102.3,16.2z"/>
		</g>
		<g>
			<path d="M106.2,27.3c-0.1,0-0.2,0-0.3,0s-0.3-0.1-0.4-0.2c-0.1-0.1-0.2-0.3-0.2-0.4c0-0.3,0.1-0.5,0.4-0.7l5.9-2.6l-5.9-2.6
				c-0.1-0.1-0.2-0.1-0.3-0.3c-0.1-0.1-0.1-0.3-0.1-0.4c0-0.2,0.1-0.3,0.2-0.4c0.1-0.1,0.3-0.2,0.4-0.2s0.2,0,0.3,0l6.5,2.9
				c0.4,0.2,0.6,0.5,0.6,0.9v0.1c0,0.4-0.2,0.7-0.6,0.9L106.2,27.3z"/>
		</g>
	</g>
</g>
</svg>
