<?xml version="1.0" encoding="utf-8"?>
<!-- Generator: Adobe Illustrator 21.1.0, SVG Export Plug-In . SVG Version: 6.00 Build 0)  -->
<svg version="1.1" id="Layer_1" xmlns="http://www.w3.org/2000/svg" xmlns:xlink="http://www.w3.org/1999/xlink" x="0px" y="0px"
	 viewBox="0 0 22.1 6.6" style="enable-background:new 0 0 22.1 6.6;" xml:space="preserve">
<style type="text/css">
	.st0{fill:#48B0DB;}
</style>
<path class="st0" d="M21.6,2.8H1.9l1.9-1.9C4,0.7,4,0.3,3.9,0.1S3.3,0,3.1,0.1L0.4,2.9c0,0,0,0,0,0L0,3.3l0.4,0.4c0,0,0,0,0,0
	l2.8,2.8c0.1,0.1,0.2,0.1,0.4,0.1s0.3,0,0.4-0.1C4,6.2,4,5.9,3.9,5.7L1.9,3.8h19.7c0.3,0,0.5-0.2,0.5-0.5S21.9,2.8,21.6,2.8z"/>
</svg>
