<?xml version="1.0" encoding="utf-8"?>
<!-- Generator: Adobe Illustrator 21.1.0, SVG Export Plug-In . SVG Version: 6.00 Build 0)  -->
<svg version="1.1" id="Layer_1" xmlns="http://www.w3.org/2000/svg" xmlns:xlink="http://www.w3.org/1999/xlink" x="0px" y="0px"
	 viewBox="0 0 129.5 128" style="enable-background:new 0 0 129.5 128;" xml:space="preserve">
<style type="text/css">
	.st0{fill:#FFFFFF;}
	.st1{fill:#9ED9CF;}
	.st2{fill:#231F20;}
	.st3{fill:#FFD05B;}
	.st4{fill:#84DBFF;}
	.st5{fill:#E6E9EE;}
	.st6{fill:#FF7058;}
</style>
<g>
	<rect x="19.3" y="98.6" class="st0" width="32.7" height="8.3"/>
	<polyline class="st1" points="15.4,128 15.4,106.8 55.8,106.8 55.8,128 	"/>
	<g>
		<circle class="st0" cx="22.3" cy="114.6" r="2.7"/>
		<path class="st2" d="M22.3,118.1c-1.9,0-3.5-1.6-3.5-3.5s1.6-3.5,3.5-3.5c1.9,0,3.5,1.6,3.5,3.5S24.3,118.1,22.3,118.1z
			 M22.3,112.6c-1.1,0-2,0.9-2,2c0,1.1,0.9,2,2,2c1.1,0,2-0.9,2-2C24.3,113.5,23.4,112.6,22.3,112.6z"/>
	</g>
	<path class="st2" d="M14.6,56.8c-0.4,0-0.8-0.3-0.8-0.8v-0.9c0-0.4,0.3-0.8,0.8-0.8c0.4,0,0.8,0.3,0.8,0.8V56
		C15.3,56.4,15,56.8,14.6,56.8z"/>
	<path class="st2" d="M11,62.5c-0.4,0-0.8-0.3-0.8-0.8v-1.1c0-0.4,0.3-0.8,0.8-0.8c0.4,0,0.8,0.3,0.8,0.8v1.1
		C11.8,62.2,11.4,62.5,11,62.5z"/>
	<path class="st2" d="M7.2,65.9c-0.4,0-0.8-0.3-0.8-0.8v-1.4c0-0.4,0.3-0.8,0.8-0.8C7.6,63,8,63.3,8,63.7v1.4
		C8,65.5,7.6,65.9,7.2,65.9z"/>
	<path class="st2" d="M114.9,57.8c-0.4,0-0.8-0.3-0.8-0.8v-1.9c0-0.4,0.3-0.8,0.8-0.8c0.4,0,0.8,0.3,0.8,0.8V57
		C115.7,57.4,115.3,57.8,114.9,57.8z"/>
	<path class="st2" d="M118.5,62.5c-0.4,0-0.8-0.3-0.8-0.8v-1.1c0-0.4,0.3-0.8,0.8-0.8s0.8,0.3,0.8,0.8v1.1
		C119.2,62.2,118.9,62.5,118.5,62.5z"/>
	<path class="st2" d="M122.3,65.9c-0.4,0-0.8-0.3-0.8-0.8v-1.4c0-0.4,0.3-0.8,0.8-0.8c0.4,0,0.8,0.3,0.8,0.8v1.4
		C123,65.5,122.7,65.9,122.3,65.9z"/>
	<rect x="77.6" y="98.6" class="st0" width="32.7" height="8.3"/>
	<polyline class="st1" points="114.1,128 114.1,106.8 73.7,106.8 73.7,128 	"/>
	<g>
		<circle class="st0" cx="107.2" cy="114.6" r="2.7"/>
		<path class="st2" d="M107.2,118.1c-1.9,0-3.5-1.6-3.5-3.5s1.6-3.5,3.5-3.5c1.9,0,3.5,1.6,3.5,3.5S109.1,118.1,107.2,118.1z
			 M107.2,112.6c-1.1,0-2,0.9-2,2c0,1.1,0.9,2,2,2c1.1,0,2-0.9,2-2C109.2,113.5,108.3,112.6,107.2,112.6z"/>
	</g>
	<g>
		<g>
			<path class="st2" d="M104.1,8.1c-0.2,0-0.4-0.1-0.5-0.2c-0.3-0.3-0.3-0.8,0-1.1l1.3-1.3c0.3-0.3,0.8-0.3,1.1,0
				c0.3,0.3,0.3,0.8,0,1.1l-1.3,1.3C104.5,8,104.3,8.1,104.1,8.1z"/>
		</g>
		<g>
			<path class="st2" d="M100.1,12.1c-0.2,0-0.4-0.1-0.5-0.2c-0.3-0.3-0.3-0.8,0-1.1l1.3-1.3c0.3-0.3,0.8-0.3,1.1,0
				c0.3,0.3,0.3,0.8,0,1.1l-1.3,1.3C100.5,12,100.3,12.1,100.1,12.1z"/>
		</g>
		<g>
			<path class="st2" d="M105.4,12.1c-0.2,0-0.4-0.1-0.5-0.2l-1.3-1.3c-0.3-0.3-0.3-0.8,0-1.1c0.3-0.3,0.8-0.3,1.1,0l1.3,1.3
				c0.3,0.3,0.3,0.8,0,1.1C105.8,12,105.6,12.1,105.4,12.1z"/>
		</g>
		<g>
			<path class="st2" d="M101.4,8.1c-0.2,0-0.4-0.1-0.5-0.2l-1.3-1.3c-0.3-0.3-0.3-0.8,0-1.1c0.3-0.3,0.8-0.3,1.1,0l1.3,1.3
				c0.3,0.3,0.3,0.8,0,1.1C101.7,8,101.5,8.1,101.4,8.1z"/>
		</g>
	</g>
	<g>
		<g>
			<path class="st2" d="M27.9,19.1c-0.2,0-0.4-0.1-0.5-0.2c-0.3-0.3-0.3-0.8,0-1.1l1.3-1.3c0.3-0.3,0.8-0.3,1.1,0
				c0.3,0.3,0.3,0.8,0,1.1l-1.3,1.3C28.3,19,28.1,19.1,27.9,19.1z"/>
		</g>
		<g>
			<path class="st2" d="M23.9,23.1c-0.2,0-0.4-0.1-0.5-0.2c-0.3-0.3-0.3-0.8,0-1.1l1.3-1.3c0.3-0.3,0.8-0.3,1.1,0
				c0.3,0.3,0.3,0.8,0,1.1l-1.3,1.3C24.3,23,24.1,23.1,23.9,23.1z"/>
		</g>
		<g>
			<path class="st2" d="M29.2,23.1c-0.2,0-0.4-0.1-0.5-0.2l-1.3-1.3c-0.3-0.3-0.3-0.8,0-1.1c0.3-0.3,0.8-0.3,1.1,0l1.3,1.3
				c0.3,0.3,0.3,0.8,0,1.1C29.6,23,29.4,23.1,29.2,23.1z"/>
		</g>
		<g>
			<path class="st2" d="M25.2,19.1c-0.2,0-0.4-0.1-0.5-0.2l-1.3-1.3c-0.3-0.3-0.3-0.8,0-1.1c0.3-0.3,0.8-0.3,1.1,0l1.3,1.3
				c0.3,0.3,0.3,0.8,0,1.1C25.6,19,25.4,19.1,25.2,19.1z"/>
		</g>
	</g>
	<g>
		<circle class="st3" cx="64.8" cy="23.4" r="23.4"/>
	</g>
	<g>
		<path class="st2" d="M47.5,23.4H46c0-0.3,0-0.7,0-1l1.5,0.1C47.5,22.7,47.5,23,47.5,23.4z M47.7,20.5l-1.5-0.2
			c0.1-0.3,0.1-0.7,0.2-1l1.5,0.3C47.8,19.9,47.8,20.2,47.7,20.5z M48.4,17.7L47,17.2c0.1-0.3,0.2-0.7,0.4-1l1.4,0.6
			C48.7,17.1,48.5,17.4,48.4,17.7z M49.6,15.1l-1.3-0.7c0.2-0.3,0.3-0.6,0.5-0.9l1.3,0.8C49.9,14.5,49.8,14.8,49.6,15.1z M51.2,12.7
			L50,11.8c0.2-0.3,0.4-0.5,0.7-0.8l1.1,1C51.6,12.2,51.4,12.4,51.2,12.7z M53.1,10.6l-1-1.1c0.3-0.2,0.5-0.5,0.8-0.7l0.9,1.2
			C53.6,10.2,53.4,10.4,53.1,10.6z M55.4,8.8l-0.8-1.3c0.3-0.2,0.6-0.4,0.9-0.5l0.7,1.3C56,8.5,55.7,8.7,55.4,8.8z M58,7.5l-0.6-1.4
			c0.3-0.1,0.6-0.3,1-0.4l0.5,1.4C58.5,7.2,58.3,7.4,58,7.5z M60.7,6.6l-0.4-1.5C60.7,5,61,5,61.3,4.9l0.3,1.5
			C61.3,6.4,61,6.5,60.7,6.6z M63.5,6.1l-0.1-1.5c0.3,0,0.7,0,1,0l0,1.5C64.2,6.1,63.8,6.1,63.5,6.1z"/>
	</g>
	<g>
		<path class="st2" d="M64.8,42.1c-9.8,0-18-7.7-18.7-17.5l1.5-0.1c0.6,9,8.2,16.1,17.2,16.1c9.5,0,17.3-7.7,17.3-17.3
			c0-9.1-7.1-16.6-16.1-17.2L66,4.6c9.8,0.6,17.5,8.9,17.5,18.7C83.5,33.7,75.1,42.1,64.8,42.1z"/>
	</g>
	<g>
		<path class="st2" d="M69.1,32.6h-8.8c-1.9,0-3.5-1.6-3.5-3.5c0-0.4,0.3-0.8,0.8-0.8c0.4,0,0.8,0.3,0.8,0.8c0,1.1,0.9,2,2,2h8.8
			c1.1,0,2-0.9,2-2v-3c0-1.1-0.9-2-2-2h-8.8c-1.9,0-3.5-1.6-3.5-3.5v-3c0-1.9,1.6-3.5,3.5-3.5h8.8c1.9,0,3.5,1.6,3.5,3.5
			c0,0.4-0.3,0.8-0.8,0.8s-0.8-0.3-0.8-0.8c0-1.1-0.9-2-2-2h-8.8c-1.1,0-2,0.9-2,2v3c0,1.1,0.9,2,2,2h8.8c1.9,0,3.5,1.6,3.5,3.5v3
			C72.7,31,71.1,32.6,69.1,32.6z"/>
	</g>
	<g>
		<path class="st2" d="M64.8,35c-0.4,0-0.8-0.3-0.8-0.8V12.5c0-0.4,0.3-0.8,0.8-0.8c0.4,0,0.8,0.3,0.8,0.8v21.7
			C65.5,34.6,65.2,35,64.8,35z"/>
	</g>
	<g>
		<circle class="st4" cx="93.7" cy="41.4" r="3.6"/>
	</g>
	<g>
		<circle class="st5" cx="123" cy="4.7" r="2.9"/>
	</g>
	<g>
		<circle class="st6" cx="34.8" cy="37.2" r="2.6"/>
	</g>
	<rect x="33.5" y="60.6" class="st0" width="62.4" height="29.6"/>
	<path class="st2" d="M128.8,40.8c-0.9,0-1.7,0.2-2.5,0.5v-6.4c0-0.4-0.3-0.8-0.8-0.8c-1,0-1.9,0.2-2.8,0.5v-4.1
		c0-0.4-0.3-0.8-0.8-0.8c-1,0-1.9,0.2-2.8,0.5v-2.6c0-0.4-0.3-0.8-0.8-0.8c-4.3,0-7.8,3.5-7.8,7.8v19.6c0,1.2-0.4,2.4-1,3.4
		c-0.6,1-1.6,1.8-2.6,2.3l-10.3,4.7v-4.2c0-0.4-0.3-0.8-0.8-0.8H91v-3.1c0-4.5-3.6-8.1-8.1-8.1c-0.4,0-0.8,0.3-0.8,0.8v10.4H47.3
		V49.5c0-0.4-0.3-0.8-0.8-0.8c-4.5,0-8.1,3.6-8.1,8.1v3.1h-4.9c-0.4,0-0.8,0.3-0.8,0.8v4.2l-10.3-4.7c-1.1-0.5-2-1.3-2.6-2.3
		c-0.7-1-1-2.2-1-3.4V34.8c0-4.3-3.5-7.8-7.8-7.8c-0.4,0-0.8,0.3-0.8,0.8v2.6c-0.9-0.3-1.8-0.5-2.8-0.5c-0.4,0-0.8,0.3-0.8,0.8v4.1
		C5.9,34.4,5,34.2,4,34.2c-0.4,0-0.8,0.3-0.8,0.8v6.4c-0.8-0.3-1.6-0.5-2.5-0.5c-0.4,0-0.8,0.3-0.8,0.8v26c0,4.9,2.7,9.4,7,11.8
		l11.8,6.4c3.4,1.9,5.6,5.5,5.6,9.4v2.6h-5.1c-0.4,0-0.8,0.3-0.8,0.8v7.5h-3.1c-0.4,0-0.8,0.3-0.8,0.8V128h1.5v-20.4H55V128h1.5
		v-21.2c0-0.4-0.3-0.8-0.8-0.8h-3.1v-7.5c0-0.4-0.3-0.8-0.8-0.8h-4.6V91h34.8v6.8h-4.6c-0.4,0-0.8,0.3-0.8,0.8v7.5h-3.1
		c-0.4,0-0.8,0.3-0.8,0.8V128h1.5v-20.4h38.9V128h1.5v-21.2c0-0.4-0.3-0.8-0.8-0.8H111v-7.5c0-0.4-0.3-0.8-0.8-0.8h-5.1v-2.6
		c0-3.9,2.1-7.5,5.6-9.4l11.8-6.4c4.3-2.3,7-6.9,7-11.8v-26C129.5,41.2,129.2,40.8,128.8,40.8z M83.7,50.3c3.3,0.4,5.9,3.2,5.9,6.6
		v3.1h-5.9V50.3z M40,56.8c0-3.4,2.6-6.2,5.9-6.6v9.6H40V56.8z M51.2,106.1H20v-6.8h31.2V106.1z M25.8,97.8v-2.6
		c0-4.5-2.4-8.6-6.4-10.7L7.7,78.1C3.9,76,1.5,72,1.5,67.6V42.4c2.8,0.4,5,3,5,6.2v12.7c0,0.4,0.3,0.8,0.8,0.8C7.6,62,8,61.7,8,61.3
		V48.6c0-2.7-1.3-5-3.2-6.4v-6.4c1.4,0.2,2.7,0.8,3.7,1.8c1.2,1.2,1.8,2.7,1.8,4.4v16c0,0.4,0.3,0.8,0.8,0.8c0.4,0,0.8-0.3,0.8-0.8
		v-16c0-2.1-0.8-4-2.3-5.5c-0.4-0.4-0.8-0.7-1.2-1v-4.1c3.1,0.4,5.5,3,5.5,6.2v15.1c0,0.4,0.3,0.8,0.8,0.8c0.4,0,0.8-0.3,0.8-0.8
		V37.6c0-2.7-1.4-5.1-3.5-6.5v-2.6c3.1,0.4,5.5,3,5.5,6.2v19.6c0,1.5,0.4,3,1.3,4.2c0.8,1.2,1.9,2.2,3.3,2.8l10.9,5v23.8
		c0,0.4,0.3,0.8,0.8,0.8h12.3v6.8H25.8z M34.3,89.5V61.4h60.9v28.1H34.3z M109.5,106.1H78.3v-6.8h31.2V106.1z M128,67.6
		c0,4.4-2.4,8.4-6.2,10.5L110,84.5c-3.9,2.1-6.4,6.2-6.4,10.7v2.6h-20V91H96c0.4,0,0.8-0.3,0.8-0.8V66.5l10.9-5
		c1.3-0.6,2.5-1.6,3.3-2.8c0.8-1.3,1.3-2.7,1.3-4.2V34.8c0-3.2,2.4-5.8,5.5-6.2v2.6c-2.1,1.4-3.5,3.8-3.5,6.5v15.1
		c0,0.4,0.3,0.8,0.8,0.8c0.4,0,0.8-0.3,0.8-0.8V37.6c0-3.2,2.4-5.8,5.5-6.2v4.1c-0.4,0.3-0.8,0.6-1.2,1c-1.5,1.5-2.3,3.4-2.3,5.5v16
		c0,0.4,0.3,0.8,0.8,0.8s0.8-0.3,0.8-0.8v-16c0-1.7,0.7-3.3,1.8-4.4c1-1,2.3-1.6,3.7-1.8v6.4c-1.9,1.4-3.2,3.7-3.2,6.4v12.7
		c0,0.4,0.3,0.8,0.8,0.8c0.4,0,0.8-0.3,0.8-0.8V48.6c0-3.2,2.2-5.8,5-6.2V67.6z"/>
	<g>
		<path class="st1" d="M36.5,81.2V69.6c3.3,0,6-2.7,6-6H87c0,3.3,2.7,6,6,6v11.6c-3.3,0-6,2.7-6,6H42.5
			C42.5,83.9,39.9,81.2,36.5,81.2z"/>
	</g>
	<g>
		<circle class="st0" cx="64.7" cy="75.4" r="9"/>
		<path class="st2" d="M64.8,85.2c-5.4,0-9.8-4.4-9.8-9.8c0-5.4,4.4-9.8,9.8-9.8c5.4,0,9.8,4.4,9.8,9.8
			C74.5,80.8,70.2,85.2,64.8,85.2z M64.8,67.1c-4.6,0-8.3,3.7-8.3,8.3c0,4.6,3.7,8.3,8.3,8.3c4.6,0,8.3-3.7,8.3-8.3
			C73,70.9,69.3,67.1,64.8,67.1z"/>
	</g>
	<g>
		<g>
			<circle class="st0" cx="82.2" cy="75.4" r="3.3"/>
			<path class="st2" d="M82.2,79.5c-2.2,0-4-1.8-4-4c0-2.2,1.8-4,4-4c2.2,0,4,1.8,4,4C86.2,77.7,84.4,79.5,82.2,79.5z M82.2,72.9
				c-1.4,0-2.5,1.1-2.5,2.5c0,1.4,1.1,2.5,2.5,2.5c1.4,0,2.5-1.1,2.5-2.5C84.7,74.1,83.5,72.9,82.2,72.9z"/>
		</g>
		<g>
			<circle class="st0" cx="47.3" cy="75.4" r="3.3"/>
			<path class="st2" d="M47.3,79.5c-2.2,0-4-1.8-4-4c0-2.2,1.8-4,4-4c2.2,0,4,1.8,4,4C51.4,77.7,49.6,79.5,47.3,79.5z M47.3,72.9
				c-1.4,0-2.5,1.1-2.5,2.5S46,78,47.3,78c1.4,0,2.5-1.1,2.5-2.5S48.7,72.9,47.3,72.9z"/>
		</g>
	</g>
</g>
</svg>
