<?xml version="1.0" encoding="utf-8"?>
<!-- Generator: Adobe Illustrator 21.1.0, SVG Export Plug-In . SVG Version: 6.00 Build 0)  -->
<svg version="1.1" id="Layer_1" xmlns="http://www.w3.org/2000/svg" xmlns:xlink="http://www.w3.org/1999/xlink" x="0px" y="0px"
	 viewBox="0 0 128 128" style="enable-background:new 0 0 128 128;" xml:space="preserve">
<style type="text/css">
	.st0{fill:#231F20;}
	.st1{fill:#9ED9CF;}
	.st2{fill:#FF7058;}
	.st3{fill:#FFD05B;}
	.st4{fill:#FFFFFF;stroke:#231F20;stroke-width:1.5;stroke-miterlimit:10;}
	.st5{fill:#FFFFFF;}
</style>
<g>
	<g>
		<path class="st0" d="M16.2,18.5c-0.2,0-0.4-0.1-0.5-0.2c-0.3-0.3-0.3-0.8,0-1.1l1.3-1.3c0.3-0.3,0.8-0.3,1.1,0
			c0.3,0.3,0.3,0.8,0,1.1l-1.3,1.3C16.6,18.4,16.4,18.5,16.2,18.5z"/>
	</g>
	<g>
		<path class="st0" d="M12.2,22.5c-0.2,0-0.4-0.1-0.5-0.2c-0.3-0.3-0.3-0.8,0-1.1l1.3-1.3c0.3-0.3,0.8-0.3,1.1,0
			c0.3,0.3,0.3,0.8,0,1.1l-1.3,1.3C12.6,22.5,12.4,22.5,12.2,22.5z"/>
	</g>
	<g>
		<path class="st0" d="M17.5,22.5c-0.2,0-0.4-0.1-0.5-0.2L15.7,21c-0.3-0.3-0.3-0.8,0-1.1c0.3-0.3,0.8-0.3,1.1,0l1.3,1.3
			c0.3,0.3,0.3,0.8,0,1.1C17.9,22.5,17.7,22.5,17.5,22.5z"/>
	</g>
	<g>
		<path class="st0" d="M13.5,18.5c-0.2,0-0.4-0.1-0.5-0.2L11.6,17c-0.3-0.3-0.3-0.8,0-1.1c0.3-0.3,0.8-0.3,1.1,0l1.3,1.3
			c0.3,0.3,0.3,0.8,0,1.1C13.8,18.4,13.6,18.5,13.5,18.5z"/>
	</g>
	<g>
		<circle class="st1" cx="30.6" cy="2.5" r="2.5"/>
	</g>
	<g>
		<path class="st0" d="M117,4.7c-0.2,0-0.4-0.1-0.5-0.2c-0.3-0.3-0.3-0.8,0-1.1l1.3-1.3c0.3-0.3,0.8-0.3,1.1,0
			c0.3,0.3,0.3,0.8,0,1.1l-1.3,1.3C117.4,4.6,117.2,4.7,117,4.7z"/>
	</g>
	<g>
		<path class="st0" d="M113,8.7c-0.2,0-0.4-0.1-0.5-0.2c-0.3-0.3-0.3-0.8,0-1.1l1.3-1.3c0.3-0.3,0.8-0.3,1.1,0
			c0.3,0.3,0.3,0.8,0,1.1l-1.3,1.3C113.4,8.7,113.2,8.7,113,8.7z"/>
	</g>
	<g>
		<path class="st0" d="M118.3,8.7c-0.2,0-0.4-0.1-0.5-0.2l-1.3-1.3c-0.3-0.3-0.3-0.8,0-1.1c0.3-0.3,0.8-0.3,1.1,0l1.3,1.3
			c0.3,0.3,0.3,0.8,0,1.1C118.7,8.7,118.5,8.7,118.3,8.7z"/>
	</g>
	<g>
		<path class="st0" d="M114.3,4.7c-0.2,0-0.4-0.1-0.5-0.2l-1.3-1.3c-0.3-0.3-0.3-0.8,0-1.1c0.3-0.3,0.8-0.3,1.1,0l1.3,1.3
			c0.3,0.3,0.3,0.8,0,1.1C114.7,4.6,114.5,4.7,114.3,4.7z"/>
	</g>
	<g>
		<circle class="st1" cx="125.5" cy="28.9" r="2.5"/>
	</g>
	<g>
		<circle class="st2" cx="2.1" cy="111.4" r="2.1"/>
	</g>
	<g>
		<circle class="st3" cx="16.9" cy="57" r="16.9"/>
	</g>
	<g>
		<path class="st0" d="M4.9,57H3.4c0-0.4,0-0.7,0-1.1L5,56C4.9,56.4,4.9,56.7,4.9,57z M5.3,54.2l-1.5-0.3c0.1-0.3,0.2-0.7,0.3-1
			l1.4,0.5C5.4,53.6,5.3,53.9,5.3,54.2z M6.2,51.5l-1.3-0.7c0.2-0.3,0.3-0.6,0.5-0.9l1.3,0.8C6.5,51,6.4,51.3,6.2,51.5z M7.8,49.2
			l-1.1-1c0.2-0.3,0.5-0.5,0.7-0.8l1.1,1.1C8.2,48.7,8,49,7.8,49.2z M9.9,47.3L9,46.1c0.3-0.2,0.6-0.4,0.9-0.6l0.8,1.3
			C10.4,46.9,10.1,47.1,9.9,47.3z M12.3,45.9l-0.6-1.4c0.3-0.1,0.7-0.3,1-0.4l0.5,1.4C12.9,45.7,12.6,45.8,12.3,45.9z M15,45.1
			l-0.2-1.5c0.3-0.1,0.7-0.1,1.1-0.1L16,45C15.6,45.1,15.3,45.1,15,45.1z"/>
	</g>
	<g>
		<path class="st4" d="M35.3,66.3"/>
	</g>
	<rect x="16.9" y="60.6" class="st5" width="100.3" height="53.7"/>
	<path class="st0" d="M30.1,59.8c0.2-0.9,0.3-1.9,0.3-2.8c0-7.4-6.1-13.5-13.5-13.5V45c6.6,0,12,5.4,12,12c0,1-0.1,1.9-0.4,2.8h-5.2
		v-0.6c0-1.6-1.3-3-3-3h-2.7V51h2.7c0.8,0,1.5,0.7,1.5,1.5c0,0.4,0.3,0.8,0.8,0.8c0.4,0,0.8-0.3,0.8-0.8c0-1.6-1.3-3-3-3h-2.7v-1.1
		c0-0.4-0.3-0.8-0.8-0.8c-0.4,0-0.8,0.3-0.8,0.8v1.1h-2.7c-1.6,0-3,1.3-3,3v2.4c0,1.6,1.3,3,3,3h2.7v2.1V63h-2.7
		c-0.8,0-1.5-0.7-1.5-1.5c0-0.4-0.3-0.8-0.8-0.8c-0.4,0-0.8,0.3-0.8,0.8c0,1.6,1.3,3,3,3h2.7v4.4C9.9,68.6,4.9,63.3,4.9,57H3.4
		c0,7.2,5.7,13.1,12.7,13.5V115H118V59.8H30.1z M13.4,56.2c-0.8,0-1.5-0.7-1.5-1.5v-2.4c0-0.8,0.7-1.5,1.5-1.5h2.7v5.3H13.4z
		 M17.7,57.7h2.7c0.8,0,1.5,0.7,1.5,1.5v0.6h-4.2V57.7z M116.5,113.5H17.7V61.3h98.8V113.5z"/>
	<g>
		<path class="st1" d="M22.6,96.2V78.7c6.8,0,12.4-5.5,12.4-12.4h64.1c0,6.8,5.5,12.4,12.4,12.4v17.5c-6.8,0-12.4,5.5-12.4,12.4H35
			C35,101.7,29.5,96.2,22.6,96.2z"/>
	</g>
	<g>
		<path class="st0" d="M22.6,79.7v-1.5c6.6,0,11.9-5.3,11.9-11.9H36C36,73.7,30,79.7,22.6,79.7z"/>
	</g>
	<g>
		<path class="st0" d="M111.5,79.7c-7.4,0-13.4-6-13.4-13.4h1.5c0,6.6,5.3,11.9,11.9,11.9V79.7z"/>
	</g>
	<g>
		<path class="st0" d="M36,108.5h-1.5c0-6.6-5.3-11.9-11.9-11.9v-1.5C30,95.1,36,101.2,36,108.5z"/>
	</g>
	<g>
		<path class="st0" d="M99.6,108.5h-1.5c0-7.4,6-13.4,13.4-13.4v1.5C105,96.6,99.6,102,99.6,108.5z"/>
	</g>
	<g>
		<circle class="st5" cx="67.1" cy="87.4" r="15.7"/>
	</g>
	<g>
		<path class="st0" d="M71.4,96.6h-8.7c-1.9,0-3.5-1.6-3.5-3.5c0-0.4,0.3-0.8,0.8-0.8c0.4,0,0.8,0.3,0.8,0.8c0,1.1,0.9,2,2,2h8.7
			c1.1,0,2-0.9,2-2v-2.9c0-1.1-0.9-2-2-2h-8.7c-1.9,0-3.5-1.6-3.5-3.5v-2.9c0-1.9,1.6-3.5,3.5-3.5h8.7c1.9,0,3.5,1.6,3.5,3.5
			c0,0.4-0.3,0.8-0.8,0.8s-0.8-0.3-0.8-0.8c0-1.1-0.9-2-2-2h-8.7c-1.1,0-2,0.9-2,2v2.9c0,1.1,0.9,2,2,2h8.7c1.9,0,3.5,1.6,3.5,3.5
			v2.9C74.9,95,73.3,96.6,71.4,96.6z"/>
	</g>
	<g>
		<path class="st0" d="M67.1,98.9c-0.4,0-0.8-0.3-0.8-0.8V76.7c0-0.4,0.3-0.8,0.8-0.8c0.4,0,0.8,0.3,0.8,0.8v21.4
			C67.8,98.5,67.5,98.9,67.1,98.9z"/>
	</g>
	<g>
		<circle class="st5" cx="92.7" cy="87.4" r="3.4"/>
		<path class="st0" d="M92.7,91.6c-2.3,0-4.1-1.9-4.1-4.1c0-2.3,1.9-4.1,4.1-4.1c2.3,0,4.1,1.9,4.1,4.1
			C96.8,89.7,94.9,91.6,92.7,91.6z M92.7,84.8c-1.5,0-2.6,1.2-2.6,2.6c0,1.5,1.2,2.6,2.6,2.6s2.6-1.2,2.6-2.6
			C95.3,86,94.1,84.8,92.7,84.8z"/>
	</g>
	<g>
		<circle class="st5" cx="41.5" cy="87.4" r="3.4"/>
		<path class="st0" d="M41.5,91.6c-2.3,0-4.1-1.9-4.1-4.1c0-2.3,1.9-4.1,4.1-4.1c2.3,0,4.1,1.9,4.1,4.1
			C45.7,89.7,43.8,91.6,41.5,91.6z M41.5,84.8c-1.5,0-2.6,1.2-2.6,2.6c0,1.5,1.2,2.6,2.6,2.6c1.5,0,2.6-1.2,2.6-2.6
			C44.2,86,43,84.8,41.5,84.8z"/>
	</g>
	<g>
		<circle class="st3" cx="109.7" cy="109.7" r="18.3"/>
	</g>
	<g>
		<path class="st0" d="M109.7,124.2c-8,0-14.6-6.5-14.6-14.6h1.5c0,7.2,5.9,13.1,13.1,13.1c7.2,0,13.1-5.9,13.1-13.1
			c0-7.2-5.9-13.1-13.1-13.1v-1.5c8,0,14.6,6.5,14.6,14.6S117.7,124.2,109.7,124.2z"/>
	</g>
	<g>
		<path class="st0" d="M96.6,109.7h-1.5c0-0.4,0-0.7,0-1.1l1.5,0.1C96.6,109,96.6,109.3,96.6,109.7z M96.9,106.9l-1.5-0.3
			c0.1-0.3,0.2-0.7,0.3-1l1.4,0.4C97.1,106.2,97,106.5,96.9,106.9z M97.8,104.2l-1.4-0.6c0.1-0.3,0.3-0.6,0.5-0.9l1.3,0.7
			C98.1,103.6,98,103.9,97.8,104.2z M99.3,101.7l-1.2-0.9c0.2-0.3,0.4-0.6,0.7-0.8l1.1,1C99.7,101.3,99.5,101.5,99.3,101.7z
			 M101.2,99.7l-1-1.1c0.3-0.2,0.5-0.4,0.8-0.6l0.9,1.2C101.7,99.3,101.5,99.5,101.2,99.7z M103.6,98.1l-0.7-1.3
			c0.3-0.2,0.6-0.3,0.9-0.5l0.6,1.4C104.2,97.8,103.9,98,103.6,98.1z M106.2,97.1l-0.4-1.4c0.3-0.1,0.7-0.2,1-0.2l0.3,1.5
			C106.8,96.9,106.5,97,106.2,97.1z M109,96.6l-0.1-1.5c0.2,0,0.5,0,0.7,0v1.5C109.4,96.6,109.2,96.6,109,96.6z"/>
	</g>
	<g>
		<path class="st0" d="M113.5,117.7h-7.6c-1.7,0-3.1-1.4-3.1-3.1c0-0.4,0.3-0.8,0.8-0.8s0.8,0.3,0.8,0.8c0,0.9,0.7,1.6,1.6,1.6h7.6
			c0.9,0,1.6-0.7,1.6-1.6v-2.5c0-0.9-0.7-1.6-1.6-1.6h-7.6c-1.7,0-3.1-1.4-3.1-3.1v-2.5c0-1.7,1.4-3.1,3.1-3.1h7.6
			c1.7,0,3.1,1.4,3.1,3.1c0,0.4-0.3,0.8-0.8,0.8c-0.4,0-0.8-0.3-0.8-0.8c0-0.9-0.7-1.6-1.6-1.6h-7.6c-0.9,0-1.6,0.7-1.6,1.6v2.5
			c0,0.9,0.7,1.6,1.6,1.6h7.6c1.7,0,3.1,1.4,3.1,3.1v2.5C116.6,116.3,115.2,117.7,113.5,117.7z"/>
	</g>
	<g>
		<path class="st0" d="M109.7,119.8c-0.4,0-0.8-0.3-0.8-0.8v-18.7c0-0.4,0.3-0.8,0.8-0.8c0.4,0,0.8,0.3,0.8,0.8V119
			C110.4,119.4,110.1,119.8,109.7,119.8z"/>
	</g>
	<g>
		<rect x="75.3" y="6.3" class="st0" width="1.5" height="1"/>
		<rect x="75.3" y="9.3" class="st0" width="1.5" height="1"/>
		<rect x="75.3" y="12.3" class="st0" width="1.5" height="1"/>
		<rect x="75.3" y="3.3" class="st0" width="1.5" height="1"/>
		<rect x="75.3" y="0.3" class="st0" width="1.5" height="1"/>
		<rect x="75.3" y="24.3" class="st0" width="1.5" height="1"/>
		<rect x="75.3" y="27.3" class="st0" width="1.5" height="1"/>
		<rect x="75.3" y="21.3" class="st0" width="1.5" height="1"/>
		<rect x="75.3" y="18.3" class="st0" width="1.5" height="1"/>
		<rect x="75.3" y="15.3" class="st0" width="1.5" height="1"/>
		<polygon class="st0" points="76.8,36.9 76.8,30.3 75.3,30.3 75.3,38.4 81.4,38.4 66.2,53.7 50.9,38.4 57,38.4 57,0 55.5,0 
			55.5,36.9 47.3,36.9 66.2,55.8 85,36.9 		"/>
	</g>
	<g>
		<rect x="110.5" y="20.1" class="st0" width="1.5" height="1"/>
		<rect x="110.5" y="23.1" class="st0" width="1.5" height="1"/>
		<rect x="110.5" y="26.1" class="st0" width="1.5" height="1"/>
		<rect x="110.5" y="17.1" class="st0" width="1.5" height="1"/>
		<rect x="110.5" y="29.1" class="st0" width="1.5" height="1"/>
		<rect x="110.5" y="35.1" class="st0" width="1.5" height="1"/>
		<rect x="110.5" y="14.1" class="st0" width="1.5" height="1"/>
		<rect x="110.5" y="32.1" class="st0" width="1.5" height="1"/>
		<polygon class="st0" points="112,42.6 112,38.1 110.5,38.1 110.5,44.1 114.2,44.1 104.6,53.7 95.1,44.1 98.8,44.1 98.8,14.1 
			97.3,14.1 97.3,42.6 91.4,42.6 104.6,55.8 117.8,42.6 		"/>
	</g>
	<g>
		<path class="st0" d="M50.7,10.1c-0.4,0-0.8-0.3-0.8-0.8V6.9c0-0.4,0.3-0.8,0.8-0.8c0.4,0,0.8,0.3,0.8,0.8v2.5
			C51.5,9.8,51.1,10.1,50.7,10.1z"/>
	</g>
	<g>
		<path class="st0" d="M50.7,14.5c-0.4,0-0.8-0.3-0.8-0.8v-1.4c0-0.4,0.3-0.8,0.8-0.8c0.4,0,0.8,0.3,0.8,0.8v1.4
			C51.5,14.1,51.1,14.5,50.7,14.5z"/>
	</g>
	<g>
		<path class="st0" d="M50.7,34.3c-0.4,0-0.8-0.3-0.8-0.8V16.6c0-0.4,0.3-0.8,0.8-0.8c0.4,0,0.8,0.3,0.8,0.8v16.9
			C51.5,33.9,51.1,34.3,50.7,34.3z"/>
	</g>
	<g>
		<path class="st0" d="M69.8,6.5c-0.4,0-0.8-0.3-0.8-0.8V3.3c0-0.4,0.3-0.8,0.8-0.8c0.4,0,0.8,0.3,0.8,0.8v2.5
			C70.6,6.2,70.2,6.5,69.8,6.5z"/>
	</g>
	<g>
		<path class="st0" d="M69.8,10.8c-0.4,0-0.8-0.3-0.8-0.8V8.7c0-0.4,0.3-0.8,0.8-0.8c0.4,0,0.8,0.3,0.8,0.8v1.4
			C70.6,10.5,70.2,10.8,69.8,10.8z"/>
	</g>
	<g>
		<path class="st0" d="M69.8,30.7c-0.4,0-0.8-0.3-0.8-0.8V13c0-0.4,0.3-0.8,0.8-0.8c0.4,0,0.8,0.3,0.8,0.8v16.9
			C70.6,30.3,70.2,30.7,69.8,30.7z"/>
	</g>
	<g>
		<path class="st0" d="M104.6,16.6c-0.4,0-0.8-0.3-0.8-0.8v-2.1c0-0.4,0.3-0.8,0.8-0.8c0.4,0,0.8,0.3,0.8,0.8v2.1
			C105.4,16.2,105,16.6,104.6,16.6z"/>
	</g>
	<g>
		<path class="st0" d="M104.6,20.2c-0.4,0-0.8-0.3-0.8-0.8v-1.2c0-0.4,0.3-0.8,0.8-0.8c0.4,0,0.8,0.3,0.8,0.8v1.2
			C105.4,19.9,105,20.2,104.6,20.2z"/>
	</g>
	<g>
		<path class="st0" d="M104.6,36.8c-0.4,0-0.8-0.3-0.8-0.8V21.8c0-0.4,0.3-0.8,0.8-0.8c0.4,0,0.8,0.3,0.8,0.8V36
			C105.4,36.4,105,36.8,104.6,36.8z"/>
	</g>
	<g>
		<path class="st0" d="M93.3,5.3c-0.4,0-0.8-0.3-0.8-0.8V2.4c0-0.4,0.3-0.8,0.8-0.8C93.7,1.7,94,2,94,2.4v2.1
			C94,4.9,93.7,5.3,93.3,5.3z"/>
	</g>
	<g>
		<path class="st0" d="M93.3,8.9c-0.4,0-0.8-0.3-0.8-0.8V7c0-0.4,0.3-0.8,0.8-0.8C93.7,6.2,94,6.6,94,7v1.2
			C94,8.6,93.7,8.9,93.3,8.9z"/>
	</g>
	<g>
		<path class="st0" d="M93.3,25.5c-0.4,0-0.8-0.3-0.8-0.8V10.5c0-0.4,0.3-0.8,0.8-0.8c0.4,0,0.8,0.3,0.8,0.8v14.2
			C94,25.1,93.7,25.5,93.3,25.5z"/>
	</g>
	<g>
		<path class="st0" d="M39.1,23.5c-0.4,0-0.8-0.3-0.8-0.8v-2.5c0-0.4,0.3-0.8,0.8-0.8s0.8,0.3,0.8,0.8v2.5
			C39.9,23.1,39.5,23.5,39.1,23.5z"/>
	</g>
	<g>
		<path class="st0" d="M39.1,27.8c-0.4,0-0.8-0.3-0.8-0.8v-1.4c0-0.4,0.3-0.8,0.8-0.8s0.8,0.3,0.8,0.8V27
			C39.9,27.5,39.5,27.8,39.1,27.8z"/>
	</g>
	<g>
		<path class="st0" d="M39.1,47.6c-0.4,0-0.8-0.3-0.8-0.8V29.9c0-0.4,0.3-0.8,0.8-0.8s0.8,0.3,0.8,0.8v16.9
			C39.9,47.3,39.5,47.6,39.1,47.6z"/>
	</g>
	<g>
		<path class="st0" d="M44.2,7.1c-0.4,0-0.8-0.3-0.8-0.8V3.9c0-0.4,0.3-0.8,0.8-0.8c0.4,0,0.8,0.3,0.8,0.8v2.5
			C44.9,6.8,44.6,7.1,44.2,7.1z"/>
	</g>
	<g>
		<path class="st0" d="M44.2,11.5c-0.4,0-0.8-0.3-0.8-0.8V9.3c0-0.4,0.3-0.8,0.8-0.8c0.4,0,0.8,0.3,0.8,0.8v1.4
			C44.9,11.1,44.6,11.5,44.2,11.5z"/>
	</g>
	<g>
		<path class="st0" d="M44.2,31.3c-0.4,0-0.8-0.3-0.8-0.8V13.6c0-0.4,0.3-0.8,0.8-0.8c0.4,0,0.8,0.3,0.8,0.8v16.9
			C44.9,30.9,44.6,31.3,44.2,31.3z"/>
	</g>
</g>
</svg>
