<?xml version="1.0" encoding="utf-8"?>
<!-- Generator: Adobe Illustrator 21.1.0, SVG Export Plug-In . SVG Version: 6.00 Build 0)  -->
<svg version="1.1" id="Layer_1" xmlns="http://www.w3.org/2000/svg" xmlns:xlink="http://www.w3.org/1999/xlink" x="0px" y="0px"
	 viewBox="0 0 128.8 129.5" style="enable-background:new 0 0 128.8 129.5;" xml:space="preserve">
<style type="text/css">
	.st0{fill:#231F20;}
	.st1{fill:#E6E9EE;}
	.st2{fill:#FFFFFF;}
	.st3{fill:#9ED9CF;}
	.st4{fill:#FFD05B;}
	.st5{fill:#FF7058;}
</style>
<g>
	<path class="st0" d="M39.4,4.5c-0.2,0-0.4-0.1-0.5-0.2c-0.3-0.3-0.3-0.8,0-1.1l1.3-1.3c0.3-0.3,0.8-0.3,1.1,0
		c0.3,0.3,0.3,0.8,0,1.1L40,4.3C39.8,4.4,39.6,4.5,39.4,4.5z"/>
</g>
<g>
	<path class="st0" d="M35.4,8.5c-0.2,0-0.4-0.1-0.5-0.2c-0.3-0.3-0.3-0.8,0-1.1L36.2,6c0.3-0.3,0.8-0.3,1.1,0c0.3,0.3,0.3,0.8,0,1.1
		L36,8.3C35.8,8.5,35.6,8.5,35.4,8.5z"/>
</g>
<g>
	<path class="st0" d="M40.7,8.5c-0.2,0-0.4-0.1-0.5-0.2L38.9,7c-0.3-0.3-0.3-0.8,0-1.1c0.3-0.3,0.8-0.3,1.1,0l1.3,1.3
		c0.3,0.3,0.3,0.8,0,1.1C41.1,8.5,40.9,8.5,40.7,8.5z"/>
</g>
<g>
	<path class="st0" d="M36.7,4.5c-0.2,0-0.4-0.1-0.5-0.2L34.9,3c-0.3-0.3-0.3-0.8,0-1.1c0.3-0.3,0.8-0.3,1.1,0l1.3,1.3
		c0.3,0.3,0.3,0.8,0,1.1C37.1,4.4,36.9,4.5,36.7,4.5z"/>
</g>
<g>
	<path class="st0" d="M123.8,57.2c-0.2,0-0.4-0.1-0.5-0.2c-0.3-0.3-0.3-0.8,0-1.1l1.3-1.3c0.3-0.3,0.8-0.3,1.1,0s0.3,0.8,0,1.1
		l-1.3,1.3C124.2,57.2,124,57.2,123.8,57.2z"/>
</g>
<g>
	<path class="st0" d="M119.8,61.3c-0.2,0-0.4-0.1-0.5-0.2c-0.3-0.3-0.3-0.8,0-1.1l1.3-1.3c0.3-0.3,0.8-0.3,1.1,0
		c0.3,0.3,0.3,0.8,0,1.1l-1.3,1.3C120.2,61.2,120,61.3,119.8,61.3z"/>
</g>
<g>
	<path class="st0" d="M125.1,61.3c-0.2,0-0.4-0.1-0.5-0.2l-1.3-1.3c-0.3-0.3-0.3-0.8,0-1.1c0.3-0.3,0.8-0.3,1.1,0l1.3,1.3
		c0.3,0.3,0.3,0.8,0,1.1C125.5,61.2,125.3,61.3,125.1,61.3z"/>
</g>
<g>
	<path class="st0" d="M121.1,57.2c-0.2,0-0.4-0.1-0.5-0.2l-1.3-1.3c-0.3-0.3-0.3-0.8,0-1.1c0.3-0.3,0.8-0.3,1.1,0l1.3,1.3
		c0.3,0.3,0.3,0.8,0,1.1C121.5,57.2,121.3,57.2,121.1,57.2z"/>
</g>
<g>
	<path class="st0" d="M11.1,107c-0.2,0-0.4-0.1-0.5-0.2c-0.3-0.3-0.3-0.8,0-1.1l1.3-1.3c0.3-0.3,0.8-0.3,1.1,0
		c0.3,0.3,0.3,0.8,0,1.1l-1.3,1.3C11.4,106.9,11.3,107,11.1,107z"/>
</g>
<g>
	<path class="st0" d="M7,111c-0.2,0-0.4-0.1-0.5-0.2c-0.3-0.3-0.3-0.8,0-1.1l1.3-1.3c0.3-0.3,0.8-0.3,1.1,0c0.3,0.3,0.3,0.8,0,1.1
		l-1.3,1.3C7.4,111,7.2,111,7,111z"/>
</g>
<g>
	<path class="st0" d="M12.3,111c-0.2,0-0.4-0.1-0.5-0.2l-1.3-1.3c-0.3-0.3-0.3-0.8,0-1.1c0.3-0.3,0.8-0.3,1.1,0l1.3,1.3
		c0.3,0.3,0.3,0.8,0,1.1C12.7,111,12.5,111,12.3,111z"/>
</g>
<g>
	<path class="st0" d="M8.3,107c-0.2,0-0.4-0.1-0.5-0.2l-1.3-1.3c-0.3-0.3-0.3-0.8,0-1.1c0.3-0.3,0.8-0.3,1.1,0l1.3,1.3
		c0.3,0.3,0.3,0.8,0,1.1C8.7,106.9,8.5,107,8.3,107z"/>
</g>
<g>
	<path class="st0" d="M84.9,3h-8.1c-0.4,0-0.8-0.3-0.8-0.8c0-0.4,0.3-0.8,0.8-0.8h8.1c0.4,0,0.8,0.3,0.8,0.8C85.7,2.7,85.4,3,84.9,3
		z"/>
</g>
<g>
	<path class="st0" d="M88.1,6h-4c-0.4,0-0.8-0.3-0.8-0.8c0-0.4,0.3-0.8,0.8-0.8h4c0.4,0,0.8,0.3,0.8,0.8C88.9,5.6,88.5,6,88.1,6z"/>
</g>
<g>
	<path class="st0" d="M92.4,3h-3.8c-0.4,0-0.8-0.3-0.8-0.8c0-0.4,0.3-0.8,0.8-0.8h3.8c0.4,0,0.8,0.3,0.8,0.8C93.1,2.7,92.8,3,92.4,3
		z"/>
</g>
<g>
	<path class="st0" d="M81.3,6h-0.8c-0.4,0-0.8-0.3-0.8-0.8c0-0.4,0.3-0.8,0.8-0.8h0.8c0.4,0,0.8,0.3,0.8,0.8C82,5.6,81.7,6,81.3,6z"
		/>
</g>
<g>
	<path class="st0" d="M116.5,119.3h-8.1c-0.4,0-0.8-0.3-0.8-0.8c0-0.4,0.3-0.8,0.8-0.8h8.1c0.4,0,0.8,0.3,0.8,0.8
		C117.3,119,116.9,119.3,116.5,119.3z"/>
</g>
<g>
	<path class="st0" d="M119.7,122.2h-4c-0.4,0-0.8-0.3-0.8-0.8c0-0.4,0.3-0.8,0.8-0.8h4c0.4,0,0.8,0.3,0.8,0.8
		C120.5,121.9,120.1,122.2,119.7,122.2z"/>
</g>
<g>
	<path class="st0" d="M124,119.3h-3.8c-0.4,0-0.8-0.3-0.8-0.8c0-0.4,0.3-0.8,0.8-0.8h3.8c0.4,0,0.8,0.3,0.8,0.8
		C124.7,119,124.4,119.3,124,119.3z"/>
</g>
<g>
	<path class="st0" d="M112.9,122.2h-0.8c-0.4,0-0.8-0.3-0.8-0.8c0-0.4,0.3-0.8,0.8-0.8h0.8c0.4,0,0.8,0.3,0.8,0.8
		C113.6,121.9,113.3,122.2,112.9,122.2z"/>
</g>
<rect x="28.6" y="111.3" class="st1" width="73.9" height="17.4"/>
<rect x="28.6" y="16.6" class="st1" width="73.9" height="10.6"/>
<rect x="28.6" y="27.1" class="st2" width="73.9" height="84.2"/>
<path class="st3" d="M87.4,111.3v-3.7c0-12-9.8-21.8-21.8-21.8l0,0c-12,0-21.8,9.8-21.8,21.8v3.7H87.4z"/>
<path class="st2" d="M71.3,80.6H59.9v9.6c0,2.9,2.4,5.3,5.3,5.3H66c2.9,0,5.3-2.4,5.3-5.3V80.6z"/>
<path class="st4" d="M78.1,42.3c-0.2-3.3-2.9-5.7-6.1-5.4c-14.4,1.4-24-4.4-24-4.4S47.4,39,50.1,44c-2.1,1.8-3.5,4.5-3.5,7.6v14.1
	c0,2,1.6,3.7,3.7,3.7H81c2,0,3.7-1.6,3.7-3.7V51.6C84.6,47.3,81.9,43.7,78.1,42.3z"/>
<path class="st2" d="M81.1,61.8H81v-4c-6.2-0.6-11.3-5-13-10.8c-3.7,6.1-10.3,10.3-17.8,10.8v4h-0.2c-1.2,0-2.2,1-2.2,2.2
	c0,1.2,1,2.2,2.2,2.2h0.2v3.1c0,8.5,6.9,15.4,15.4,15.4S81,77.8,81,69.3v-3.1h0.2c1.2,0,2.2-1,2.2-2.2
	C83.4,62.8,82.3,61.8,81.1,61.8z"/>
<g>
	<circle class="st2" cx="65.6" cy="120.8" r="4.7"/>
	<path class="st0" d="M65.6,126.2c-3,0-5.5-2.5-5.5-5.5c0-3,2.5-5.5,5.5-5.5s5.5,2.5,5.5,5.5C71.1,123.8,68.6,126.2,65.6,126.2z
		 M65.6,116.8c-2.2,0-4,1.8-4,4c0,2.2,1.8,4,4,4c2.2,0,4-1.8,4-4C69.6,118.6,67.8,116.8,65.6,116.8z"/>
</g>
<g>
	<path class="st0" d="M59,20.6h-4.6c-0.4,0-0.8,0.3-0.8,0.8c0,0.4,0.3,0.8,0.8,0.8H59c0.4,0,0.8-0.3,0.8-0.8
		C59.8,20.9,59.4,20.6,59,20.6z"/>
	<path class="st0" d="M76.8,20.6H62.3c-0.4,0-0.8,0.3-0.8,0.8c0,0.4,0.3,0.8,0.8,0.8h14.5c0.4,0,0.8-0.3,0.8-0.8
		C77.5,20.9,77.2,20.6,76.8,20.6z"/>
</g>
<path class="st2" d="M90.7,35.3c-1.3-3.4-1.6-7.1-0.7-10.9C92.3,14,102.6,7.6,112.9,9.9s16.8,12.6,14.5,22.9
	c-2.3,10.3-12.6,16.8-22.9,14.5c-3.8-0.9-7-2.8-9.5-5.3l-9.2,1.1L90.7,35.3z"/>
<g>
	<path class="st0" d="M69.7,64c0,0,0.1,0,0.1,0c0.4,0,0.7-0.3,0.7-0.6c0.2-1,1.1-1.7,2.1-1.7c1,0,1.9,0.7,2.1,1.7
		c0.1,0.4,0.5,0.7,0.9,0.6c0.4-0.1,0.7-0.5,0.6-0.9c-0.3-1.7-1.8-3-3.6-3s-3.3,1.3-3.6,3C69.1,63.5,69.3,63.9,69.7,64z"/>
	<path class="st0" d="M55.5,64c0.4,0.1,0.8-0.2,0.9-0.6c0.2-1,1.1-1.7,2.1-1.7c1,0,1.9,0.7,2.1,1.7c0.1,0.4,0.4,0.6,0.7,0.6
		c0,0,0.1,0,0.1,0c0.4-0.1,0.7-0.5,0.6-0.9c-0.3-1.7-1.8-3-3.6-3c-1.8,0-3.3,1.3-3.6,3C54.8,63.5,55.1,63.9,55.5,64z"/>
	<path class="st0" d="M59.7,74.4c0.7,2.6,3.1,4.4,5.9,4.4c2.7,0,5.1-1.8,5.9-4.4l0.3-1H59.5L59.7,74.4z M69.6,74.9
		c-0.8,1.4-2.3,2.4-4,2.4c-1.7,0-3.2-0.9-4-2.4H69.6z"/>
	<path class="st0" d="M125.5,18c-2.8-4.5-7.3-7.6-12.5-8.8c-1.5-0.3-2.9-0.5-4.4-0.5c-6.1,0-11.6,2.7-15.3,7.1H27.9v113.7h75.4V47.8
		c0.3,0.1,0.6,0.2,1,0.3c1.5,0.3,2.9,0.5,4.4,0.5c9.4,0,17.3-6.4,19.4-15.5C129.3,27.8,128.3,22.5,125.5,18z M29.4,17.3h62.9
		c-1.4,2-2.4,4.4-3,6.9c-0.2,0.7-0.3,1.4-0.4,2.2H29.4V17.3z M101.8,128H29.4v-15.9h72.4V128z M65.1,96.2H66c3.3,0,6-2.7,6-6v-2.5
		c8.4,2.7,14.6,10.6,14.6,20v2.9h-8v-6.6h-1.5v6.6H54v-6.6h-1.5v6.6h-8v-2.9c0-9.3,6.1-17.2,14.6-20v2.5
		C59.1,93.5,61.8,96.2,65.1,96.2z M50.1,65.5c-0.8,0-1.5-0.7-1.5-1.5s0.7-1.5,1.5-1.5H51v-4c0,0,0,0,0,0c6.8-0.7,12.9-4.3,16.8-9.8
		c2.1,5.2,6.9,9,12.4,9.8l0,0v4.1h0.9c0.8,0,1.5,0.7,1.5,1.5s-0.7,1.5-1.5,1.5h-0.9v3.8c0,8.1-6.6,14.6-14.6,14.6
		C57.5,84,51,77.4,51,69.3v-3.8H50.1z M50.7,43.7c-1.8-3.6-2-8-2-10c2.5,1.3,9.3,4.2,18.8,4.2h0c1.5,0,3.1-0.1,4.6-0.2
		c2.7-0.3,5,1.9,5.2,4.7l0,0.5l0.5,0.2c3.6,1.3,6,4.8,6,8.6v11.3c-0.4-0.9-1.2-1.6-2.2-1.8v-2.5c0.3,0,0.5,0,0.8,0
		c0.4,0,0.8-0.3,0.8-0.8c0-0.4-0.3-0.8-0.8-0.8c-0.5,0-0.9,0-1.4-0.1c-5.8-0.6-10.7-4.7-12.3-10.3c-0.1-0.3-0.3-0.5-0.6-0.5
		c-0.3,0-0.6,0.1-0.7,0.4c-3.7,6.1-10.1,10-17.2,10.5c-0.5,0-1.1,0.1-1.6,0.1c-0.4,0-0.8,0.3-0.8,0.8c0,0.4,0.3,0.8,0.8,0.8
		c0.3,0,0.6,0,0.9,0v2.5c-1,0.2-1.8,0.9-2.2,1.8V51.6c0-2.7,1.2-5.3,3.3-7l0.5-0.4L50.7,43.7z M83.9,65.2v0.5c0,1.3-0.9,2.5-2.2,2.8
		V67C82.7,66.8,83.5,66.1,83.9,65.2z M49.5,67v1.5c-1.2-0.3-2.2-1.5-2.2-2.8v-0.5C47.7,66.1,48.5,66.8,49.5,67z M60.6,84.7
		c1.6,0.5,3.2,0.8,5,0.8c1.7,0,3.4-0.3,5-0.8v5.5c0,2.5-2,4.5-4.5,4.5h-0.9c-2.5,0-4.5-2-4.5-4.5V84.7z M101.8,110.6H88.1v-2.9
		c0-10.2-6.8-18.8-16.1-21.6v-2c5.5-2.4,9.3-7.8,9.6-14c2.1-0.3,3.7-2.1,3.7-4.3V51.6c0-4.3-2.6-8.2-6.6-9.9c-0.5-3.4-3.4-6-6.8-5.6
		c-1.5,0.1-3,0.2-4.5,0.2c0,0,0,0,0,0c-11.5,0-19-4.5-19.1-4.5l-1-0.6l-0.1,1.2c0,0.3-0.5,6.4,1.9,11.5c-2.1,2-3.3,4.8-3.3,7.8v14.1
		c0,2.2,1.6,4,3.7,4.3c0.3,6.3,4.2,11.6,9.6,14v2c-9.3,2.8-16.1,11.4-16.1,21.6v2.9H29.4V27.9h59.4c-0.1,2.5,0.3,4.9,1.1,7.3
		l-4.8,7.5c-0.2,0.2-0.2,0.6,0,0.8c0.2,0.2,0.4,0.4,0.7,0.3l8.8-1.1c2,2,4.5,3.6,7.2,4.6V110.6z M126.6,32.6
		C124.7,41,117.2,47,108.7,47c-1.4,0-2.7-0.2-4.1-0.5c-3.5-0.8-6.7-2.6-9.2-5.1c-0.1-0.1-0.3-0.2-0.5-0.2c0,0-0.1,0-0.1,0l-7.6,0.9
		l4.1-6.4c0.1-0.2,0.2-0.4,0.1-0.7c-1.3-3.4-1.5-7-0.7-10.5c1.9-8.3,9.4-14.4,17.9-14.4c1.4,0,2.7,0.2,4.1,0.5
		c4.8,1.1,8.9,4,11.5,8.1C126.9,22.9,127.7,27.8,126.6,32.6z"/>
</g>
<g>
	<path class="st5" d="M108.6,39.5c-2.4-1.1-10.3-5.3-10.3-13.8c0-2.8,2.3-5.1,5.1-5.1c1.4,0,2.8,0.6,3.8,1.7l1.4,1.6l1.4-1.6
		c1-1.1,2.4-1.7,3.8-1.7c2.8,0,5.1,2.3,5.1,5.1C118.9,34.1,110.9,38.4,108.6,39.5z"/>
</g>
<g>
	<g>
		<circle class="st3" cx="21.8" cy="69.4" r="17.6"/>
	</g>
	<g>
		<path class="st0" d="M1.5,69.4H0c0-0.3,0-0.7,0-1l1.5,0.1C1.5,68.7,1.5,69,1.5,69.4z M1.6,67.4l-1.5-0.1c0-0.3,0.1-0.7,0.1-1
			l1.5,0.2C1.7,66.8,1.6,67.1,1.6,67.4z M1.9,65.5l-1.5-0.3c0.1-0.3,0.1-0.7,0.2-1l1.5,0.4C2,64.9,1.9,65.2,1.9,65.5z M2.3,63.6
			l-1.4-0.4c0.1-0.3,0.2-0.7,0.3-1l1.4,0.5C2.5,63,2.4,63.3,2.3,63.6z M2.9,61.8l-1.4-0.6c0.1-0.3,0.3-0.6,0.4-1l1.4,0.6
			C3.2,61.2,3.1,61.5,2.9,61.8z M3.7,60.1l-1.3-0.7c0.2-0.3,0.3-0.6,0.5-0.9l1.3,0.8C4.1,59.5,3.9,59.8,3.7,60.1z M4.7,58.4
			l-1.3-0.8C3.6,57.3,3.8,57,4,56.7l1.2,0.9C5.1,57.9,4.9,58.1,4.7,58.4z M5.8,56.8l-1.2-0.9c0.2-0.3,0.4-0.5,0.7-0.8l1.1,1
			C6.2,56.3,6,56.6,5.8,56.8z M7.1,55.4l-1.1-1c0.2-0.2,0.5-0.5,0.7-0.7l1,1.1C7.5,54.9,7.3,55.1,7.1,55.4z M8.5,54l-1-1.1
			c0.3-0.2,0.5-0.4,0.8-0.7l0.9,1.2C9,53.6,8.7,53.8,8.5,54z M10,52.8l-0.9-1.2c0.3-0.2,0.6-0.4,0.9-0.6l0.8,1.3
			C10.5,52.5,10.3,52.7,10,52.8z M11.6,51.8l-0.8-1.3c0.3-0.2,0.6-0.3,0.9-0.5l0.7,1.3C12.2,51.5,11.9,51.6,11.6,51.8z M13.3,50.9
			l-0.6-1.4c0.3-0.1,0.6-0.3,1-0.4l0.6,1.4C13.9,50.7,13.6,50.8,13.3,50.9z M15.1,50.2l-0.5-1.4c0.3-0.1,0.7-0.2,1-0.3l0.4,1.4
			C15.7,50,15.4,50.1,15.1,50.2z M17,49.7l-0.4-1.5c0.3-0.1,0.7-0.2,1-0.2l0.3,1.5C17.6,49.5,17.3,49.6,17,49.7z M18.9,49.3
			l-0.2-1.5c0.3,0,0.7-0.1,1-0.1l0.1,1.5C19.5,49.2,19.2,49.3,18.9,49.3z M20.8,49.1l-0.1-1.5c0.3,0,0.7,0,1,0l0,1.5
			C21.4,49.1,21.1,49.1,20.8,49.1z"/>
	</g>
	<g>
		<polygon class="st2" points="17.6,61.7 17.6,77 29,69.4 		"/>
		<path class="st0" d="M16.9,78.4V60.3l13.5,9L16.9,78.4z M18.4,63.1v12.4l9.3-6.2L18.4,63.1z"/>
	</g>
</g>
<g>
	<circle class="st4" cx="112.3" cy="90.8" r="16.5"/>
</g>
<g>
	<path class="st2" d="M102.1,94.6c1.5,4.1,5.5,7.1,10.2,7.1s8.6-2.9,10.2-7.1H102.1z"/>
	<path class="st0" d="M112.3,102.4c-4.8,0-9.2-3-10.9-7.6c-0.1-0.2-0.1-0.5,0.1-0.7c0.1-0.2,0.4-0.3,0.6-0.3h20.4
		c0.2,0,0.5,0.1,0.6,0.3c0.1,0.2,0.2,0.5,0.1,0.7C121.5,99.4,117.1,102.4,112.3,102.4z M103.2,95.4c1.7,3.4,5.2,5.6,9.1,5.6
		c3.8,0,7.3-2.2,9.1-5.6H103.2z"/>
</g>
<g>
	<circle class="st2" cx="118.7" cy="86.7" r="2.5"/>
	<path class="st0" d="M118.7,90c-1.8,0-3.3-1.5-3.3-3.3c0-1.8,1.5-3.3,3.3-3.3c1.8,0,3.3,1.5,3.3,3.3C122,88.5,120.5,90,118.7,90z
		 M118.7,84.9c-1,0-1.8,0.8-1.8,1.8c0,1,0.8,1.8,1.8,1.8c1,0,1.8-0.8,1.8-1.8C120.5,85.7,119.7,84.9,118.7,84.9z"/>
</g>
<g>
	<circle class="st2" cx="105.8" cy="86.7" r="2.5"/>
	<path class="st0" d="M105.8,90c-1.8,0-3.3-1.5-3.3-3.3c0-1.8,1.5-3.3,3.3-3.3c1.8,0,3.3,1.5,3.3,3.3C109.1,88.5,107.6,90,105.8,90z
		 M105.8,84.9c-1,0-1.8,0.8-1.8,1.8c0,1,0.8,1.8,1.8,1.8s1.8-0.8,1.8-1.8C107.6,85.7,106.8,84.9,105.8,84.9z"/>
</g>
<g>
	<path class="st2" d="M21.7,15.2c0.7-1.9,0.9-4,0.4-6.1C20.8,3.3,15-0.3,9.3,1C3.5,2.3-0.2,8.1,1.2,13.8c1.3,5.8,7.1,9.4,12.8,8.1
		c2.1-0.5,3.9-1.5,5.3-3l5.1,0.6L21.7,15.2z"/>
	<path class="st0" d="M11.6,23c-5.4,0-10-3.7-11.2-9c-0.7-3-0.1-6.1,1.5-8.7C3.5,2.8,6.1,1,9.1,0.3C9.9,0.1,10.8,0,11.6,0
		c5.4,0,10,3.7,11.2,9c0.5,2.1,0.4,4.2-0.3,6.2l2.6,4.1c0.2,0.2,0.2,0.6,0,0.8c-0.2,0.2-0.4,0.4-0.7,0.3l-4.8-0.6
		c-1.5,1.5-3.4,2.5-5.4,2.9C13.3,22.9,12.5,23,11.6,23z M11.6,1.5c-0.7,0-1.5,0.1-2.2,0.2C6.8,2.3,4.6,3.9,3.2,6.2
		c-1.4,2.3-1.9,4.9-1.3,7.5c1,4.5,5.1,7.8,9.7,7.8c0.7,0,1.5-0.1,2.2-0.2c1.9-0.4,3.6-1.4,5-2.8c0.2-0.2,0.4-0.2,0.6-0.2l3.6,0.4
		l-1.9-3c-0.1-0.2-0.2-0.4-0.1-0.7c0.7-1.8,0.8-3.8,0.4-5.7C20.3,4.8,16.2,1.5,11.6,1.5z"/>
</g>
<g>
	<g>
		<line class="st2" x1="6.2" y1="7.9" x2="17.2" y2="7.9"/>
		<rect x="6.2" y="7.2" class="st0" width="10.9" height="1.5"/>
	</g>
	<g>
		<line class="st2" x1="6.2" y1="11" x2="17.2" y2="11"/>
		<rect x="6.2" y="10.3" class="st0" width="10.9" height="1.5"/>
	</g>
	<g>
		<line class="st2" x1="6.2" y1="14.1" x2="13.1" y2="14.1"/>
		<rect x="6.2" y="13.3" class="st0" width="6.9" height="1.5"/>
	</g>
</g>
</svg>
