<?xml version="1.0" encoding="utf-8"?>
<!-- Generator: Adobe Illustrator 21.1.0, SVG Export Plug-In . SVG Version: 6.00 Build 0)  -->
<svg version="1.1" id="Layer_1" xmlns="http://www.w3.org/2000/svg" xmlns:xlink="http://www.w3.org/1999/xlink" x="0px" y="0px"
	 viewBox="0 0 128.7 128" style="enable-background:new 0 0 128.7 128;" xml:space="preserve">
<style type="text/css">
	.st0{fill:#231F20;}
	.st1{fill:#FFFFFF;}
	.st2{fill:#FFD05B;}
	.st3{fill:#FF7058;}
	.st4{fill:#9ED9CF;}
	.st5{fill:#E6E9EE;}
</style>
<g>
	<g>
		<path class="st0" d="M4.8,108.2c-0.2,0-0.4-0.1-0.5-0.2c-0.3-0.3-0.3-0.8,0-1.1l1.3-1.3c0.3-0.3,0.8-0.3,1.1,0
			c0.3,0.3,0.3,0.8,0,1.1L5.3,108C5.2,108.1,5,108.2,4.8,108.2z"/>
	</g>
	<g>
		<path class="st0" d="M0.7,112.2c-0.2,0-0.4-0.1-0.5-0.2c-0.3-0.3-0.3-0.8,0-1.1l1.3-1.3c0.3-0.3,0.8-0.3,1.1,0
			c0.3,0.3,0.3,0.8,0,1.1L1.3,112C1.1,112.1,0.9,112.2,0.7,112.2z"/>
	</g>
	<g>
		<path class="st0" d="M6.1,112.2c-0.2,0-0.4-0.1-0.5-0.2l-1.3-1.3c-0.3-0.3-0.3-0.8,0-1.1c0.3-0.3,0.8-0.3,1.1,0l1.3,1.3
			c0.3,0.3,0.3,0.8,0,1.1C6.4,112.1,6.3,112.2,6.1,112.2z"/>
	</g>
	<g>
		<path class="st0" d="M2,108.2c-0.2,0-0.4-0.1-0.5-0.2l-1.3-1.3c-0.3-0.3-0.3-0.8,0-1.1c0.3-0.3,0.8-0.3,1.1,0l1.3,1.3
			c0.3,0.3,0.3,0.8,0,1.1C2.4,108.1,2.2,108.2,2,108.2z"/>
	</g>
	<g>
		<path class="st0" d="M49.1,6.1c-0.2,0-0.4-0.1-0.5-0.2c-0.3-0.3-0.3-0.8,0-1.1l1.3-1.3c0.3-0.3,0.8-0.3,1.1,0
			c0.3,0.3,0.3,0.8,0,1.1l-1.3,1.3C49.5,6,49.3,6.1,49.1,6.1z"/>
	</g>
	<g>
		<path class="st0" d="M45.1,10.1c-0.2,0-0.4-0.1-0.5-0.2c-0.3-0.3-0.3-0.8,0-1.1l1.3-1.3c0.3-0.3,0.8-0.3,1.1,0
			c0.3,0.3,0.3,0.8,0,1.1l-1.3,1.3C45.4,10,45.2,10.1,45.1,10.1z"/>
	</g>
	<g>
		<path class="st0" d="M50.4,10.1c-0.2,0-0.4-0.1-0.5-0.2l-1.3-1.3c-0.3-0.3-0.3-0.8,0-1.1c0.3-0.3,0.8-0.3,1.1,0l1.3,1.3
			c0.3,0.3,0.3,0.8,0,1.1C50.7,10,50.6,10.1,50.4,10.1z"/>
	</g>
	<g>
		<path class="st0" d="M46.3,6.1c-0.2,0-0.4-0.1-0.5-0.2l-1.3-1.3c-0.3-0.3-0.3-0.8,0-1.1c0.3-0.3,0.8-0.3,1.1,0l1.3,1.3
			c0.3,0.3,0.3,0.8,0,1.1C46.7,6,46.5,6.1,46.3,6.1z"/>
	</g>
	<path class="st1" d="M118.4,93.9c4.1-6.3,6.5-13.7,6.5-21.8c0-22-17.9-39.9-39.9-39.9S45.1,50.1,45.1,72.1S63,112,85,112
		c8,0,15.5-2.4,21.8-6.5l18.1,6.5L118.4,93.9z"/>
	<path class="st1" d="M11,76.8C6.9,70.5,4.6,63,4.6,55c0-22,17.9-39.9,39.9-39.9c22,0,39.9,17.9,39.9,39.9S66.4,94.9,44.4,94.9
		c-8,0-15.5-2.4-21.8-6.5L4.6,94.9L11,76.8z"/>
	<path class="st1" d="M32.3,9.5l-4.1-1.8L28,8c-0.9,1.6-2.6,2.4-4.4,2.3c-0.4,0-0.7,0-1.1,0c-1.8,0-3.5-0.9-4.3-2.6l-0.1-0.3L14,9
		L14,9.3c0.5,1.7-0.1,3.6-1.5,4.8c-0.3,0.2-0.5,0.5-0.8,0.7C10.5,16.1,8.7,16.6,7,16l-0.3-0.1L4.8,20l0.2,0.1
		c1.6,0.9,2.4,2.6,2.3,4.4c0,0.4,0,0.7,0,1.1c0,1.8-0.9,3.5-2.6,4.3L4.6,30l1.6,4.2l0.3-0.1c1.7-0.5,3.6,0.1,4.8,1.5
		c0.2,0.3,0.5,0.5,0.7,0.8c1.3,1.3,1.8,3.1,1.2,4.8L13,41.5l4.1,1.8l0.1-0.2c0.9-1.6,2.6-2.4,4.4-2.3c0.4,0,0.7,0,1.1,0
		c1.8,0,3.5,0.9,4.3,2.6l0.1,0.3l4.2-1.6l-0.1-0.3c-0.5-1.7,0.1-3.6,1.5-4.8c0.3-0.2,0.5-0.5,0.8-0.7c1.3-1.3,3.1-1.8,4.8-1.2
		l0.3,0.1l1.8-4.1l-0.2-0.1c-1.6-0.9-2.4-2.6-2.3-4.4c0-0.4,0-0.7,0-1.1c0-1.8,0.9-3.5,2.6-4.3l0.3-0.1l-1.6-4.2l-0.3,0.1
		c-1.7,0.5-3.6-0.1-4.8-1.5c-0.2-0.3-0.5-0.5-0.7-0.8c-1.3-1.3-1.8-3.1-1.2-4.8L32.3,9.5z"/>
	<path class="st0" d="M107.6,20.6c-0.3-0.2-0.6-0.4-0.9-0.6l-0.8,1.3c0.3,0.2,0.5,0.3,0.8,0.5L107.6,20.6z"/>
	<path class="st0" d="M104.8,19.1c-0.3-0.1-0.6-0.3-1-0.4l-0.5,1.4c0.3,0.1,0.6,0.2,0.9,0.3L104.8,19.1z"/>
	<path class="st0" d="M23.2,37.8l-0.1-1.5c0.3,0,0.6,0,0.9-0.1l0.2,1.5C23.9,37.8,23.6,37.8,23.2,37.8z M21.1,37.7
		c-0.4,0-0.7-0.1-1.1-0.2l0.3-1.5c0.3,0.1,0.6,0.1,0.9,0.2L21.1,37.7z M26.3,37.3l-0.4-1.4c0.3-0.1,0.6-0.2,0.9-0.3l0.6,1.4
		C27,37,26.7,37.2,26.3,37.3z M18,36.9c-0.1-0.1-0.3-0.1-0.4-0.2c-0.2-0.1-0.4-0.2-0.6-0.3l0.7-1.3c0.2,0.1,0.3,0.2,0.5,0.2
		c0.1,0.1,0.2,0.1,0.4,0.2L18,36.9z M29.2,35.9l-0.8-1.3c0.3-0.2,0.5-0.3,0.8-0.5l0.9,1.2C29.8,35.5,29.5,35.8,29.2,35.9z
		 M15.2,35.4c-0.3-0.2-0.6-0.4-0.8-0.7l1-1.1c0.2,0.2,0.5,0.4,0.7,0.6L15.2,35.4z M31.7,33.9l-1.1-1c0.2-0.2,0.4-0.5,0.6-0.7
		l1.2,0.9C32.2,33.4,31.9,33.6,31.7,33.9z M13,33.1c-0.2-0.3-0.4-0.6-0.6-0.9l1.3-0.8c0.2,0.3,0.4,0.5,0.5,0.8L13,33.1z M33.5,31.3
		l-1.3-0.7c0.1-0.2,0.2-0.4,0.3-0.7l0.1-0.2l1.4,0.6l-0.1,0.2C33.8,30.8,33.7,31.1,33.5,31.3z M11.3,30.4c-0.1-0.3-0.3-0.7-0.4-1
		l1.4-0.5c0.1,0.3,0.2,0.6,0.3,0.9L11.3,30.4z M34.7,28.3L33.2,28c0.1-0.3,0.1-0.6,0.2-0.9l1.5,0.2C34.8,27.6,34.7,28,34.7,28.3z
		 M10.4,27.3c-0.1-0.3-0.1-0.7-0.1-1.1l1.5-0.1c0,0.3,0.1,0.6,0.1,0.9L10.4,27.3z M33.5,25.2c0-0.3,0-0.6-0.1-0.9l1.5-0.2
		c0,0.4,0.1,0.7,0.1,1.1L33.5,25.2z M11.9,24.3l-1.5-0.2c0-0.4,0.1-0.7,0.2-1.1l1.5,0.3C12,23.7,11.9,24,11.9,24.3z M33,22.4
		c-0.1-0.3-0.2-0.6-0.3-0.9l1.4-0.5c0.1,0.3,0.2,0.7,0.3,1L33,22.4z M12.5,21.6l-1.4-0.5c0.1-0.2,0.2-0.4,0.3-0.6
		c0.1-0.1,0.1-0.2,0.2-0.4l1.3,0.7c-0.1,0.1-0.1,0.2-0.1,0.3C12.7,21.2,12.6,21.4,12.5,21.6z M31.9,19.9c-0.2-0.3-0.3-0.5-0.5-0.8
		l1.2-0.9c0.2,0.3,0.4,0.6,0.6,0.9L31.9,19.9z M13.9,19.1l-1.2-0.9c0.2-0.3,0.4-0.6,0.7-0.8l1.1,1C14.2,18.6,14.1,18.9,13.9,19.1z
		 M30.2,17.7c-0.2-0.2-0.5-0.4-0.7-0.6l0.9-1.2c0.3,0.2,0.5,0.5,0.8,0.7L30.2,17.7z M15.8,17.1l-0.9-1.2c0.3-0.2,0.6-0.4,0.9-0.6
		l0.8,1.2C16.3,16.7,16,16.9,15.8,17.1z M27.9,16c-0.3-0.1-0.5-0.3-0.8-0.4c-0.2-0.1-0.5-0.2-0.7-0.3l0.5-1.4
		c0.3,0.1,0.5,0.2,0.8,0.3c0.3,0.1,0.6,0.3,1,0.5L27.9,16z M18.2,15.6l-0.6-1.4c0.3-0.1,0.7-0.3,1-0.4l0.5,1.4
		C18.7,15.4,18.5,15.5,18.2,15.6z M24.6,14.8c-0.3-0.1-0.6-0.1-0.9-0.1l0.1-1.5c0.4,0,0.7,0.1,1.1,0.1L24.6,14.8z M20.8,14.8
		l-0.3-1.5c0.3-0.1,0.7-0.1,1.1-0.1l0.1,1.5C21.5,14.7,21.1,14.8,20.8,14.8z"/>
	<ellipse transform="matrix(0.4094 -0.9123 0.9123 0.4094 -9.893 35.7253)" class="st2" cx="22.6" cy="25.5" rx="9.2" ry="9.2"/>
	<circle class="st1" cx="22.6" cy="25.5" r="4.6"/>
	<path class="st0" d="M22.6,30.9c-3,0-5.4-2.4-5.4-5.4c0-2.9,2.4-5.3,5.4-5.3s5.3,2.4,5.3,5.3C28,28.5,25.6,30.9,22.6,30.9z
		 M22.6,21.7c-2.1,0-3.9,1.7-3.9,3.8c0,2.1,1.7,3.9,3.9,3.9c2.1,0,3.8-1.7,3.8-3.9C26.5,23.4,24.8,21.7,22.6,21.7z"/>
	<circle class="st1" cx="107.6" cy="22.4" r="5.8"/>
	<g>
		<circle class="st3" cx="107.6" cy="22.4" r="3.6"/>
	</g>
	<circle class="st1" cx="47.7" cy="114.7" r="5.8"/>
	<g>
		<path class="st0" d="M92.8,19.6l-0.2-1.5c-0.3,0-0.7,0.1-1,0.2l0.3,1.5C92.2,19.7,92.5,19.6,92.8,19.6z"/>
		<path class="st0" d="M95.7,19.3l-0.1-1.5c-0.3,0-0.7,0-1,0.1l0.1,1.5C95.1,19.4,95.4,19.3,95.7,19.3z"/>
		<path class="st0" d="M98.7,17.8c-0.3,0-0.7,0-1,0l0,1.5c0.3,0,0.7,0,1,0L98.7,17.8z"/>
		<path class="st0" d="M101.8,18.2c-0.3-0.1-0.7-0.1-1-0.2l-0.2,1.5c0.3,0,0.6,0.1,0.9,0.2L101.8,18.2z"/>
		<path class="st0" d="M87.1,20.9l-0.4-1.4c-0.3,0.1-0.6,0.2-1,0.3l0.4,1.4C86.4,21,86.7,20.9,87.1,20.9z"/>
		<path class="st0" d="M76,25.2l-0.7-1.3c-0.3,0.1-0.6,0.3-0.9,0.4l0.7,1.3C75.4,25.5,75.7,25.3,76,25.2z"/>
		<path class="st0" d="M78.7,23.9l-0.6-1.4c-0.3,0.1-0.6,0.3-0.9,0.4l0.6,1.4C78.1,24.2,78.4,24.1,78.7,23.9z"/>
		<path class="st0" d="M81.5,22.8l-0.6-1.4c-0.3,0.1-0.6,0.2-0.9,0.4l0.6,1.4C80.8,23,81.2,22.9,81.5,22.8z"/>
		<path class="st0" d="M89.9,20.1l-0.3-1.5c-0.3,0.1-0.7,0.1-1,0.2l0.4,1.5C89.3,20.3,89.6,20.2,89.9,20.1z"/>
		<path class="st0" d="M84.2,21.7l-0.5-1.4c-0.3,0.1-0.6,0.2-1,0.3l0.5,1.4C83.6,22,83.9,21.8,84.2,21.7z"/>
		<path class="st0" d="M16.2,115.2l-1.1,1.1l0.1,0.1c0.2,0.2,0.4,0.4,0.7,0.6l1-1.1c-0.2-0.2-0.4-0.4-0.6-0.5L16.2,115.2z"/>
		<path class="st0" d="M12.4,104.7l-1.5,0c0,0.3,0,0.7,0,1l1.5-0.1C12.4,105.4,12.4,105,12.4,104.7z"/>
		<path class="st0" d="M13.2,113.7c0.2,0.3,0.4,0.6,0.6,0.9l1.2-0.9c-0.2-0.3-0.4-0.5-0.5-0.8L13.2,113.7z"/>
		<path class="st0" d="M17.6,118.2c0.3,0.2,0.6,0.4,0.9,0.5l0.7-1.3c-0.3-0.1-0.6-0.3-0.8-0.5L17.6,118.2z"/>
		<path class="st0" d="M13.3,110.4l-1.4,0.5c0.1,0.3,0.2,0.7,0.4,1l1.4-0.6C13.5,111,13.4,110.7,13.3,110.4z"/>
		<path class="st0" d="M12.6,107.6l-1.5,0.2c0.1,0.3,0.1,0.7,0.2,1l1.5-0.3C12.7,108.2,12.7,107.9,12.6,107.6z"/>
		<path class="st0" d="M13.4,96l-1.5-0.4c-0.1,0.3-0.2,0.7-0.2,1l1.5,0.3C13.3,96.6,13.3,96.3,13.4,96z"/>
		<path class="st0" d="M11.2,99.7l1.5,0.2c0-0.3,0.1-0.6,0.1-1l-1.5-0.2C11.3,99,11.2,99.3,11.2,99.7z"/>
		<path class="st0" d="M10.9,102.7l1.5,0.1c0-0.3,0-0.6,0.1-1l-1.5-0.1C10.9,102,10.9,102.4,10.9,102.7z"/>
		<path class="st0" d="M23.5,120.4c0.3,0.1,0.7,0.1,1,0.2l0.2-1.5c-0.3,0-0.6-0.1-1-0.1L23.5,120.4z"/>
		<path class="st0" d="M38.2,117.5l0.4,1.4c0.3-0.1,0.6-0.2,1-0.3l-0.5-1.4C38.8,117.3,38.5,117.4,38.2,117.5z"/>
		<path class="st0" d="M20.4,119.6c0.3,0.1,0.7,0.2,1,0.3l0.4-1.4c-0.3-0.1-0.6-0.2-0.9-0.3L20.4,119.6z"/>
		<path class="st0" d="M32.4,118.8l0.2,1.5c0.3-0.1,0.7-0.1,1-0.2l-0.3-1.5C33.1,118.7,32.7,118.8,32.4,118.8z"/>
		<path class="st0" d="M29.5,119.2l0.1,1.5c0.3,0,0.7-0.1,1-0.1l-0.2-1.5C30.2,119.1,29.8,119.2,29.5,119.2z"/>
		<path class="st0" d="M26.6,119.2l-0.1,1.5c0.3,0,0.7,0,1,0h0l0-1.5C27.2,119.3,26.9,119.2,26.6,119.2z"/>
		<path class="st0" d="M35.3,118.3l0.3,1.5c0.3-0.1,0.7-0.2,1-0.2l-0.4-1.5C36,118.1,35.6,118.2,35.3,118.3z"/>
		<path class="st0" d="M119.2,94c4.2-6.5,6.4-14.1,6.4-21.9c0-11.6-4.9-22.1-12.8-29.5c1.5-6.3,1.3-11.6-0.3-15.8
			c1-1.2,1.7-2.7,1.7-4.4c0-3.6-3-6.6-6.6-6.6s-6.6,3-6.6,6.6s3,6.6,6.6,6.6c1.4,0,2.7-0.4,3.7-1.2c1.3,3.6,1.4,8.2,0.3,13.6
			c-7.1-6.2-16.4-9.9-26.6-9.9c-2.4,0-4.7,0.2-7,0.6c-1.4-2-2.9-3.9-4.6-5.6l-0.7-1.3l-0.4,0.2c-7.3-6.8-17-11.1-27.8-11.1
			c-3.2,0-6.2,0.4-9.2,1.1c-0.2-0.2-0.4-0.3-0.6-0.5c-0.2-0.3-0.5-0.5-0.8-0.8c-1.1-1.1-1.5-2.6-1-4.1L33,9.8c0.1-0.4,0-0.8-0.4-0.9
			L28.5,7c-0.4-0.2-0.8,0-1,0.3l-0.1,0.2c-0.7,1.3-2.1,2-3.7,1.9c-0.3,0-0.7,0-1.1,0h0c-1.6,0-2.9-0.8-3.6-2.1l-0.1-0.3
			c-0.2-0.3-0.6-0.5-0.9-0.4l-4.2,1.6c-0.4,0.1-0.6,0.5-0.5,0.9l0.1,0.3c0.4,1.4-0.1,3-1.3,4c-0.3,0.2-0.5,0.5-0.8,0.8
			c-1.1,1.1-2.7,1.5-4.1,1l-0.3-0.1c-0.4-0.1-0.8,0.1-0.9,0.4l-1.8,4.1c-0.2,0.4,0,0.8,0.3,1l0.2,0.1c1.3,0.7,2,2.2,1.9,3.7
			c0,0.4,0,0.7,0,1.1c0,1.6-0.8,3-2.1,3.6l-0.3,0.1c-0.3,0.2-0.5,0.6-0.4,0.9l1.6,4.2C5.6,34.8,6,35,6.4,34.9l0.3-0.1
			c0.8-0.2,1.7-0.1,2.5,0.2c-3.4,5.9-5.3,12.7-5.3,20c0,7.8,2.2,15.3,6.4,21.9L3.9,94.6c-0.1,0.3,0,0.6,0.2,0.8
			c0.1,0.1,0.3,0.2,0.5,0.2c0.1,0,0.2,0,0.3,0l7.9-2.8c-0.1,0.3-0.2,0.6-0.3,1l1.4,0.4c0.1-0.3,0.2-0.6,0.3-0.9l-1.4-0.4l9.8-3.5
			c6.5,4.2,14.1,6.4,21.9,6.4c2.4,0,4.7-0.2,7-0.6c2.8,4.1,6.4,7.7,10.5,10.6c-2.9,2-5.9,3.8-8.8,5.4c-1.2-1.8-3.2-2.9-5.5-2.9
			c-3.6,0-6.6,3-6.6,6.6c0,0.6,0.1,1.2,0.3,1.8c-0.1,0-0.3,0.1-0.4,0.1l0.5,1.4c0.2-0.1,0.3-0.1,0.5-0.2c1.1,2,3.3,3.4,5.8,3.4
			c3.6,0,6.6-3,6.6-6.6c0-0.8-0.2-1.6-0.4-2.3c3.1-1.7,6.3-3.7,9.4-5.9c6.3,4,13.7,6.3,21.7,6.3c7.8,0,15.3-2.2,21.9-6.4l17.7,6.4
			c0.1,0,0.2,0,0.3,0c0.2,0,0.4-0.1,0.5-0.2c0.2-0.2,0.3-0.5,0.2-0.8L119.2,94z M47.7,119.7c-2.8,0-5.1-2.3-5.1-5.1
			c0-2.8,2.3-5.1,5.1-5.1c2.8,0,5.1,2.3,5.1,5.1C52.8,117.5,50.5,119.7,47.7,119.7z M107.6,27.5c-2.8,0-5.1-2.3-5.1-5.1
			c0-2.8,2.3-5.1,5.1-5.1c2.8,0,5.1,2.3,5.1,5.1C112.6,25.2,110.4,27.5,107.6,27.5z M6.6,33.3l-1.1-2.9c1.6-1,2.6-2.8,2.6-4.8
			c0-0.3,0-0.7,0-1c0.1-2-0.8-3.8-2.3-4.9l1.3-2.9c1.8,0.5,3.9-0.1,5.2-1.5c0.2-0.2,0.5-0.5,0.7-0.7c1.5-1.3,2.2-3.3,1.8-5.1
			l2.9-1.1c1,1.6,2.7,2.6,4.8,2.6h0c0.3,0,0.6,0,0.9,0c2,0.1,3.8-0.8,4.9-2.3l2.9,1.3c-0.5,1.8,0.1,3.8,1.5,5.2
			c0.2,0.2,0.5,0.5,0.7,0.7c1.3,1.5,3.3,2.2,5.1,1.8l1.1,2.9c-1.6,1-2.6,2.8-2.6,4.8c0,0.3,0,0.7,0,1c-0.1,2,0.8,3.8,2.3,4.9
			l-1.3,2.9c-1.8-0.5-3.9,0.1-5.2,1.5c-0.2,0.2-0.5,0.5-0.7,0.7c-1.5,1.3-2.2,3.3-1.8,5.1l-2.9,1.1c-1-1.6-2.7-2.6-4.7-2.6h-0.1
			c-0.3,0-0.6,0-0.9,0c-2-0.1-3.8,0.8-4.9,2.3l-2.9-1.3c0.5-1.8-0.1-3.8-1.5-5.2c-0.2-0.2-0.5-0.5-0.7-0.7
			C10.4,33.6,8.5,32.9,6.6,33.3z M44.4,94.1c-7.6,0-15-2.2-21.4-6.4c-0.1-0.1-0.3-0.1-0.4-0.1c-0.1,0-0.2,0-0.3,0l-16.6,6l6-16.6
			c0.1-0.2,0.1-0.5-0.1-0.7C7.5,70,5.3,62.6,5.3,55c0-7,1.8-13.5,5-19.2c0.1,0.1,0.2,0.2,0.3,0.3c0.2,0.3,0.5,0.5,0.8,0.8
			c1.1,1.1,1.5,2.6,1,4.1l-0.1,0.3c-0.1,0.4,0,0.8,0.4,0.9l4.1,1.8c0.4,0.2,0.8,0,1-0.3l0.1-0.2c0.7-1.3,2.1-2,3.7-1.9
			c0.3,0,0.7,0,1,0h0.1c1.6,0,2.9,0.8,3.6,2.1l0.1,0.3c0.1,0.3,0.4,0.4,0.7,0.4c0.1,0,0.2,0,0.3,0l4.2-1.6c0.4-0.1,0.6-0.5,0.5-0.9
			L32,41.5c-0.4-1.4,0.1-3,1.3-4c0.3-0.2,0.5-0.5,0.8-0.8c1.1-1.1,2.7-1.5,4.1-1l0.3,0.1c0.4,0.1,0.8,0,0.9-0.4l1.8-4.1
			c0.2-0.4,0-0.8-0.3-1l-0.2-0.1c-1.3-0.7-2-2.1-1.9-3.7c0-0.4,0-0.7,0-1.1c0-1.6,0.8-3,2.1-3.6l0.3-0.1c0.3-0.2,0.5-0.6,0.4-0.9
			l-1.6-4.2c-0.1-0.2-0.2-0.3-0.3-0.4c1.6-0.2,3.2-0.3,4.9-0.3C66,15.9,83.5,33.4,83.5,55S66,94.1,44.4,94.1z M63.3,104.6
			c-4-2.7-7.4-6-10.2-9.9c18.3-4,32-20.3,32-39.7c0-7.9-2.3-15.3-6.2-21.5c2-0.3,4-0.5,6.1-0.5c10.1,0,19.2,3.8,26.2,10.1
			c-0.6,2.3-1.4,4.7-2.4,7.2c-5,12.5-14.5,26.2-26.9,38.6C76,94.8,69.6,100.1,63.3,104.6z M107,104.8c-0.2-0.1-0.5,0-0.7,0.1
			c-6.4,4.2-13.8,6.4-21.4,6.4c-7.5,0-14.4-2.1-20.4-5.8c6.3-4.5,12.5-9.8,18.4-15.6c12.5-12.5,22.2-26.4,27.2-39.1
			c0.9-2.3,1.6-4.5,2.2-6.6c7.2,7.1,11.7,17,11.7,27.9c0,7.6-2.2,15-6.4,21.4c-0.1,0.2-0.2,0.4-0.1,0.7l6,16.6L107,104.8z"/>
	</g>
	<g>
		<circle class="st4" cx="47.7" cy="114.7" r="3.6"/>
	</g>
	<g>
		<circle class="st2" cx="95.9" cy="125.3" r="2.7"/>
	</g>
	<g>
		<circle class="st5" cx="47.7" cy="70.5" r="2.7"/>
	</g>
	<g>
		<circle class="st5" cx="20.7" cy="64" r="1.7"/>
	</g>
	<g>
		<g>
			<g>
				<path class="st4" d="M119.4,9.4c-0.2,0-0.4-0.1-0.5-0.2c-0.3-0.3-0.3-0.8,0-1.1l1.3-1.3c0.3-0.3,0.8-0.3,1.1,0
					c0.3,0.3,0.3,0.8,0,1.1l-1.3,1.3C119.8,9.4,119.6,9.4,119.4,9.4z"/>
			</g>
			<g>
				<path class="st4" d="M115.4,13.5c-0.2,0-0.4-0.1-0.5-0.2c-0.3-0.3-0.3-0.8,0-1.1l1.3-1.3c0.3-0.3,0.8-0.3,1.1,0
					c0.3,0.3,0.3,0.8,0,1.1l-1.3,1.3C115.7,13.4,115.5,13.5,115.4,13.5z"/>
			</g>
			<g>
				<path class="st4" d="M120.7,13.5c-0.2,0-0.4-0.1-0.5-0.2l-1.3-1.3c-0.3-0.3-0.3-0.8,0-1.1c0.3-0.3,0.8-0.3,1.1,0l1.3,1.3
					c0.3,0.3,0.3,0.8,0,1.1C121,13.4,120.9,13.5,120.7,13.5z"/>
			</g>
			<g>
				<path class="st4" d="M116.6,9.4c-0.2,0-0.4-0.1-0.5-0.2l-1.3-1.3c-0.3-0.3-0.3-0.8,0-1.1c0.3-0.3,0.8-0.3,1.1,0l1.3,1.3
					c0.3,0.3,0.3,0.8,0,1.1C117,9.4,116.8,9.4,116.6,9.4z"/>
			</g>
		</g>
		<g>
			<circle class="st4" cx="124.7" cy="36.3" r="4"/>
		</g>
		<g>
			<circle class="st4" cx="90.5" cy="2.7" r="2.7"/>
		</g>
	</g>
	<g>
		<path class="st0" d="M56.5,55.9c-4.5,0-8.2-3.7-8.2-8.2c0-4.5,3.7-8.2,8.2-8.2c4.5,0,8.2,3.7,8.2,8.2C64.7,52.2,61,55.9,56.5,55.9
			z M56.5,41c-3.7,0-6.7,3-6.7,6.7c0,3.7,3,6.7,6.7,6.7c3.7,0,6.7-3,6.7-6.7C63.2,44,60.2,41,56.5,41z"/>
	</g>
	<g>
		<path class="st0" d="M63.7,55.1c-0.2,0-0.4-0.1-0.5-0.2l-4.3-4.3c-0.3-0.3-0.3-0.8,0-1.1c0.3-0.3,0.8-0.3,1.1,0l4.3,4.3
			c0.3,0.3,0.3,0.8,0,1.1C64.1,55,63.9,55.1,63.7,55.1z"/>
	</g>
	<g>
		<path class="st0" d="M101.6,89.9c-0.1,0-0.2,0-0.3,0c-0.4-0.1-0.6-0.6-0.4-1l6-15.9c0.1-0.3,0.4-0.5,0.7-0.5
			c0.3,0,0.6,0.2,0.7,0.5l6,15.9c0.1,0.4-0.1,0.8-0.4,1c-0.4,0.1-0.8-0.1-1-0.4l-5.3-14.1l-5.3,14.1
			C102.2,89.7,101.9,89.9,101.6,89.9z"/>
	</g>
	<g>
		<path class="st0" d="M111.2,83.8h-7.3c-0.4,0-0.8-0.3-0.8-0.8c0-0.4,0.3-0.8,0.8-0.8h7.3c0.4,0,0.8,0.3,0.8,0.8
			C112,83.4,111.6,83.8,111.2,83.8z"/>
	</g>
</g>
</svg>
