<?xml version="1.0" encoding="utf-8"?>
<!-- Generator: Adobe Illustrator 21.1.0, SVG Export Plug-In . SVG Version: 6.00 Build 0)  -->
<svg version="1.1" id="Layer_1" xmlns="http://www.w3.org/2000/svg" xmlns:xlink="http://www.w3.org/1999/xlink" x="0px" y="0px"
	 viewBox="0 0 129.5 129.5" style="enable-background:new 0 0 129.5 129.5;" xml:space="preserve">
<style type="text/css">
	.st0{fill:#231F20;}
	.st1{fill:#9ED9CF;}
	.st2{fill:#FF7058;}
	.st3{fill:#FFD05B;}
	.st4{fill:#FFFFFF;}
</style>
<g>
	<path class="st0" d="M120.6,8.8c-0.2,0-0.4-0.1-0.5-0.2c-0.3-0.3-0.3-0.8,0-1.1l1.3-1.3c0.3-0.3,0.8-0.3,1.1,0
		c0.3,0.3,0.3,0.8,0,1.1l-1.3,1.3C121,8.8,120.8,8.8,120.6,8.8z"/>
	<path class="st0" d="M116.6,12.9c-0.2,0-0.4-0.1-0.5-0.2c-0.3-0.3-0.3-0.8,0-1.1l1.3-1.3c0.3-0.3,0.8-0.3,1.1,0
		c0.3,0.3,0.3,0.8,0,1.1l-1.3,1.3C116.9,12.8,116.7,12.9,116.6,12.9z"/>
	<path class="st0" d="M121.9,12.9c-0.2,0-0.4-0.1-0.5-0.2l-1.3-1.3c-0.3-0.3-0.3-0.8,0-1.1c0.3-0.3,0.8-0.3,1.1,0l1.3,1.3
		c0.3,0.3,0.3,0.8,0,1.1C122.3,12.8,122.1,12.9,121.9,12.9z"/>
	<path class="st0" d="M117.8,8.8c-0.2,0-0.4-0.1-0.5-0.2L116,7.3c-0.3-0.3-0.3-0.8,0-1.1c0.3-0.3,0.8-0.3,1.1,0l1.3,1.3
		c0.3,0.3,0.3,0.8,0,1.1C118.2,8.8,118,8.8,117.8,8.8z"/>
	<path class="st0" d="M12.9,11.7c-0.2,0-0.4-0.1-0.5-0.2c-0.3-0.3-0.3-0.8,0-1.1l1.3-1.3c0.3-0.3,0.8-0.3,1.1,0
		c0.3,0.3,0.3,0.8,0,1.1l-1.3,1.3C13.3,11.6,13.1,11.7,12.9,11.7z"/>
	<path class="st0" d="M8.9,15.7c-0.2,0-0.4-0.1-0.5-0.2c-0.3-0.3-0.3-0.8,0-1.1l1.3-1.3c0.3-0.3,0.8-0.3,1.1,0
		c0.3,0.3,0.3,0.8,0,1.1l-1.3,1.3C9.3,15.6,9.1,15.7,8.9,15.7z"/>
	<path class="st0" d="M14.2,15.7c-0.2,0-0.4-0.1-0.5-0.2l-1.3-1.3c-0.3-0.3-0.3-0.8,0-1.1c0.3-0.3,0.8-0.3,1.1,0l1.3,1.3
		c0.3,0.3,0.3,0.8,0,1.1C14.6,15.6,14.4,15.7,14.2,15.7z"/>
	<path class="st0" d="M10.2,11.7c-0.2,0-0.4-0.1-0.5-0.2l-1.3-1.3c-0.3-0.3-0.3-0.8,0-1.1c0.3-0.3,0.8-0.3,1.1,0l1.3,1.3
		c0.3,0.3,0.3,0.8,0,1.1C10.6,11.6,10.4,11.7,10.2,11.7z"/>
	<path class="st0" d="M110.2,116.3c-0.2,0-0.4-0.1-0.5-0.2c-0.3-0.3-0.3-0.8,0-1.1l1.3-1.3c0.3-0.3,0.8-0.3,1.1,0
		c0.3,0.3,0.3,0.8,0,1.1l-1.3,1.3C110.6,116.2,110.4,116.3,110.2,116.3z"/>
	<path class="st0" d="M106.2,120.3c-0.2,0-0.4-0.1-0.5-0.2c-0.3-0.3-0.3-0.8,0-1.1l1.3-1.3c0.3-0.3,0.8-0.3,1.1,0
		c0.3,0.3,0.3,0.8,0,1.1l-1.3,1.3C106.5,120.2,106.3,120.3,106.2,120.3z"/>
	<path class="st0" d="M111.5,120.3c-0.2,0-0.4-0.1-0.5-0.2l-1.3-1.3c-0.3-0.3-0.3-0.8,0-1.1c0.3-0.3,0.8-0.3,1.1,0l1.3,1.3
		c0.3,0.3,0.3,0.8,0,1.1C111.8,120.2,111.7,120.3,111.5,120.3z"/>
	<path class="st0" d="M107.4,116.3c-0.2,0-0.4-0.1-0.5-0.2l-1.3-1.3c-0.3-0.3-0.3-0.8,0-1.1c0.3-0.3,0.8-0.3,1.1,0l1.3,1.3
		c0.3,0.3,0.3,0.8,0,1.1C107.8,116.2,107.6,116.3,107.4,116.3z"/>
	<path class="st0" d="M58.8,59.3l-1.1-1.1l0.7-0.7l1.1,1.1L58.8,59.3z M60.2,57.9l-1.1-1.1l0.7-0.7l1.1,1.1L60.2,57.9z M61.7,56.5
		l-1.1-1.1l0.7-0.7l1.1,1.1L61.7,56.5z M63.1,55.1L62,54l0.7-0.7l1.1,1.1L63.1,55.1z M64.5,53.7l-1.1-1.1l0.7-0.7l1.1,1.1L64.5,53.7
		z"/>
	<path class="st0" d="M64.7,53.2c-0.2,0-0.4-0.1-0.5-0.2c-0.3-0.3-0.3-0.8,0-1.1l6.5-6.5c0.3-0.3,0.8-0.3,1.1,0
		c0.3,0.3,0.3,0.8,0,1.1l-6.5,6.5C65,53.1,64.9,53.2,64.7,53.2z"/>
	<path class="st0" d="M74.2,49.8c-0.2,0-0.4-0.1-0.5-0.2l-6.1-6.1c-0.2-0.2-0.3-0.5-0.2-0.8c0.1-0.3,0.4-0.5,0.7-0.5h6.1
		c0.4,0,0.8,0.3,0.8,0.8V49c0,0.3-0.2,0.6-0.5,0.7C74.4,49.7,74.3,49.8,74.2,49.8z M69.9,43.7l3.5,3.5v-3.5H69.9z"/>
	<path class="st0" d="M68.2,62.2l-1.1-1.1l0.7-0.7l1.1,1.1L68.2,62.2z M69.7,60.7l-1.1-1.1l0.7-0.7l1.1,1.1L69.7,60.7z M71.1,59.3
		L70,58.3l0.7-0.7l1.1,1.1L71.1,59.3z M72.5,57.9l-1.1-1.1l0.7-0.7l1.1,1.1L72.5,57.9z M73.9,56.5l-1.1-1.1l0.7-0.7l1.1,1.1
		L73.9,56.5z"/>
	<path class="st0" d="M61.2,68.8c-0.2,0-0.4-0.1-0.5-0.2c-0.3-0.3-0.3-0.8,0-1.1l6.5-6.5c0.3-0.3,0.8-0.3,1.1,0
		c0.3,0.3,0.3,0.8,0,1.1l-6.5,6.5C61.6,68.8,61.4,68.8,61.2,68.8z"/>
	<path class="st0" d="M64.3,71.9h-6.1c-0.4,0-0.8-0.3-0.8-0.8V65c0-0.3,0.2-0.6,0.5-0.7c0.3-0.1,0.6-0.1,0.8,0.2l6.1,6.1
		c0.2,0.2,0.3,0.5,0.2,0.8C64.9,71.7,64.6,71.9,64.3,71.9z M58.9,70.4h3.5l-3.5-3.5V70.4z"/>
	<circle class="st1" cx="25.6" cy="29.8" r="3"/>
	<circle class="st2" cx="95.7" cy="7.4" r="3"/>
	<circle class="st3" cx="94.4" cy="118.3" r="2.2"/>
	<path class="st1" d="M128.8,104.7v-4.2c0-13.7-11.1-24.8-24.8-24.8h0c-13.7,0-24.8,11.1-24.8,24.8v4.2H128.8z"/>
	<path class="st4" d="M110.4,69.7H97.4v11.7c0,2.9,2.4,5.3,5.3,5.3h2.5c2.9,0,5.3-2.4,5.3-5.3V69.7z"/>
	<path class="st3" d="M118.2,25.9c-0.3-3.7-3.4-6.5-6.9-6.2c-16.4,1.6-27.4-5.1-27.4-5.1s-0.6,7.5,2.4,13.2c-2.5,2.1-4,5.2-4,8.7
		v16.1c0,2.3,1.9,4.2,4.2,4.2h35.1c2.3,0,4.2-1.9,4.2-4.2V36.6C125.6,31.7,122.5,27.5,118.2,25.9z"/>
	<path class="st4" d="M121.6,48.2h-0.2v-4.6c-7.1-0.7-12.9-5.7-14.8-12.4c-4.3,7-11.7,11.8-20.3,12.4v4.5h-0.2
		c-1.4,0-2.6,1.1-2.6,2.6c0,1.4,1.1,2.6,2.6,2.6h0.2v3.5c0,9.7,7.9,17.5,17.5,17.5c9.7,0,17.5-7.9,17.5-17.5v-3.5h0.2
		c1.4,0,2.6-1.1,2.6-2.6C124.2,49.3,123,48.2,121.6,48.2z"/>
	<path class="st0" d="M115.3,50.6c-0.4,0-0.7-0.3-0.7-0.6c-0.2-1.2-1.3-2.1-2.5-2.1c-1.2,0-2.3,0.9-2.5,2.1
		c-0.1,0.4-0.5,0.7-0.9,0.6c-0.4-0.1-0.7-0.5-0.6-0.9c0.4-1.9,2-3.3,4-3.3c1.9,0,3.6,1.4,4,3.3c0.1,0.4-0.2,0.8-0.6,0.9
		C115.4,50.6,115.3,50.6,115.3,50.6z"/>
	<path class="st0" d="M99,50.6c-0.4,0-0.7-0.3-0.7-0.6c-0.2-1.2-1.3-2.1-2.5-2.1c-1.2,0-2.3,0.9-2.5,2.1c-0.1,0.4-0.5,0.7-0.9,0.6
		c-0.4-0.1-0.7-0.5-0.6-0.9c0.4-1.9,2-3.3,4-3.3c1.9,0,3.6,1.4,4,3.3c0.1,0.4-0.2,0.8-0.6,0.9C99.1,50.6,99,50.6,99,50.6z"/>
	<path class="st0" d="M103.9,67.5c-3,0-5.8-2.1-6.6-5l-0.3-1h13.7l-0.3,1C109.7,65.5,106.9,67.5,103.9,67.5z M99.1,63.1
		c0.9,1.8,2.7,2.9,4.8,2.9c2,0,3.9-1.2,4.8-2.9H99.1z"/>
	<line class="st4" x1="117.9" y1="104.7" x2="117.9" y2="96.3"/>
	<line class="st4" x1="89.9" y1="104.7" x2="89.9" y2="96.3"/>
	<path class="st2" d="M49.9,79.3c0,4.5-0.5,8.7-1.4,12.7c-5.4-2.3-13.7-3.8-22.9-3.8S8.2,89.7,2.7,92c-0.9-4-1.4-8.2-1.4-12.7
		c0-26.8,10.9-37.8,24.3-37.8C39,41.6,49.9,52.5,49.9,79.3z"/>
	<path class="st1" d="M50.5,128.8v-4.2c0-13.7-11.1-24.8-24.8-24.8h0c-13.7,0-24.8,11.1-24.8,24.8v4.2H50.5z"/>
	<path class="st4" d="M32.1,93.7H19.1v11.7c0,2.9,2.4,5.3,5.3,5.3h2.5c2.9,0,5.3-2.4,5.3-5.3V93.7z"/>
	<path class="st4" d="M45.9,74.8c0,1.4-1.2,2.6-2.6,2.6h-0.2v3.5c0,9.7-7.8,17.5-17.5,17.5c-9.7,0-17.5-7.8-17.5-17.5v-3.5H7.9
		c-1.4,0-2.6-1.2-2.6-2.6c0-1.4,1.2-2.6,2.6-2.6h0.2v-9.1c4.1,2.1,10.4,3.4,17.5,3.4c7.1,0,13.4-1.3,17.5-3.4v9.1h0.2
		C44.7,72.3,45.9,73.4,45.9,74.8z"/>
	<path class="st0" d="M37,74.6c-0.4,0-0.7-0.3-0.7-0.6C36,72.8,35,72,33.7,72c-1.2,0-2.3,0.9-2.5,2.1c-0.1,0.4-0.5,0.7-0.9,0.6
		c-0.4-0.1-0.7-0.5-0.6-0.9c0.4-1.9,2-3.3,4-3.3s3.6,1.4,4,3.3c0.1,0.4-0.2,0.8-0.6,0.9C37.1,74.6,37,74.6,37,74.6z"/>
	<path class="st0" d="M20.7,74.6c-0.4,0-0.7-0.3-0.7-0.6c-0.2-1.2-1.3-2.1-2.5-2.1c-1.2,0-2.3,0.9-2.5,2.1c-0.1,0.4-0.5,0.7-0.9,0.6
		c-0.4-0.1-0.7-0.5-0.6-0.9c0.4-1.9,2-3.3,4-3.3c1.9,0,3.6,1.4,4,3.3c0.1,0.4-0.2,0.8-0.6,0.9C20.8,74.6,20.7,74.6,20.7,74.6z"/>
	<path class="st0" d="M25.6,91.6c-3,0-5.8-2.1-6.6-5l-0.3-1h13.7l-0.3,1C31.4,89.5,28.6,91.6,25.6,91.6z M20.8,87.1
		c0.9,1.8,2.7,2.9,4.8,2.9c2,0,3.9-1.2,4.8-2.9H20.8z"/>
	<line class="st4" x1="39.6" y1="128.8" x2="39.6" y2="120.3"/>
	<line class="st4" x1="11.6" y1="128.8" x2="11.6" y2="120.3"/>
	<path class="st0" d="M32.9,100.1v-2.4c3.4-1.5,6.3-4,8.2-7.1c2.6,0.6,5,1.3,7.1,2.2l0.8,0.4l0.2-0.9c0.9-4.1,1.4-8.5,1.4-12.9
		c0-34.8-17.5-38.5-25-38.5c-7.5,0-25,3.8-25,38.5c0,4.4,0.5,8.7,1.4,12.9l0.2,0.9L3,92.7c2-0.9,4.4-1.6,7.1-2.2
		c2,3.1,4.8,5.6,8.2,7.1v2.4C7.7,103.2,0,113,0,124.6v4.9h51.2v-4.9C51.2,113,43.5,103.2,32.9,100.1z M3.3,91
		c-0.8-3.8-1.2-7.7-1.2-11.7c0-23.5,8.6-37,23.5-37c15,0,23.5,13.5,23.5,37c0,4-0.4,7.9-1.2,11.7c-1.8-0.7-3.8-1.3-6.1-1.8
		c1.3-2.5,2-5.3,2-8.3v-2.8c1.6-0.3,2.7-1.6,2.7-3.3s-1.2-3-2.7-3.3v-9.6l-1.1,0.5c-4.2,2.1-10.5,3.3-17.2,3.3
		c-6.7,0-13-1.2-17.2-3.3l-1.1-0.5v9.6c-1.6,0.3-2.8,1.6-2.8,3.3c0,1.6,1.2,3,2.8,3.3v2.8c0,3,0.7,5.8,2,8.3
		C7.1,89.7,5.1,90.3,3.3,91z M8.8,80.9v-4.2H7.9c-1,0-1.8-0.8-1.8-1.8c0-1,0.8-1.8,1.8-1.8h0.9v-8.7c4.4,1.9,10.4,2.9,16.8,2.9
		c6.4,0,12.4-1.1,16.8-2.9V73h0.9c1,0,1.8,0.8,1.8,1.8c0,1-0.8,1.8-1.8,1.8h-0.9v4.2c0,9.3-7.5,16.8-16.8,16.8
		C16.3,97.7,8.8,90.1,8.8,80.9z M31.4,98.2v7.2c0,2.5-2,4.5-4.5,4.5h-2.5c-2.5,0-4.5-2-4.5-4.5v-7.2c1.8,0.6,3.8,0.9,5.8,0.9
		C27.6,99.2,29.6,98.8,31.4,98.2z M49.7,128h-9.3v-7.7h-1.5v7.7H12.3v-7.7h-1.5v7.7H1.5v-3.4c0-10.7,7.1-19.9,16.8-22.9v3.8
		c0,3.3,2.7,6,6,6h2.5c3.3,0,6-2.7,6-6v-3.8c9.7,3.1,16.8,12.2,16.8,22.9V128z"/>
	<path class="st4" d="M69.1,24c1.1-3,1.4-6.4,0.7-9.8c-2.1-9.3-11.3-15.1-20.6-13c-9.3,2.1-15.1,11.3-13,20.6
		c2.1,9.3,11.3,15.1,20.6,13c3.4-0.8,6.3-2.5,8.6-4.8l8.2,1L69.1,24z"/>
	<path class="st0" d="M52.9,35.9c-8.4,0-15.6-5.8-17.5-14C33.3,12.3,39.3,2.6,49,0.4C50.3,0.1,51.7,0,53,0c8.4,0,15.6,5.8,17.5,14
		c0.7,3.3,0.5,6.7-0.6,9.9l4.3,6.7c0.2,0.2,0.2,0.6,0,0.8c-0.2,0.2-0.4,0.4-0.7,0.3l-7.9-1c-2.4,2.4-5.4,4-8.7,4.7
		C55.6,35.8,54.3,35.9,52.9,35.9z M53,1.5c-1.2,0-2.4,0.1-3.6,0.4c-8.9,2-14.4,10.8-12.4,19.7c1.7,7.4,8.4,12.8,16,12.8
		c1.2,0,2.4-0.1,3.6-0.4c3.1-0.7,6-2.3,8.2-4.6c0.2-0.2,0.4-0.2,0.6-0.2l6.7,0.8l-3.6-5.7c-0.1-0.2-0.2-0.4-0.1-0.7
		c1.1-3,1.3-6.2,0.6-9.4C67.3,6.9,60.6,1.5,53,1.5z"/>
	<g>
		<line class="st4" x1="44.4" y1="12.3" x2="61.8" y2="12.3"/>
		<rect x="44.4" y="11.5" class="st0" width="17.5" height="1.5"/>
	</g>
	<g>
		<line class="st4" x1="44.4" y1="17.2" x2="61.8" y2="17.2"/>
		<rect x="44.4" y="16.4" class="st0" width="17.5" height="1.5"/>
	</g>
	<g>
		<line class="st4" x1="44.4" y1="22.1" x2="55.4" y2="22.1"/>
		<rect x="44.4" y="21.3" class="st0" width="11.1" height="1.5"/>
	</g>
	<path class="st4" d="M57.9,111.8c-1-2.7-1.3-5.8-0.6-8.8c1.9-8.3,10.2-13.6,18.5-11.7c8.3,1.9,13.6,10.2,11.7,18.5
		c-1.9,8.3-10.2,13.6-18.5,11.7c-3-0.7-5.7-2.2-7.7-4.3l-7.4,0.9L57.9,111.8z"/>
	<path class="st0" d="M129.5,100.5c0-11.6-7.7-21.4-18.3-24.5v-2.4c6.3-2.7,10.7-8.9,11-16.1c2.4-0.3,4.2-2.4,4.2-4.9V36.6
		c0-4.9-3-9.3-7.5-11.2c-0.5-3.9-3.9-6.8-7.7-6.4c-1.7,0.2-3.4,0.3-5.1,0.3h0c-13.1,0-21.7-5.2-21.8-5.2l-1-0.6l-0.1,1.2
		c0,0.3-0.6,7.3,2.2,13.1c-2.4,2.3-3.8,5.5-3.8,8.8v16.1c0,2.5,1.8,4.5,4.2,4.8c0.3,7.2,4.7,13.3,11,16.1V76
		c-7.8,2.3-14.1,8.3-16.8,16c-1.2-0.6-2.5-1.1-3.8-1.4c-1.2-0.3-2.4-0.4-3.6-0.4c-7.6,0-14.1,5.2-15.8,12.7c-0.7,3-0.5,6,0.5,8.9
		l-3.8,6c-0.2,0.2-0.2,0.6,0,0.8c0.2,0.2,0.4,0.4,0.7,0.3l7-0.9c2.2,2.1,4.8,3.6,7.8,4.3c1.2,0.3,2.4,0.4,3.6,0.4
		c7.6,0,14.1-5.2,15.8-12.7c0.3-1.5,0.4-3.1,0.4-4.6h40.9V100.5z M124.9,52.7c0,1.6-1.2,3-2.7,3.3v-2c1.4-0.2,2.4-1.3,2.7-2.7V52.7z
		 M82.9,36.6c0-3.1,1.4-6.1,3.7-8.1l0.5-0.4l-0.3-0.5c-2.2-4.2-2.4-9.4-2.3-11.7c2.8,1.4,10.5,4.8,21.5,4.8h0c1.7,0,3.5-0.1,5.3-0.3
		c3.1-0.3,5.9,2.2,6.1,5.5l0,0.5l0.5,0.2c4.2,1.5,7,5.5,7,10v13.5c-0.3-1.3-1.3-2.4-2.7-2.7v-3.1c0.3,0,0.7,0,1,0
		c0.4,0,0.8-0.3,0.8-0.8c0-0.4-0.3-0.8-0.8-0.8c-0.5,0-1.1,0-1.6-0.1c-6.6-0.7-12.3-5.4-14.1-11.8c-0.1-0.3-0.3-0.5-0.6-0.5
		c-0.3,0-0.6,0.1-0.7,0.4c-4.3,6.9-11.6,11.4-19.7,12c-0.6,0-1.2,0.1-1.8,0.1c-0.4,0-0.8,0.3-0.8,0.8c0,0.4,0.3,0.8,0.8,0.8
		c0.4,0,0.8,0,1.2,0v3.1c-1.4,0.2-2.4,1.3-2.7,2.6V36.6z M85.6,56c-1.5-0.3-2.7-1.7-2.7-3.3v-1.3c0.3,1.3,1.3,2.4,2.7,2.6V56z
		 M87.1,56.8v-4.2h-0.9c-1,0-1.8-0.8-1.8-1.8c0-1,0.8-1.8,1.8-1.8h0.9v-4.6c7.8-0.8,14.9-4.9,19.3-11.3c2.3,6,7.8,10.4,14.2,11.3
		v4.6h0.9c1,0,1.8,0.8,1.8,1.8c0,1-0.8,1.8-1.8,1.8h-0.9v4.2c0,9.3-7.5,16.8-16.8,16.8C94.6,73.6,87.1,66.1,87.1,56.8z M109.7,74.2
		v7.2c0,2.5-2,4.5-4.5,4.5h-2.5c-2.5,0-4.5-2-4.5-4.5v-7.2c1.8,0.6,3.8,1,5.8,1C105.9,75.1,107.9,74.8,109.7,74.2z M86.8,109.7
		c-1.5,6.7-7.5,11.5-14.4,11.5c-1.1,0-2.2-0.1-3.3-0.4c-2.8-0.6-5.3-2.1-7.3-4.1c-0.1-0.1-0.3-0.2-0.5-0.2c0,0-0.1,0-0.1,0l-5.8,0.7
		l3.2-5c0.1-0.2,0.2-0.4,0.1-0.7c-1-2.7-1.2-5.6-0.6-8.4c1.5-6.7,7.5-11.5,14.4-11.5c1.1,0,2.2,0.1,3.3,0.4
		C83.6,93.8,88.6,101.7,86.8,109.7z M128,103.9h-9.3v-7.7h-1.5v7.7H90.6v-7.7h-1.5v7.7h-0.7c-0.7-4.6-3.4-8.7-7.3-11.2
		c2.5-7.2,8.2-12.9,15.5-15.2v3.8c0,3.3,2.7,6,6,6h2.5c3.3,0,6-2.7,6-6v-3.8c9.7,3.1,16.8,12.2,16.8,22.9V103.9z"/>
	<g>
		<line class="st4" x1="80.2" y1="101.3" x2="64.4" y2="101.3"/>
		<rect x="64.4" y="100.6" class="st0" width="15.7" height="1.5"/>
	</g>
	<g>
		<line class="st4" x1="80.2" y1="105.7" x2="64.4" y2="105.7"/>
		<rect x="64.4" y="105" class="st0" width="15.7" height="1.5"/>
	</g>
	<g>
		<line class="st4" x1="80.2" y1="110.1" x2="70.2" y2="110.1"/>
		<rect x="70.2" y="109.4" class="st0" width="9.9" height="1.5"/>
	</g>
</g>
</svg>
