<?xml version="1.0" encoding="utf-8"?>
<!-- Generator: Adobe Illustrator 21.1.0, SVG Export Plug-In . SVG Version: 6.00 Build 0)  -->
<svg version="1.1" id="Layer_1" xmlns="http://www.w3.org/2000/svg" xmlns:xlink="http://www.w3.org/1999/xlink" x="0px" y="0px"
	 viewBox="0 0 129.5 128.9" style="enable-background:new 0 0 129.5 128.9;" xml:space="preserve">
<style type="text/css">
	.st0{fill:#08B2A0;}
	.st1{fill:#FFFFFF;}
	.st2{fill:#231F20;}
	.st3{fill:#E6E9EE;}
	.st4{fill:#84DBFF;}
	.st5{fill:#FFD05B;}
	.st6{fill:#FF7058;}
</style>
<g>
	<circle class="st0" cx="15.4" cy="18.9" r="6.7"/>
	<polygon class="st1" points="14.1,16.3 14.1,21.5 17.4,18.9 	"/>
	<path class="st2" d="M28.1,15.2h-2V9.1c0-2-1.6-3.6-3.6-3.6h-14c-2,0-3.6,1.6-3.6,3.6v6.1h-2C1.2,15.2,0,16.4,0,18v5.6
		c0,1.5,1.2,2.8,2.8,2.8h3.5V9.1C6.3,8,7.2,7,8.4,7h14c1.2,0,2.1,0.9,2.1,2.1v19.3c0,1.8-1.5,3.3-3.3,3.3h-0.8
		c-0.3-1.1-1.3-1.9-2.6-1.9h-3.5c-1.5,0-2.7,1.2-2.7,2.7c0,1.5,1.2,2.7,2.7,2.7h3.5c1.2,0,2.2-0.8,2.6-1.9h0.8
		c2.6,0,4.8-2.1,4.8-4.8v-2.2h2c1.5,0,2.8-1.2,2.8-2.8V18C30.8,16.4,29.6,15.2,28.1,15.2z M1.5,23.5V18c0-0.7,0.6-1.3,1.3-1.3h2v8.1
		h-2C2.1,24.8,1.5,24.2,1.5,23.5z M17.9,33.7h-3.5c-0.7,0-1.2-0.5-1.2-1.2c0-0.7,0.5-1.2,1.2-1.2h3.5c0.7,0,1.2,0.5,1.2,1.2
		C19.1,33.2,18.5,33.7,17.9,33.7z M29.3,23.5c0,0.7-0.6,1.3-1.3,1.3h-2v-8.1h2c0.7,0,1.3,0.6,1.3,1.3V23.5z"/>
	<path class="st3" d="M9.4,126.2c-1.9,0-3.5-1.6-3.5-3.5V120h117.7v2.7c0,1.9-1.6,3.5-3.5,3.5H9.4z"/>
	<rect x="19.1" y="59.1" class="st4" width="91.3" height="52.6"/>
	<path class="st2" d="M74.1,123.8h-1v-1.5h1V123.8z M71.1,123.8h-1v-1.5h1V123.8z M68.1,123.8h-1v-1.5h1V123.8z M65.1,123.8h-1v-1.5
		h1V123.8z M62.1,123.8h-1v-1.5h1V123.8z M59.1,123.8h-1v-1.5h1V123.8z M56.1,123.8h-1v-1.5h1V123.8z"/>
	<path class="st0" d="M95.6,118v-5.5c0-17.9-14.5-32.4-32.4-32.4h0c-17.9,0-32.4,14.5-32.4,32.4v5.5H95.6z"/>
	<path class="st1" d="M71.7,79.9v-7.6h-17v7.6c0,4.7,3.8,8.5,8.5,8.5l0,0C67.9,88.4,71.7,84.6,71.7,79.9z"/>
	<path class="st5" d="M81.8,15.4c-0.3-4.9-4.4-8.5-9-8.1C51.4,9.5,37,0.8,37,0.8s-0.8,9.7,3.1,17.2c-3.2,2.7-5.2,6.8-5.2,11.3v20.9
		c0,3,2.4,5.4,5.4,5.4H86c3,0,5.4-2.4,5.4-5.4V29.3C91.5,22.9,87.4,17.5,81.8,15.4z"/>
	<path class="st1" d="M86.3,44.4H86v-5.9c-9.2-0.9-16.8-7.4-19.3-16.1c-5.6,9.1-15.2,15.3-26.4,16.1v5.9h-0.2
		c-1.8,0-3.3,1.5-3.3,3.3c0,1.8,1.5,3.3,3.3,3.3h0.2v4.5c0,12.6,10.2,22.9,22.9,22.9C75.8,78.5,86,68.2,86,55.6v-4.5h0.2
		c1.8,0,3.3-1.5,3.3-3.3C89.6,45.9,88.1,44.4,86.3,44.4z"/>
	<path class="st2" d="M78,47.3c-0.4,0-0.7-0.3-0.7-0.6c-0.3-1.7-1.8-2.9-3.5-2.9s-3.2,1.2-3.5,2.9c-0.1,0.4-0.5,0.7-0.9,0.6
		c-0.4-0.1-0.7-0.5-0.6-0.9c0.4-2.4,2.5-4.1,5-4.1c2.4,0,4.5,1.7,5,4.1c0.1,0.4-0.2,0.8-0.6,0.9C78.1,47.3,78.1,47.3,78,47.3z"/>
	<path class="st2" d="M56.8,47.3c-0.4,0-0.7-0.3-0.7-0.6c-0.3-1.7-1.8-2.9-3.5-2.9c-1.7,0-3.2,1.2-3.5,2.9c-0.1,0.4-0.5,0.7-0.9,0.6
		c-0.4-0.1-0.7-0.5-0.6-0.9c0.4-2.4,2.5-4.1,5-4.1c2.4,0,4.5,1.7,5,4.1c0.1,0.4-0.2,0.8-0.6,0.9C56.9,47.3,56.8,47.3,56.8,47.3z"/>
	<path class="st3" d="M70.8,68.6c-0.9-3.3-4-5.8-7.6-5.8c-3.6,0-6.7,2.4-7.6,5.8H70.8z"/>
	<path class="st2" d="M63.2,62c3.9,0,7.3,2.6,8.4,6.3l0.3,1H54.6l0.3-1C55.9,64.6,59.3,62,63.2,62z M69.7,67.8
		c-1.1-2.6-3.7-4.3-6.6-4.3c-2.9,0-5.4,1.7-6.6,4.3H69.7z"/>
	<line class="st1" x1="81.5" y1="118" x2="81.5" y2="107"/>
	<line class="st1" x1="44.9" y1="118" x2="44.9" y2="107"/>
	<polygon class="st1" points="68.2,107.3 63.2,112.5 58.2,107.3 58.2,107.3 61.2,94.8 60.3,91.9 66,91.9 65.1,94.8 	"/>
	<path class="st2" d="M63.2,113.2c-0.2,0-0.4-0.1-0.5-0.2l-4.9-5.2c0,0-0.1-0.1-0.1-0.1c-0.1-0.2-0.2-0.4-0.1-0.6l3-12.2l-0.8-2.8
		c-0.1-0.2,0-0.5,0.1-0.7c0.1-0.2,0.4-0.3,0.6-0.3H66c0.2,0,0.5,0.1,0.6,0.3c0.1,0.2,0.2,0.4,0.1,0.7l-0.8,2.8l3,12.3
		c0.1,0.2,0,0.5-0.2,0.7l-5,5.2C63.6,113.2,63.4,113.2,63.2,113.2z M59,107.1l4.2,4.4l4.1-4.3l-2.9-12c0-0.1,0-0.3,0-0.4l0.6-2h-3.7
		l0.6,2c0,0.1,0,0.3,0,0.4L59,107.1z"/>
	<path class="st1" d="M124.8,3.5h-20.4c-2.2,0-4,1.8-4,4v1.9l-6.1,3.6l6.1,3.6v51.2c0,2.2,1.8,4,4,4h20.4c2.2,0,4-1.8,4-4V7.4
		C128.7,5.2,127,3.5,124.8,3.5z"/>
	<path class="st2" d="M124.8,2.7h-20.4c-2.6,0-4.7,2.1-4.7,4.7v1.4l-5.8,3.3c-0.2,0.1-0.4,0.4-0.4,0.6c0,0.3,0.1,0.5,0.4,0.6
		l5.8,3.3v35.3h-7.7c0.2-0.6,0.3-1.3,0.3-1.9V29.3c0-6.3-3.9-12.1-9.8-14.4c-0.6-5-4.9-8.8-9.8-8.3c-2.2,0.2-4.5,0.3-6.7,0.3
		c-17.2,0-28.4-6.7-28.6-6.8c-0.2-0.1-0.5-0.1-0.7,0c-0.2,0.1-0.4,0.3-0.4,0.6c0,0.4-0.8,9.6,2.9,17.1c-3.2,2.9-5,7.1-5,11.5v20.9
		c0,0.7,0.1,1.3,0.3,1.9H17c-2.7,0-4.9,2.2-4.9,4.9v60.2h-9v5.4c0,3.5,2.8,6.3,6.3,6.3h110.7c3.5,0,6.3-2.8,6.3-6.3v-5.4h-9V72.3
		h7.4c2.6,0,4.7-2.1,4.7-4.7V7.4C129.5,4.8,127.4,2.7,124.8,2.7z M35.6,29.3c0-4.1,1.8-8,5-10.7c0.3-0.2,0.3-0.6,0.2-0.9
		c-3-5.7-3.1-12.9-3-15.7C41,3.7,51.3,8.4,66,8.4c2.3,0,4.6-0.1,6.8-0.3c4.2-0.4,7.9,3,8.2,7.4c0,0.3,0.2,0.6,0.5,0.7
		c5.5,2,9.2,7.3,9.2,13.2v20.9c0,2.3-1.7,4.3-4,4.6v-3c2-0.3,3.6-2,3.6-4.1c0-2.1-1.6-3.8-3.6-4.1v-4.4c0.5,0,1,0.1,1.5,0.1
		c0.4,0,0.8-0.3,0.8-0.8c0-0.4-0.3-0.8-0.8-0.8c-0.7,0-1.4,0-2.2-0.1c-8.7-0.9-16.2-7.1-18.6-15.6c-0.1-0.3-0.3-0.5-0.6-0.5
		c-0.3,0-0.6,0.1-0.7,0.4c-5.6,9.1-15.2,15-25.9,15.8c-0.8,0.1-1.6,0.1-2.4,0.1c-0.4,0-0.8,0.3-0.8,0.8c0,0.4,0.3,0.8,0.8,0.8
		c0.6,0,1.2,0,1.7-0.1v4.4c-2,0.3-3.6,2-3.6,4.1s1.6,3.8,3.6,4.1v3c-2.2-0.4-3.9-2.3-3.9-4.6V29.3z M94.8,117.2H82.2V107h-1.5v10.2
		H45.6V107h-1.5v10.2H31.6v-4.7c0-14.3,9.6-26.4,22.7-30.3c1,4,4.6,7,9,7c4.3,0,7.9-3,9-7c13.1,3.9,22.7,16,22.7,30.3V117.2z
		 M55.4,79.9v-2c2.4,0.8,5,1.3,7.8,1.3c2.7,0,5.3-0.5,7.8-1.3v2c0,4.3-3.5,7.8-7.8,7.8C58.9,87.7,55.4,84.2,55.4,79.9z M63.2,77.7
		c-12.2,0-22.1-9.9-22.1-22.1v-4.5c0-0.4-0.3-0.8-0.8-0.8h-0.2c-1.4,0-2.6-1.2-2.6-2.6c0-1.4,1.2-2.6,2.6-2.6h0.2
		c0.4,0,0.8-0.3,0.8-0.8v-5.2c10.3-1,19.7-6.5,25.5-15.1c2.9,8,10.2,13.9,18.7,15v5.3c0,0.4,0.3,0.8,0.8,0.8h0.2
		c1.4,0,2.6,1.2,2.6,2.6c0,1.4-1.2,2.6-2.6,2.6H86c-0.4,0-0.8,0.3-0.8,0.8v4.5C85.3,67.8,75.4,77.7,63.2,77.7z M13.6,57
		c0-1.9,1.5-3.4,3.4-3.4h18.2c1,1.5,2.6,2.5,4.4,2.7c0.3,9.4,6.1,17.4,14.3,21v2.6c0,0.3,0,0.5,0,0.8c-13.8,4-23.9,16.7-23.9,31.8
		v4.7H13.6V57z M124.9,118.7v3.9c0,2.6-2.1,4.8-4.8,4.8H9.4c-2.6,0-4.8-2.1-4.8-4.8v-3.9H124.9z M96.3,117.2v-4.7
		c0-15.1-10.1-27.8-23.9-31.8c0-0.3,0-0.5,0-0.8v-2.6c8.2-3.5,14-11.6,14.3-21c1.8-0.2,3.4-1.2,4.4-2.7h8.4v14
		c0,2.6,2.1,4.7,4.7,4.7h11.5v44.9H96.3z M128,67.6c0,1.8-1.4,3.2-3.2,3.2h-20.4c-1.8,0-3.2-1.4-3.2-3.2V16.4c0-0.3-0.1-0.5-0.4-0.6
		l-5-2.9l5-2.9c0.2-0.1,0.4-0.4,0.4-0.6V7.4c0-1.8,1.4-3.2,3.2-3.2h20.4c1.8,0,3.2,1.4,3.2,3.2V67.6z"/>
	<g>
		<g>
			<line class="st1" x1="104.7" y1="16" x2="107.2" y2="16"/>
			<rect x="104.7" y="15.3" class="st2" width="2.5" height="1.5"/>
		</g>
		<g>
			<line class="st1" x1="109" y1="16" x2="124.3" y2="16"/>
			<rect x="109" y="15.3" class="st2" width="15.3" height="1.5"/>
		</g>
	</g>
	<g>
		<g>
			<line class="st1" x1="104.7" y1="22.2" x2="107.2" y2="22.2"/>
			<rect x="104.7" y="21.4" class="st2" width="2.5" height="1.5"/>
		</g>
		<g>
			<line class="st1" x1="109" y1="22.2" x2="124.3" y2="22.2"/>
			<rect x="109" y="21.4" class="st2" width="15.3" height="1.5"/>
		</g>
	</g>
	<g>
		<g>
			<line class="st1" x1="104.7" y1="28.3" x2="107.2" y2="28.3"/>
			<rect x="104.7" y="27.6" class="st2" width="2.5" height="1.5"/>
		</g>
		<g>
			<line class="st1" x1="109" y1="28.3" x2="124.3" y2="28.3"/>
			<rect x="109" y="27.6" class="st2" width="15.3" height="1.5"/>
		</g>
	</g>
	<g>
		<g>
			<line class="st1" x1="104.7" y1="34.4" x2="107.2" y2="34.4"/>
			<rect x="104.7" y="33.7" class="st2" width="2.5" height="1.5"/>
		</g>
		<g>
			<line class="st1" x1="109" y1="34.4" x2="124.3" y2="34.4"/>
			<rect x="109" y="33.7" class="st2" width="15.3" height="1.5"/>
		</g>
	</g>
	<g>
		<g>
			<line class="st1" x1="104.7" y1="40.6" x2="107.2" y2="40.6"/>
			<rect x="104.7" y="39.8" class="st2" width="2.5" height="1.5"/>
		</g>
		<g>
			<line class="st1" x1="109" y1="40.6" x2="124.3" y2="40.6"/>
			<rect x="109" y="39.8" class="st2" width="15.3" height="1.5"/>
		</g>
	</g>
	<g>
		<g>
			<line class="st1" x1="104.7" y1="46.7" x2="107.2" y2="46.7"/>
			<rect x="104.7" y="46" class="st2" width="2.5" height="1.5"/>
		</g>
		<g>
			<line class="st1" x1="109" y1="46.7" x2="124.3" y2="46.7"/>
			<rect x="109" y="46" class="st2" width="15.3" height="1.5"/>
		</g>
	</g>
	<g>
		<g>
			<line class="st1" x1="104.7" y1="52.8" x2="107.2" y2="52.8"/>
			<rect x="104.7" y="52.1" class="st2" width="2.5" height="1.5"/>
		</g>
		<g>
			<line class="st1" x1="109" y1="52.8" x2="124.3" y2="52.8"/>
			<rect x="109" y="52.1" class="st2" width="15.3" height="1.5"/>
		</g>
	</g>
	<g>
		<g>
			<line class="st1" x1="104.7" y1="59" x2="107.2" y2="59"/>
			<rect x="104.7" y="58.2" class="st2" width="2.5" height="1.5"/>
		</g>
		<g>
			<line class="st1" x1="109" y1="59" x2="124.3" y2="59"/>
			<rect x="109" y="58.2" class="st2" width="15.3" height="1.5"/>
		</g>
	</g>
	<path class="st2" d="M7.2,42.4c-0.2,0-0.4-0.1-0.5-0.2c-0.3-0.3-0.3-0.8,0-1.1L8,39.8c0.3-0.3,0.8-0.3,1.1,0c0.3,0.3,0.3,0.8,0,1.1
		l-1.3,1.3C7.6,42.3,7.4,42.4,7.2,42.4z"/>
	<path class="st2" d="M3.2,46.4c-0.2,0-0.4-0.1-0.5-0.2c-0.3-0.3-0.3-0.8,0-1.1L4,43.8c0.3-0.3,0.8-0.3,1.1,0c0.3,0.3,0.3,0.8,0,1.1
		l-1.3,1.3C3.6,46.3,3.4,46.4,3.2,46.4z"/>
	<path class="st2" d="M8.5,46.4c-0.2,0-0.4-0.1-0.5-0.2l-1.3-1.3c-0.3-0.3-0.3-0.8,0-1.1c0.3-0.3,0.8-0.3,1.1,0l1.3,1.3
		c0.3,0.3,0.3,0.8,0,1.1C8.9,46.3,8.7,46.4,8.5,46.4z"/>
	<path class="st2" d="M4.5,42.4c-0.2,0-0.4-0.1-0.5-0.2l-1.3-1.3c-0.3-0.3-0.3-0.8,0-1.1c0.3-0.3,0.8-0.3,1.1,0L5,41.1
		c0.3,0.3,0.3,0.8,0,1.1C4.9,42.3,4.7,42.4,4.5,42.4z"/>
	<path class="st2" d="M89.6,2.8c-0.2,0-0.4-0.1-0.5-0.2c-0.3-0.3-0.3-0.8,0-1.1l1.3-1.3c0.3-0.3,0.8-0.3,1.1,0
		c0.3,0.3,0.3,0.8,0,1.1l-1.3,1.3C90,2.8,89.8,2.8,89.6,2.8z"/>
	<path class="st2" d="M85.6,6.9c-0.2,0-0.4-0.1-0.5-0.2c-0.3-0.3-0.3-0.8,0-1.1l1.3-1.3c0.3-0.3,0.8-0.3,1.1,0
		c0.3,0.3,0.3,0.8,0,1.1l-1.3,1.3C86,6.8,85.8,6.9,85.6,6.9z"/>
	<path class="st2" d="M90.9,6.9c-0.2,0-0.4-0.1-0.5-0.2l-1.3-1.3c-0.3-0.3-0.3-0.8,0-1.1c0.3-0.3,0.8-0.3,1.1,0l1.3,1.3
		c0.3,0.3,0.3,0.8,0,1.1C91.3,6.8,91.1,6.9,90.9,6.9z"/>
	<path class="st2" d="M86.9,2.8c-0.2,0-0.4-0.1-0.5-0.2l-1.3-1.3c-0.3-0.3-0.3-0.8,0-1.1c0.3-0.3,0.8-0.3,1.1,0l1.3,1.3
		c0.3,0.3,0.3,0.8,0,1.1C87.3,2.8,87.1,2.8,86.9,2.8z"/>
	<path class="st2" d="M5.9,98.4c-0.2,0-0.4-0.1-0.5-0.2c-0.3-0.3-0.3-0.8,0-1.1l1.3-1.3c0.3-0.3,0.8-0.3,1.1,0
		c0.3,0.3,0.3,0.8,0,1.1l-1.3,1.3C6.3,98.4,6.1,98.4,5.9,98.4z"/>
	<path class="st2" d="M1.8,102.5c-0.2,0-0.4-0.1-0.5-0.2c-0.3-0.3-0.3-0.8,0-1.1l1.3-1.3c0.3-0.3,0.8-0.3,1.1,0
		c0.3,0.3,0.3,0.8,0,1.1l-1.3,1.3C2.2,102.4,2,102.5,1.8,102.5z"/>
	<path class="st2" d="M7.2,102.5c-0.2,0-0.4-0.1-0.5-0.2L5.3,101c-0.3-0.3-0.3-0.8,0-1.1c0.3-0.3,0.8-0.3,1.1,0l1.3,1.3
		c0.3,0.3,0.3,0.8,0,1.1C7.5,102.4,7.4,102.5,7.2,102.5z"/>
	<path class="st2" d="M3.1,98.4c-0.2,0-0.4-0.1-0.5-0.2l-1.3-1.3c-0.3-0.3-0.3-0.8,0-1.1c0.3-0.3,0.8-0.3,1.1,0l1.3,1.3
		c0.3,0.3,0.3,0.8,0,1.1C3.5,98.4,3.3,98.4,3.1,98.4z"/>
	<circle class="st6" cx="22" cy="43" r="2"/>
	<circle class="st5" cx="2.8" cy="78.5" r="1.7"/>
	<circle class="st6" cx="125.6" cy="80.4" r="1.7"/>
	<path class="st1" d="M92.2,78h-8.1c-0.4,0-0.8-0.3-0.8-0.8c0-0.4,0.3-0.8,0.8-0.8h8.1c0.4,0,0.8,0.3,0.8,0.8
		C93,77.6,92.6,78,92.2,78z"/>
	<path class="st1" d="M95.4,80.9h-4c-0.4,0-0.8-0.3-0.8-0.8c0-0.4,0.3-0.8,0.8-0.8h4c0.4,0,0.8,0.3,0.8,0.8
		C96.2,80.6,95.8,80.9,95.4,80.9z"/>
	<path class="st1" d="M99.7,78h-3.8c-0.4,0-0.8-0.3-0.8-0.8c0-0.4,0.3-0.8,0.8-0.8h3.8c0.4,0,0.8,0.3,0.8,0.8
		C100.4,77.6,100.1,78,99.7,78z"/>
	<path class="st1" d="M88.6,80.9h-0.8c-0.4,0-0.8-0.3-0.8-0.8c0-0.4,0.3-0.8,0.8-0.8h0.8c0.4,0,0.8,0.3,0.8,0.8
		C89.3,80.6,89,80.9,88.6,80.9z"/>
	<path class="st1" d="M33.1,79.7H25c-0.4,0-0.7-0.3-0.7-0.8c0-0.4,0.3-0.8,0.7-0.8h8.1c0.4,0,0.8,0.3,0.8,0.8
		C33.8,79.3,33.5,79.7,33.1,79.7z"/>
	<path class="st1" d="M36.3,82.6h-4c-0.4,0-0.8-0.3-0.8-0.8c0-0.4,0.3-0.8,0.8-0.8h4c0.4,0,0.8,0.3,0.8,0.8
		C37,82.3,36.7,82.6,36.3,82.6z"/>
	<path class="st1" d="M40.5,79.7h-3.8c-0.4,0-0.8-0.3-0.8-0.8c0-0.4,0.3-0.8,0.8-0.8h3.8c0.4,0,0.8,0.3,0.8,0.8
		C41.3,79.3,40.9,79.7,40.5,79.7z"/>
	<path class="st1" d="M29.4,82.6h-0.8c-0.4,0-0.8-0.3-0.8-0.8c0-0.4,0.3-0.8,0.8-0.8h0.8c0.4,0,0.8,0.3,0.8,0.8
		C30.2,82.3,29.8,82.6,29.4,82.6z"/>
</g>
</svg>
