<?xml version="1.0" encoding="utf-8"?>
<!-- Generator: Adobe Illustrator 21.1.0, SVG Export Plug-In . SVG Version: 6.00 Build 0)  -->
<svg version="1.1" id="Layer_1" xmlns="http://www.w3.org/2000/svg" xmlns:xlink="http://www.w3.org/1999/xlink" x="0px" y="0px"
	 viewBox="0 0 129.5 129.5" style="enable-background:new 0 0 129.5 129.5;" xml:space="preserve">
<style type="text/css">
	.st0{fill:#FF7058;}
	.st1{fill:#08B2A0;}
	.st2{fill:#231F20;}
	.st3{fill:#CED5E0;}
	.st4{fill:#E6E9EE;}
	.st5{fill:#84DBFF;}
</style>
<g>
	<path class="st0" d="M64.8,49.7c-4.4-2.2-24.6-13.5-25.2-33c-0.2-7.5,5.7-14,13.2-13.9c4.1,0,7.9,2,10.4,5.3l0.8,1.1
		c0.4,0.5,1.2,0.5,1.6,0L66.4,8c2.5-3.3,6.3-5.3,10.4-5.3c7.5-0.1,13.4,6.4,13.2,14C89.4,36.2,69.1,47.5,64.8,49.7z"/>
	<path class="st1" d="M111.1,76.6c-3.3-1.7-15.7-9-15.7-21.2c0-4.3,3.5-7.8,7.8-7.8c2.5,0,4.8,1.1,6.3,3.2l1.6,2.1l1.6-2.1
		c1.5-2,3.8-3.2,6.3-3.2c4.3,0,7.8,3.5,7.8,7.8C126.8,67.6,114.4,74.9,111.1,76.6z"/>
	<path class="st1" d="M18.4,76.6c-3.3-1.7-15.7-9-15.7-21.2c0-4.3,3.5-7.8,7.8-7.8c2.5,0,4.8,1.1,6.3,3.2l1.6,2.1l1.6-2.1
		c1.5-2,3.8-3.2,6.3-3.2c4.3,0,7.8,3.5,7.8,7.8C34.1,67.6,21.8,74.9,18.4,76.6z"/>
	<g>
		<path class="st2" d="M19.2,79.3c2.8-1.4,17.7-9.5,17.7-23.9c0-5.8-4.7-10.6-10.6-10.6c-3,0-5.9,1.3-7.9,3.5
			c-2-2.2-4.8-3.5-7.9-3.5C4.7,44.9,0,49.6,0,55.4C0,69.9,14.9,78,17.7,79.3v20l-2.4-2.4c0.3-2.5-0.2-4.7-1.6-6.3
			c-1.7-2-4.4-2.8-7.5-2.3c-0.3,0.1-0.6,0.3-0.6,0.6c-0.4,2.6,0.1,5,1.5,6.7c1.3,1.6,3.4,2.5,5.7,2.5c0.4,0,0.9,0,1.4-0.1l3.5,3.5
			v3.2H8.4c-1.5,0-2.7,1.2-2.7,2.7c0,1.4,1,2.5,2.3,2.7l3.7,18.9c0.1,0.4,0.4,0.6,0.7,0.6h11.9c0.4,0,0.7-0.3,0.7-0.6l3.7-18.9
			c1.3-0.2,2.3-1.3,2.3-2.7c0-1.5-1.2-2.7-2.7-2.7h-9.2V92.1l3.5-3.5c0.5,0.1,0.9,0.1,1.4,0.1c0,0,0,0,0,0c2.3,0,4.4-0.9,5.7-2.5
			c1.4-1.7,2-4.1,1.5-6.7c-0.1-0.3-0.3-0.6-0.6-0.6c-3-0.5-5.8,0.3-7.5,2.3c-1.4,1.6-1.9,3.8-1.6,6.3L19.2,90V79.3z M8.3,94.7
			c-1-1.2-1.5-3-1.3-4.9c2.3-0.3,4.3,0.4,5.5,1.9c0.9,1,1.3,2.4,1.3,3.9l-3.5-3.5c-0.3-0.3-0.8-0.3-1.1,0c-0.3,0.3-0.3,0.8,0,1.1
			l3.5,3.5C10.9,96.6,9.3,95.9,8.3,94.7z M23.7,128H13.1l-3.5-18h17.7L23.7,128z M29.6,107.3c0,0.7-0.5,1.2-1.2,1.2h-20
			c-0.7,0-1.2-0.5-1.2-1.2c0-0.7,0.5-1.2,1.2-1.2h20C29.1,106.1,29.6,106.7,29.6,107.3z M24.3,82.3c1.2-1.4,3.2-2.1,5.5-1.9
			c0.2,2-0.2,3.7-1.3,4.9c-1,1.2-2.6,1.9-4.5,1.9l3.5-3.5c0.3-0.3,0.3-0.8,0-1.1s-0.8-0.3-1.1,0L23,86.2
			C23,84.7,23.5,83.3,24.3,82.3z M1.5,55.4c0-5,4.1-9.1,9.1-9.1c2.9,0,5.5,1.3,7.3,3.7c0.3,0.4,0.9,0.4,1.2,0
			c1.7-2.3,4.4-3.7,7.3-3.7c5,0,9.1,4.1,9.1,9.1c0,13.7-14.6,21.5-16.9,22.6C16.1,76.9,1.5,69.2,1.5,55.4z"/>
		<path class="st2" d="M71.1,66.6c0.8,0.1,1.5,0.2,2.2,0.2h0c3.5,0,6.5-1.3,8.5-3.6c2.1-2.5,2.9-6,2.2-9.9c-0.1-0.3-0.3-0.6-0.6-0.6
			c-4.5-0.8-8.6,0.5-11.1,3.4c-2,2.4-2.8,5.8-2.3,9.5l-4.6,4.6V52.4c3.5-1.7,27.2-14.2,27.2-36.5C92.7,7.1,85.6,0,76.9,0
			c-4.7,0-9.1,2-12.1,5.6C61.7,2,57.4,0,52.6,0c-8.7,0-15.9,7.1-15.9,15.9c0,22.4,23.7,34.8,27.2,36.5v32.1l-4.6-4.6
			c0.5-3.7-0.3-7.1-2.3-9.5c-2.5-2.9-6.5-4.2-11.1-3.4c-0.3,0.1-0.6,0.3-0.6,0.6c-0.7,3.9,0.1,7.4,2.2,9.9c2,2.3,5,3.6,8.5,3.6
			c0.7,0,1.5-0.1,2.2-0.2l5.6,5.6V92H49.4c-2.1,0-3.8,1.7-3.8,3.8c0,2,1.6,3.6,3.5,3.7l5.8,29.4c0.1,0.4,0.4,0.6,0.7,0.6h18.3
			c0.4,0,0.7-0.3,0.7-0.6l5.8-29.4c2-0.1,3.5-1.7,3.5-3.7c0-2.1-1.7-3.8-3.8-3.8H65.5V72.2L71.1,66.6z M73.5,56.9
			c2-2.4,5.4-3.5,9.2-3c0.4,3.2-0.3,6.1-2,8.2c-1.8,2.2-4.8,3.3-8.2,3.1l6-6c0.3-0.3,0.3-0.8,0-1.1c-0.3-0.3-0.8-0.3-1.1,0l-6,6
			C71.2,61.3,71.9,58.8,73.5,56.9z M58.1,78.6l-6-6c-0.3-0.3-0.8-0.3-1.1,0c-0.3,0.3-0.3,0.8,0,1.1l6,6c-3.4,0.2-6.3-0.9-8.2-3.1
			c-1.7-2.1-2.4-4.9-2-8.2c3.8-0.5,7.1,0.6,9.2,3C57.6,73.2,58.3,75.7,58.1,78.6z M73.3,128h-17l-5.6-28.5h28.2L73.3,128z
			 M80.1,93.5c1.2,0,2.3,1,2.3,2.3c0,1.2-1,2.3-2.3,2.3H49.4c-1.2,0-2.3-1-2.3-2.3c0-1.2,1-2.3,2.3-2.3H80.1z M64.8,51.1
			c-3-1.4-26.5-13.5-26.5-35.2c0-7.9,6.4-14.4,14.4-14.4c4.6,0,8.8,2.1,11.5,5.8c0.3,0.4,0.9,0.4,1.2,0c2.7-3.7,6.9-5.8,11.5-5.8
			c7.9,0,14.4,6.4,14.4,14.4C91.2,37.6,67.7,49.7,64.8,51.1z"/>
		<path class="st2" d="M115.3,88.7c0.5,0.1,0.9,0.1,1.4,0.1c0,0,0,0,0,0c2.3,0,4.4-0.9,5.7-2.5c1.4-1.7,2-4.1,1.5-6.7
			c-0.1-0.3-0.3-0.6-0.6-0.6c-3-0.5-5.8,0.3-7.5,2.3c-1.4,1.6-1.9,3.8-1.6,6.3l-2.4,2.4V79.3c2.8-1.4,17.7-9.5,17.7-23.9
			c0-5.8-4.7-10.6-10.6-10.6c-3,0-5.9,1.3-7.9,3.5c-2-2.2-4.8-3.5-7.9-3.5c-5.8,0-10.6,4.7-10.6,10.6c0,14.4,14.9,22.5,17.7,23.9v20
			l-2.4-2.4c0.3-2.5-0.2-4.7-1.6-6.3c-1.7-2-4.4-2.8-7.5-2.3c-0.3,0.1-0.6,0.3-0.6,0.6c-0.4,2.6,0.1,5,1.5,6.7
			c1.3,1.6,3.4,2.5,5.7,2.5c0.4,0,0.9,0,1.4-0.1l3.5,3.5v3.2h-9.2c-1.5,0-2.7,1.2-2.7,2.7c0,1.4,1,2.5,2.3,2.7l3.7,18.9
			c0.1,0.4,0.4,0.6,0.7,0.6H117c0.4,0,0.7-0.3,0.7-0.6l3.7-18.9c1.3-0.2,2.3-1.3,2.3-2.7c0-1.5-1.2-2.7-2.7-2.7h-9.2V92.1
			L115.3,88.7z M117,82.3c1.2-1.4,3.2-2.1,5.5-1.9c0.2,2-0.2,3.7-1.3,4.9c-1,1.2-2.6,1.9-4.5,1.9l3.5-3.5c0.3-0.3,0.3-0.8,0-1.1
			c-0.3-0.3-0.8-0.3-1.1,0l-3.5,3.5C115.7,84.7,116.1,83.3,117,82.3z M103,92.1c-0.3-0.3-0.8-0.3-1.1,0s-0.3,0.8,0,1.1l3.5,3.5
			c-1.9,0-3.5-0.7-4.5-1.9c-1-1.2-1.5-3-1.3-4.9c2.3-0.3,4.3,0.4,5.5,1.9c0.9,1,1.3,2.4,1.3,3.9L103,92.1z M116.4,128h-10.6l-3.5-18
			h17.7L116.4,128z M121.1,106.1c0.7,0,1.2,0.5,1.2,1.2c0,0.7-0.5,1.2-1.2,1.2h-20c-0.7,0-1.2-0.5-1.2-1.2c0-0.7,0.5-1.2,1.2-1.2
			H121.1z M111.1,78c-2.3-1.1-16.9-8.9-16.9-22.6c0-5,4.1-9.1,9.1-9.1c2.9,0,5.5,1.3,7.3,3.7c0.1,0.2,0.4,0.3,0.6,0.3
			s0.5-0.1,0.6-0.3c1.7-2.3,4.4-3.7,7.3-3.7c5,0,9.1,4.1,9.1,9.1C128,69.2,113.4,76.9,111.1,78z"/>
	</g>
	<g>
		<path class="st2" d="M12,9.2c-0.2,0-0.4-0.1-0.5-0.2c-0.3-0.3-0.3-0.8,0-1.1l1.3-1.3c0.3-0.3,0.8-0.3,1.1,0c0.3,0.3,0.3,0.8,0,1.1
			L12.5,9C12.3,9.2,12.2,9.2,12,9.2z"/>
	</g>
	<g>
		<path class="st2" d="M7.9,13.3c-0.2,0-0.4-0.1-0.5-0.2c-0.3-0.3-0.3-0.8,0-1.1l1.3-1.3c0.3-0.3,0.8-0.3,1.1,0
			c0.3,0.3,0.3,0.8,0,1.1l-1.3,1.3C8.3,13.2,8.1,13.3,7.9,13.3z"/>
	</g>
	<g>
		<path class="st2" d="M13.2,13.3c-0.2,0-0.4-0.1-0.5-0.2l-1.3-1.3c-0.3-0.3-0.3-0.8,0-1.1c0.3-0.3,0.8-0.3,1.1,0l1.3,1.3
			c0.3,0.3,0.3,0.8,0,1.1C13.6,13.2,13.4,13.3,13.2,13.3z"/>
	</g>
	<g>
		<path class="st2" d="M9.2,9.2C9,9.2,8.8,9.2,8.7,9L7.4,7.7C7.1,7.4,7.1,7,7.4,6.7c0.3-0.3,0.8-0.3,1.1,0L9.7,8
			C10,8.3,10,8.7,9.7,9C9.6,9.2,9.4,9.2,9.2,9.2z"/>
	</g>
	<g>
		<path class="st2" d="M118.9,7.2c-0.2,0-0.4-0.1-0.5-0.2c-0.3-0.3-0.3-0.8,0-1.1l1.3-1.3c0.3-0.3,0.8-0.3,1.1,0
			c0.3,0.3,0.3,0.8,0,1.1L119.4,7C119.3,7.2,119.1,7.2,118.9,7.2z"/>
	</g>
	<g>
		<path class="st2" d="M114.9,11.3c-0.2,0-0.4-0.1-0.5-0.2c-0.3-0.3-0.3-0.8,0-1.1l1.3-1.3c0.3-0.3,0.8-0.3,1.1,0
			c0.3,0.3,0.3,0.8,0,1.1l-1.3,1.3C115.3,11.2,115.1,11.3,114.9,11.3z"/>
	</g>
	<g>
		<path class="st2" d="M120.2,11.3c-0.2,0-0.4-0.1-0.5-0.2l-1.3-1.3c-0.3-0.3-0.3-0.8,0-1.1c0.3-0.3,0.8-0.3,1.1,0l1.3,1.3
			c0.3,0.3,0.3,0.8,0,1.1C120.6,11.2,120.4,11.3,120.2,11.3z"/>
	</g>
	<g>
		<path class="st2" d="M116.2,7.2c-0.2,0-0.4-0.1-0.5-0.2l-1.3-1.3c-0.3-0.3-0.3-0.8,0-1.1c0.3-0.3,0.8-0.3,1.1,0l1.3,1.3
			c0.3,0.3,0.3,0.8,0,1.1C116.6,7.2,116.4,7.2,116.2,7.2z"/>
	</g>
	<g>
		<path class="st2" d="M26.3,34.3c-0.2,0-0.4-0.1-0.5-0.2c-0.3-0.3-0.3-0.8,0-1.1l1.3-1.3c0.3-0.3,0.8-0.3,1.1,0
			c0.3,0.3,0.3,0.8,0,1.1l-1.3,1.3C26.7,34.2,26.5,34.3,26.3,34.3z"/>
	</g>
	<g>
		<path class="st2" d="M22.2,38.3c-0.2,0-0.4-0.1-0.5-0.2c-0.3-0.3-0.3-0.8,0-1.1l1.3-1.3c0.3-0.3,0.8-0.3,1.1,0
			c0.3,0.3,0.3,0.8,0,1.1l-1.3,1.3C22.6,38.2,22.4,38.3,22.2,38.3z"/>
	</g>
	<g>
		<path class="st2" d="M27.6,38.3c-0.2,0-0.4-0.1-0.5-0.2l-1.3-1.3c-0.3-0.3-0.3-0.8,0-1.1c0.3-0.3,0.8-0.3,1.1,0l1.3,1.3
			c0.3,0.3,0.3,0.8,0,1.1C27.9,38.2,27.8,38.3,27.6,38.3z"/>
	</g>
	<g>
		<path class="st2" d="M23.5,34.3c-0.2,0-0.4-0.1-0.5-0.2l-1.3-1.3c-0.3-0.3-0.3-0.8,0-1.1c0.3-0.3,0.8-0.3,1.1,0l1.3,1.3
			c0.3,0.3,0.3,0.8,0,1.1C23.9,34.2,23.7,34.3,23.5,34.3z"/>
	</g>
	<path class="st2" d="M43.4,15.1l-1.5-0.2c0-0.4,0.1-0.7,0.2-1.1l1.5,0.3C43.5,14.5,43.4,14.8,43.4,15.1z M44.1,12.4l-1.4-0.6
		c0.1-0.3,0.3-0.7,0.5-1l1.3,0.7C44.3,11.8,44.2,12.1,44.1,12.4z M45.5,10l-1.2-0.9c0.2-0.3,0.5-0.5,0.7-0.8l1.1,1l0,0
		C45.9,9.5,45.7,9.8,45.5,10z M47.5,8.1l-0.9-1.2c0.3-0.2,0.6-0.4,0.9-0.6l0.7,1.3C48,7.8,47.8,7.9,47.5,8.1z M56.3,7.3
		C56,7.2,55.8,7,55.5,7l0.5-1.4c0.3,0.1,0.7,0.2,1,0.4L56.3,7.3z M50,6.9l-0.4-1.4c0.3-0.1,0.7-0.2,1-0.3l0.3,1.5
		C50.6,6.7,50.3,6.8,50,6.9z M53.7,6.6c-0.3,0-0.6-0.1-0.9-0.1l0-1.5c0.4,0,0.7,0,1.1,0.1L53.7,6.6z"/>
	<circle class="st3" cx="116.2" cy="30.5" r="2.8"/>
	<circle class="st4" cx="6.5" cy="27.7" r="2.9"/>
	<circle class="st5" cx="26.4" cy="6.5" r="2.9"/>
</g>
</svg>
