<?xml version="1.0" encoding="utf-8"?>
<!-- Generator: Adobe Illustrator 21.1.0, SVG Export Plug-In . SVG Version: 6.00 Build 0)  -->
<svg version="1.1" id="Layer_1" xmlns="http://www.w3.org/2000/svg" xmlns:xlink="http://www.w3.org/1999/xlink" x="0px" y="0px"
	 viewBox="0 0 128.8 123" style="enable-background:new 0 0 128.8 123;" xml:space="preserve">
<style type="text/css">
	.st0{fill:#E6E9EE;}
	.st1{fill:#231F20;}
	.st2{fill:#FFFFFF;}
	.st3{fill:#08B2A0;}
	.st4{fill:#84DBFF;}
	.st5{fill:#FFD05B;}
	.st6{fill:#FF7058;}
</style>
<g>
	<g>
		<rect x="73.5" y="37.1" class="st0" width="30.1" height="41.7"/>
	</g>
	<g>
		<g>
			<path class="st1" d="M116,8.1c-0.2,0-0.4-0.1-0.5-0.2c-0.3-0.3-0.3-0.8,0-1.1l1.3-1.3c0.3-0.3,0.8-0.3,1.1,0
				c0.3,0.3,0.3,0.8,0,1.1l-1.3,1.3C116.4,8,116.2,8.1,116,8.1z"/>
		</g>
		<g>
			<path class="st1" d="M112,12.1c-0.2,0-0.4-0.1-0.5-0.2c-0.3-0.3-0.3-0.8,0-1.1l1.3-1.3c0.3-0.3,0.8-0.3,1.1,0
				c0.3,0.3,0.3,0.8,0,1.1l-1.3,1.3C112.3,12.1,112.1,12.1,112,12.1z"/>
		</g>
		<g>
			<path class="st1" d="M117.3,12.1c-0.2,0-0.4-0.1-0.5-0.2l-1.3-1.3c-0.3-0.3-0.3-0.8,0-1.1c0.3-0.3,0.8-0.3,1.1,0l1.3,1.3
				c0.3,0.3,0.3,0.8,0,1.1C117.7,12.1,117.5,12.1,117.3,12.1z"/>
		</g>
		<g>
			<path class="st1" d="M113.2,8.1c-0.2,0-0.4-0.1-0.5-0.2l-1.3-1.3c-0.3-0.3-0.3-0.8,0-1.1c0.3-0.3,0.8-0.3,1.1,0l1.3,1.3
				c0.3,0.3,0.3,0.8,0,1.1C113.6,8,113.4,8.1,113.2,8.1z"/>
		</g>
	</g>
	<g>
		<g>
			<path class="st1" d="M8.4,2.8c-0.2,0-0.4-0.1-0.5-0.2c-0.3-0.3-0.3-0.8,0-1.1l1.3-1.3c0.3-0.3,0.8-0.3,1.1,0
				c0.3,0.3,0.3,0.8,0,1.1L9,2.6C8.8,2.7,8.6,2.8,8.4,2.8z"/>
		</g>
		<g>
			<path class="st1" d="M4.4,6.8C4.2,6.8,4,6.7,3.9,6.6c-0.3-0.3-0.3-0.8,0-1.1l1.3-1.3C5.5,4,5.9,4,6.2,4.3c0.3,0.3,0.3,0.8,0,1.1
				L4.9,6.6C4.8,6.7,4.6,6.8,4.4,6.8z"/>
		</g>
		<g>
			<path class="st1" d="M9.7,6.8c-0.2,0-0.4-0.1-0.5-0.2L7.9,5.3C7.6,5,7.6,4.5,7.9,4.3S8.7,4,9,4.3l1.3,1.3c0.3,0.3,0.3,0.8,0,1.1
				C10.1,6.7,9.9,6.8,9.7,6.8z"/>
		</g>
		<g>
			<path class="st1" d="M5.7,2.8c-0.2,0-0.4-0.1-0.5-0.2L3.9,1.3C3.6,1,3.6,0.5,3.9,0.2c0.3-0.3,0.8-0.3,1.1,0l1.3,1.3
				c0.3,0.3,0.3,0.8,0,1.1C6.1,2.7,5.9,2.8,5.7,2.8z"/>
		</g>
	</g>
	<g>
		<g>
			<path class="st1" d="M44.4,99.9c-0.2,0-0.4-0.1-0.5-0.2c-0.3-0.3-0.3-0.8,0-1.1l1.3-1.3c0.3-0.3,0.8-0.3,1.1,0
				c0.3,0.3,0.3,0.8,0,1.1L45,99.7C44.8,99.9,44.6,99.9,44.4,99.9z"/>
		</g>
		<g>
			<path class="st1" d="M40.4,104c-0.2,0-0.4-0.1-0.5-0.2c-0.3-0.3-0.3-0.8,0-1.1l1.3-1.3c0.3-0.3,0.8-0.3,1.1,0
				c0.3,0.3,0.3,0.8,0,1.1l-1.3,1.3C40.8,103.9,40.6,104,40.4,104z"/>
		</g>
		<g>
			<path class="st1" d="M45.7,104c-0.2,0-0.4-0.1-0.5-0.2l-1.3-1.3c-0.3-0.3-0.3-0.8,0-1.1c0.3-0.3,0.8-0.3,1.1,0l1.3,1.3
				c0.3,0.3,0.3,0.8,0,1.1C46.1,103.9,45.9,104,45.7,104z"/>
		</g>
		<g>
			<path class="st1" d="M41.7,99.9c-0.2,0-0.4-0.1-0.5-0.2l-1.3-1.3c-0.3-0.3-0.3-0.8,0-1.1c0.3-0.3,0.8-0.3,1.1,0l1.3,1.3
				c0.3,0.3,0.3,0.8,0,1.1C42.1,99.9,41.9,99.9,41.7,99.9z"/>
		</g>
	</g>
	<polygon class="st2" points="123.3,105.9 123.3,110.4 68.8,110.4 68.8,41.6 73.5,41.6 73.5,105.9 	"/>
	<polygon class="st2" points="83.9,6.1 83.9,20.6 98.4,20.6 	"/>
	<g>
		<polygon class="st0" points="85.8,18.7 85.8,10.8 93.7,18.7 		"/>
	</g>
	<polygon class="st2" points="44,6.1 44,74.8 98.4,74.8 98.4,20.6 83.9,20.6 83.9,6.1 	"/>
	<path class="st2" d="M53.2,85.1h-9.2c-1.4,0-2.6-1.2-2.6-2.6v0c0-1.4,1.2-2.6,2.6-2.6h9.2c1.4,0,2.6,1.2,2.6,2.6v0
		C55.7,84,54.6,85.1,53.2,85.1z"/>
	<path class="st2" d="M55.6,80H43c-1.4,0-2.6-1.2-2.6-2.6v0c0-1.4,1.2-2.6,2.6-2.6h12.6c1.4,0,2.6,1.2,2.6,2.6v0
		C58.2,78.8,57,80,55.6,80z"/>
	<path class="st2" d="M30.4,72.3L30.4,72.3c3.6,0,6.5-2.9,6.5-6.5l0,0h12.7c3.4,0,6.2-2.8,6.2-6.2l0,0H27.8l-6.2,5.4h-6.4"/>
	<rect x="8.8" y="61.7" class="st2" width="6.4" height="24.5"/>
	<polyline class="st3" points="0,89.2 8.8,89.2 8.8,58.7 0,58.7 	"/>
	<path class="st2" d="M46.8,36.3c0.8-3.9,0.5-8.1-1.1-12.1c-4.4-11-16.8-16.3-27.8-12S1.6,29,5.9,40c4.4,11,16.8,16.3,27.8,12
		c4-1.6,7.3-4.3,9.6-7.6L53.6,44L46.8,36.3z"/>
	<polygon class="st2" points="113.5,37.1 113.5,51.7 128,51.7 	"/>
	<path class="st1" d="M128.5,51.1L114,36.6c-0.1-0.1-0.3-0.2-0.5-0.2H99.2V20.6c0-0.2-0.1-0.4-0.2-0.5L84.4,5.5
		c-0.1-0.1-0.3-0.2-0.5-0.2H44c-0.4,0-0.8,0.3-0.8,0.8v12.3c-4.1-5.3-10.5-8.5-17.4-8.5c-2.8,0-5.6,0.5-8.2,1.6
		c-5.5,2.2-9.8,6.4-12.1,11.8C3.1,28.7,3,34.8,5.2,40.3c3.4,8.5,11.5,14,20.6,14c0,0,0,0,0,0c2.8,0,5.6-0.5,8.2-1.6
		c3.7-1.5,6.8-3.8,9.2-6.9v13.2H27.8c-0.2,0-0.4,0.1-0.5,0.2l-6,5.2H16v-2.6c0-0.4-0.3-0.8-0.8-0.8H9.6v-2.2c0-0.4-0.3-0.8-0.8-0.8
		H0v1.5h8.1v29H0v1.5h8.8c0.4,0,0.8-0.3,0.8-0.8v-2.2h5.7c0.4,0,0.8-0.3,0.8-0.8v-3.1h7.2l2.5,2.5c0.1,0.1,0.3,0.2,0.5,0.2h27
		c1.8,0,3.3-1.5,3.3-3.3c0-0.7-0.2-1.3-0.6-1.9c1.7-0.2,3-1.6,3-3.3c0-0.7-0.2-1.3-0.5-1.8H68v34.8c0,0.4,0.3,0.8,0.8,0.8h54.5
		c0.4,0,0.8-0.3,0.8-0.8v-3.8h4c0.4,0,0.8-0.3,0.8-0.8V51.7C128.8,51.5,128.7,51.3,128.5,51.1z M14.5,85.4H9.6v-23h4.9V85.4z
		 M114.2,38.9l12,12h-12V38.9z M84.6,7.9l12,12h-12V7.9z M42.7,43.9c-2.3,3.3-5.5,5.8-9.2,7.3c-2.5,1-5,1.5-7.6,1.5h0
		c-8.5,0-16-5.1-19.2-13c-2-5.1-2-10.7,0.2-15.8c2.2-5.1,6.2-9,11.3-11c2.5-1,5-1.5,7.6-1.5c8.5,0,16,5.1,19.2,13
		c1.5,3.7,1.9,7.8,1.1,11.7c0,0.2,0,0.5,0.2,0.6l5.8,6.5l-8.7,0.3C43,43.6,42.8,43.8,42.7,43.9z M41.2,84.4H26.5L24,81.8
		c-0.1-0.1-0.3-0.2-0.5-0.2H16V65.8h5.6c0.2,0,0.4-0.1,0.5-0.2l6-5.2h26.9c-0.4,2.6-2.6,4.7-5.4,4.7H36.8c-0.4,0-0.8,0.3-0.8,0.8
		c0,3.1-2.6,5.7-5.7,5.7c-0.4,0-0.8,0.3-0.8,0.8c0,0.4,0.3,0.8,0.8,0.8c3.7,0,6.8-2.8,7.2-6.5h5.7V74H43c-1.8,0-3.3,1.5-3.3,3.3
		c0,1.3,0.7,2.4,1.8,2.9c-0.5,0.6-0.9,1.4-0.9,2.2C40.6,83.2,40.8,83.8,41.2,84.4z M53.2,84.4h-9.2c-1,0-1.8-0.8-1.8-1.8
		c0-1,0.8-1.8,1.8-1.8h9.2c1,0,1.8,0.8,1.8,1.8C55,83.5,54.2,84.4,53.2,84.4z M55.6,79.2H43c-1,0-1.8-0.8-1.8-1.8
		c0-1,0.8-1.8,1.8-1.8h8v0h4.9c0.9,0.1,1.5,0.9,1.5,1.8C57.4,78.4,56.6,79.2,55.6,79.2z M55.9,74.1c-0.1,0-0.2,0-0.3,0H44.7v-7.4
		h4.8c3.8,0,6.9-3.1,6.9-6.9c0-0.4-0.3-0.8-0.8-0.8h-11V45.1l8.9-0.3c0.3,0,0.5-0.2,0.7-0.5c0.1-0.3,0.1-0.6-0.1-0.8l-6.6-7.4
		c0.8-4.1,0.3-8.3-1.2-12.2c-0.5-1.2-1-2.3-1.7-3.3V6.8h38.4v13.8c0,0.4,0.3,0.8,0.8,0.8h13.8v52.7H55.9z M122.5,109.6h-53V75.6h3.2
		v30.3c0,0.4,0.3,0.8,0.8,0.8h49V109.6z M127.2,105.1h-53V75.6h24.2c0.4,0,0.8-0.3,0.8-0.8v-37h13.5v13.8c0,0.4,0.3,0.8,0.8,0.8
		h13.8V105.1z"/>
	<g>
		<circle class="st4" cx="114.3" cy="25" r="2.1"/>
	</g>
	<g>
		<polygon class="st0" points="115.4,49.7 115.4,41.8 123.3,49.7 		"/>
	</g>
	<g>
		<circle class="st5" cx="20.4" cy="95.6" r="1.8"/>
	</g>
	<g>
		<circle class="st0" cx="58.1" cy="92.1" r="1.8"/>
	</g>
	<g>
		<circle class="st6" cx="58.1" cy="120.8" r="2.3"/>
	</g>
	<g>
		<circle class="st3" cx="110.7" cy="116.3" r="2.3"/>
	</g>
	<g>
		<circle class="st3" cx="34.3" cy="2.8" r="2.3"/>
	</g>
	<g>
		<circle class="st0" cx="25.7" cy="32.1" r="17.2"/>
	</g>
	<g>
		<g>
			<line class="st2" x1="14.9" y1="27" x2="36.2" y2="27"/>
			<rect x="14.9" y="26.3" class="st1" width="21.3" height="1.5"/>
		</g>
		<g>
			<line class="st2" x1="14.9" y1="30.5" x2="36.2" y2="30.5"/>
			<rect x="14.9" y="29.8" class="st1" width="21.3" height="1.5"/>
		</g>
		<g>
			<line class="st2" x1="14.9" y1="34" x2="36.2" y2="34"/>
			<rect x="14.9" y="33.3" class="st1" width="21.3" height="1.5"/>
		</g>
		<g>
			<line class="st2" x1="14.9" y1="37.5" x2="30.6" y2="37.5"/>
			<rect x="14.9" y="36.7" class="st1" width="15.7" height="1.5"/>
		</g>
	</g>
	<g>
		<g>
			<line class="st2" x1="83.5" y1="82.5" x2="118" y2="82.5"/>
			<rect x="83.5" y="81.8" class="st1" width="34.5" height="1.5"/>
		</g>
		<g>
			<line class="st2" x1="83.5" y1="86" x2="118" y2="86"/>
			<rect x="83.5" y="85.3" class="st1" width="34.5" height="1.5"/>
		</g>
		<g>
			<line class="st2" x1="83.5" y1="89.5" x2="118" y2="89.5"/>
			<rect x="83.5" y="88.8" class="st1" width="34.5" height="1.5"/>
		</g>
		<g>
			<line class="st2" x1="83.5" y1="93" x2="108.9" y2="93"/>
			<rect x="83.5" y="92.2" class="st1" width="25.4" height="1.5"/>
		</g>
	</g>
	<g>
		<polygon class="st5" points="74.6,37.1 78.5,45.1 87.3,46.4 81,52.6 82.5,61.4 74.6,57.3 66.7,61.4 68.2,52.6 61.8,46.4 
			70.6,45.1 		"/>
		<path class="st1" d="M82.5,62.2c-0.1,0-0.2,0-0.3-0.1l-7.5-4l-7.5,4c-0.3,0.1-0.6,0.1-0.8-0.1c-0.2-0.2-0.3-0.5-0.3-0.7l1.4-8.4
			l-6.1-5.9c-0.2-0.2-0.3-0.5-0.2-0.8c0.1-0.3,0.3-0.5,0.6-0.5l8.4-1.2l3.8-7.6c0.3-0.5,1.1-0.5,1.3,0l3.8,7.6l8.4,1.2
			c0.3,0,0.5,0.2,0.6,0.5c0.1,0.3,0,0.6-0.2,0.8l-6.1,5.9l1.4,8.4c0,0.3-0.1,0.6-0.3,0.7C82.8,62.1,82.6,62.2,82.5,62.2z M74.6,56.5
			c0.1,0,0.2,0,0.3,0.1l6.5,3.4l-1.2-7.3c0-0.2,0-0.5,0.2-0.7l5.3-5.2l-7.3-1.1c-0.2,0-0.5-0.2-0.6-0.4l-3.3-6.6l-3.3,6.6
			c-0.1,0.2-0.3,0.4-0.6,0.4l-7.3,1.1l5.3,5.2c0.2,0.2,0.3,0.4,0.2,0.7L67.7,60l6.5-3.4C74.3,56.5,74.5,56.5,74.6,56.5z"/>
	</g>
</g>
</svg>
