<?xml version="1.0" encoding="utf-8"?>
<!-- Generator: Adobe Illustrator 21.1.0, SVG Export Plug-In . SVG Version: 6.00 Build 0)  -->
<svg version="1.1" id="Layer_1" xmlns="http://www.w3.org/2000/svg" xmlns:xlink="http://www.w3.org/1999/xlink" x="0px" y="0px"
	 viewBox="0 0 126.5 129.5" style="enable-background:new 0 0 126.5 129.5;" xml:space="preserve">
<style type="text/css">
	.st0{fill:#08B2A0;}
	.st1{fill:#FFFFFF;}
	.st2{fill:#FF7058;}
	.st3{fill:#231F20;}
	.st4{fill:#FFD05B;}
	.st5{fill:#E6E9EE;}
</style>
<g>
	<circle class="st0" cx="15.8" cy="91.2" r="15"/>
	<g>
		<path class="st1" d="M5.2,91.2H3.7c0-0.4,0-0.7,0-1.1l1.5,0.1C5.2,90.6,5.2,90.9,5.2,91.2z M5.5,88.5l-1.4-0.4
			c0.1-0.3,0.2-0.7,0.3-1l1.4,0.5C5.7,87.9,5.6,88.2,5.5,88.5z M6.6,85.9l-1.3-0.8c0.2-0.3,0.4-0.6,0.6-0.9l1.2,0.9
			C6.9,85.3,6.7,85.6,6.6,85.9z M8.3,83.7l-1.1-1.1c0.3-0.3,0.5-0.5,0.8-0.7L9,83C8.7,83.2,8.5,83.4,8.3,83.7z M10.5,82l-0.7-1.3
			c0.3-0.2,0.6-0.3,0.9-0.5l0.6,1.4C11.1,81.7,10.8,81.8,10.5,82z M13.1,80.9l-0.4-1.4c0.3-0.1,0.7-0.2,1-0.2l0.3,1.5
			C13.7,80.8,13.4,80.8,13.1,80.9z"/>
	</g>
	<g>
		<path class="st1" d="M15.8,103.4c-6.4,0-11.7-5-12.2-11.3L5.2,92c0.4,5.6,5.1,10,10.7,10c5.9,0,10.7-4.8,10.7-10.7
			c0-5.6-4.4-10.3-10-10.7l0.1-1.5C23,79.5,28,84.8,28,91.2C28,98,22.6,103.4,15.8,103.4z"/>
	</g>
	<g>
		<path class="st1" d="M18.6,97.4h-5.6c-1.4,0-2.5-1.1-2.5-2.5c0-0.4,0.3-0.8,0.8-0.8c0.4,0,0.8,0.3,0.8,0.8c0,0.6,0.5,1,1,1h5.6
			c0.6,0,1-0.5,1-1V93c0-0.6-0.5-1-1-1h-5.6c-1.4,0-2.5-1.1-2.5-2.5v-1.9c0-1.4,1.1-2.5,2.5-2.5h5.6c1.4,0,2.5,1.1,2.5,2.5
			c0,0.4-0.3,0.8-0.8,0.8c-0.4,0-0.8-0.3-0.8-0.8c0-0.6-0.5-1-1-1h-5.6c-0.6,0-1,0.5-1,1v1.9c0,0.6,0.5,1,1,1h5.6
			c1.4,0,2.5,1.1,2.5,2.5v1.9C21.1,96.3,20,97.4,18.6,97.4z"/>
	</g>
	<g>
		<path class="st1" d="M15.8,99.4c-0.4,0-0.8-0.3-0.8-0.8V83.8c0-0.4,0.3-0.8,0.8-0.8c0.4,0,0.8,0.3,0.8,0.8v14.9
			C16.6,99.1,16.3,99.4,15.8,99.4z"/>
	</g>
	<circle class="st2" cx="42.8" cy="107.8" r="10.8"/>
	<path class="st1" d="M35.3,107.8h-1.5c0-0.4,0-0.7,0.1-1.1l1.5,0.2C35.3,107.2,35.3,107.5,35.3,107.8z M35.8,105.2l-1.4-0.5
		c0.1-0.3,0.3-0.7,0.5-1l1.3,0.7C36,104.6,35.9,104.9,35.8,105.2z M37.2,102.9l-1.1-1c0.2-0.3,0.5-0.5,0.8-0.8l1,1.1
		C37.6,102.4,37.4,102.6,37.2,102.9z M39.4,101.2l-0.7-1.3c0.3-0.2,0.7-0.3,1-0.4l0.5,1.4C39.9,100.9,39.6,101.1,39.4,101.2z
		 M42,100.4l-0.2-1.5c0.3,0,0.6-0.1,1-0.1v1.5C42.5,100.4,42.2,100.4,42,100.4z"/>
	<path class="st1" d="M42.8,116.8c-4.7,0-8.6-3.7-8.9-8.3l1.5-0.1c0.3,3.9,3.5,6.9,7.4,6.9c4.1,0,7.5-3.3,7.5-7.5
		c0-3.9-3.1-7.2-7-7.4l0.1-1.5c4.7,0.3,8.4,4.2,8.4,8.9C51.7,112.8,47.7,116.8,42.8,116.8z"/>
	<path class="st1" d="M44.8,112.5h-4c-1.1,0-2-0.9-2-2c0-0.4,0.3-0.8,0.8-0.8c0.4,0,0.8,0.3,0.8,0.8c0,0.3,0.2,0.5,0.5,0.5h4
		c0.3,0,0.5-0.2,0.5-0.5v-1.3c0-0.3-0.2-0.5-0.5-0.5h-4c-1.1,0-2-0.9-2-2v-1.3c0-1.1,0.9-2,2-2h4c1.1,0,2,0.9,2,2
		c0,0.4-0.3,0.8-0.8,0.8c-0.4,0-0.8-0.3-0.8-0.8c0-0.3-0.2-0.5-0.5-0.5h-4c-0.3,0-0.5,0.2-0.5,0.5v1.3c0,0.3,0.2,0.5,0.5,0.5h4
		c1.1,0,2,0.9,2,2v1.3C46.8,111.6,45.9,112.5,44.8,112.5z"/>
	<path class="st1" d="M42.8,113.9c-0.4,0-0.8-0.3-0.8-0.8v-10.7c0-0.4,0.3-0.8,0.8-0.8c0.4,0,0.8,0.3,0.8,0.8v10.7
		C43.5,113.6,43.2,113.9,42.8,113.9z"/>
	<g>
		<path class="st3" d="M124.5,2.8c-0.2,0-0.4-0.1-0.5-0.2c-0.3-0.3-0.3-0.8,0-1.1l1.3-1.3c0.3-0.3,0.8-0.3,1.1,0
			c0.3,0.3,0.3,0.8,0,1.1L125,2.6C124.8,2.7,124.6,2.8,124.5,2.8z"/>
	</g>
	<g>
		<path class="st3" d="M120.4,6.8c-0.2,0-0.4-0.1-0.5-0.2c-0.3-0.3-0.3-0.8,0-1.1l1.3-1.3c0.3-0.3,0.8-0.3,1.1,0
			c0.3,0.3,0.3,0.8,0,1.1L121,6.6C120.8,6.7,120.6,6.8,120.4,6.8z"/>
	</g>
	<g>
		<path class="st3" d="M125.7,6.8c-0.2,0-0.4-0.1-0.5-0.2l-1.3-1.3c-0.3-0.3-0.3-0.8,0-1.1c0.3-0.3,0.8-0.3,1.1,0l1.3,1.3
			c0.3,0.3,0.3,0.8,0,1.1C126.1,6.7,125.9,6.8,125.7,6.8z"/>
	</g>
	<g>
		<path class="st3" d="M121.7,2.8c-0.2,0-0.4-0.1-0.5-0.2l-1.3-1.3c-0.3-0.3-0.3-0.8,0-1.1s0.8-0.3,1.1,0l1.3,1.3
			c0.3,0.3,0.3,0.8,0,1.1C122.1,2.7,121.9,2.8,121.7,2.8z"/>
	</g>
	<g>
		<path class="st3" d="M4.8,20.7c-0.2,0-0.4-0.1-0.5-0.2c-0.3-0.3-0.3-0.8,0-1.1l1.3-1.3c0.3-0.3,0.8-0.3,1.1,0
			c0.3,0.3,0.3,0.8,0,1.1l-1.3,1.3C5.2,20.6,5,20.7,4.8,20.7z"/>
	</g>
	<g>
		<path class="st3" d="M0.7,24.7c-0.2,0-0.4-0.1-0.5-0.2c-0.3-0.3-0.3-0.8,0-1.1l1.3-1.3c0.3-0.3,0.8-0.3,1.1,0
			c0.3,0.3,0.3,0.8,0,1.1l-1.3,1.3C1.1,24.6,0.9,24.7,0.7,24.7z"/>
	</g>
	<g>
		<path class="st3" d="M6.1,24.7c-0.2,0-0.4-0.1-0.5-0.2l-1.3-1.3c-0.3-0.3-0.3-0.8,0-1.1c0.3-0.3,0.8-0.3,1.1,0l1.3,1.3
			c0.3,0.3,0.3,0.8,0,1.1C6.4,24.6,6.3,24.7,6.1,24.7z"/>
	</g>
	<g>
		<path class="st3" d="M2,20.7c-0.2,0-0.4-0.1-0.5-0.2l-1.3-1.3c-0.3-0.3-0.3-0.8,0-1.1c0.3-0.3,0.8-0.3,1.1,0l1.3,1.3
			c0.3,0.3,0.3,0.8,0,1.1C2.4,20.6,2.2,20.7,2,20.7z"/>
	</g>
	<g>
		<path class="st3" d="M113.9,107.5c-0.2,0-0.4-0.1-0.5-0.2c-0.3-0.3-0.3-0.8,0-1.1l1.3-1.3c0.3-0.3,0.8-0.3,1.1,0
			c0.3,0.3,0.3,0.8,0,1.1l-1.3,1.3C114.3,107.4,114.1,107.5,113.9,107.5z"/>
	</g>
	<g>
		<path class="st3" d="M109.9,111.5c-0.2,0-0.4-0.1-0.5-0.2c-0.3-0.3-0.3-0.8,0-1.1l1.3-1.3c0.3-0.3,0.8-0.3,1.1,0
			c0.3,0.3,0.3,0.8,0,1.1l-1.3,1.3C110.3,111.4,110.1,111.5,109.9,111.5z"/>
	</g>
	<g>
		<path class="st3" d="M115.2,111.5c-0.2,0-0.4-0.1-0.5-0.2l-1.3-1.3c-0.3-0.3-0.3-0.8,0-1.1c0.3-0.3,0.8-0.3,1.1,0l1.3,1.3
			c0.3,0.3,0.3,0.8,0,1.1C115.6,111.4,115.4,111.5,115.2,111.5z"/>
	</g>
	<g>
		<path class="st3" d="M111.2,107.5c-0.2,0-0.4-0.1-0.5-0.2l-1.3-1.3c-0.3-0.3-0.3-0.8,0-1.1c0.3-0.3,0.8-0.3,1.1,0l1.3,1.3
			c0.3,0.3,0.3,0.8,0,1.1C111.6,107.4,111.4,107.5,111.2,107.5z"/>
	</g>
	<path class="st3" d="M60.5,92c-0.3,0-0.7,0-1,0l0.1-1.5c0.3,0,0.7,0,1,0L60.5,92z M57.5,91.8c-0.3,0-0.7-0.1-1-0.1l0.2-1.5
		c0.3,0,0.6,0.1,1,0.1L57.5,91.8z M54.5,91.4c-0.3-0.1-0.7-0.1-1-0.2l0.3-1.5c0.3,0.1,0.6,0.1,1,0.2L54.5,91.4z M51.5,90.7
		c-0.3-0.1-0.7-0.2-1-0.3l0.4-1.4c0.3,0.1,0.6,0.2,0.9,0.3L51.5,90.7z M48.6,89.9c-0.3-0.1-0.6-0.2-1-0.3l0.5-1.4
		c0.3,0.1,0.6,0.2,0.9,0.3L48.6,89.9z M45.7,88.8c-0.3-0.1-0.6-0.3-0.9-0.4l0.6-1.4c0.3,0.1,0.6,0.3,0.9,0.4L45.7,88.8z M42.9,87.5
		c-0.3-0.2-0.6-0.3-0.9-0.5l0.7-1.3c0.3,0.2,0.6,0.3,0.9,0.5L42.9,87.5z M40.2,86c-0.3-0.2-0.6-0.4-0.9-0.5l0.8-1.3
		c0.3,0.2,0.6,0.3,0.8,0.5L40.2,86z M37.7,84.4c-0.3-0.2-0.6-0.4-0.8-0.6l0.9-1.2c0.3,0.2,0.5,0.4,0.8,0.6L37.7,84.4z M35.3,82.5
		c-0.3-0.2-0.5-0.4-0.8-0.7l1-1.1c0.2,0.2,0.5,0.4,0.8,0.6L35.3,82.5z M33,80.5c-0.2-0.2-0.5-0.5-0.7-0.7l1.1-1.1
		c0.2,0.2,0.5,0.5,0.7,0.7L33,80.5z"/>
	<path class="st3" d="M32.2,79.8C24.4,71.9,20,61.4,20,50.3h1.5c0,10.7,4.2,20.8,11.8,28.4L32.2,79.8z"/>
	<path class="st3" d="M21.5,49.1l-1.5,0c0-0.3,0-0.7,0-1l1.5,0.1C21.6,48.5,21.5,48.8,21.5,49.1z M21.7,46.2L20.2,46
		c0-0.3,0.1-0.7,0.1-1l1.5,0.2C21.8,45.5,21.8,45.8,21.7,46.2z M22.1,43.3L20.6,43c0.1-0.3,0.1-0.7,0.2-1l1.5,0.3
		C22.2,42.6,22.2,42.9,22.1,43.3z M22.7,40.4L21.3,40c0.1-0.3,0.2-0.7,0.3-1l1.4,0.4C22.9,39.7,22.8,40.1,22.7,40.4z M23.6,37.5
		l-1.4-0.5c0.1-0.3,0.2-0.6,0.3-1l1.4,0.5C23.8,36.9,23.7,37.2,23.6,37.5z M24.6,34.8l-1.4-0.6c0.1-0.3,0.3-0.6,0.4-0.9l1.4,0.6
		C24.9,34.2,24.7,34.5,24.6,34.8z M25.8,32.1l-1.3-0.7c0.2-0.3,0.3-0.6,0.5-0.9l1.3,0.7C26.1,31.5,26,31.8,25.8,32.1z M27.3,29.5
		L26,28.8c0.2-0.3,0.4-0.6,0.5-0.9l1.3,0.8C27.6,29,27.4,29.3,27.3,29.5z M28.9,27.1l-1.2-0.9c0.2-0.3,0.4-0.6,0.6-0.8l1.2,0.9
		C29.2,26.5,29.1,26.8,28.9,27.1z M30.7,24.7l-1.2-1c0.2-0.3,0.4-0.5,0.7-0.8l1.1,1C31.1,24.2,30.9,24.5,30.7,24.7z M32.6,22.5
		l-1.1-1c0.2-0.2,0.5-0.5,0.7-0.7l1.1,1.1C33.1,22.1,32.8,22.3,32.6,22.5z"/>
	<path class="st3" d="M33.3,21.8l-1.1-1.1c7.9-7.9,18.4-12.2,29.5-12.2V10C51,10,40.9,14.2,33.3,21.8z"/>
	<path class="st3" d="M91.2,79.8l-1.1-1.1c0.2-0.2,0.5-0.5,0.7-0.7l1.1,1C91.7,79.3,91.5,79.5,91.2,79.8z M93.3,77.5l-1.1-1
		c0.2-0.2,0.4-0.5,0.6-0.8l1.2,1C93.8,77,93.5,77.3,93.3,77.5z M95.2,75.1L94,74.3c0.2-0.3,0.4-0.5,0.6-0.8l1.2,0.9
		C95.6,74.6,95.4,74.9,95.2,75.1z M97,72.6l-1.3-0.8c0.2-0.3,0.3-0.6,0.5-0.8l1.3,0.8C97.3,72.1,97.2,72.3,97,72.6z M98.5,70
		l-1.3-0.7c0.2-0.3,0.3-0.6,0.5-0.9l1.3,0.7C98.8,69.4,98.7,69.7,98.5,70z M99.9,67.3l-1.4-0.6c0.1-0.3,0.3-0.6,0.4-0.9l1.4,0.6
		C100.1,66.6,100,66.9,99.9,67.3z M101,64.4l-1.4-0.5c0.1-0.3,0.2-0.6,0.3-0.9l1.4,0.5C101.2,63.8,101.1,64.1,101,64.4z M101.9,61.5
		l-1.4-0.4c0.1-0.3,0.2-0.6,0.3-0.9l1.5,0.4C102.1,60.9,102,61.2,101.9,61.5z M102.6,58.5l-1.5-0.3c0.1-0.3,0.1-0.6,0.2-1l1.5,0.3
		C102.8,57.9,102.7,58.2,102.6,58.5z M103.1,55.5l-1.5-0.2c0-0.3,0.1-0.6,0.1-1l1.5,0.2C103.2,54.8,103.2,55.2,103.1,55.5z
		 M103.4,52.5l-1.5-0.1c0-0.3,0-0.7,0-1l1.5,0C103.4,51.8,103.4,52.1,103.4,52.5z"/>
	<path class="st3" d="M90.2,21.8c-0.2-0.2-0.5-0.5-0.7-0.7l1-1.1c0.2,0.2,0.5,0.5,0.7,0.7L90.2,21.8z M88,19.8
		c-0.2-0.2-0.5-0.4-0.8-0.6l1-1.2c0.3,0.2,0.5,0.4,0.8,0.7L88,19.8z M85.7,18c-0.3-0.2-0.5-0.4-0.8-0.6l0.9-1.2
		c0.3,0.2,0.6,0.4,0.8,0.6L85.7,18z M83.3,16.3c-0.3-0.2-0.6-0.3-0.8-0.5l0.8-1.3c0.3,0.2,0.6,0.4,0.9,0.5L83.3,16.3z M80.8,14.8
		c-0.3-0.2-0.6-0.3-0.9-0.5l0.7-1.3c0.3,0.2,0.6,0.3,0.9,0.5L80.8,14.8z M78.1,13.5c-0.3-0.1-0.6-0.3-0.9-0.4l0.6-1.4
		c0.3,0.1,0.6,0.3,0.9,0.4L78.1,13.5z M75.4,12.4c-0.3-0.1-0.6-0.2-0.9-0.3l0.5-1.4c0.3,0.1,0.6,0.2,1,0.3L75.4,12.4z M72.6,11.5
		c-0.3-0.1-0.6-0.2-0.9-0.3L72,9.8c0.3,0.1,0.7,0.2,1,0.3L72.6,11.5z M69.7,10.8c-0.3-0.1-0.6-0.1-1-0.2L69,9.2
		c0.3,0.1,0.7,0.1,1,0.2L69.7,10.8z M66.8,10.4c-0.3,0-0.6-0.1-1-0.1L66,8.8c0.3,0,0.7,0.1,1,0.1L66.8,10.4z M63.9,10.1
		c-0.3,0-0.7,0-1,0l0-1.5c0.3,0,0.7,0,1,0L63.9,10.1z"/>
	<path class="st3" d="M103.5,50.3H102c0-10.7-4.2-20.8-11.8-28.4l1.1-1.1C99.1,28.6,103.5,39.1,103.5,50.3z"/>
	<circle class="st4" cx="61.7" cy="50.3" r="36.9"/>
	<circle class="st1" cx="61.7" cy="50.3" r="30.6"/>
	<path class="st3" d="M80.5,52.2c-1.6,0-3-1.3-3-3c0-1.6,1.3-3,3-3c1.6,0,3,1.3,3,3C83.5,50.9,82.2,52.2,80.5,52.2z M80.5,47.8
		c-0.8,0-1.5,0.7-1.5,1.5s0.7,1.5,1.5,1.5s1.5-0.7,1.5-1.5S81.3,47.8,80.5,47.8z"/>
	<path class="st3" d="M40.8,52.2c-1.6,0-3-1.3-3-3c0-1.6,1.3-3,3-3c1.6,0,3,1.3,3,3C43.8,50.9,42.4,52.2,40.8,52.2z M40.8,47.8
		c-0.8,0-1.5,0.7-1.5,1.5s0.7,1.5,1.5,1.5c0.8,0,1.5-0.7,1.5-1.5S41.6,47.8,40.8,47.8z"/>
	<path class="st3" d="M61.7,48.1c-3,0-5.4-2.4-5.4-5.4s2.4-5.4,5.4-5.4c2.7,0,5,2,5.3,4.6h4.3c-0.3-4-3.1-7.4-6.9-8.5
		c-0.3-0.1-0.5-0.4-0.5-0.7v-2.5h-4.2v2.5c0,0.3-0.2,0.6-0.5,0.7c-4.1,1.2-7,5-7,9.2h-1.5c0-4.7,3.1-9,7.5-10.5v-2.7
		c0-0.4,0.3-0.8,0.8-0.8h5.7c0.4,0,0.8,0.3,0.8,0.8v2.7c4.5,1.5,7.5,5.8,7.5,10.5c0,0.4-0.3,0.8-0.8,0.8h-5.7
		c-0.4,0-0.8-0.3-0.8-0.8c0-2.1-1.7-3.9-3.9-3.9c-2.1,0-3.9,1.7-3.9,3.9s1.7,3.9,3.9,3.9V48.1z"/>
	<path class="st3" d="M72.9,57.8h-1.5c0-0.3,0-0.6,0-0.9l1.5-0.1C72.9,57.1,72.9,57.4,72.9,57.8z M71,55c-0.1-0.3-0.2-0.6-0.3-0.9
		l1.4-0.6c0.1,0.3,0.3,0.7,0.4,1L71,55z M69.8,52.5c-0.2-0.3-0.4-0.5-0.5-0.7l1.2-0.9c0.2,0.3,0.4,0.6,0.6,0.9L69.8,52.5z M68,50.4
		c-0.2-0.2-0.5-0.4-0.7-0.6l0.9-1.2c0.3,0.2,0.6,0.4,0.8,0.7L68,50.4z M65.6,49c-0.3-0.1-0.6-0.2-0.9-0.3l0.5-1.4
		c0.3,0.1,0.7,0.2,1,0.4L65.6,49z M63,48.2c-0.3,0-0.6-0.1-0.9-0.1l0-1.5c0.4,0,0.7,0,1.1,0.1L63,48.2z"/>
	<path class="st3" d="M64.6,71.8h-5.7c-0.4,0-0.8-0.3-0.8-0.8v-2.7c-4.5-1.5-7.5-5.8-7.5-10.5c0-0.4,0.3-0.8,0.8-0.8h5.7
		c0.4,0,0.8,0.3,0.8,0.8c0,2.1,1.7,3.9,3.9,3.9c2.1,0,3.9-1.7,3.9-3.9c0-2.1-1.7-3.9-3.9-3.9v-1.5c3,0,5.4,2.4,5.4,5.4
		c0,3-2.4,5.4-5.4,5.4c-2.7,0-5-2-5.3-4.6h-4.3c0.3,4,3.1,7.4,6.9,8.5c0.3,0.1,0.5,0.4,0.5,0.7v2.5h4.2v-2.5c0-0.3,0.2-0.6,0.5-0.7
		c4.1-1.2,7-5,7-9.2h1.5c0,4.7-3.1,9-7.5,10.5V71C65.4,71.4,65,71.8,64.6,71.8z"/>
	<path class="st3" d="M61.4,53.9c-0.4,0-0.7,0-1.1-0.1l0.2-1.5c0.3,0,0.6,0.1,0.9,0.1L61.4,53.9z M58.3,53.3c-0.3-0.1-0.7-0.2-1-0.4
		l0.6-1.4c0.3,0.1,0.6,0.2,0.9,0.3L58.3,53.3z M55.4,51.9c-0.3-0.2-0.6-0.4-0.8-0.7l1-1.1c0.2,0.2,0.5,0.4,0.7,0.6L55.4,51.9z
		 M53,49.7c-0.2-0.3-0.4-0.6-0.6-0.9l1.3-0.8c0.2,0.3,0.4,0.5,0.5,0.7L53,49.7z M51.4,46.9c-0.1-0.3-0.3-0.7-0.4-1l1.4-0.4
		c0.1,0.3,0.2,0.6,0.3,0.9L51.4,46.9z M50.7,43.8c0-0.4-0.1-0.7-0.1-1.1h1.5c0,0.3,0,0.6,0,0.9L50.7,43.8z"/>
	<rect x="78.7" y="75.1" class="st1" width="1.2" height="0.8"/>
	<path class="st3" d="M79.9,76h-1.2c-0.1,0-0.1-0.1-0.1-0.1v-0.8c0-0.1,0.1-0.1,0.1-0.1h1.2C80,75,80,75,80,75.1v0.8
		C80,76,80,76,79.9,76z M78.8,75.8h0.9v-0.5h-0.9V75.8z"/>
	<polyline class="st0" points="104.7,128.7 104.7,119.4 74.5,119.4 74.5,128.7 	"/>
	<path class="st1" d="M99.9,74.6c-2.1-0.2-3.8,1.4-3.8,3.4v-0.9c0-1.8-1.3-3.4-3.1-3.6c-2.1-0.2-3.8,1.4-3.8,3.4v-2
		c0-2-1.7-3.6-3.8-3.4c-1.8,0.2-3.1,1.8-3.1,3.6l0-12.3c0-2-1.7-3.6-3.8-3.4c-1.8,0.2-3.1,1.8-3.1,3.6v20.2c0-2-1.7-3.6-3.8-3.4
		c-1.8,0.2-3.1,1.8-3.1,3.6v10.3c0,4.9,2.2,9.5,6.1,12.6c2.7,2.2,4.3,5.4,4.3,8.9v4.3h21.2v-5c0-1.7,0.1-3.4,0.4-5.1l2.1-6.9
		c0.3-1.7,0.4-3.4,0.4-5.1V78.2C103,76.4,101.7,74.7,99.9,74.6z"/>
	<line class="st5" x1="82.3" y1="75.1" x2="82.3" y2="82.9"/>
	<line class="st5" x1="89.2" y1="76.8" x2="89.2" y2="83.2"/>
	<line class="st5" x1="96.1" y1="77.7" x2="96.1" y2="83.2"/>
	<path class="st3" d="M104.7,118.6h-3.8v-4.2c0-1.6,0.1-3.3,0.4-4.8l2.1-7c0.3-1.7,0.4-3.5,0.4-5.2V78.2c0-2.2-1.7-4.1-3.8-4.3
		c-1.4-0.1-2.7,0.4-3.5,1.4c-0.6-1.3-1.9-2.3-3.4-2.4c-0.5,0-0.9,0-1.3,0.1c4.8-6.3,7.6-14.1,7.6-22.6c0-20.8-16.9-37.6-37.6-37.6
		S24.1,29.5,24.1,50.3C24.1,71,41,87.9,61.7,87.9c2,0,4.1-0.2,6-0.5V90c-2,0.3-4,0.5-6,0.5V92c2,0,4-0.2,6-0.5v2
		c0,5.2,2.3,10,6.4,13.2c2.6,2,4,5.1,4,8.3v3.6h-3.6c-0.4,0-0.8,0.3-0.8,0.8v9.4c0,0.4,0.3,0.8,0.8,0.8c0.4,0,0.8-0.3,0.8-0.8v-8.6
		h28.7v8.6c0,0.4,0.3,0.8,0.8,0.8c0.4,0,0.8-0.3,0.8-0.8v-9.4C105.4,119,105.1,118.6,104.7,118.6z M67.8,83.2v2.7
		c-2,0.3-4,0.5-6,0.5c-19.9,0-36.1-16.2-36.1-36.1c0-19.9,16.2-36.1,36.1-36.1c19.9,0,36.1,16.2,36.1,36.1c0,8.7-3.1,16.7-8.3,23
		c-0.7-1.5-2.3-2.6-4.2-2.4c4.8-5.5,7.7-12.7,7.7-20.5C93.1,33,79,18.9,61.7,18.9S30.4,33,30.4,50.3s14.1,31.3,31.3,31.3
		c2.3,0,4.5-0.3,6.7-0.7C68,81.6,67.8,82.4,67.8,83.2z M78.4,58.6c-2.1,0.2-3.8,2.1-3.8,4.3v14.2c-3.9,1.9-8.3,3-12.9,3
		c-16.5,0-29.8-13.4-29.8-29.8c0-16.5,13.4-29.8,29.8-29.8s29.8,13.4,29.8,29.8c0,8.1-3.3,15.5-8.5,20.8v-8.3
		C83.1,60.3,81,58.3,78.4,58.6z M74.7,78.8v1.1c-0.3-0.3-0.7-0.5-1-0.6C74,79.1,74.3,79,74.7,78.8z M75.1,105.5
		c-3.7-2.9-5.8-7.3-5.8-12V83.2c0-1.5,1.1-2.7,2.4-2.8c1.6-0.2,3,1.1,3,2.7c0,0.4,0.3,0.8,0.8,0.8c0.4,0,0.8-0.3,0.8-0.8V62.9
		c0-1.5,1.1-2.7,2.4-2.8c1.6-0.2,3,1.1,3,2.7v20.2c0,0.4,0.3,0.8,0.8,0.8c0.4,0,0.8-0.3,0.8-0.8v-7.8c0-1.5,1.1-2.7,2.4-2.8
		c1.6-0.2,3,1.1,3,2.7v8.3c0,0.4,0.3,0.8,0.8,0.8c0.4,0,0.8-0.3,0.8-0.8V77c0-1.6,1.4-2.8,3-2.7c1.4,0.1,2.4,1.4,2.4,2.8v6.1
		c0,0.4,0.3,0.8,0.8,0.8s0.8-0.3,0.8-0.8V78c0-1.6,1.4-2.8,3-2.7c1.4,0.1,2.4,1.4,2.4,2.8v19.2c0,1.6-0.1,3.3-0.4,4.8l-2.1,7
		c-0.3,1.7-0.4,3.4-0.4,5.2v4.2H79.7V115C79.7,111.3,78,107.8,75.1,105.5z"/>
	<circle class="st0" cx="20.8" cy="10.2" r="2.4"/>
	<circle class="st5" cx="114.9" cy="40.8" r="2.4"/>
	<circle class="st5" cx="114.9" cy="91.2" r="2.4"/>
	<circle class="st2" cx="6.1" cy="47" r="2.4"/>
	<g>
		<line class="st4" x1="8.1" y1="118.6" x2="16.2" y2="118.6"/>
		<path class="st3" d="M16.2,119.4H8.1c-0.4,0-0.8-0.3-0.8-0.8c0-0.4,0.3-0.8,0.8-0.8h8.1c0.4,0,0.8,0.3,0.8,0.8
			C16.9,119.1,16.6,119.4,16.2,119.4z"/>
	</g>
	<g>
		<line class="st4" x1="15.4" y1="121.6" x2="19.4" y2="121.6"/>
		<path class="st3" d="M19.4,122.3h-4c-0.4,0-0.8-0.3-0.8-0.8c0-0.4,0.3-0.8,0.8-0.8h4c0.4,0,0.8,0.3,0.8,0.8
			C20.1,122,19.8,122.3,19.4,122.3z"/>
	</g>
	<g>
		<line class="st4" x1="19.8" y1="118.6" x2="23.6" y2="118.6"/>
		<path class="st3" d="M23.6,119.4h-3.8c-0.4,0-0.8-0.3-0.8-0.8c0-0.4,0.3-0.8,0.8-0.8h3.8c0.4,0,0.8,0.3,0.8,0.8
			C24.4,119.1,24,119.4,23.6,119.4z"/>
	</g>
	<g>
		<line class="st4" x1="11.7" y1="121.6" x2="12.5" y2="121.6"/>
		<path class="st3" d="M12.5,122.3h-0.8c-0.4,0-0.8-0.3-0.8-0.8c0-0.4,0.3-0.8,0.8-0.8h0.8c0.4,0,0.8,0.3,0.8,0.8
			C13.3,122,12.9,122.3,12.5,122.3z"/>
	</g>
	<g>
		<line class="st4" x1="106.2" y1="68.1" x2="114.3" y2="68.1"/>
		<path class="st3" d="M114.3,68.8h-8.1c-0.4,0-0.8-0.3-0.8-0.8c0-0.4,0.3-0.8,0.8-0.8h8.1c0.4,0,0.8,0.3,0.8,0.8
			C115,68.5,114.7,68.8,114.3,68.8z"/>
	</g>
	<g>
		<line class="st4" x1="113.5" y1="71" x2="117.5" y2="71"/>
		<path class="st3" d="M117.5,71.8h-4c-0.4,0-0.8-0.3-0.8-0.8c0-0.4,0.3-0.8,0.8-0.8h4c0.4,0,0.8,0.3,0.8,0.8
			C118.2,71.4,117.9,71.8,117.5,71.8z"/>
	</g>
	<g>
		<line class="st4" x1="117.9" y1="68.1" x2="121.7" y2="68.1"/>
		<path class="st3" d="M121.7,68.8h-3.8c-0.4,0-0.8-0.3-0.8-0.8c0-0.4,0.3-0.8,0.8-0.8h3.8c0.4,0,0.8,0.3,0.8,0.8
			C122.5,68.5,122.1,68.8,121.7,68.8z"/>
	</g>
	<g>
		<line class="st4" x1="109.8" y1="71" x2="110.6" y2="71"/>
		<path class="st3" d="M110.6,71.8h-0.8c-0.4,0-0.8-0.3-0.8-0.8c0-0.4,0.3-0.8,0.8-0.8h0.8c0.4,0,0.8,0.3,0.8,0.8
			C111.4,71.4,111,71.8,110.6,71.8z"/>
	</g>
	<path class="st3" d="M106,28.9C106,28.9,106,28.9,106,28.9c-0.4,0-0.6-0.2-0.7-0.5L100,9.7c-0.1-0.3,0-0.5,0.2-0.7
		c0.2-0.2,0.5-0.3,0.7-0.2l18.7,5.3c0.3,0.1,0.5,0.4,0.5,0.7c0,0.3-0.2,0.6-0.4,0.7l-6.1,2.7l4.6,4.6c0.1,0.1,0.2,0.3,0.2,0.5
		s-0.1,0.4-0.2,0.5l-3.1,3.1c-0.3,0.3-0.8,0.3-1.1,0l-4.6-4.6l-2.7,6.1C106.6,28.7,106.3,28.9,106,28.9z M101.8,10.6l4.4,15.4
		l2.3-5.2c0.1-0.2,0.3-0.4,0.5-0.4c0.2,0,0.5,0,0.7,0.2l4.9,4.9l2-2l-4.9-4.9c-0.2-0.2-0.3-0.4-0.2-0.7c0-0.2,0.2-0.4,0.4-0.5
		l5.2-2.3L101.8,10.6z"/>
</g>
</svg>
