<?xml version="1.0" encoding="utf-8"?>
<!-- Generator: Adobe Illustrator 21.1.0, SVG Export Plug-In . SVG Version: 6.00 Build 0)  -->
<svg version="1.1" id="Layer_1" xmlns="http://www.w3.org/2000/svg" xmlns:xlink="http://www.w3.org/1999/xlink" x="0px" y="0px"
	 viewBox="0 0 129.4 129.4" style="enable-background:new 0 0 129.4 129.4;" xml:space="preserve">
<style type="text/css">
	.st0{fill:#231F20;}
	.st1{fill:#FFFFFF;}
	.st2{fill:#84DBFF;}
	.st3{fill:#54C0EB;}
	.st4{fill:#CED5E0;}
	.st5{fill:#E6E9EE;}
	.st6{fill:#08B2A0;}
	.st7{fill:#FF7058;}
</style>
<g>
	<g>
		<g>
			<path class="st0" d="M127.4,2.8c-0.2,0-0.4-0.1-0.5-0.2c-0.3-0.3-0.3-0.8,0-1.1l1.3-1.3c0.3-0.3,0.8-0.3,1.1,0
				c0.3,0.3,0.3,0.8,0,1.1l-1.3,1.3C127.8,2.7,127.6,2.8,127.4,2.8z"/>
		</g>
		<g>
			<path class="st0" d="M123.4,6.8c-0.2,0-0.4-0.1-0.5-0.2c-0.3-0.3-0.3-0.8,0-1.1l1.3-1.3c0.3-0.3,0.8-0.3,1.1,0
				c0.3,0.3,0.3,0.8,0,1.1l-1.3,1.3C123.8,6.7,123.6,6.8,123.4,6.8z"/>
		</g>
		<g>
			<path class="st0" d="M128.7,6.8c-0.2,0-0.4-0.1-0.5-0.2l-1.3-1.3c-0.3-0.3-0.3-0.8,0-1.1c0.3-0.3,0.8-0.3,1.1,0l1.3,1.3
				c0.3,0.3,0.3,0.8,0,1.1C129.1,6.7,128.9,6.8,128.7,6.8z"/>
		</g>
		<g>
			<path class="st0" d="M124.7,2.8c-0.2,0-0.4-0.1-0.5-0.2l-1.3-1.3c-0.3-0.3-0.3-0.8,0-1.1c0.3-0.3,0.8-0.3,1.1,0l1.3,1.3
				c0.3,0.3,0.3,0.8,0,1.1C125,2.7,124.8,2.8,124.7,2.8z"/>
		</g>
	</g>
	<g>
		<g>
			<path class="st0" d="M4.8,57.5c-0.2,0-0.4-0.1-0.5-0.2C4,57,4,56.5,4.2,56.2L5.5,55c0.3-0.3,0.8-0.3,1.1,0c0.3,0.3,0.3,0.8,0,1.1
				l-1.3,1.3C5.2,57.4,5,57.5,4.8,57.5z"/>
		</g>
		<g>
			<path class="st0" d="M0.8,61.5c-0.2,0-0.4-0.1-0.5-0.2c-0.3-0.3-0.3-0.8,0-1.1L1.5,59c0.3-0.3,0.8-0.3,1.1,0
				c0.3,0.3,0.3,0.8,0,1.1l-1.3,1.3C1.1,61.5,0.9,61.5,0.8,61.5z"/>
		</g>
		<g>
			<path class="st0" d="M6.1,61.5c-0.2,0-0.4-0.1-0.5-0.2L4.2,60C4,59.8,4,59.3,4.2,59c0.3-0.3,0.8-0.3,1.1,0l1.3,1.3
				c0.3,0.3,0.3,0.8,0,1.1C6.4,61.5,6.3,61.5,6.1,61.5z"/>
		</g>
		<g>
			<path class="st0" d="M2,57.5c-0.2,0-0.4-0.1-0.5-0.2L0.2,56c-0.3-0.3-0.3-0.8,0-1.1c0.3-0.3,0.8-0.3,1.1,0l1.3,1.3
				c0.3,0.3,0.3,0.8,0,1.1C2.4,57.4,2.2,57.5,2,57.5z"/>
		</g>
	</g>
	<g>
		<g>
			<path class="st0" d="M127.4,66c-0.2,0-0.4-0.1-0.5-0.2c-0.3-0.3-0.3-0.8,0-1.1l1.3-1.3c0.3-0.3,0.8-0.3,1.1,0
				c0.3,0.3,0.3,0.8,0,1.1l-1.3,1.3C127.8,65.9,127.6,66,127.4,66z"/>
		</g>
		<g>
			<path class="st0" d="M123.4,70c-0.2,0-0.4-0.1-0.5-0.2c-0.3-0.3-0.3-0.8,0-1.1l1.3-1.3c0.3-0.3,0.8-0.3,1.1,0
				c0.3,0.3,0.3,0.8,0,1.1l-1.3,1.3C123.8,69.9,123.6,70,123.4,70z"/>
		</g>
		<g>
			<path class="st0" d="M128.7,70c-0.2,0-0.4-0.1-0.5-0.2l-1.3-1.3c-0.3-0.3-0.3-0.8,0-1.1c0.3-0.3,0.8-0.3,1.1,0l1.3,1.3
				c0.3,0.3,0.3,0.8,0,1.1C129.1,69.9,128.9,70,128.7,70z"/>
		</g>
		<g>
			<path class="st0" d="M124.7,66c-0.2,0-0.4-0.1-0.5-0.2l-1.3-1.3c-0.3-0.3-0.3-0.8,0-1.1c0.3-0.3,0.8-0.3,1.1,0l1.3,1.3
				c0.3,0.3,0.3,0.8,0,1.1C125,65.9,124.8,66,124.7,66z"/>
		</g>
	</g>
	<g>
		<path class="st1" d="M111.7,122.3h-7.2c-2.8,0-5.1-2.3-5.1-5.1V98c0-2.8,2.3-5.1,5.1-5.1h7.2c2.8,0,5.1,2.3,5.1,5.1v19.2
			C116.8,120,114.5,122.3,111.7,122.3z"/>
		<path class="st0" d="M111.7,123h-7.2c-3.2,0-5.8-2.6-5.8-5.8V98c0-3.2,2.6-5.8,5.8-5.8h7.2c3.2,0,5.8,2.6,5.8,5.8v19.2
			C117.5,120.4,114.9,123,111.7,123z M104.5,93.7c-2.4,0-4.3,1.9-4.3,4.3v19.2c0,2.4,1.9,4.3,4.3,4.3h7.2c2.4,0,4.3-1.9,4.3-4.3V98
			c0-2.4-1.9-4.3-4.3-4.3H104.5z"/>
	</g>
	<path class="st1" d="M106.1,64.4H23.4V19.3c0-1.7,1.3-3,3-3h76.7c1.7,0,3,1.3,3,3V64.4z"/>
	<g>
		
			<rect x="45.2" y="3.5" transform="matrix(-1.836970e-16 1 -1 -1.836970e-16 105.0545 -24.3778)" class="st2" width="39.1" height="73.7"/>
	</g>
	<g>
		<polygon class="st3" points="27.9,59.9 101.6,20.8 101.6,59.9 		"/>
	</g>
	<path class="st1" d="M106.1,64.4H23.4v6.9c0,1.7,1.3,3,3,3h76.7c1.7,0,3-1.3,3-3V64.4z"/>
	<g>
		<polygon class="st4" points="73.9,78.4 76.2,74.3 51.9,74.3 53.5,77.2 		"/>
	</g>
	<path class="st1" d="M80.7,85.9L80.7,85.9c0-2.7-2.2-4.8-4.8-4.8H52.3c-2.7,0-4.8,2.2-4.8,4.8l0,0H80.7z"/>
	<g>
		<circle class="st4" cx="64.7" cy="69.3" r="2.7"/>
	</g>
	<rect x="3.3" y="92.9" class="st1" width="83.4" height="35.8"/>
	<g>
		<rect x="8" y="99.2" class="st1" width="4" height="4"/>
		<path class="st4" d="M12.7,103.9H7.2v-5.5h5.5V103.9z M8.7,102.4h2.5V100H8.7V102.4z"/>
	</g>
	<g>
		<rect x="15.8" y="99.2" class="st1" width="4" height="4"/>
		<path class="st4" d="M20.5,103.9H15v-5.5h5.5V103.9z M16.5,102.4H19V100h-2.5V102.4z"/>
	</g>
	<g>
		<rect x="23.5" y="99.2" class="st1" width="4" height="4"/>
		<path class="st4" d="M28.3,103.9h-5.5v-5.5h5.5V103.9z M24.3,102.4h2.5V100h-2.5V102.4z"/>
	</g>
	<g>
		<rect x="31.3" y="99.2" class="st1" width="4" height="4"/>
		<path class="st4" d="M36.1,103.9h-5.5v-5.5h5.5V103.9z M32.1,102.4h2.5V100h-2.5V102.4z"/>
	</g>
	<g>
		<rect x="39.1" y="99.2" class="st1" width="4" height="4"/>
		<path class="st4" d="M43.8,103.9h-5.5v-5.5h5.5V103.9z M39.9,102.4h2.5V100h-2.5V102.4z"/>
	</g>
	<g>
		<rect x="46.9" y="99.2" class="st1" width="4" height="4"/>
		<path class="st4" d="M51.6,103.9h-5.5v-5.5h5.5V103.9z M47.7,102.4h2.5V100h-2.5V102.4z"/>
	</g>
	<g>
		<rect x="54.7" y="99.2" class="st1" width="4" height="4"/>
		<path class="st4" d="M59.4,103.9h-5.5v-5.5h5.5V103.9z M55.4,102.4h2.5V100h-2.5V102.4z"/>
	</g>
	<g>
		<rect x="62.5" y="99.2" class="st1" width="4" height="4"/>
		<path class="st4" d="M67.2,103.9h-5.5v-5.5h5.5V103.9z M63.2,102.4h2.5V100h-2.5V102.4z"/>
	</g>
	<g>
		<rect x="70.3" y="99.2" class="st1" width="4" height="4"/>
		<path class="st4" d="M75,103.9h-5.5v-5.5H75V103.9z M71,102.4h2.5V100H71V102.4z"/>
	</g>
	<g>
		<rect x="78.1" y="99.2" class="st1" width="4" height="4"/>
		<path class="st4" d="M82.8,103.9h-5.5v-5.5h5.5V103.9z M78.8,102.4h2.5V100h-2.5V102.4z"/>
	</g>
	<g>
		<rect x="8" y="106.3" class="st1" width="4" height="4"/>
		<path class="st4" d="M12.7,111H7.2v-5.5h5.5V111z M8.7,109.5h2.5V107H8.7V109.5z"/>
	</g>
	<g>
		<rect x="15.8" y="106.3" class="st1" width="4" height="4"/>
		<path class="st4" d="M20.5,111H15v-5.5h5.5V111z M16.5,109.5H19V107h-2.5V109.5z"/>
	</g>
	<g>
		<rect x="23.5" y="106.3" class="st1" width="4" height="4"/>
		<path class="st4" d="M28.3,111h-5.5v-5.5h5.5V111z M24.3,109.5h2.5V107h-2.5V109.5z"/>
	</g>
	<g>
		<rect x="31.3" y="106.3" class="st1" width="4" height="4"/>
		<path class="st4" d="M36.1,111h-5.5v-5.5h5.5V111z M32.1,109.5h2.5V107h-2.5V109.5z"/>
	</g>
	<g>
		<rect x="39.1" y="106.3" class="st1" width="4" height="4"/>
		<path class="st4" d="M43.8,111h-5.5v-5.5h5.5V111z M39.9,109.5h2.5V107h-2.5V109.5z"/>
	</g>
	<g>
		<rect x="46.9" y="106.3" class="st1" width="4" height="4"/>
		<path class="st4" d="M51.6,111h-5.5v-5.5h5.5V111z M47.7,109.5h2.5V107h-2.5V109.5z"/>
	</g>
	<g>
		<rect x="54.7" y="106.3" class="st1" width="4" height="4"/>
		<path class="st4" d="M59.4,111h-5.5v-5.5h5.5V111z M55.4,109.5h2.5V107h-2.5V109.5z"/>
	</g>
	<g>
		<rect x="62.5" y="106.3" class="st1" width="4" height="4"/>
		<path class="st4" d="M67.2,111h-5.5v-5.5h5.5V111z M63.2,109.5h2.5V107h-2.5V109.5z"/>
	</g>
	<g>
		<rect x="70.3" y="106.3" class="st1" width="4" height="4"/>
		<path class="st4" d="M75,111h-5.5v-5.5H75V111z M71,109.5h2.5V107H71V109.5z"/>
	</g>
	<g>
		<rect x="78.1" y="106.3" class="st1" width="4" height="4"/>
		<path class="st4" d="M82.8,111h-5.5v-5.5h5.5V111z M78.8,109.5h2.5V107h-2.5V109.5z"/>
	</g>
	<g>
		<rect x="8" y="113.4" class="st1" width="4" height="4"/>
		<path class="st4" d="M12.7,118.1H7.2v-5.5h5.5V118.1z M8.7,116.6h2.5v-2.5H8.7V116.6z"/>
	</g>
	<g>
		<rect x="15.8" y="113.4" class="st1" width="4" height="4"/>
		<path class="st4" d="M20.5,118.1H15v-5.5h5.5V118.1z M16.5,116.6H19v-2.5h-2.5V116.6z"/>
	</g>
	<g>
		<rect x="23.5" y="113.4" class="st1" width="4" height="4"/>
		<path class="st4" d="M28.3,118.1h-5.5v-5.5h5.5V118.1z M24.3,116.6h2.5v-2.5h-2.5V116.6z"/>
	</g>
	<g>
		<rect x="31.3" y="113.4" class="st1" width="4" height="4"/>
		<path class="st4" d="M36.1,118.1h-5.5v-5.5h5.5V118.1z M32.1,116.6h2.5v-2.5h-2.5V116.6z"/>
	</g>
	<g>
		<rect x="39.1" y="113.4" class="st1" width="4" height="4"/>
		<path class="st4" d="M43.8,118.1h-5.5v-5.5h5.5V118.1z M39.9,116.6h2.5v-2.5h-2.5V116.6z"/>
	</g>
	<g>
		<rect x="46.9" y="113.4" class="st1" width="4" height="4"/>
		<path class="st4" d="M51.6,118.1h-5.5v-5.5h5.5V118.1z M47.7,116.6h2.5v-2.5h-2.5V116.6z"/>
	</g>
	<g>
		<rect x="54.7" y="113.4" class="st1" width="4" height="4"/>
		<path class="st4" d="M59.4,118.1h-5.5v-5.5h5.5V118.1z M55.4,116.6h2.5v-2.5h-2.5V116.6z"/>
	</g>
	<g>
		<rect x="62.5" y="113.4" class="st1" width="4" height="4"/>
		<path class="st4" d="M67.2,118.1h-5.5v-5.5h5.5V118.1z M63.2,116.6h2.5v-2.5h-2.5V116.6z"/>
	</g>
	<g>
		<rect x="70.3" y="113.4" class="st1" width="4" height="4"/>
		<path class="st4" d="M75,118.1h-5.5v-5.5H75V118.1z M71,116.6h2.5v-2.5H71V116.6z"/>
	</g>
	<g>
		<rect x="78.1" y="113.4" class="st1" width="4" height="4"/>
		<path class="st4" d="M82.8,118.1h-5.5v-5.5h5.5V118.1z M78.8,116.6h2.5v-2.5h-2.5V116.6z"/>
	</g>
	<g>
		<rect x="8" y="120.5" class="st1" width="4" height="4"/>
		<path class="st4" d="M12.7,125.2H7.2v-5.5h5.5V125.2z M8.7,123.7h2.5v-2.5H8.7V123.7z"/>
	</g>
	<g>
		<rect x="15.8" y="120.5" class="st1" width="35.1" height="4"/>
		<path class="st4" d="M51.6,125.2H15v-5.5h36.6V125.2z M16.5,123.7h33.6v-2.5H16.5V123.7z"/>
	</g>
	<g>
		<rect x="54.7" y="120.5" class="st1" width="4" height="4"/>
		<path class="st4" d="M59.4,125.2h-5.5v-5.5h5.5V125.2z M55.4,123.7h2.5v-2.5h-2.5V123.7z"/>
	</g>
	<g>
		<rect x="62.5" y="120.5" class="st1" width="4" height="4"/>
		<path class="st4" d="M67.2,125.2h-5.5v-5.5h5.5V125.2z M63.2,123.7h2.5v-2.5h-2.5V123.7z"/>
	</g>
	<g>
		<rect x="70.3" y="120.5" class="st1" width="4" height="4"/>
		<path class="st4" d="M75,125.2h-5.5v-5.5H75V125.2z M71,123.7h2.5v-2.5H71V123.7z"/>
	</g>
	<g>
		<rect x="78.1" y="120.5" class="st1" width="4" height="4"/>
		<path class="st4" d="M82.8,125.2h-5.5v-5.5h5.5V125.2z M78.8,123.7h2.5v-2.5h-2.5V123.7z"/>
	</g>
	<path class="st1" d="M13,10.5v23.3c0,1.1,0.9,2,1.9,2h20.7l10.1,6.1v-6.1h3.2c1.1,0,1.9-0.9,1.9-2V10.5c0-1.1-0.9-2-1.9-2H15
		C13.9,8.6,13,9.5,13,10.5z"/>
	<path class="st1" d="M38.6,2.7V26c0,1.1-0.9,2-1.9,2H16L5.9,34V28H2.7c-1.1,0-1.9-0.9-1.9-2V2.7c0-1.1,0.9-2,1.9-2h34
		C37.8,0.7,38.6,1.6,38.6,2.7z"/>
	<g>
		<path class="st0" d="M103.1,15.5H51.6v-5c0-1.5-1.2-2.7-2.7-2.7h-9.6V2.7c0-1.5-1.2-2.7-2.7-2.7h-34C1.2,0,0,1.2,0,2.7V26
			c0,1.5,1.2,2.7,2.7,2.7h2.4V34c0,0.3,0.1,0.5,0.4,0.7c0.1,0.1,0.2,0.1,0.4,0.1c0.1,0,0.3,0,0.4-0.1l6-3.6v2.8
			c0,1.5,1.2,2.7,2.7,2.7h7.7v34.7c0,2.1,1.7,3.8,3.8,3.8h3.7v0.9c0,0.8-0.6,1.4-1.4,1.4H2.9c-1.6,0-2.9,1.3-2.9,2.9
			C0,81.8,1.3,83,2.9,83h39.2c0.8,0,1.4,0.6,1.4,1.4c0,0.8-0.6,1.4-1.4,1.4H15.4c-2.9,0-5.3,2.4-5.3,5.3v1.1H3.3
			c-0.4,0-0.7,0.3-0.7,0.8v35.8c0,0.4,0.3,0.8,0.7,0.8h83.4c0.4,0,0.8-0.3,0.8-0.8V92.9c0-0.4-0.3-0.8-0.8-0.8H11.6v-1.1
			c0-2.1,1.7-3.8,3.8-3.8H42c1.6,0,2.9-1.3,2.9-2.9c0-1.6-1.3-2.9-2.9-2.9H2.9c-0.8,0-1.4-0.6-1.4-1.4c0-0.8,0.6-1.4,1.4-1.4h25.8
			c1.6,0,2.9-1.3,2.9-2.9V75h19.9l2.9,5.3h-2.1c-3.1,0-5.6,2.5-5.6,5.6c0,0.4,0.3,0.8,0.8,0.8h33.2c0.4,0,0.8-0.3,0.8-0.8
			c0-3.1-2.5-5.6-5.6-5.6h-2.1l2.9-5.3h26.4c2.1,0,3.8-1.7,3.8-3.8v-52C106.8,17.2,105.1,15.5,103.1,15.5z M85.9,93.7v34.3H4.1V93.7
			H85.9z M75.8,81.8c2,0,3.7,1.4,4,3.3H48.3c0.4-1.9,2-3.3,4-3.3H75.8z M72,80.3H56.1L53.2,75H75L72,80.3z M6.6,32.7V28
			c0-0.4-0.3-0.8-0.8-0.8H2.7c-0.7,0-1.2-0.5-1.2-1.2V2.7C1.5,2,2,1.5,2.7,1.5h34c0.7,0,1.2,0.5,1.2,1.2V26c0,0.7-0.5,1.2-1.2,1.2
			H16c-0.1,0-0.3,0-0.4,0.1L6.6,32.7z M15,35c-0.7,0-1.2-0.5-1.2-1.2v-3.7l2.4-1.5h20.5c1.5,0,2.7-1.2,2.7-2.7V9.3h9.6
			c0.7,0,1.2,0.5,1.2,1.2v23.3c0,0.7-0.5,1.2-1.2,1.2h-3.2c-0.4,0-0.8,0.3-0.8,0.8v4.7l-9-5.4c-0.1-0.1-0.2-0.1-0.4-0.1H15z
			 M105.3,71.3c0,1.2-1,2.2-2.2,2.2H26.4c-1.2,0-2.2-1-2.2-2.2v-6.1h81.2V71.3z M105.3,63.6H24.1V36.5h11.3l9.9,5.9
			c0.1,0.1,0.3,0.1,0.4,0.1c0.1,0,0.3,0,0.4-0.1c0.2-0.1,0.4-0.4,0.4-0.7v-5.3h2.4c1.5,0,2.7-1.2,2.7-2.7V17h51.4
			c1.2,0,2.2,1,2.2,2.2V63.6z"/>
		<rect x="4.8" y="6.1" class="st0" width="29.8" height="1.5"/>
		<rect x="4.8" y="11.2" class="st0" width="29.8" height="1.5"/>
		<rect x="4.8" y="16.3" class="st0" width="29.8" height="1.5"/>
		<rect x="4.8" y="21.4" class="st0" width="16.4" height="1.5"/>
	</g>
	<g>
		<circle class="st5" cx="80" cy="7.3" r="2.4"/>
	</g>
	<g>
		<circle class="st6" cx="119.3" cy="41.8" r="2.4"/>
	</g>
	<g>
		<circle class="st7" cx="99.4" cy="83.5" r="2.4"/>
	</g>
	<g>
		<circle class="st6" cx="126.4" cy="122.3" r="2.4"/>
	</g>
	<g>
		<circle class="st6" cx="13" cy="65.2" r="2.4"/>
	</g>
	<g>
		<g>
			<path class="st1" d="M87,51.8h-8.1c-0.4,0-0.8-0.3-0.8-0.8c0-0.4,0.3-0.8,0.8-0.8H87c0.4,0,0.8,0.3,0.8,0.8
				C87.8,51.4,87.4,51.8,87,51.8z"/>
		</g>
		<g>
			<path class="st1" d="M90.2,54.7h-4c-0.4,0-0.8-0.3-0.8-0.8c0-0.4,0.3-0.8,0.8-0.8h4c0.4,0,0.8,0.3,0.8,0.8
				C90.9,54.4,90.6,54.7,90.2,54.7z"/>
		</g>
		<g>
			<path class="st1" d="M94.5,51.8h-3.8c-0.4,0-0.8-0.3-0.8-0.8c0-0.4,0.3-0.8,0.8-0.8h3.8c0.4,0,0.8,0.3,0.8,0.8
				C95.2,51.4,94.9,51.8,94.5,51.8z"/>
		</g>
		<g>
			<path class="st1" d="M83.4,54.7h-0.8c-0.4,0-0.8-0.3-0.8-0.8c0-0.4,0.3-0.8,0.8-0.8h0.8c0.4,0,0.8,0.3,0.8,0.8
				C84.1,54.4,83.8,54.7,83.4,54.7z"/>
		</g>
	</g>
	<g>
		<g>
			<path class="st1" d="M66.3,27h-8.1c-0.4,0-0.8-0.3-0.8-0.8c0-0.4,0.3-0.8,0.8-0.8h8.1c0.4,0,0.8,0.3,0.8,0.8
				C67,26.7,66.7,27,66.3,27z"/>
		</g>
		<g>
			<path class="st1" d="M69.5,29.9h-4c-0.4,0-0.8-0.3-0.8-0.8c0-0.4,0.3-0.8,0.8-0.8h4c0.4,0,0.8,0.3,0.8,0.8
				C70.2,29.6,69.9,29.9,69.5,29.9z"/>
		</g>
		<g>
			<path class="st1" d="M73.7,27h-3.8c-0.4,0-0.8-0.3-0.8-0.8c0-0.4,0.3-0.8,0.8-0.8h3.8c0.4,0,0.8,0.3,0.8,0.8
				C74.5,26.7,74.1,27,73.7,27z"/>
		</g>
		<g>
			<path class="st1" d="M62.6,29.9h-0.8c-0.4,0-0.8-0.3-0.8-0.8c0-0.4,0.3-0.8,0.8-0.8h0.8c0.4,0,0.8,0.3,0.8,0.8
				C63.4,29.6,63,29.9,62.6,29.9z"/>
		</g>
	</g>
	<g>
		<circle class="st4" cx="108.1" cy="98.9" r="2.3"/>
	</g>
</g>
</svg>
