<?xml version="1.0" encoding="utf-8"?>
<!-- Generator: Adobe Illustrator 21.1.0, SVG Export Plug-In . SVG Version: 6.00 Build 0)  -->
<svg version="1.1" id="Layer_1" xmlns="http://www.w3.org/2000/svg" xmlns:xlink="http://www.w3.org/1999/xlink" x="0px" y="0px"
	 viewBox="0 0 128.3 128.8" style="enable-background:new 0 0 128.3 128.8;" xml:space="preserve">
<style type="text/css">
	.st0{fill:#231F20;}
	.st1{fill:#FF7058;}
	.st2{fill:#E6E9EE;}
	.st3{fill:#FFD05B;}
	.st4{fill:#84DBFF;}
	.st5{fill:#08B2A0;}
	.st6{fill:#FFFFFF;}
</style>
<g>
	<path class="st0" d="M103.7,30.4c-0.2,0-0.4-0.1-0.5-0.2c-0.3-0.3-0.3-0.8,0-1.1l1.3-1.3c0.3-0.3,0.8-0.3,1.1,0s0.3,0.8,0,1.1
		l-1.3,1.3C104.1,30.3,103.9,30.4,103.7,30.4z"/>
	<path class="st0" d="M99.7,34.4c-0.2,0-0.4-0.1-0.5-0.2c-0.3-0.3-0.3-0.8,0-1.1l1.3-1.3c0.3-0.3,0.8-0.3,1.1,0
		c0.3,0.3,0.3,0.8,0,1.1l-1.3,1.3C100.1,34.3,99.9,34.4,99.7,34.4z"/>
	<path class="st0" d="M105,34.4c-0.2,0-0.4-0.1-0.5-0.2l-1.3-1.3c-0.3-0.3-0.3-0.8,0-1.1c0.3-0.3,0.8-0.3,1.1,0l1.3,1.3
		c0.3,0.3,0.3,0.8,0,1.1C105.4,34.3,105.2,34.4,105,34.4z"/>
	<path class="st0" d="M101,30.4c-0.2,0-0.4-0.1-0.5-0.2l-1.3-1.3c-0.3-0.3-0.3-0.8,0-1.1c0.3-0.3,0.8-0.3,1.1,0l1.3,1.3
		c0.3,0.3,0.3,0.8,0,1.1C101.4,30.3,101.2,30.4,101,30.4z"/>
	<g>
		<path class="st0" d="M76.5,118.4c-0.2,0-0.4-0.1-0.5-0.2c-0.3-0.3-0.3-0.8,0-1.1l1.3-1.3c0.3-0.3,0.8-0.3,1.1,0
			c0.3,0.3,0.3,0.8,0,1.1l-1.3,1.3C76.9,118.4,76.7,118.4,76.5,118.4z"/>
	</g>
	<g>
		<path class="st0" d="M72.5,122.5c-0.2,0-0.4-0.1-0.5-0.2c-0.3-0.3-0.3-0.8,0-1.1l1.3-1.3c0.3-0.3,0.8-0.3,1.1,0
			c0.3,0.3,0.3,0.8,0,1.1l-1.3,1.3C72.9,122.4,72.7,122.5,72.5,122.5z"/>
	</g>
	<g>
		<path class="st0" d="M77.8,122.5c-0.2,0-0.4-0.1-0.5-0.2l-1.3-1.3c-0.3-0.3-0.3-0.8,0-1.1c0.3-0.3,0.8-0.3,1.1,0l1.3,1.3
			c0.3,0.3,0.3,0.8,0,1.1C78.2,122.4,78,122.5,77.8,122.5z"/>
	</g>
	<g>
		<path class="st0" d="M73.8,118.4c-0.2,0-0.4-0.1-0.5-0.2l-1.3-1.3c-0.3-0.3-0.3-0.8,0-1.1c0.3-0.3,0.8-0.3,1.1,0l1.3,1.3
			c0.3,0.3,0.3,0.8,0,1.1C74.2,118.4,74,118.4,73.8,118.4z"/>
	</g>
	<circle class="st1" cx="113.9" cy="31.8" r="2.5"/>
	<circle class="st2" cx="89.9" cy="9" r="2.5"/>
	<circle class="st3" cx="116.3" cy="79.3" r="1.7"/>
	<circle class="st4" cx="51.9" cy="117.7" r="2.5"/>
	<circle class="st5" cx="2.5" cy="2.5" r="2.5"/>
	<path class="st0" d="M32.6,9.7h-4.2c-0.4,0-0.8-0.3-0.8-0.8c0-0.4,0.3-0.8,0.8-0.8h4.2c0.4,0,0.8,0.3,0.8,0.8
		C33.3,9.4,33,9.7,32.6,9.7z"/>
	<polygon class="st5" points="71.6,26.3 71.6,15.5 82.4,26.3 	"/>
	<rect x="26.3" y="16.1" class="st0" width="25.5" height="1.5"/>
	<rect x="26.3" y="20.1" class="st0" width="25.5" height="1.5"/>
	<rect x="26.3" y="24.1" class="st0" width="16.3" height="1.5"/>
	<path class="st6" d="M74.7,78.9v-5.5l-0.3,0c-2.2-0.2-4-1.7-4.8-3.8c-0.2-0.4-0.3-0.8-0.5-1.2c-0.9-2-0.7-4.3,0.7-6l0.2-0.3
		l-3.9-3.9l-0.3,0.2c-1.7,1.4-4,1.6-6,0.7c-0.4-0.2-0.8-0.3-1.2-0.5c-2.1-0.8-3.6-2.6-3.8-4.8l0-0.3h-5.5l0,0.3
		c-0.2,2.2-1.7,4-3.8,4.8c-0.4,0.2-0.8,0.3-1.2,0.5c-2,0.9-4.3,0.7-6-0.7l-0.3-0.2l-3.9,3.9l0.2,0.3c1.4,1.7,1.6,4,0.7,6
		c-0.2,0.4-0.3,0.8-0.5,1.2c-0.8,2.1-2.6,3.6-4.8,3.8l-0.3,0v5.5l0.3,0c2.2,0.2,4,1.7,4.8,3.8c0.2,0.4,0.3,0.8,0.5,1.2
		c0.9,2,0.7,4.3-0.7,6l-0.2,0.3l3.9,3.9l0.3-0.2c1.7-1.4,4-1.6,6-0.7c0.4,0.2,0.8,0.3,1.2,0.5c2.1,0.8,3.6,2.6,3.8,4.8l0,0.3h5.5
		l0-0.3c0.2-2.2,1.7-4,3.8-4.8c0.4-0.2,0.8-0.3,1.2-0.5c2-0.9,4.3-0.7,6,0.7l0.3,0.2l3.9-3.9l-0.2-0.3c-1.4-1.7-1.6-4-0.7-6
		c0.2-0.4,0.3-0.8,0.5-1.2c0.8-2.1,2.6-3.6,4.8-3.8L74.7,78.9z"/>
	<path class="st0" d="M54.8,99.5h-5.5c-0.4,0-0.7-0.3-0.7-0.7l0-0.3c-0.2-1.9-1.4-3.4-3.3-4.1c-0.4-0.2-0.8-0.3-1.2-0.5
		c-1.8-0.8-3.8-0.6-5.3,0.6l-0.3,0.2c-0.3,0.2-0.7,0.2-1,0l-3.9-3.9c-0.3-0.3-0.3-0.7,0-1l0.2-0.3c1.2-1.4,1.4-3.4,0.6-5.3
		c-0.2-0.4-0.4-0.8-0.5-1.2c-0.7-1.8-2.3-3.1-4.1-3.3l-0.3,0c-0.4,0-0.7-0.4-0.7-0.7v-5.5c0-0.4,0.3-0.7,0.7-0.7l0.3,0
		c1.9-0.2,3.4-1.4,4.1-3.3c0.2-0.4,0.3-0.8,0.5-1.2c0.8-1.8,0.6-3.8-0.6-5.3l-0.2-0.3c-0.2-0.3-0.2-0.7,0-1l3.9-3.9
		c0.3-0.3,0.7-0.3,1,0l0.3,0.2c1.4,1.2,3.5,1.4,5.3,0.6c0.4-0.2,0.8-0.4,1.2-0.5c1.8-0.7,3.1-2.3,3.3-4.1l0-0.3
		c0-0.4,0.4-0.7,0.7-0.7h5.5c0.4,0,0.7,0.3,0.7,0.7l0,0.3c0.2,1.9,1.4,3.4,3.3,4.1c0.4,0.2,0.8,0.3,1.2,0.5c1.8,0.8,3.8,0.6,5.3-0.6
		l0.3-0.2c0.3-0.2,0.7-0.2,1,0l3.9,3.9c0.3,0.3,0.3,0.7,0,1l-0.2,0.3c-1.2,1.4-1.4,3.4-0.6,5.3c0.2,0.4,0.4,0.8,0.5,1.2
		c0.7,1.8,2.3,3.1,4.1,3.3l0.3,0c0.4,0,0.7,0.4,0.7,0.7v5.5c0,0.4-0.3,0.7-0.7,0.7l-0.3,0c-1.9,0.2-3.4,1.4-4.1,3.3
		c-0.2,0.4-0.3,0.8-0.5,1.2c-0.8,1.8-0.6,3.8,0.6,5.3l0.2,0.3c0.2,0.3,0.2,0.7,0,1l-3.9,3.9c-0.3,0.3-0.7,0.3-1,0l-0.3-0.2
		c-1.4-1.2-3.5-1.4-5.3-0.6c-0.4,0.2-0.8,0.4-1.2,0.5c-1.8,0.7-3.1,2.3-3.3,4.1l0,0.3C55.6,99.2,55.2,99.5,54.8,99.5z M50.1,98h4.1
		c0.3-2.3,1.9-4.2,4.2-5.1c0.4-0.1,0.8-0.3,1.1-0.5c2.2-1,4.7-0.7,6.6,0.6l2.9-2.9c-1.4-1.9-1.6-4.3-0.6-6.6
		c0.2-0.4,0.3-0.8,0.5-1.1c0.8-2.3,2.8-3.9,5.1-4.2v-4.1c-2.3-0.3-4.2-1.9-5.1-4.2c-0.1-0.4-0.3-0.8-0.5-1.1c-1-2.2-0.8-4.7,0.6-6.6
		l-2.9-2.9c-1.1,0.8-2.4,1.2-3.7,1.2c-1,0-1.9-0.2-2.8-0.6c-0.4-0.2-0.8-0.3-1.1-0.5c-2.3-0.8-3.9-2.8-4.2-5.1h-4.1
		c-0.3,2.3-1.9,4.2-4.2,5.1c-0.4,0.1-0.8,0.3-1.1,0.5c-2.2,1-4.7,0.7-6.6-0.6l-2.9,2.9c1.4,1.9,1.6,4.3,0.6,6.6
		c-0.2,0.4-0.3,0.8-0.5,1.1c-0.8,2.3-2.8,3.9-5.1,4.2v4.1c2.3,0.3,4.2,1.9,5.1,4.2c0.1,0.4,0.3,0.8,0.5,1.1c1,2.2,0.8,4.7-0.6,6.6
		l2.9,2.9c1.8-1.3,4.4-1.6,6.6-0.6c0.4,0.2,0.8,0.3,1.1,0.5C48.1,93.8,49.7,95.7,50.1,98z"/>
	<path class="st0" d="M52.3,91l0-1.5c0.3,0,0.6,0,0.9,0l0.1,1.5C53,91,52.7,91,52.3,91z M50.2,90.9c-0.4,0-0.7-0.1-1-0.2l0.3-1.5
		c0.3,0.1,0.6,0.1,0.9,0.2L50.2,90.9z M55.5,90.7l-0.3-1.5c0.3-0.1,0.6-0.2,0.9-0.2l0.4,1.4C56.1,90.5,55.8,90.6,55.5,90.7z
		 M47.2,90.2c-0.3-0.1-0.7-0.2-1-0.4l0.6-1.4c0.3,0.1,0.6,0.2,0.9,0.3L47.2,90.2z M58.4,89.6l-0.6-1.4c0.3-0.1,0.6-0.3,0.8-0.4
		l0.7,1.3C59.1,89.3,58.8,89.5,58.4,89.6z M44.3,88.8c-0.3-0.2-0.6-0.4-0.9-0.6l0.9-1.2c0.3,0.2,0.5,0.4,0.8,0.5L44.3,88.8z
		 M61.1,88l-0.9-1.2c0.3-0.2,0.5-0.4,0.7-0.6l1,1.1C61.7,87.6,61.4,87.8,61.1,88z M41.8,86.9c-0.3-0.2-0.5-0.5-0.7-0.8l1.1-1
		c0.2,0.2,0.4,0.5,0.7,0.7L41.8,86.9z M63.4,85.8l-1.1-1c0.2-0.2,0.4-0.5,0.6-0.7l1.2,0.9C63.9,85.3,63.6,85.6,63.4,85.8z
		 M39.8,84.5c-0.2-0.3-0.4-0.6-0.6-0.9l1.3-0.8c0.2,0.3,0.3,0.5,0.5,0.8L39.8,84.5z M65.2,83.2l-1.3-0.7c0.1-0.3,0.3-0.6,0.4-0.8
		l1.4,0.6C65.5,82.6,65.4,82.9,65.2,83.2z M38.3,81.7c-0.1-0.3-0.2-0.7-0.4-1l1.4-0.5c0.1,0.3,0.2,0.6,0.3,0.9L38.3,81.7z
		 M66.4,80.3L65,79.9c0.1-0.3,0.2-0.6,0.2-0.9l1.5,0.3C66.6,79.6,66.5,80,66.4,80.3z M37.4,78.7c-0.1-0.3-0.1-0.7-0.1-1l1.5-0.1
		c0,0.3,0.1,0.6,0.1,0.9L37.4,78.7z M67,77.2l-1.5-0.1c0-0.3,0-0.6,0-0.9H67C67,76.5,67,76.9,67,77.2z M38.7,75.6l-1.5-0.1
		c0-0.4,0-0.7,0.1-1l1.5,0.2C38.8,75,38.8,75.3,38.7,75.6z M65.5,75.4c0-0.3,0-0.6-0.1-0.9l1.5-0.2c0,0.3,0.1,0.7,0.1,1L65.5,75.4z
		 M39.2,72.8l-1.5-0.4c0.1-0.3,0.2-0.7,0.3-1l1.4,0.5C39.3,72.2,39.2,72.5,39.2,72.8z M65,72.6c-0.1-0.3-0.2-0.6-0.3-0.9l1.4-0.5
		c0.1,0.3,0.2,0.7,0.3,1L65,72.6z M40.2,70.1l-1.3-0.7c0.2-0.3,0.3-0.6,0.5-0.9l1.3,0.8C40.5,69.6,40.3,69.9,40.2,70.1z M64,70
		c-0.1-0.3-0.3-0.6-0.5-0.8l1.3-0.8c0.2,0.3,0.4,0.6,0.5,0.9L64,70z M41.7,67.8l-1.2-0.9c0.2-0.3,0.5-0.5,0.7-0.8l1.1,1
		C42.1,67.3,41.9,67.5,41.7,67.8z M62.4,67.6c-0.2-0.2-0.4-0.5-0.6-0.7l1.1-1c0.2,0.3,0.5,0.5,0.7,0.8L62.4,67.6z M43.7,65.8
		l-0.9-1.2c0.3-0.2,0.6-0.4,0.8-0.6l0.9,1.2C44.2,65.4,44,65.6,43.7,65.8z M60.4,65.6c-0.2-0.2-0.5-0.4-0.8-0.6l0.8-1.2
		c0.3,0.2,0.6,0.4,0.9,0.6L60.4,65.6z M46.1,64.2l-0.7-1.3c0.3-0.2,0.6-0.3,1-0.4l0.6,1.4C46.7,63.9,46.4,64.1,46.1,64.2z M58,64.1
		c-0.3-0.1-0.6-0.3-0.9-0.4l0.6-1.4c0.3,0.1,0.6,0.3,1,0.4L58,64.1z M48.7,63.2l-0.4-1.5c0.3-0.1,0.7-0.2,1-0.2l0.3,1.5
		C49.3,63.1,49,63.1,48.7,63.2z M55.3,63.2C55,63.1,54.7,63,54.4,63l0.3-1.5c0.3,0.1,0.7,0.1,1,0.2L55.3,63.2z M51.5,62.8l-0.1-1.5
		c0.3,0,0.7,0,1,0l0,1.5l-0.4,0C51.9,62.8,51.7,62.8,51.5,62.8z"/>
	<circle class="st5" cx="52.1" cy="76.2" r="11.2"/>
	<circle class="st6" cx="52.1" cy="76.2" r="5.6"/>
	<path class="st0" d="M52.1,82.5c-3.5,0-6.4-2.9-6.4-6.4c0-3.5,2.9-6.4,6.4-6.4c3.5,0,6.4,2.9,6.4,6.4
		C58.5,79.7,55.6,82.5,52.1,82.5z M52.1,71.3c-2.7,0-4.9,2.2-4.9,4.9c0,2.7,2.2,4.9,4.9,4.9c2.7,0,4.9-2.2,4.9-4.9
		C57,73.5,54.8,71.3,52.1,71.3z"/>
	<g>
		<path class="st6" d="M36.5,42.8l-2-3.5l-0.2,0.1c-1.5,0.7-3.2,0.4-4.4-0.6c-0.2-0.2-0.5-0.4-0.8-0.6c-1.3-0.9-2-2.5-1.8-4.1l0-0.2
			l-3.9-1L23.3,33c-0.6,1.5-2,2.5-3.6,2.7c-0.3,0-0.6,0.1-0.9,0.1c-1.6,0.3-3.2-0.3-4.2-1.7l-0.1-0.2l-3.5,2l0.1,0.2
			c0.7,1.5,0.4,3.2-0.6,4.4c-0.2,0.2-0.4,0.5-0.6,0.8c-0.9,1.3-2.5,2-4.1,1.8l-0.2,0l-1,3.9L4.7,47c1.5,0.6,2.5,2,2.7,3.6
			c0,0.3,0.1,0.6,0.1,0.9c0.3,1.6-0.3,3.2-1.7,4.2l-0.2,0.1l2,3.5l0.2-0.1c1.5-0.7,3.2-0.4,4.4,0.6c0.2,0.2,0.5,0.4,0.8,0.6
			c1.3,0.9,2,2.5,1.8,4.1l0,0.2l3.9,1l0.1-0.2c0.6-1.5,2-2.5,3.6-2.7c0.3,0,0.6-0.1,0.9-0.1c1.6-0.3,3.2,0.3,4.2,1.7l0.1,0.2l3.5-2
			L31,62.5c-0.7-1.5-0.4-3.2,0.6-4.4c0.2-0.2,0.4-0.5,0.6-0.8c0.9-1.3,2.5-2,4.1-1.8l0.2,0l1-3.9l-0.2-0.1c-1.5-0.6-2.5-2-2.7-3.6
			c0-0.3-0.1-0.6-0.1-0.9c-0.3-1.6,0.3-3.2,1.7-4.2L36.5,42.8z"/>
		<path class="st0" d="M18.6,66.7c-0.1,0-0.1,0-0.2,0l-3.9-1c-0.4-0.1-0.6-0.5-0.5-0.9l0-0.2c0.2-1.3-0.3-2.6-1.5-3.4
			c-0.3-0.2-0.5-0.4-0.8-0.6c-1-0.9-2.5-1.1-3.6-0.5l-0.2,0.1c-0.4,0.2-0.8,0-1-0.3l-2-3.5c-0.2-0.3-0.1-0.8,0.2-1l0.2-0.1
			c1.1-0.8,1.6-2.1,1.4-3.4c-0.1-0.3-0.1-0.7-0.1-1c-0.1-1.4-1-2.5-2.2-3l-0.2-0.1c-0.4-0.1-0.6-0.5-0.5-0.9l1-3.9
			c0.1-0.4,0.5-0.6,0.9-0.5l0.2,0c1.3,0.2,2.6-0.4,3.4-1.5c0.2-0.3,0.4-0.5,0.6-0.8c0.9-1.1,1.1-2.5,0.5-3.6l-0.1-0.2
			c-0.2-0.4,0-0.8,0.3-1l3.5-2c0.3-0.2,0.8-0.1,1,0.2l0.1,0.2c0.7,1.1,2.1,1.6,3.4,1.4c0.3-0.1,0.7-0.1,1-0.1c1.4-0.1,2.5-1,3-2.2
			l0.1-0.2c0.1-0.4,0.5-0.6,0.9-0.5l3.9,1c0.4,0.1,0.6,0.5,0.5,0.9l0,0.2c-0.2,1.3,0.3,2.6,1.5,3.4c0.3,0.2,0.5,0.4,0.8,0.6
			c1,0.9,2.5,1.1,3.6,0.5l0.2-0.1c0.4-0.2,0.8,0,1,0.3l2,3.5c0.2,0.3,0.1,0.8-0.2,1l-0.2,0.1c-1.1,0.8-1.6,2.1-1.4,3.4
			c0.1,0.3,0.1,0.7,0.1,1c0.1,1.4,1,2.5,2.2,3l0.2,0.1c0.4,0.1,0.6,0.5,0.5,0.9l-1,3.9c-0.1,0.4-0.5,0.6-0.9,0.5l-0.2,0
			c-1.3-0.2-2.6,0.4-3.4,1.5c-0.2,0.3-0.4,0.5-0.6,0.8c-0.9,1.1-1.1,2.5-0.5,3.6l0.1,0.2c0.2,0.4,0,0.8-0.3,1l-3.5,2
			c-0.3,0.2-0.8,0.1-1-0.2L26.8,65c-0.7-1.1-2.1-1.6-3.4-1.4c-0.3,0.1-0.7,0.1-1,0.1c-1.4,0.1-2.5,1-3,2.2l-0.1,0.2
			C19.2,66.5,19,66.7,18.6,66.7z M15.6,64.3l2.6,0.7c0.7-1.5,2.3-2.6,4.1-2.8c0.3,0,0.6-0.1,0.9-0.1c1.7-0.3,3.5,0.3,4.6,1.6
			l2.3-1.4c-0.6-1.6-0.2-3.4,0.9-4.8c0.2-0.2,0.4-0.5,0.5-0.7c1-1.4,2.7-2.3,4.4-2.1l0.7-2.6c-1.5-0.7-2.6-2.3-2.8-4.1
			c0-0.3-0.1-0.6-0.1-0.9c-0.3-1.8,0.3-3.5,1.6-4.6l-1.4-2.3c-1.6,0.6-3.5,0.2-4.8-0.9c-0.2-0.2-0.5-0.4-0.7-0.5
			c-1.5-1.1-2.3-2.7-2.1-4.4l-2.6-0.7c-0.7,1.5-2.3,2.6-4.1,2.8c-0.3,0-0.6,0.1-0.9,0.1c-1.7,0.3-3.5-0.3-4.6-1.6l-2.3,1.4
			c0.6,1.6,0.2,3.4-0.9,4.8c-0.2,0.2-0.4,0.5-0.5,0.7c-1,1.4-2.7,2.3-4.4,2.1l-0.7,2.6c1.5,0.7,2.6,2.3,2.8,4.1
			c0,0.3,0.1,0.6,0.1,0.9c0.3,1.8-0.3,3.5-1.6,4.6l1.4,2.3c1.6-0.6,3.5-0.2,4.8,0.9c0.2,0.2,0.5,0.4,0.7,0.5
			C14.9,61,15.7,62.6,15.6,64.3z"/>
	</g>
	<g>
		<path class="st0" d="M21,60.5l-0.2,0l0-1.5l0.2,0c0.3,0,0.5,0,0.8,0l0.1,1.5C21.6,60.5,21.3,60.5,21,60.5z M18.7,60.3
			c-0.3-0.1-0.7-0.2-1-0.3l0.4-1.4c0.3,0.1,0.6,0.2,0.9,0.2L18.7,60.3z M24,60.1l-0.4-1.4c0.3-0.1,0.6-0.2,0.9-0.3l0.5,1.4
			C24.7,59.9,24.4,60,24,60.1z M15.7,59.2c-0.3-0.2-0.6-0.4-0.9-0.6l0.8-1.2c0.3,0.2,0.5,0.3,0.8,0.5L15.7,59.2z M27,58.8l-0.8-1.3
			c0.3-0.2,0.5-0.3,0.8-0.5l0.9,1.2C27.6,58.4,27.3,58.6,27,58.8z M13.1,57.2c-0.3-0.3-0.5-0.5-0.7-0.8l1.2-1
			c0.2,0.2,0.4,0.5,0.6,0.7L13.1,57.2z M29.4,56.7l-1.1-1c0.2-0.2,0.4-0.5,0.6-0.7l1.2,0.9C29.9,56.2,29.6,56.5,29.4,56.7z
			 M11.2,54.7c-0.2-0.3-0.3-0.6-0.5-1l1.4-0.6c0.1,0.3,0.3,0.6,0.4,0.8L11.2,54.7z M31.2,54.1l-1.4-0.6c0.1-0.3,0.2-0.6,0.4-0.9
			l1.4,0.5C31.4,53.4,31.3,53.7,31.2,54.1z M10.1,51.7C10,51.3,10,51,9.9,50.6l1.5-0.2c0,0.3,0.1,0.6,0.2,0.9L10.1,51.7z M32.1,51
			l-1.5-0.2c0-0.3,0.1-0.6,0.1-0.9l1.5,0.1C32.2,50.3,32.1,50.6,32.1,51z M11.4,48.6l-1.5-0.1c0-0.4,0.1-0.7,0.1-1.1l1.5,0.3
			C11.4,48,11.4,48.3,11.4,48.6z M30.6,48c0-0.3-0.1-0.6-0.2-0.9l1.5-0.3c0.1,0.3,0.1,0.7,0.2,1.1L30.6,48z M12,45.9l-1.4-0.5
			c0.1-0.3,0.3-0.7,0.4-1l1.3,0.7C12.2,45.3,12.1,45.6,12,45.9z M29.8,45.3c-0.1-0.3-0.3-0.6-0.4-0.8l1.3-0.7c0.2,0.3,0.3,0.6,0.5,1
			L29.8,45.3z M13.3,43.5l-1.2-0.9c0.2-0.3,0.4-0.6,0.7-0.8l1.1,1C13.7,43,13.5,43.2,13.3,43.5z M28.6,43.3
			c-0.2-0.2-0.4-0.5-0.6-0.7l1.1-1c0.2,0.3,0.5,0.5,0.7,0.8L28.6,43.3z M15.3,41.5l-0.9-1.2c0.3-0.2,0.6-0.4,0.9-0.6l0.8,1.3
			C15.8,41.2,15.6,41.3,15.3,41.5z M26.6,41.4c-0.3-0.2-0.5-0.3-0.8-0.5l0.7-1.3c0.3,0.2,0.6,0.4,0.9,0.6L26.6,41.4z M17.8,40.2
			l-0.5-1.4c0.3-0.1,0.7-0.2,1-0.3l0.4,1.5C18.4,40,18.1,40.1,17.8,40.2z M24.1,40.2c-0.3-0.1-0.6-0.2-0.9-0.3l0.3-1.5
			c0.3,0.1,0.7,0.2,1,0.3L24.1,40.2z M20.5,39.7l-0.1-1.5c0.2,0,0.4,0,0.6,0c0.2,0,0.3,0,0.5,0l-0.1,1.5c-0.1,0-0.3,0-0.4,0
			C20.8,39.7,20.7,39.7,20.5,39.7z"/>
	</g>
	<g>
		<ellipse transform="matrix(0.8667 -0.4989 0.4989 0.8667 -21.8089 17.0694)" class="st2" cx="21" cy="49.3" rx="8.3" ry="8.3"/>
	</g>
	<g>
		<ellipse transform="matrix(0.8667 -0.4989 0.4989 0.8667 -21.809 17.0696)" class="st6" cx="21" cy="49.3" rx="4.1" ry="4.1"/>
		<path class="st0" d="M21,54.2c-1.7,0-3.4-0.9-4.2-2.4c-0.7-1.1-0.8-2.4-0.5-3.7c0.3-1.3,1.1-2.3,2.3-3c0.7-0.4,1.6-0.7,2.4-0.7
			c1.7,0,3.4,0.9,4.2,2.4c1.3,2.3,0.5,5.3-1.8,6.7C22.7,54,21.9,54.2,21,54.2z M21,45.9c-0.6,0-1.2,0.2-1.7,0.5
			c-0.8,0.5-1.3,1.2-1.6,2.1c-0.2,0.9-0.1,1.8,0.3,2.6c0.6,1,1.7,1.7,2.9,1.7c0.6,0,1.2-0.2,1.7-0.5c1.6-0.9,2.2-3,1.2-4.6
			C23.4,46.6,22.2,45.9,21,45.9z"/>
	</g>
	<g>
		<path class="st6" d="M98.6,46.5l-3.7-1.7l-0.1,0.2c-0.8,1.4-2.3,2.2-4,2.1c-0.3,0-0.6,0-0.9,0c-1.6,0-3.1-0.8-3.9-2.3l-0.1-0.2
			l-3.8,1.4l0.1,0.2c0.4,1.6-0.1,3.2-1.3,4.3c-0.2,0.2-0.5,0.4-0.7,0.7c-1.1,1.2-2.8,1.6-4.3,1.1l-0.2-0.1l-1.7,3.7l0.2,0.1
			c1.4,0.8,2.2,2.3,2.1,4c0,0.3,0,0.6,0,0.9c0,1.6-0.8,3.1-2.3,3.9l-0.2,0.1l1.4,3.8l0.2-0.1c1.6-0.4,3.2,0.1,4.3,1.3
			c0.2,0.2,0.4,0.5,0.7,0.7c1.2,1.1,1.6,2.8,1.1,4.3l-0.1,0.2l3.7,1.7l0.1-0.2c0.8-1.4,2.3-2.2,4-2.1c0.3,0,0.6,0,0.9,0
			c1.6,0,3.1,0.8,3.9,2.3l0.1,0.2l3.8-1.4l-0.1-0.2c-0.4-1.6,0.1-3.2,1.3-4.3c0.2-0.2,0.5-0.4,0.7-0.7c1.1-1.2,2.8-1.6,4.3-1.1
			l0.2,0.1l1.7-3.7l-0.2-0.1c-1.4-0.8-2.2-2.3-2.1-4c0-0.3,0-0.6,0-0.9c0-1.6,0.8-3.1,2.3-3.9l0.2-0.1l-1.4-3.8l-0.2,0.1
			c-1.6,0.4-3.2-0.1-4.3-1.3c-0.2-0.2-0.4-0.5-0.7-0.7c-1.2-1.1-1.6-2.8-1.1-4.3L98.6,46.5z"/>
		<path class="st0" d="M93.9,77.9c-0.3,0-0.5-0.2-0.7-0.4l-0.1-0.2c-0.6-1.2-1.8-1.9-3.2-1.9c-0.4,0-0.7,0-1,0
			c-1.4-0.1-2.6,0.6-3.3,1.7l-0.1,0.2c-0.2,0.3-0.6,0.5-1,0.3l-3.7-1.7c-0.4-0.2-0.5-0.6-0.4-0.9l0.1-0.2c0.4-1.2,0.1-2.6-0.9-3.6
			c-0.2-0.2-0.5-0.5-0.7-0.7c-0.9-1-2.3-1.5-3.5-1.1l-0.2,0.1c-0.4,0.1-0.8-0.1-0.9-0.5l-1.4-3.8c-0.1-0.4,0-0.8,0.4-0.9l0.2-0.1
			c1.2-0.6,1.9-1.8,1.9-3.2c0-0.3,0-0.7,0-1c0.1-1.4-0.6-2.6-1.7-3.3l-0.2-0.1c-0.3-0.2-0.5-0.6-0.3-1l1.7-3.7
			c0.2-0.4,0.6-0.5,0.9-0.4l0.2,0.1c1.2,0.4,2.6,0.1,3.6-0.9c0.2-0.2,0.5-0.5,0.7-0.7c1-0.9,1.5-2.3,1.1-3.5l-0.1-0.2
			c-0.1-0.4,0.1-0.8,0.5-0.9l3.8-1.4c0.4-0.1,0.8,0,0.9,0.4l0.1,0.2c0.6,1.2,1.8,1.9,3.2,1.9c0.4,0,0.7,0,1,0
			c1.4,0.1,2.6-0.6,3.3-1.7l0.1-0.2c0.2-0.3,0.6-0.5,1-0.3l3.7,1.7c0.4,0.2,0.5,0.6,0.4,0.9L99.2,47c-0.4,1.2-0.1,2.6,0.9,3.6
			c0.2,0.2,0.5,0.5,0.7,0.7c0.9,1,2.3,1.5,3.5,1.1l0.2-0.1c0.4-0.1,0.8,0.1,0.9,0.5l1.4,3.8c0.1,0.4,0,0.8-0.4,0.9l-0.2,0.1
			c-1.2,0.6-1.9,1.8-1.9,3.2c0,0.3,0,0.7,0,1c-0.1,1.4,0.6,2.6,1.7,3.3l0.2,0.1c0.3,0.2,0.5,0.6,0.3,1l-1.7,3.7
			c-0.2,0.4-0.6,0.5-0.9,0.4l-0.2-0.1c-1.2-0.4-2.6-0.1-3.6,0.9c-0.2,0.2-0.5,0.5-0.7,0.7c-1,0.9-1.5,2.3-1.1,3.5l0.1,0.2
			c0.1,0.4-0.1,0.8-0.5,0.9l-3.8,1.4C94.1,77.9,94,77.9,93.9,77.9z M88.7,73.8c0.1,0,0.2,0,0.3,0c0.3,0,0.6,0,0.8,0
			c1.9,0,3.5,0.9,4.4,2.3l2.5-1c-0.3-1.7,0.3-3.4,1.7-4.6c0.2-0.2,0.4-0.4,0.7-0.6c1.2-1.3,3.1-1.8,4.7-1.4l1.1-2.5
			c-1.4-1-2.2-2.6-2.1-4.4c0-0.3,0-0.6,0-0.9c0-1.8,0.9-3.4,2.3-4.3l-1-2.5c-1.7,0.3-3.4-0.3-4.6-1.7c-0.2-0.2-0.4-0.4-0.6-0.7
			c-1.3-1.3-1.8-3-1.4-4.7l-2.5-1.1c-1,1.4-2.7,2.2-4.4,2.1c-0.3,0-0.6,0-0.8,0h0c-1.9,0-3.5-0.9-4.4-2.3l-2.5,1
			c0.3,1.7-0.3,3.4-1.7,4.6c-0.2,0.2-0.4,0.4-0.7,0.6c-1.2,1.3-3.1,1.8-4.7,1.4l-1.1,2.5c1.4,1,2.2,2.6,2.1,4.4c0,0.3,0,0.6,0,0.9
			c0,1.8-0.9,3.4-2.3,4.3l1,2.5c1.7-0.3,3.4,0.3,4.6,1.7c0.2,0.2,0.4,0.4,0.6,0.7c1.3,1.3,1.8,3,1.4,4.7l2.5,1.1
			C85.5,74.6,87.1,73.8,88.7,73.8z"/>
	</g>
	<g>
		<path class="st0" d="M90.3,72.1l-0.1-1.5c0.3,0,0.6,0,0.9-0.1l0.2,1.5C91,72,90.6,72,90.3,72.1z M88.2,71.9
			c-0.4-0.1-0.7-0.1-1-0.2l0.4-1.5c0.3,0.1,0.6,0.1,0.9,0.2L88.2,71.9z M93.4,71.5L93,70.1c0.3-0.1,0.6-0.2,0.9-0.3l0.6,1.4
			C94.1,71.2,93.8,71.4,93.4,71.5z M85.1,71c-0.3-0.2-0.6-0.3-0.9-0.5l0.8-1.3c0.3,0.2,0.5,0.3,0.8,0.4L85.1,71z M96.3,70.1
			l-0.9-1.2c0.3-0.2,0.5-0.4,0.7-0.6l1,1.1C96.9,69.6,96.6,69.9,96.3,70.1z M82.4,69.2c-0.3-0.2-0.5-0.5-0.8-0.8l1.1-1
			c0.2,0.2,0.4,0.4,0.7,0.7L82.4,69.2z M98.6,67.9l-1.2-0.9c0.2-0.2,0.4-0.5,0.5-0.8l1.3,0.8C99.1,67.3,98.9,67.6,98.6,67.9z
			 M80.4,66.7c-0.2-0.3-0.4-0.6-0.5-0.9l1.3-0.7c0.1,0.3,0.3,0.5,0.4,0.8L80.4,66.7z M100.3,65.1l-1.4-0.6c0.1-0.3,0.2-0.6,0.3-0.9
			l1.4,0.4C100.5,64.4,100.4,64.8,100.3,65.1z M79.1,63.8c-0.1-0.3-0.2-0.7-0.2-1l1.5-0.2c0.1,0.3,0.1,0.6,0.2,0.9L79.1,63.8z
			 M101,62l-1.5-0.1c0-0.3,0-0.6,0-0.9l1.5,0C101.1,61.3,101.1,61.6,101,62z M80.2,60.6l-1.5,0c0-0.4,0-0.7,0.1-1.1l1.5,0.2
			C80.3,60,80.2,60.3,80.2,60.6z M99.4,59.1c-0.1-0.3-0.1-0.6-0.2-0.9l1.4-0.4c0.1,0.3,0.2,0.7,0.3,1L99.4,59.1z M80.7,57.9
			l-1.4-0.5c0.1-0.3,0.2-0.7,0.4-1L81,57C80.9,57.3,80.8,57.6,80.7,57.9z M98.5,56.4c-0.1-0.3-0.3-0.5-0.5-0.8l1.3-0.8
			c0.2,0.3,0.4,0.6,0.5,0.9L98.5,56.4z M81.9,55.4l-1.2-0.8c0.2-0.3,0.4-0.6,0.6-0.9l1.1,1C82.3,54.9,82.1,55.2,81.9,55.4z
			 M96.9,54.2c-0.2-0.2-0.4-0.4-0.7-0.6l1-1.1c0.3,0.2,0.5,0.5,0.8,0.7L96.9,54.2z M83.8,53.4l-0.9-1.2c0.3-0.2,0.6-0.4,0.9-0.6
			l0.8,1.3C84.3,53,84,53.2,83.8,53.4z M94.7,52.5c-0.3-0.2-0.5-0.3-0.8-0.4l0.6-1.4c0.3,0.1,0.6,0.3,1,0.5L94.7,52.5z M86.2,52
			l-0.6-1.4c0.3-0.1,0.7-0.3,1-0.4l0.4,1.4C86.8,51.7,86.5,51.8,86.2,52z M92.6,51.6c-0.3-0.1-0.6-0.2-0.9-0.2l0.3-1.5
			c0.3,0.1,0.7,0.1,1,0.2L92.6,51.6z M88.9,51.3l-0.2-1.5c0.4,0,0.7-0.1,1.1-0.1l0,1.5C89.5,51.2,89.2,51.2,88.9,51.3z"/>
	</g>
	<g>
		<ellipse transform="matrix(0.4094 -0.9123 0.9123 0.4094 -2.4587 117.9873)" class="st2" cx="89.9" cy="60.9" rx="8.3" ry="8.3"/>
	</g>
	<g>
		<ellipse transform="matrix(0.4094 -0.9123 0.9123 0.4094 -2.4587 117.9873)" class="st6" cx="89.9" cy="60.9" rx="4.1" ry="4.1"/>
		<path class="st0" d="M89.9,65.8c-0.7,0-1.4-0.1-2-0.4c-1.2-0.5-2.1-1.5-2.6-2.7c-0.5-1.2-0.4-2.5,0.1-3.7c0.8-1.8,2.5-2.9,4.5-2.9
			c0.7,0,1.4,0.1,2,0.4c1.2,0.5,2.1,1.5,2.6,2.7c0.5,1.2,0.4,2.5-0.1,3.7C93.6,64.6,91.8,65.8,89.9,65.8z M89.9,57.5
			c-1.3,0-2.5,0.8-3.1,2c-0.8,1.7,0,3.7,1.7,4.5c0.4,0.2,0.9,0.3,1.4,0.3c1.3,0,2.5-0.8,3.1-2c0.4-0.8,0.4-1.7,0.1-2.6
			c-0.3-0.8-1-1.5-1.8-1.9C90.9,57.6,90.4,57.5,89.9,57.5z"/>
	</g>
	<path class="st0" d="M89.5,28.5L69.4,8.4c-0.1-0.1-0.3-0.2-0.5-0.2H37.3c-0.4,0-0.8,0.3-0.8,0.8c0,0.4,0.3,0.8,0.8,0.8h30.8V29
		c0,0.4,0.3,0.8,0.8,0.8h19.3v9.4c0,0.4,0.3,0.8,0.8,0.8c0.4,0,0.8-0.3,0.8-0.8V29C89.7,28.8,89.6,28.6,89.5,28.5z M69.6,28.3V10.8
		l17.5,17.5H69.6z"/>
	<path class="st0" d="M24.5,8.2H13.8C13.4,8.2,13,8.6,13,9v4.6H8.4c-0.4,0-0.8,0.3-0.8,0.8v17c0,0.4,0.3,0.7,0.8,0.7
		c0.4,0,0.8-0.3,0.8-0.7V15.1H13v13c0,0.4,0.3,0.8,0.8,0.8c0.4,0,0.8-0.3,0.8-0.8V9.7h9.9c0.4,0,0.8-0.3,0.8-0.8
		C25.2,8.6,24.9,8.2,24.5,8.2z"/>
	<polygon class="st6" points="65.2,32.7 50.2,29 53.8,44 56.9,38.2 62.7,44 65.2,41.5 59.4,35.7 	"/>
	<path class="st0" d="M53.8,44.8C53.8,44.8,53.8,44.8,53.8,44.8c-0.4,0-0.7-0.3-0.7-0.6l-3.6-15c-0.1-0.3,0-0.5,0.2-0.7
		c0.2-0.2,0.5-0.3,0.7-0.2l15,3.6c0.3,0.1,0.5,0.3,0.6,0.6c0,0.3-0.1,0.6-0.4,0.8l-4.9,2.5l5.1,5.1c0.3,0.3,0.3,0.8,0,1.1l-2.5,2.5
		c-0.3,0.3-0.8,0.3-1.1,0l-5.1-5.1l-2.5,4.9C54.4,44.6,54.1,44.8,53.8,44.8z M56.9,37.4c0.2,0,0.4,0.1,0.5,0.2l5.3,5.3l1.4-1.4
		l-5.3-5.3c-0.2-0.2-0.2-0.4-0.2-0.6c0-0.2,0.2-0.4,0.4-0.6l4.1-2.1l-11.8-2.9l2.9,11.8l2.1-4.1c0.1-0.2,0.3-0.4,0.6-0.4
		C56.8,37.4,56.8,37.4,56.9,37.4z"/>
	<rect x="19.1" y="91.1" class="st6" width="8" height="28"/>
	<polygon class="st6" points="27.2,91.1 23.2,81.6 19.1,91.1 	"/>
	<path class="st6" d="M23.2,128L23.2,128c-2.2,0-4-1.8-4-4V119h8v4.9C27.2,126.2,25.4,128,23.2,128z"/>
	<path class="st0" d="M88.9,98.9c-0.4,0-0.8,0.3-0.8,0.8v3.4H27.9v-12c0-0.1,0-0.2-0.1-0.3c0,0,0,0,0,0l-4-9.4
		c-0.2-0.6-1.1-0.6-1.4,0l-4,9.4c0,0,0,0,0,0c0,0.1-0.1,0.2-0.1,0.3v12h-3.8V70.4c0-0.4-0.3-0.8-0.8-0.8c-0.4,0-0.8,0.3-0.8,0.8
		v33.4c0,0.4,0.3,0.8,0.8,0.8h4.6v3.9H9.2V64.8c0-0.4-0.3-0.8-0.8-0.8c-0.4,0-0.8,0.3-0.8,0.8v44.4c0,0.4,0.3,0.8,0.8,0.8h9.9V124
		c0,2.6,2.1,4.8,4.8,4.8s4.8-2.1,4.8-4.8v-14.1h55.7c0.4,0,0.8-0.3,0.8-0.8v-4.6h4.6c0.4,0,0.8-0.3,0.8-0.8v-4.1
		C89.7,99.3,89.3,98.9,88.9,98.9z M23.2,83.6l2.9,6.8h-5.8L23.2,83.6z M19.9,91.8h2.5v26.5h-2.5V91.8z M26.4,124
		c0,1.8-1.5,3.3-3.3,3.3c-1.8,0-3.3-1.5-3.3-3.3v-4.2h6.5V124z M26.4,118.3h-2.5V91.8h2.5V118.3z M82.8,108.4H27.9v-3.9h54.9V108.4z
		"/>
	<circle class="st6" cx="110.6" cy="111" r="17"/>
	<g>
		
			<ellipse transform="matrix(0.7071 -0.7071 0.7071 0.7071 -46.0854 110.6864)" class="st1" cx="110.6" cy="111" rx="4.6" ry="4.6"/>
	</g>
	<path class="st0" d="M110.6,93.2c-4.6,0-8.8,1.8-12,4.7l-4.2-4.2l0.8-5.4c0-0.2,0-0.5-0.2-0.6l-6.6-6.6c-0.2-0.2-0.5-0.3-0.8-0.2
		c-0.3,0.1-0.5,0.3-0.5,0.6l-0.7,5.2l-5.2,0.7c-0.3,0-0.5,0.2-0.6,0.5c-0.1,0.3,0,0.6,0.2,0.8l6.6,6.6c0.1,0.1,0.3,0.2,0.5,0.2
		c0,0,0.1,0,0.1,0l5.4-0.8l4.2,4.2c-2.9,3.2-4.7,7.4-4.7,12c0,9.8,8,17.8,17.8,17.8c9.8,0,17.8-8,17.8-17.8
		C128.3,101.2,120.4,93.2,110.6,93.2z M88.1,94l-5.3-5.3l3.9-0.6l5.3,5.3L88.1,94z M93,92.4l-5.3-5.3l0.6-3.9l5.3,5.3L93,92.4z
		 M110.6,127.3c-9,0-16.3-7.3-16.3-16.3c0-4.2,1.6-8.1,4.3-11l2.1,2.1c-2.1,2.3-3.4,5.4-3.4,8.8c0,7.3,6,13.3,13.3,13.3
		c7.3,0,13.3-6,13.3-13.3c0-7.3-6-13.3-13.3-13.3c-3.4,0-6.5,1.3-8.8,3.4L99.6,99c2.9-2.6,6.7-4.3,10.9-4.3c9,0,16.3,7.3,16.3,16.3
		C126.8,119.9,119.5,127.3,110.6,127.3z M103.8,105.3c-1.3,1.5-2.1,3.5-2.1,5.7c0,4.9,4,8.9,8.9,8.9c4.9,0,8.9-4,8.9-8.9
		c0-4.9-4-8.9-8.9-8.9c-2.2,0-4.2,0.8-5.7,2.1l-2-2c2.1-1.8,4.8-2.9,7.8-2.9c6.5,0,11.8,5.3,11.8,11.8c0,6.5-5.3,11.8-11.8,11.8
		c-6.5,0-11.8-5.3-11.8-11.8c0-3,1.1-5.7,2.9-7.8L103.8,105.3z M110,111.5c0.1,0.1,0.3,0.2,0.5,0.2c0.2,0,0.4-0.1,0.5-0.2
		c0.3-0.3,0.3-0.8,0-1.1l-5.2-5.2c1.3-1,2.9-1.7,4.6-1.7c4.1,0,7.4,3.3,7.4,7.4c0,4.1-3.3,7.4-7.4,7.4c-4.1,0-7.4-3.3-7.4-7.4
		c0-1.8,0.6-3.4,1.7-4.7L110,111.5z"/>
</g>
</svg>
