<?xml version="1.0" encoding="utf-8"?>
<!-- Generator: Adobe Illustrator 21.1.0, SVG Export Plug-In . SVG Version: 6.00 Build 0)  -->
<svg version="1.1" id="Layer_1" xmlns="http://www.w3.org/2000/svg" xmlns:xlink="http://www.w3.org/1999/xlink" x="0px" y="0px"
	 viewBox="0 0 129.5 129.5" style="enable-background:new 0 0 129.5 129.5;" xml:space="preserve">
<style type="text/css">
	.st0{fill:#6E7A86;}
	.st1{fill:#231F20;}
	.st2{fill:#FFFFFF;}
	.st3{fill:#FF7058;}
	.st4{fill:#CED5E0;}
	.st5{fill:#84DBFF;}
	.st6{fill:#E6E9EE;}
</style>
<g>
	<g>
		<polygon class="st0" points="69.8,57.1 59.7,57.1 64.8,65.5 		"/>
	</g>
	<g>
		<g>
			<path class="st1" d="M25.1,16.3c-0.2,0-0.4-0.1-0.5-0.2c-0.3-0.3-0.3-0.8,0-1.1l1.3-1.3c0.3-0.3,0.8-0.3,1.1,0
				c0.3,0.3,0.3,0.8,0,1.1l-1.3,1.3C25.5,16.3,25.3,16.3,25.1,16.3z"/>
		</g>
		<g>
			<path class="st1" d="M21.1,20.4c-0.2,0-0.4-0.1-0.5-0.2c-0.3-0.3-0.3-0.8,0-1.1l1.3-1.3c0.3-0.3,0.8-0.3,1.1,0
				c0.3,0.3,0.3,0.8,0,1.1l-1.3,1.3C21.5,20.3,21.3,20.4,21.1,20.4z"/>
		</g>
		<g>
			<path class="st1" d="M26.4,20.4c-0.2,0-0.4-0.1-0.5-0.2l-1.3-1.3c-0.3-0.3-0.3-0.8,0-1.1c0.3-0.3,0.8-0.3,1.1,0l1.3,1.3
				c0.3,0.3,0.3,0.8,0,1.1C26.8,20.3,26.6,20.4,26.4,20.4z"/>
		</g>
		<g>
			<path class="st1" d="M22.4,16.3c-0.2,0-0.4-0.1-0.5-0.2l-1.3-1.3c-0.3-0.3-0.3-0.8,0-1.1c0.3-0.3,0.8-0.3,1.1,0l1.3,1.3
				c0.3,0.3,0.3,0.8,0,1.1C22.8,16.3,22.6,16.3,22.4,16.3z"/>
		</g>
	</g>
	<g>
		<g>
			<path class="st1" d="M109.8,15c-0.2,0-0.4-0.1-0.5-0.2c-0.3-0.3-0.3-0.8,0-1.1l1.3-1.3c0.3-0.3,0.8-0.3,1.1,0
				c0.3,0.3,0.3,0.8,0,1.1l-1.3,1.3C110.2,14.9,110,15,109.8,15z"/>
		</g>
		<g>
			<path class="st1" d="M105.8,19c-0.2,0-0.4-0.1-0.5-0.2c-0.3-0.3-0.3-0.8,0-1.1l1.3-1.3c0.3-0.3,0.8-0.3,1.1,0
				c0.3,0.3,0.3,0.8,0,1.1l-1.3,1.3C106.1,18.9,106,19,105.8,19z"/>
		</g>
		<g>
			<path class="st1" d="M111.1,19c-0.2,0-0.4-0.1-0.5-0.2l-1.3-1.3c-0.3-0.3-0.3-0.8,0-1.1c0.3-0.3,0.8-0.3,1.1,0l1.3,1.3
				c0.3,0.3,0.3,0.8,0,1.1C111.5,18.9,111.3,19,111.1,19z"/>
		</g>
		<g>
			<path class="st1" d="M107.1,15c-0.2,0-0.4-0.1-0.5-0.2l-1.3-1.3c-0.3-0.3-0.3-0.8,0-1.1c0.3-0.3,0.8-0.3,1.1,0l1.3,1.3
				c0.3,0.3,0.3,0.8,0,1.1C107.4,14.9,107.2,15,107.1,15z"/>
		</g>
	</g>
	<g>
		<g>
			<path class="st1" d="M22.5,115.5c-0.2,0-0.4-0.1-0.5-0.2c-0.3-0.3-0.3-0.8,0-1.1l1.3-1.3c0.3-0.3,0.8-0.3,1.1,0
				c0.3,0.3,0.3,0.8,0,1.1l-1.3,1.3C22.8,115.4,22.6,115.5,22.5,115.5z"/>
		</g>
		<g>
			<path class="st1" d="M18.4,119.5c-0.2,0-0.4-0.1-0.5-0.2c-0.3-0.3-0.3-0.8,0-1.1l1.3-1.3c0.3-0.3,0.8-0.3,1.1,0
				c0.3,0.3,0.3,0.8,0,1.1l-1.3,1.3C18.8,119.4,18.6,119.5,18.4,119.5z"/>
		</g>
		<g>
			<path class="st1" d="M23.7,119.5c-0.2,0-0.4-0.1-0.5-0.2l-1.3-1.3c-0.3-0.3-0.3-0.8,0-1.1c0.3-0.3,0.8-0.3,1.1,0l1.3,1.3
				c0.3,0.3,0.3,0.8,0,1.1C24.1,119.4,23.9,119.5,23.7,119.5z"/>
		</g>
		<g>
			<path class="st1" d="M19.7,115.5c-0.2,0-0.4-0.1-0.5-0.2l-1.3-1.3c-0.3-0.3-0.3-0.8,0-1.1c0.3-0.3,0.8-0.3,1.1,0l1.3,1.3
				c0.3,0.3,0.3,0.8,0,1.1C20.1,115.4,19.9,115.5,19.7,115.5z"/>
		</g>
	</g>
	<path class="st2" d="M53.2,46.2l0-43.2c0-1.2,1-2.2,2.2-2.2h18.8c1.2,0,2.2,1,2.2,2.2v43.2H53.2z"/>
	<g>
		<path class="st3" d="M74.3,12.1V3c0-0.1-0.1-0.2-0.2-0.2H55.4c-0.1,0-0.2,0.1-0.2,0.2v9.2H74.3z"/>
	</g>
	<g>
		<rect x="55.2" y="21.5" class="st0" width="19.2" height="22.7"/>
	</g>
	<path class="st1" d="M77.1,3c0-1.6-1.3-3-3-3H55.4c-1.6,0-3,1.3-3,3v43.2c0,0,0,0,0,0c0,0,0,0,0,0c0,0.1,0,0.2,0.1,0.3c0,0,0,0,0,0
		l11.6,19.3c0.1,0.2,0.4,0.4,0.6,0.4s0.5-0.1,0.6-0.4L77,46.6c0,0,0,0,0,0c0.1-0.1,0.1-0.2,0.1-0.3c0,0,0,0,0,0c0,0,0,0,0,0V3z
		 M75.6,18.7H53.9V15h21.7V18.7z M53.9,20.2h6.3v25.3h-6.3V20.2z M61.8,20.2h6v25.3h-6V20.2z M69.2,20.2h6.3v25.3h-6.3V20.2z
		 M55.4,1.5h18.8c0.8,0,1.5,0.7,1.5,1.5v10.5H53.9V3C53.9,2.2,54.6,1.5,55.4,1.5z M64.8,64L54.5,46.9H75L64.8,64z"/>
	<g>
		<path class="st1" d="M21.3,96.6c-1.5,0-3.1-0.5-4.4-1.4c-3.3-2.1-4.9-5.8-4.1-9.8c1.9-9.7,15.7-8.7,15.8-8.7l5.4,0
			c0.4,0,0.8,0.3,0.8,0.8c0,0.4-0.3,0.8-0.8,0.8h-5.5c-0.2,0-12.7-0.9-14.3,7.5c-0.7,3.4,0.6,6.5,3.4,8.3c1.4,0.9,3,1.3,4.6,1
			c2.3-0.4,4.1-2.4,4.3-4.8c0.1-0.9-0.1-1.6-0.5-2.4c-0.5-0.9-1.2-1.1-2.8-0.9c-0.4,0.1-0.8-0.2-0.8-0.6c-0.1-0.4,0.2-0.8,0.6-0.8
			c1.6-0.2,3.3-0.2,4.3,1.7c0.5,1,0.7,2,0.6,3.2c-0.3,3.1-2.5,5.6-5.5,6.2C22.2,96.5,21.7,96.6,21.3,96.6z"/>
	</g>
	<g>
		<path class="st1" d="M40.8,65.5c-3.3,0-13.1-0.7-14.7-8.8c-0.8-4.1,0.8-7.8,4.1-9.9c1.6-1.1,3.7-1.6,5.7-1.2
			c3,0.6,5.3,3.1,5.5,6.2c0.1,1.1-0.1,2.2-0.6,3.2c-1,1.9-2.8,1.9-4.3,1.7c-0.4-0.1-0.7-0.4-0.6-0.8c0.1-0.4,0.4-0.7,0.8-0.6
			c1.6,0.2,2.3,0,2.8-0.9c0.4-0.7,0.5-1.5,0.5-2.4c-0.2-2.4-2-4.4-4.3-4.8c-1.6-0.3-3.3,0.1-4.6,1c-2.8,1.8-4.1,4.9-3.5,8.3
			c1.6,8.4,14.1,7.5,14.2,7.5l3.2,0c0.4,0,0.8,0.3,0.8,0.7c0,0.4-0.3,0.8-0.8,0.8h-3.1C41.9,65.4,41.4,65.5,40.8,65.5z"/>
	</g>
	<g>
		<path class="st1" d="M14.9,72.3c-3.3,0-13.1-0.7-14.7-8.8c-0.8-4.1,0.8-7.8,4.1-9.9C5.9,52.5,8,52,10,52.4c3,0.6,5.3,3.1,5.5,6.2
			c0.1,1.1-0.1,2.2-0.6,3.2c-1,1.9-2.8,1.9-4.3,1.7c-0.4-0.1-0.7-0.4-0.6-0.8c0.1-0.4,0.4-0.7,0.8-0.6c1.6,0.2,2.3,0,2.8-0.9
			c0.4-0.7,0.5-1.5,0.5-2.4c-0.2-2.4-2-4.4-4.3-4.8c-1.6-0.3-3.3,0.1-4.6,1c-2.8,1.8-4.1,4.9-3.5,8.3c1.6,8.4,14.1,7.5,14.2,7.5
			l8.8,0c0.4,0,0.8,0.3,0.8,0.8c0,0.4-0.3,0.8-0.8,0.8H16C15.9,72.2,15.5,72.3,14.9,72.3z"/>
	</g>
	<g>
		<path class="st1" d="M84.5,78.1h-1v-1.5h1V78.1z M81.5,78.1h-1v-1.5h1V78.1z M78.5,78.1h-1v-1.5h1V78.1z M75.5,78.1h-1v-1.5h1
			V78.1z M72.5,78.1h-1v-1.5h1V78.1z M69.5,78.1h-1v-1.5h1V78.1z M66.5,78.1h-1v-1.5h1V78.1z M63.5,78.1h-1v-1.5h1V78.1z M60.5,78.1
			h-1v-1.5h1V78.1z M57.5,78.1h-1v-1.5h1V78.1z M54.5,78.1h-1v-1.5h1V78.1z M51.5,78.1h-1v-1.5h1V78.1z M48.5,78.1h-1v-1.5h1V78.1z
			 M45.5,78.1h-1v-1.5h1V78.1z M42.5,78.1h-1v-1.5h1V78.1z M39.5,78.1h-1v-1.5h1V78.1z"/>
	</g>
	<g>
		<g>
			<path class="st1" d="M102,65.5c-0.7,0-1.1,0-1.1,0l-5.4,0c-0.4,0-0.8-0.3-0.8-0.8c0-0.4,0.3-0.7,0.8-0.7h5.5
				c0.2,0,12.7,0.9,14.3-7.5c0.7-3.4-0.6-6.5-3.4-8.3c-1.4-0.9-3-1.3-4.6-1c-2.3,0.4-4.1,2.4-4.3,4.8c-0.1,0.9,0.1,1.6,0.5,2.4
				c0.5,0.9,1.2,1.1,2.8,0.9c0.4-0.1,0.8,0.2,0.8,0.6c0.1,0.4-0.2,0.8-0.6,0.8c-1.5,0.2-3.3,0.2-4.3-1.7c-0.5-1-0.7-2-0.6-3.2
				c0.3-3.1,2.5-5.6,5.5-6.2c2-0.4,4.1,0.1,5.7,1.2c3.3,2.1,4.9,5.8,4.1,9.9C115.1,64.7,105.4,65.5,102,65.5z"/>
		</g>
		<g>
			<path class="st1" d="M95,96.6c-0.4,0-0.9,0-1.3-0.1c-3-0.6-5.3-3.1-5.5-6.2c-0.1-1.1,0.1-2.2,0.6-3.2c1-1.9,2.8-1.9,4.3-1.7
				c0.4,0.1,0.7,0.4,0.6,0.8c-0.1,0.4-0.4,0.7-0.8,0.6c-1.6-0.2-2.3,0-2.8,0.9c-0.4,0.7-0.5,1.5-0.5,2.4c0.2,2.4,2,4.4,4.3,4.8
				c1.6,0.3,3.3-0.1,4.6-1c2.8-1.8,4.1-4.9,3.5-8.3c-1.6-8.4-14.1-7.5-14.2-7.5l-3.2,0c-0.4,0-0.8-0.3-0.8-0.8
				c0-0.4,0.3-0.8,0.8-0.8h3.1c0.1,0,13.9-1,15.8,8.7c0.8,4.1-0.8,7.8-4.1,9.9C98,96.1,96.5,96.6,95,96.6z"/>
		</g>
		<g>
			<path class="st1" d="M120.9,90.8c-0.4,0-0.9,0-1.3-0.1c-3-0.6-5.3-3.1-5.5-6.2c-0.1-1.1,0.1-2.2,0.6-3.2c1-1.9,2.8-1.9,4.3-1.7
				c0.4,0.1,0.7,0.4,0.6,0.8c-0.1,0.4-0.4,0.7-0.8,0.6c-1.6-0.2-2.3,0-2.8,0.9c-0.4,0.7-0.5,1.5-0.5,2.4c0.2,2.4,2,4.4,4.3,4.8
				c1.6,0.3,3.3-0.1,4.6-1c2.8-1.8,4.1-4.9,3.5-8.3c-1.6-8.4-14.1-7.5-14.2-7.5l-8.8,0c-0.4,0-0.8-0.3-0.8-0.8
				c0-0.4,0.3-0.8,0.8-0.8h8.8c0.1,0,13.9-1,15.8,8.7c0.8,4.1-0.8,7.8-4.1,9.9C123.9,90.3,122.4,90.8,120.9,90.8z"/>
		</g>
		<g>
			<path class="st1" d="M104.8,72.3h-1v-1.5h1V72.3z M101.8,72.3h-1v-1.5h1V72.3z M98.8,72.3h-1v-1.5h1V72.3z M95.8,72.3h-1v-1.5h1
				V72.3z M92.8,72.3h-1v-1.5h1V72.3z M89.8,72.3h-1v-1.5h1V72.3z M86.8,72.3h-1v-1.5h1V72.3z M83.8,72.3h-1v-1.5h1V72.3z
				 M80.8,72.3h-1v-1.5h1V72.3z M77.8,72.3h-1v-1.5h1V72.3z M74.8,72.3h-1v-1.5h1V72.3z M71.8,72.3h-1v-1.5h1V72.3z M68.8,72.3h-1
				v-1.5h1V72.3z M65.8,72.3h-1v-1.5h1V72.3z M62.8,72.3h-1v-1.5h1V72.3z M59.8,72.3h-1v-1.5h1V72.3z M56.8,72.3h-1v-1.5h1V72.3z
				 M53.8,72.3h-1v-1.5h1V72.3z M50.8,72.3h-1v-1.5h1V72.3z M47.8,72.3h-1v-1.5h1V72.3z M44.8,72.3h-1v-1.5h1V72.3z M41.8,72.3h-1
				v-1.5h1V72.3z M38.8,72.3h-1v-1.5h1V72.3z M35.8,72.3h-1v-1.5h1V72.3z M32.8,72.3h-1v-1.5h1V72.3z M29.8,72.3h-1v-1.5h1V72.3z
				 M26.8,72.3h-1v-1.5h1V72.3z"/>
		</g>
		<g>
			<path class="st1" d="M95.4,65.5h-1V64h1V65.5z M92.4,65.5h-1V64h1V65.5z M89.4,65.5h-1V64h1V65.5z M86.4,65.5h-1V64h1V65.5z
				 M83.4,65.5h-1V64h1V65.5z M80.4,65.5h-1V64h1V65.5z M77.4,65.5h-1V64h1V65.5z M74.4,65.5h-1V64h1V65.5z M71.4,65.5h-1V64h1V65.5
				z M68.4,65.5h-1V64h1V65.5z M65.4,65.5h-1V64h1V65.5z M62.4,65.5h-1V64h1V65.5z M59.4,65.5h-1V64h1V65.5z M56.4,65.5h-1V64h1
				V65.5z M53.4,65.5h-1V64h1V65.5z M50.4,65.5h-1V64h1V65.5z M47.4,65.5h-1V64h1V65.5z"/>
		</g>
	</g>
	<g>
		<path class="st1" d="M81.2,116.9c-0.7,0-1.4-0.1-2.1-0.2c-9.7-1.9-8.7-15.7-8.7-15.8l0-5.4c0-0.4,0.3-0.8,0.8-0.8
			c0.4,0,0.8,0.3,0.8,0.8v5.5c0,0.2-0.9,12.7,7.5,14.3c3.4,0.7,6.5-0.6,8.3-3.4c0.9-1.4,1.3-3,1-4.6c-0.4-2.3-2.4-4.1-4.8-4.3
			c-0.9-0.1-1.6,0.1-2.4,0.5c-0.9,0.5-1.1,1.2-0.9,2.8c0.1,0.4-0.2,0.8-0.6,0.8c-0.4,0.1-0.8-0.2-0.8-0.6c-0.2-1.6-0.2-3.3,1.7-4.3
			c1-0.5,2-0.7,3.2-0.6c3.1,0.3,5.6,2.5,6.2,5.5c0.4,2-0.1,4.1-1.2,5.7C87.2,115.3,84.4,116.9,81.2,116.9z"/>
	</g>
	<g>
		<path class="st1" d="M48.4,103.6c-3.2,0-6.1-1.5-7.8-4.3c-1.1-1.6-1.6-3.7-1.2-5.7c0.6-3,3.1-5.3,6.2-5.5c1.2-0.1,2.2,0.1,3.2,0.6
			c1.9,1,1.9,2.8,1.7,4.3c-0.1,0.4-0.4,0.7-0.8,0.6c-0.4-0.1-0.7-0.4-0.6-0.8c0.2-1.6,0-2.3-0.9-2.8c-0.7-0.4-1.5-0.5-2.4-0.5
			c-2.4,0.2-4.4,2-4.8,4.3c-0.3,1.6,0.1,3.3,1,4.6c1.8,2.8,4.9,4.1,8.3,3.5c8.4-1.6,7.5-14.1,7.5-14.2l0-3.2c0-0.4,0.3-0.8,0.8-0.8
			c0.4,0,0.8,0.3,0.8,0.8v3.1c0,0.1,1,13.9-8.7,15.8C49.7,103.5,49,103.6,48.4,103.6z"/>
	</g>
	<g>
		<path class="st1" d="M54.2,129.5c-3.2,0-6.1-1.5-7.8-4.3c-1.1-1.6-1.6-3.7-1.2-5.7c0.6-3,3.1-5.3,6.2-5.5c1.1-0.1,2.2,0.1,3.2,0.6
			c1.9,1,1.9,2.8,1.7,4.3c-0.1,0.4-0.4,0.7-0.8,0.6c-0.4-0.1-0.7-0.4-0.6-0.8c0.2-1.6,0-2.3-0.9-2.8c-0.7-0.4-1.5-0.5-2.4-0.5
			c-2.4,0.2-4.4,2-4.8,4.3c-0.3,1.6,0.1,3.3,1,4.6c1.8,2.8,4.9,4.1,8.3,3.5c8.4-1.6,7.5-14.1,7.5-14.2l0-8.8c0-0.4,0.3-0.8,0.8-0.8
			c0.4,0,0.8,0.3,0.8,0.8v8.8c0,0.1,1,13.9-8.7,15.8C55.5,129.4,54.8,129.5,54.2,129.5z"/>
	</g>
	<g>
		<path class="st1" d="M93.3,33.5c-2.5,0-4.5-2-4.5-4.5s2-4.5,4.5-4.5s4.5,2,4.5,4.5S95.7,33.5,93.3,33.5z M93.3,26.1
			c-1.6,0-3,1.3-3,3c0,1.6,1.3,3,3,3c1.6,0,3-1.3,3-3C96.2,27.5,94.9,26.1,93.3,26.1z"/>
	</g>
	<g>
		<path class="st1" d="M18.4,42.3c-3,0-5.4-2.4-5.4-5.4c0-3,2.4-5.4,5.4-5.4c3,0,5.4,2.4,5.4,5.4C23.8,39.8,21.4,42.3,18.4,42.3z
			 M18.4,32.9c-2.2,0-3.9,1.8-3.9,3.9c0,2.2,1.8,3.9,3.9,3.9s3.9-1.8,3.9-3.9C22.3,34.7,20.6,32.9,18.4,32.9z"/>
	</g>
	<g>
		<circle class="st0" cx="84.9" cy="12.7" r="2.5"/>
	</g>
	<g>
		<circle class="st4" cx="37.7" cy="29.1" r="2.5"/>
	</g>
	<g>
		<circle class="st5" cx="78.9" cy="87.5" r="2.5"/>
	</g>
	<g>
		<circle class="st6" cx="107.3" cy="108.3" r="2.5"/>
	</g>
	<g>
		<circle class="st0" cx="7.7" cy="102.8" r="2.5"/>
	</g>
</g>
</svg>
