<?xml version="1.0" encoding="utf-8"?>
<!-- Generator: Adobe Illustrator 21.1.0, SVG Export Plug-In . SVG Version: 6.00 Build 0)  -->
<svg version="1.1" id="Layer_1" xmlns="http://www.w3.org/2000/svg" xmlns:xlink="http://www.w3.org/1999/xlink" x="0px" y="0px"
	 viewBox="0 0 128 127.2" style="enable-background:new 0 0 128 127.2;" xml:space="preserve">
<style type="text/css">
	.st0{fill:#E6E9EE;}
	.st1{fill:#231F20;}
	.st2{fill:#FFFFFF;}
	.st3{fill:#84DBFF;}
	.st4{fill:#FF7058;}
	.st5{fill:#6E7A86;}
	.st6{fill:#FFD05B;}
</style>
<g>
	<polygon class="st0" points="68.1,47.8 81.2,47.8 81,53.2 	"/>
	<g>
		<path class="st1" d="M115.5,2.8c-0.2,0-0.4-0.1-0.5-0.2c-0.3-0.3-0.3-0.8,0-1.1l1.3-1.3c0.3-0.3,0.8-0.3,1.1,0
			c0.3,0.3,0.3,0.8,0,1.1l-1.3,1.3C115.9,2.7,115.7,2.8,115.5,2.8z"/>
	</g>
	<g>
		<path class="st1" d="M111.6,6.7c-0.2,0-0.4-0.1-0.5-0.2c-0.3-0.3-0.3-0.8,0-1.1l1.3-1.3c0.3-0.3,0.8-0.3,1.1,0
			c0.3,0.3,0.3,0.8,0,1.1l-1.3,1.3C111.9,6.7,111.8,6.7,111.6,6.7z"/>
	</g>
	<g>
		<path class="st1" d="M116.8,6.7c-0.2,0-0.4-0.1-0.5-0.2L115,5.3c-0.3-0.3-0.3-0.8,0-1.1c0.3-0.3,0.8-0.3,1.1,0l1.3,1.3
			c0.3,0.3,0.3,0.8,0,1.1C117.2,6.7,117,6.7,116.8,6.7z"/>
	</g>
	<g>
		<path class="st1" d="M112.8,2.8c-0.2,0-0.4-0.1-0.5-0.2L111,1.3c-0.3-0.3-0.3-0.8,0-1.1c0.3-0.3,0.8-0.3,1.1,0l1.3,1.3
			c0.3,0.3,0.3,0.8,0,1.1C113.2,2.7,113,2.8,112.8,2.8z"/>
	</g>
	<g>
		<path class="st1" d="M60.4,28.1c-0.2,0-0.4-0.1-0.5-0.2c-0.3-0.3-0.3-0.8,0-1.1l1.3-1.3c0.3-0.3,0.8-0.3,1.1,0
			c0.3,0.3,0.3,0.8,0,1.1l-1.3,1.3C60.7,28,60.6,28.1,60.4,28.1z"/>
	</g>
	<g>
		<path class="st1" d="M56.4,32c-0.2,0-0.4-0.1-0.5-0.2c-0.3-0.3-0.3-0.8,0-1.1l1.3-1.3c0.3-0.3,0.8-0.3,1.1,0
			c0.3,0.3,0.3,0.8,0,1.1l-1.3,1.3C56.8,32,56.6,32,56.4,32z"/>
	</g>
	<g>
		<path class="st1" d="M61.6,32c-0.2,0-0.4-0.1-0.5-0.2l-1.3-1.3c-0.3-0.3-0.3-0.8,0-1.1c0.3-0.3,0.8-0.3,1.1,0l1.3,1.3
			c0.3,0.3,0.3,0.8,0,1.1C62,32,61.8,32,61.6,32z"/>
	</g>
	<g>
		<path class="st1" d="M57.7,28.1c-0.2,0-0.4-0.1-0.5-0.2l-1.3-1.3c-0.3-0.3-0.3-0.8,0-1.1c0.3-0.3,0.8-0.3,1.1,0l1.3,1.3
			c0.3,0.3,0.3,0.8,0,1.1C58,28,57.9,28.1,57.7,28.1z"/>
	</g>
	<g>
		<path class="st1" d="M26.5,6.7c-0.2,0-0.4-0.1-0.5-0.2c-0.3-0.3-0.3-0.8,0-1.1l1.3-1.3c0.3-0.3,0.8-0.3,1.1,0
			c0.3,0.3,0.3,0.8,0,1.1l-1.3,1.3C26.9,6.7,26.7,6.7,26.5,6.7z"/>
	</g>
	<g>
		<path class="st1" d="M22.6,10.7c-0.2,0-0.4-0.1-0.5-0.2c-0.3-0.3-0.3-0.8,0-1.1l1.3-1.3c0.3-0.3,0.8-0.3,1.1,0
			c0.3,0.3,0.3,0.8,0,1.1l-1.3,1.3C22.9,10.6,22.8,10.7,22.6,10.7z"/>
	</g>
	<g>
		<path class="st1" d="M27.8,10.7c-0.2,0-0.4-0.1-0.5-0.2L26,9.2c-0.3-0.3-0.3-0.8,0-1.1c0.3-0.3,0.8-0.3,1.1,0l1.3,1.3
			c0.3,0.3,0.3,0.8,0,1.1C28.2,10.6,28,10.7,27.8,10.7z"/>
	</g>
	<g>
		<path class="st1" d="M23.8,6.7c-0.2,0-0.4-0.1-0.5-0.2L22,5.3c-0.3-0.3-0.3-0.8,0-1.1c0.3-0.3,0.8-0.3,1.1,0l1.3,1.3
			c0.3,0.3,0.3,0.8,0,1.1C24.2,6.7,24,6.7,23.8,6.7z"/>
	</g>
	
		<rect x="-27.5" y="63" transform="matrix(6.206734e-06 1 -1 6.206734e-06 90.7682 49.0521)" class="st2" width="96.7" height="13.9"/>
	
		<rect x="-25.5" y="64.9" transform="matrix(-1.836970e-16 1 -1 -1.836970e-16 90.7682 49.0525)" class="st3" width="92.7" height="10"/>
	<polygon class="st2" points="81.1,47.8 84.3,40.8 74.7,21.6 65.1,40.8 68.2,47.8 	"/>
	<line class="st2" x1="74.7" y1="21.6" x2="74.7" y2="37.4"/>
	<path class="st2" d="M52.1,116.1l0-80.4H40.5l0,80.4c0,1.2,1,2.1,2.1,2.1H50C51.1,118.2,52.1,117.3,52.1,116.1z"/>
	<path class="st4" d="M40.5,100.4v15.7c0,1.2,1,2.1,2.1,2.1H50c1.2,0,2.1-1,2.1-2.1v-15.7L40.5,100.4z"/>
	<polygon class="st2" points="40.5,35.7 46.3,21.6 52.1,35.7 	"/>
	<line class="st2" x1="46.3" y1="35.7" x2="46.3" y2="100.4"/>
	<g>
		<path class="st1" d="M72.1,127.2H47.7c-0.4,0-0.8-0.3-0.8-0.8c0-0.4,0.3-0.8,0.8-0.8h24.4c0.4,0,0.8,0.3,0.8,0.8
			C72.9,126.9,72.6,127.2,72.1,127.2z"/>
	</g>
	<g>
		<path class="st1" d="M80.3,127.2h-4.3c-0.4,0-0.8-0.3-0.8-0.8c0-0.4,0.3-0.8,0.8-0.8h4.3c0.4,0,0.8,0.3,0.8,0.8
			C81,126.9,80.7,127.2,80.3,127.2z"/>
	</g>
	<g>
		<path class="st1" d="M104.9,122.3H80.5c-0.4,0-0.8-0.3-0.8-0.8c0-0.4,0.3-0.8,0.8-0.8h24.4c0.4,0,0.8,0.3,0.8,0.8
			C105.7,122,105.4,122.3,104.9,122.3z"/>
	</g>
	<g>
		<path class="st1" d="M113.1,122.3h-4.3c-0.4,0-0.8-0.3-0.8-0.8c0-0.4,0.3-0.8,0.8-0.8h4.3c0.4,0,0.8,0.3,0.8,0.8
			C113.8,122,113.5,122.3,113.1,122.3z"/>
	</g>
	<g>
		<path class="st1" d="M17.7,123.8h-5.3c-0.4,0-0.8-0.3-0.8-0.8c0-0.4,0.3-0.8,0.8-0.8h5.3c0.4,0,0.8,0.3,0.8,0.8
			C18.4,123.5,18.1,123.8,17.7,123.8z"/>
	</g>
	<g>
		<path class="st1" d="M60.6,123.8H23.1c-0.4,0-0.8-0.3-0.8-0.8c0-0.4,0.3-0.8,0.8-0.8h37.5c0.4,0,0.8,0.3,0.8,0.8
			C61.4,123.5,61,123.8,60.6,123.8z"/>
	</g>
	<path class="st5" d="M98.6,78.2v31.2c0,3.8,3.1,6.8,6.8,6.8c3.8,0,6.8-3.1,6.8-6.8V78.2H98.6z"/>
	<rect x="92.7" y="50.1" class="st2" width="25.4" height="5.1"/>
	<g>
		<path class="st1" d="M96.9,20.9h-8c-0.4,0-0.8-0.3-0.8-0.8c0-0.4,0.3-0.8,0.8-0.8h8c0.4,0,0.8,0.3,0.8,0.8
			C97.7,20.5,97.4,20.9,96.9,20.9z"/>
	</g>
	<g>
		<path class="st1" d="M100.1,23.8h-3.9c-0.4,0-0.8-0.3-0.8-0.8c0-0.4,0.3-0.8,0.8-0.8h3.9c0.4,0,0.8,0.3,0.8,0.8
			C100.8,23.4,100.5,23.8,100.1,23.8z"/>
	</g>
	<g>
		<path class="st1" d="M104.3,20.9h-3.7c-0.4,0-0.8-0.3-0.8-0.8c0-0.4,0.3-0.8,0.8-0.8h3.7c0.4,0,0.8,0.3,0.8,0.8
			C105,20.5,104.7,20.9,104.3,20.9z"/>
	</g>
	<g>
		<path class="st1" d="M93.3,23.8h-0.8c-0.4,0-0.8-0.3-0.8-0.8c0-0.4,0.3-0.8,0.8-0.8h0.8c0.4,0,0.8,0.3,0.8,0.8
			C94.1,23.4,93.7,23.8,93.3,23.8z"/>
	</g>
	<path class="st1" d="M109.6,43.8c-2.7,0-4.9-2.2-4.9-4.9c0-2.7,2.2-4.9,4.9-4.9c2.7,0,4.9,2.2,4.9,4.9
		C114.5,41.6,112.3,43.8,109.6,43.8z M109.6,35.4c-1.9,0-3.4,1.5-3.4,3.4c0,1.9,1.5,3.4,3.4,3.4c1.9,0,3.4-1.5,3.4-3.4
		C113,37,111.5,35.4,109.6,35.4z"/>
	<circle class="st2" cx="74.7" cy="38.4" r="2.7"/>
	<path class="st1" d="M110.5,117.5c2.7-1.7,4.4-4.7,4.4-8V56h3.1c0.4,0,0.8-0.3,0.8-0.8v-5.1c0-0.4-0.3-0.8-0.8-0.8H92.7
		c-0.4,0-0.8,0.3-0.8,0.8v5.1c0,0.4,0.3,0.8,0.8,0.8h3.1v53.5c0,3.4,1.8,6.3,4.4,8H77.9c0.6-0.7,1-1.6,1.1-2.6l3-67c0,0,0-0.1,0-0.1
		l3-6.6c0.1-0.2,0.1-0.4,0-0.6l-9.6-19.2c-0.3-0.5-1.1-0.5-1.3,0l-9.6,19.2c-0.1,0.2-0.1,0.4,0,0.6l3,6.6c0,0,0,0.1,0,0.1l3,67
		c0,1,0.4,1.9,1.1,2.6H52.5c0.2-0.4,0.4-0.9,0.4-1.4V35.7c0-0.1,0-0.2-0.1-0.3c0,0,0,0,0,0L47,21.3c-0.2-0.6-1.2-0.6-1.4,0
		l-5.8,14.2c0,0,0,0,0,0c0,0.1-0.1,0.2-0.1,0.3v80.4c0,0.5,0.1,1,0.4,1.4H28.6l0-95.9c0-0.4-0.3-0.8-0.8-0.8H13.9
		c-0.2,0-0.4,0.1-0.5,0.2c-0.1,0.1-0.2,0.3-0.2,0.5l0,95.9H0v1.5h128v-1.5H110.5z M14.7,117.5v-2.8h3.1v-1.5h-3.1l0-5.8h3.1v-1.5
		h-3.1l0-5.8h3.1v-1.5h-3.1v-5.8h3.1v-1.5h-3.1l0-5.8h3.1v-1.5h-3.1V78h3.1v-1.5h-3.1l0-5.8h3.1v-1.5h-3.1v-5.8h3.1v-1.5h-3.1l0-5.8
		h3.1v-1.5h-3.1v-5.8h3.1v-1.5h-3.1l0-5.8h3.1v-1.5h-3.1v-5.8h3.1v-1.5h-3.1l0-5.8h3.1v-1.5h-3.1v-2.8h12.4l0,95.2H14.7z M46.3,23.5
		L51,35h-9.4L46.3,23.5z M41.2,36.5h4.3v63.2h-4.3V36.5z M51.4,116.1c0,0.8-0.6,1.4-1.4,1.4h-7.3c-0.8,0-1.4-0.6-1.4-1.4v-14.9h10.1
		V116.1z M51.4,99.7H47V36.5h4.3V99.7z M74.7,36.5c1.1,0,2,0.9,2,2s-0.9,2-2,2s-2-0.9-2-2S73.6,36.5,74.7,36.5z M65.9,40.8l8-16.1
		v10.3c-1.5,0.3-2.7,1.7-2.7,3.4c0,1.9,1.6,3.5,3.5,3.5c1.9,0,3.5-1.6,3.5-3.5c0-1.7-1.2-3-2.7-3.4V24.8l8,16.1L80.6,47H68.7
		L65.9,40.8z M74.7,117.5c-1.5,0-2.8-1.2-2.8-2.7l-2.9-66.3h11.5l-2.9,66.3C77.4,116.3,76.2,117.5,74.7,117.5z M93.5,54.5v-3.6h23.9
		v3.6H93.5z M97.4,109.5v-5.7h6.2v-1.5h-6.2v-5.5h6.2v-1.5h-6.2v-5.5h6.2v-1.5h-6.2v-5.5h6.2v-1.5h-6.2v-5.5h6.2v-1.5h-6.2v-5.5h6.2
		v-1.5h-6.2v-5.5h6.2v-1.5h-6.2V56h16.1v53.5c0,4.4-3.6,8-8,8S97.4,113.9,97.4,109.5z"/>
	<circle class="st0" cx="54.8" cy="8.1" r="2.7"/>
	<circle class="st6" cx="93.3" cy="33.2" r="2.7"/>
	<circle class="st5" cx="61.6" cy="97.2" r="2.7"/>
	<circle class="st3" cx="118.1" cy="17.4" r="2.7"/>
	<circle class="st5" cx="3.6" cy="17.4" r="2.7"/>
</g>
</svg>
