<?xml version="1.0" encoding="utf-8"?>
<!-- Generator: Adobe Illustrator 21.1.0, SVG Export Plug-In . SVG Version: 6.00 Build 0)  -->
<svg version="1.1" id="Layer_1" xmlns="http://www.w3.org/2000/svg" xmlns:xlink="http://www.w3.org/1999/xlink" x="0px" y="0px"
	 viewBox="0 0 129.5 127.7" style="enable-background:new 0 0 129.5 127.7;" xml:space="preserve">
<style type="text/css">
	.st0{fill:#231F20;}
	.st1{fill:#FFFFFF;}
	.st2{fill:#6E7A86;}
	.st3{fill:#FFD05B;}
	.st4{fill:#FF7058;}
	.st5{fill:#CED5E0;}
	.st6{fill:#84DBFF;}
</style>
<g>
	<g>
		<path class="st0" d="M91.1,75.2H39.6c-0.4,0-0.8-0.3-0.8-0.8c0-0.4,0.3-0.8,0.8-0.8h51.6c0.4,0,0.8,0.3,0.8,0.8
			C91.9,74.9,91.5,75.2,91.1,75.2z"/>
	</g>
	<g>
		<path class="st0" d="M91.1,82.9H39.6c-0.4,0-0.8-0.3-0.8-0.8s0.3-0.8,0.8-0.8h51.6c0.4,0,0.8,0.3,0.8,0.8S91.5,82.9,91.1,82.9z"/>
	</g>
	<g>
		<path class="st0" d="M91.1,90.6H39.6c-0.4,0-0.8-0.3-0.8-0.8c0-0.4,0.3-0.8,0.8-0.8h51.6c0.4,0,0.8,0.3,0.8,0.8
			C91.9,90.2,91.5,90.6,91.1,90.6z"/>
	</g>
	<g>
		<path class="st0" d="M91.1,98.2H39.6c-0.4,0-0.8-0.3-0.8-0.8c0-0.4,0.3-0.8,0.8-0.8h51.6c0.4,0,0.8,0.3,0.8,0.8
			C91.9,97.9,91.5,98.2,91.1,98.2z"/>
	</g>
	<g>
		<path class="st0" d="M65.9,105.9H39.6c-0.4,0-0.8-0.3-0.8-0.8c0-0.4,0.3-0.8,0.8-0.8h26.3c0.4,0,0.8,0.3,0.8,0.8
			C66.7,105.6,66.3,105.9,65.9,105.9z"/>
	</g>
	<polygon class="st1" points="106.7,8.5 84.6,17.3 106.7,26.1 128.8,17.3 	"/>
	<path class="st0" d="M129,16.6L107,7.8c-0.2-0.1-0.4-0.1-0.6,0l-22.1,8.8c-0.3,0.1-0.5,0.4-0.5,0.7c0,0.3,0.2,0.6,0.5,0.7l9.5,3.8
		v10.4c0,0.4,0.3,0.7,0.6,0.7c4.5,0.6,8.7,2.3,11.7,4.8c0.1,0.1,0.3,0.2,0.5,0.2c0.2,0,0.3-0.1,0.5-0.2c3-2.4,7.2-4.1,11.7-4.8
		c0.4-0.1,0.6-0.4,0.6-0.7V21.8l3.7-1.5v7c0,0.4,0.3,0.8,0.8,0.8c0.4,0,0.8-0.3,0.8-0.8v-7.6L129,18c0.3-0.1,0.5-0.4,0.5-0.7
		C129.5,17,129.3,16.7,129,16.6z M118,31.6c-4.3,0.7-8.3,2.3-11.3,4.6c-3-2.3-7-3.9-11.3-4.6v-9.2l11,4.4c0.1,0,0.2,0.1,0.3,0.1
		c0.1,0,0.2,0,0.3-0.1l11-4.4V31.6z M106.7,25.3l-20-8l20-8l20,8L106.7,25.3z"/>
	<path class="st1" d="M119.7,110.8H69.2v9.2h50.6c2.5,0,4.6-2.1,4.6-4.6v0C124.3,112.9,122.3,110.8,119.7,110.8z"/>
	<path class="st1" d="M110.2,120h9.5c2.5,0,4.6-2.1,4.6-4.6v0c0-2.5-2.1-4.6-4.6-4.6h-9.5V120z"/>
	<polygon class="st1" points="69.2,120 58,115.4 69.2,110.8 	"/>
	<line class="st1" x1="69.2" y1="115.4" x2="110.2" y2="115.4"/>
	<path class="st0" d="M119.7,110h-19.5V62c0-0.2-0.1-0.4-0.2-0.5L82.2,43.7c-0.1-0.1-0.3-0.2-0.5-0.2H31.2c-0.4,0-0.8,0.3-0.8,0.8
		V127c0,0.4,0.3,0.8,0.8,0.8h68.2c0.4,0,0.8-0.3,0.8-0.8v-6.2h19.5c2.9,0,5.3-2.4,5.3-5.3C125.1,112.4,122.7,110,119.7,110z
		 M82.4,46l15.2,15.2H82.4V46z M98.7,126.2H32V45h48.9v17c0,0.4,0.3,0.8,0.8,0.8h17V110H69.2c-0.1,0-0.2,0-0.3,0.1c0,0,0,0,0,0l0,0
		c0,0,0,0,0,0l-11.2,4.6c-0.3,0.1-0.5,0.4-0.5,0.7c0,0.3,0.2,0.6,0.5,0.7l11.2,4.6c0,0,0,0,0,0l0,0c0.1,0,0.2,0.1,0.3,0.1h29.6
		V126.2z M68.4,111.9v7l-8.5-3.5L68.4,111.9z M109.5,119.2H69.9v-3.1h39.6V119.2z M109.5,114.6H69.9v-3.1h39.6V114.6z M119.7,119.2
		H111v-7.7h8.7c2.1,0,3.8,1.7,3.8,3.8C123.6,117.5,121.8,119.2,119.7,119.2z"/>
	<circle class="st1" cx="18.3" cy="18.3" r="17.6"/>
	<g>
		<circle class="st2" cx="18.3" cy="18.3" r="13.5"/>
	</g>
	<path class="st1" d="M18.4,39.2L18.4,39.2c-1.9,0-3.5,1.5-3.5,3.4V62c0,1.9,1.5,3.4,3.4,3.4h0.1c1.9,0,3.4-1.5,3.4-3.4V42.6
		C21.8,40.7,20.2,39.2,18.4,39.2z"/>
	<path class="st0" d="M36.7,18.3C36.7,8.2,28.4,0,18.3,0C8.2,0,0,8.2,0,18.3c0,9.9,7.8,17.9,17.6,18.3v1.9c-1.9,0.3-3.4,2-3.4,4.1
		V62c0,2.3,1.9,4.1,4.1,4.1h0.1c2.3,0,4.1-1.9,4.1-4.1V42.6c0-2-1.5-3.7-3.4-4.1v-1.9C28.8,36.2,36.7,28.2,36.7,18.3z M1.5,18.3
		c0-9.3,7.6-16.8,16.8-16.8s16.8,7.6,16.8,16.8s-7.6,16.8-16.8,16.8S1.5,27.6,1.5,18.3z M21,42.6V62c0,1.5-1.2,2.6-2.6,2.6h-0.1
		c-1.5,0-2.6-1.2-2.6-2.6V42.6c0-1.5,1.2-2.6,2.7-2.6C19.8,40,21,41.1,21,42.6z"/>
	<circle class="st1" cx="60.7" cy="18.3" r="13"/>
	<path class="st0" d="M60.7,32.1c-7.6,0-13.7-6.2-13.7-13.7S53.1,4.6,60.7,4.6s13.7,6.2,13.7,13.7S68.3,32.1,60.7,32.1z M60.7,6.1
		c-6.7,0-12.2,5.5-12.2,12.2S54,30.6,60.7,30.6s12.2-5.5,12.2-12.2S67.4,6.1,60.7,6.1z"/>
	<polygon class="st1" points="58.4,13.8 58.4,22.8 65.2,18.3 	"/>
	<path class="st0" d="M58.4,23.6c-0.1,0-0.2,0-0.4-0.1c-0.2-0.1-0.4-0.4-0.4-0.7v-9c0-0.3,0.2-0.5,0.4-0.7c0.2-0.1,0.5-0.1,0.8,0
		l6.9,4.5c0.2,0.1,0.3,0.4,0.3,0.6c0,0.3-0.1,0.5-0.3,0.6l-6.9,4.5C58.7,23.5,58.5,23.6,58.4,23.6z M59.1,15.2v6.2l4.7-3.1
		L59.1,15.2z"/>
	<circle class="st3" cx="94.6" cy="39.2" r="2.5"/>
	<circle class="st4" cx="39.6" cy="31.3" r="2.5"/>
	<circle class="st5" cx="112.5" cy="79.5" r="2.5"/>
	<circle class="st6" cx="7.8" cy="74.4" r="2.5"/>
	<g>
		<path class="st0" d="M23.5,117.5h-8.2c-0.4,0-0.8-0.3-0.8-0.8c0-0.4,0.3-0.8,0.8-0.8h8.2c0.4,0,0.8,0.3,0.8,0.8
			C24.2,117.2,23.9,117.5,23.5,117.5z"/>
	</g>
	<g>
		<path class="st0" d="M16.1,114.6h-4c-0.4,0-0.8-0.3-0.8-0.8s0.3-0.8,0.8-0.8h4c0.4,0,0.8,0.3,0.8,0.8S16.5,114.6,16.1,114.6z"/>
	</g>
	<g>
		<path class="st0" d="M11.6,117.5H7.8c-0.4,0-0.8-0.3-0.8-0.8c0-0.4,0.3-0.8,0.8-0.8h3.8c0.4,0,0.8,0.3,0.8,0.8
			C12.4,117.2,12,117.5,11.6,117.5z"/>
	</g>
	<g>
		<path class="st0" d="M19.8,114.6H19c-0.4,0-0.8-0.3-0.8-0.8s0.3-0.8,0.8-0.8h0.8c0.4,0,0.8,0.3,0.8,0.8S20.2,114.6,19.8,114.6z"/>
	</g>
	<g>
		<path class="st0" d="M89.5,7.6h-8.2c-0.4,0-0.8-0.3-0.8-0.8c0-0.4,0.3-0.8,0.8-0.8h8.2c0.4,0,0.8,0.3,0.8,0.8
			C90.3,7.3,89.9,7.6,89.5,7.6z"/>
	</g>
	<g>
		<path class="st0" d="M82.1,4.6h-4c-0.4,0-0.8-0.3-0.8-0.7c0-0.4,0.3-0.8,0.8-0.8h4c0.4,0,0.8,0.3,0.8,0.8
			C82.9,4.3,82.5,4.6,82.1,4.6z"/>
	</g>
	<g>
		<path class="st0" d="M77.6,7.6h-3.8c-0.4,0-0.8-0.3-0.8-0.8c0-0.4,0.3-0.8,0.8-0.8h3.8c0.4,0,0.8,0.3,0.8,0.8
			C78.4,7.3,78.1,7.6,77.6,7.6z"/>
	</g>
	<g>
		<path class="st0" d="M85.8,4.6H85c-0.4,0-0.8-0.3-0.8-0.7c0-0.4,0.3-0.8,0.8-0.8h0.8c0.4,0,0.8,0.3,0.8,0.8
			C86.6,4.3,86.2,4.6,85.8,4.6z"/>
	</g>
	<g>
		<path class="st0" d="M122.7,41.1c-0.2,0-0.4-0.1-0.5-0.2c-0.3-0.3-0.3-0.8,0-1.1l1.3-1.3c0.3-0.3,0.8-0.3,1.1,0
			c0.3,0.3,0.3,0.8,0,1.1l-1.3,1.3C123.1,41,122.9,41.1,122.7,41.1z"/>
	</g>
	<g>
		<path class="st0" d="M118.7,45.2c-0.2,0-0.4-0.1-0.5-0.2c-0.3-0.3-0.3-0.8,0-1.1l1.3-1.3c0.3-0.3,0.8-0.3,1.1,0
			c0.3,0.3,0.3,0.8,0,1.1l-1.3,1.3C119,45.1,118.8,45.2,118.7,45.2z"/>
	</g>
	<g>
		<path class="st0" d="M124,45.2c-0.2,0-0.4-0.1-0.5-0.2l-1.3-1.3c-0.3-0.3-0.3-0.8,0-1.1c0.3-0.3,0.8-0.3,1.1,0l1.3,1.3
			c0.3,0.3,0.3,0.8,0,1.1C124.4,45.1,124.2,45.2,124,45.2z"/>
	</g>
	<g>
		<path class="st0" d="M120,41.1c-0.2,0-0.4-0.1-0.5-0.2l-1.3-1.3c-0.3-0.3-0.3-0.8,0-1.1c0.3-0.3,0.8-0.3,1.1,0l1.3,1.3
			c0.3,0.3,0.3,0.8,0,1.1C120.3,41,120.1,41.1,120,41.1z"/>
	</g>
	<g>
		<path class="st0" d="M19.7,89.2c-0.2,0-0.4-0.1-0.5-0.2c-0.3-0.3-0.3-0.8,0-1.1l1.3-1.3c0.3-0.3,0.8-0.3,1.1,0
			c0.3,0.3,0.3,0.8,0,1.1l-1.3,1.3C20.1,89.1,19.9,89.2,19.7,89.2z"/>
	</g>
	<g>
		<path class="st0" d="M15.7,93.2c-0.2,0-0.4-0.1-0.5-0.2c-0.3-0.3-0.3-0.8,0-1.1l1.3-1.3c0.3-0.3,0.8-0.3,1.1,0
			c0.3,0.3,0.3,0.8,0,1.1L16.2,93C16,93.2,15.8,93.2,15.7,93.2z"/>
	</g>
	<g>
		<path class="st0" d="M21,93.2c-0.2,0-0.4-0.1-0.5-0.2l-1.3-1.3c-0.3-0.3-0.3-0.8,0-1.1c0.3-0.3,0.8-0.3,1.1,0l1.3,1.3
			c0.3,0.3,0.3,0.8,0,1.1C21.4,93.2,21.2,93.2,21,93.2z"/>
	</g>
	<g>
		<path class="st0" d="M17,89.2c-0.2,0-0.4-0.1-0.5-0.2l-1.3-1.3c-0.3-0.3-0.3-0.8,0-1.1s0.8-0.3,1.1,0l1.3,1.3
			c0.3,0.3,0.3,0.8,0,1.1C17.3,89.1,17.1,89.2,17,89.2z"/>
	</g>
	<g>
		<path class="st0" d="M118.7,96.8c-0.2,0-0.4-0.1-0.5-0.2c-0.3-0.3-0.3-0.8,0-1.1l1.3-1.3c0.3-0.3,0.8-0.3,1.1,0
			c0.3,0.3,0.3,0.8,0,1.1l-1.3,1.3C119,96.8,118.8,96.8,118.7,96.8z"/>
	</g>
	<g>
		<path class="st0" d="M114.6,100.9c-0.2,0-0.4-0.1-0.5-0.2c-0.3-0.3-0.3-0.8,0-1.1l1.3-1.3c0.3-0.3,0.8-0.3,1.1,0
			c0.3,0.3,0.3,0.8,0,1.1l-1.3,1.3C115,100.8,114.8,100.9,114.6,100.9z"/>
	</g>
	<g>
		<path class="st0" d="M120,100.9c-0.2,0-0.4-0.1-0.5-0.2l-1.3-1.3c-0.3-0.3-0.3-0.8,0-1.1s0.8-0.3,1.1,0l1.3,1.3
			c0.3,0.3,0.3,0.8,0,1.1C120.3,100.8,120.1,100.9,120,100.9z"/>
	</g>
	<g>
		<path class="st0" d="M115.9,96.8c-0.2,0-0.4-0.1-0.5-0.2l-1.3-1.3c-0.3-0.3-0.3-0.8,0-1.1c0.3-0.3,0.8-0.3,1.1,0l1.3,1.3
			c0.3,0.3,0.3,0.8,0,1.1C116.3,96.8,116.1,96.8,115.9,96.8z"/>
	</g>
	<path class="st0" d="M115.9,63.8c-2.3,0-4.1-1.9-4.1-4.1c0-2.3,1.9-4.1,4.1-4.1c2.3,0,4.1,1.9,4.1,4.1
		C120,62,118.2,63.8,115.9,63.8z M115.9,57.1c-1.5,0-2.6,1.2-2.6,2.6c0,1.5,1.2,2.6,2.6,2.6s2.6-1.2,2.6-2.6
		C118.5,58.2,117.3,57.1,115.9,57.1z"/>
</g>
</svg>
