<?xml version="1.0" encoding="utf-8"?>
<!-- Generator: Adobe Illustrator 21.1.0, SVG Export Plug-In . SVG Version: 6.00 Build 0)  -->
<svg version="1.1" id="Layer_1" xmlns="http://www.w3.org/2000/svg" xmlns:xlink="http://www.w3.org/1999/xlink" x="0px" y="0px"
	 viewBox="0 0 183.9 192" style="enable-background:new 0 0 183.9 192;" xml:space="preserve">
<style type="text/css">
	.st0{fill:#F58E70;}
	.st1{fill:#48515A;}
	.st2{fill:#5FE0ED;}
	.st3{fill:#DFE0E0;}
	.st4{fill:#D5D892;}
	.st5{fill:#475059;}
</style>
<path class="st0" d="M77,192c0,0-2.7-15.7-4-21c1.1,0,2-0.9,2-2v-5l-5.1-6l-4.9,6v5c0,1.1,0.9,2,2,2c-1.3,5.3-4,21-4,21"/>
<path class="st1" d="M167.4,122.9c-0.5-0.1-0.9-0.7-0.7-1.2c0.1-0.5,0.7-0.9,1.2-0.7c0.5,0.1,0.9,0.7,0.7,1.2
	c-0.1,0.4-0.5,0.8-1,0.8C167.5,122.9,167.4,122.9,167.4,122.9 M166.9,118L166.9,118c0-0.6,0.4-1,0.9-1.1c0.6,0,1,0.4,1.1,0.9
	c0,0.6-0.4,1-0.9,1.1h-0.1C167.4,119,166.9,118.6,166.9,118 M166.3,114.3c-0.1-0.5,0.2-1.1,0.7-1.2c0.5-0.1,1.1,0.2,1.2,0.7
	c0.1,0.5-0.2,1.1-0.7,1.2c-0.1,0-0.2,0-0.2,0C166.8,115,166.4,114.7,166.3,114.3 M165.2,110.5L165.2,110.5c-0.2-0.5,0.1-1.1,0.6-1.3
	c0.5-0.2,1.1,0.1,1.3,0.6c0.2,0.5-0.1,1.1-0.6,1.3c-0.1,0-0.2,0.1-0.3,0.1C165.7,111.2,165.3,110.9,165.2,110.5 M163.8,106.9
	L163.8,106.9c-0.2-0.5,0-1.1,0.5-1.3c0.5-0.2,1.1,0,1.3,0.5c0.2,0.5,0,1.1-0.5,1.3c-0.1,0.1-0.3,0.1-0.4,0.1
	C164.3,107.5,163.9,107.2,163.8,106.9 M162.1,103.3c-0.2-0.5,0-1.1,0.5-1.3c0.5-0.2,1.1-0.1,1.3,0.4h0c0.2,0.5,0.1,1.1-0.4,1.3
	c-0.1,0.1-0.3,0.1-0.4,0.1C162.6,103.8,162.3,103.6,162.1,103.3 M160.3,99.8c-0.3-0.5-0.1-1.1,0.4-1.4c0.5-0.3,1.1-0.1,1.4,0.4
	c0.3,0.5,0.1,1.1-0.4,1.4c-0.1,0.1-0.3,0.1-0.5,0.1C160.8,100.3,160.4,100.1,160.3,99.8 M158.3,96.3c-0.3-0.5-0.1-1.1,0.4-1.4
	c0.5-0.3,1.1-0.1,1.4,0.3c0.3,0.5,0.1,1.1-0.4,1.4c-0.2,0.1-0.3,0.1-0.5,0.1C158.8,96.8,158.5,96.6,158.3,96.3 M156.2,92.9
	L156.2,92.9c-0.3-0.5-0.2-1.1,0.3-1.4c0.5-0.3,1.1-0.2,1.4,0.3c0.3,0.5,0.2,1.1-0.3,1.4c-0.2,0.1-0.4,0.2-0.5,0.2
	C156.7,93.4,156.4,93.2,156.2,92.9 M154,89.6c-0.3-0.5-0.2-1.1,0.3-1.4c0.5-0.3,1.1-0.2,1.4,0.3c0.3,0.5,0.2,1.1-0.3,1.4
	c-0.2,0.1-0.4,0.2-0.6,0.2C154.5,90.1,154.2,89.9,154,89.6 M151.8,86.3L151.8,86.3c-0.3-0.5-0.2-1.1,0.2-1.4
	c0.5-0.3,1.1-0.2,1.4,0.2h0c0.3,0.4,0.2,1.1-0.2,1.4c-0.2,0.1-0.4,0.2-0.6,0.2C152.3,86.8,152,86.6,151.8,86.3 M149.4,83.1
	c-0.3-0.5-0.2-1.1,0.2-1.4c0.5-0.3,1.1-0.2,1.4,0.2s0.2,1.1-0.2,1.4c-0.2,0.1-0.4,0.2-0.6,0.2C149.9,83.5,149.6,83.4,149.4,83.1
	 M147.1,79.9c-0.3-0.4-0.3-1.1,0.2-1.4c0.4-0.3,1.1-0.2,1.4,0.2c0.3,0.4,0.3,1.1-0.2,1.4c-0.2,0.1-0.4,0.2-0.6,0.2
	C147.5,80.3,147.2,80.2,147.1,79.9 M144.6,76.8c-0.3-0.4-0.3-1.1,0.2-1.4c0.4-0.3,1.1-0.3,1.4,0.2c0.3,0.4,0.3,1.1-0.2,1.4
	c-0.2,0.1-0.4,0.2-0.6,0.2C145.1,77.2,144.8,77,144.6,76.8 M142.1,73.7c-0.4-0.4-0.3-1.1,0.1-1.4c0.4-0.4,1.1-0.3,1.4,0.1
	c0.3,0.4,0.3,1.1-0.1,1.4c-0.2,0.1-0.4,0.2-0.6,0.2C142.6,74.1,142.3,73.9,142.1,73.7 M139.5,70.6c-0.4-0.4-0.3-1.1,0.1-1.4
	s1-0.3,1.4,0.1c0.3,0.4,0.3,1.1-0.1,1.4c-0.2,0.2-0.4,0.2-0.6,0.2C140,71,139.7,70.9,139.5,70.6 M136.9,67.6L136.9,67.6
	c-0.4-0.4-0.3-1,0.1-1.4c0.4-0.4,1-0.3,1.4,0.1c0.4,0.4,0.3,1.1-0.1,1.4c-0.2,0.2-0.4,0.2-0.7,0.2C137.4,68,137.1,67.9,136.9,67.6
	 M134.3,64.7c-0.4-0.4-0.3-1,0.1-1.4c0.4-0.4,1-0.3,1.4,0.1c0.4,0.4,0.3,1-0.1,1.4c-0.2,0.2-0.4,0.3-0.7,0.3
	C134.7,65,134.5,64.9,134.3,64.7 M131.6,61.7L131.6,61.7c-0.4-0.4-0.4-1,0-1.4c0.4-0.4,1-0.3,1.4,0c0.4,0.4,0.4,1-0.1,1.4
	c-0.2,0.2-0.4,0.3-0.7,0.3C132,62,131.8,61.9,131.6,61.7 M128.8,58.8c-0.4-0.4-0.4-1,0-1.4c0.4-0.4,1-0.4,1.4,0c0.4,0.4,0.4,1,0,1.4
	c-0.2,0.2-0.4,0.3-0.7,0.3C129.3,59.1,129,59,128.8,58.8 M126.1,56c-0.4-0.4-0.4-1,0-1.4c0.4-0.4,1-0.4,1.4,0c0.4,0.4,0.4,1,0,1.4
	c-0.2,0.2-0.4,0.3-0.7,0.3C126.5,56.3,126.2,56.2,126.1,56 M123.2,53.1L123.2,53.1c-0.4-0.4-0.4-1,0-1.4c0.4-0.4,1-0.4,1.4,0h0
	c0.4,0.4,0.4,1,0,1.4c-0.2,0.2-0.5,0.3-0.7,0.3C123.7,53.4,123.4,53.3,123.2,53.1 M120.4,50.4c-0.4-0.4-0.4-1,0-1.4
	c0.4-0.4,1-0.4,1.4,0c0.4,0.4,0.4,1,0,1.4c-0.2,0.2-0.4,0.3-0.7,0.3C120.8,50.6,120.6,50.5,120.4,50.4 M117.5,47.6
	c-0.4-0.4-0.4-1-0.1-1.4c0.4-0.4,1-0.4,1.4-0.1c0.4,0.4,0.4,1,0,1.4c-0.2,0.2-0.5,0.3-0.7,0.3C117.9,47.9,117.7,47.8,117.5,47.6
	 M114.5,44.9c-0.4-0.4-0.4-1-0.1-1.4c0.4-0.4,1-0.4,1.4-0.1c0.4,0.4,0.4,1,0.1,1.4c-0.2,0.2-0.5,0.3-0.7,0.3
	C115,45.2,114.7,45.1,114.5,44.9 M111.6,42.3c-0.4-0.4-0.4-1-0.1-1.4c0.4-0.4,1-0.5,1.4-0.1c0.4,0.4,0.5,1,0.1,1.4
	c-0.2,0.2-0.5,0.3-0.8,0.3C112,42.5,111.8,42.4,111.6,42.3 M108.6,39.7c-0.4-0.4-0.5-1-0.1-1.4c0.4-0.4,1-0.5,1.4-0.1
	c0.4,0.4,0.5,1,0.1,1.4c-0.2,0.2-0.5,0.4-0.8,0.4C109,39.9,108.8,39.8,108.6,39.7 M105.5,37.1c-0.4-0.4-0.5-1-0.1-1.4
	c0.4-0.4,1-0.5,1.4-0.1c0.4,0.4,0.5,1,0.1,1.4c-0.2,0.2-0.5,0.4-0.8,0.4C105.9,37.3,105.7,37.2,105.5,37.1 M102.4,34.6
	c-0.4-0.3-0.5-1-0.2-1.4c0.3-0.4,1-0.5,1.4-0.2s0.5,1,0.2,1.4c-0.2,0.2-0.5,0.4-0.8,0.4C102.8,34.8,102.6,34.7,102.4,34.6
	 M99.3,32.1c-0.4-0.3-0.5-1-0.2-1.4c0.3-0.4,1-0.5,1.4-0.2c0.4,0.3,0.5,1,0.2,1.4c-0.2,0.3-0.5,0.4-0.8,0.4
	C99.7,32.3,99.5,32.3,99.3,32.1 M96.1,29.7c-0.4-0.3-0.5-1-0.2-1.4c0.3-0.4,1-0.5,1.4-0.2s0.5,1,0.2,1.4c-0.2,0.3-0.5,0.4-0.8,0.4
	C96.5,29.9,96.3,29.9,96.1,29.7 M92.9,27.4c-0.5-0.3-0.6-1-0.2-1.4c0.3-0.5,0.9-0.6,1.4-0.2c0.5,0.3,0.6,1,0.2,1.4
	c-0.2,0.3-0.5,0.4-0.8,0.4C93.3,27.6,93.1,27.5,92.9,27.4 M89.6,25.1c-0.5-0.3-0.6-0.9-0.3-1.4c0.3-0.5,0.9-0.6,1.4-0.3
	c0.5,0.3,0.6,0.9,0.3,1.4c-0.2,0.3-0.5,0.5-0.8,0.5C90,25.3,89.8,25.2,89.6,25.1 M86.3,22.9L86.3,22.9c-0.5-0.3-0.6-0.9-0.3-1.4
	c0.3-0.5,0.9-0.6,1.4-0.3c0.5,0.3,0.6,0.9,0.3,1.4c-0.2,0.3-0.5,0.5-0.9,0.5C86.6,23.1,86.4,23.1,86.3,22.9 M82.9,20.9
	c-0.5-0.3-0.6-0.9-0.3-1.4c0.3-0.5,0.9-0.6,1.4-0.4c0.5,0.3,0.6,0.9,0.4,1.4c-0.2,0.3-0.5,0.5-0.9,0.5C83.2,21,83.1,21,82.9,20.9
	 M79.5,18.9c-0.5-0.3-0.7-0.9-0.4-1.4c0.3-0.5,0.9-0.7,1.4-0.4c0.5,0.3,0.7,0.9,0.4,1.4c-0.2,0.3-0.5,0.5-0.9,0.5
	C79.8,19,79.6,19,79.5,18.9 M76,17L76,17c-0.5-0.2-0.7-0.9-0.5-1.3c0.2-0.5,0.8-0.7,1.3-0.4c0.5,0.2,0.7,0.8,0.4,1.3
	c-0.2,0.4-0.5,0.6-0.9,0.6C76.3,17.1,76.1,17.1,76,17 M72.4,15.4c-0.5-0.2-0.7-0.8-0.5-1.3c0.2-0.5,0.8-0.7,1.3-0.5h0
	c0.5,0.2,0.7,0.8,0.5,1.3c-0.2,0.4-0.5,0.6-0.9,0.6C72.6,15.5,72.5,15.4,72.4,15.4 M53.1,13.9c-0.4-0.4-0.4-1,0-1.4
	c0.4-0.4,1-0.4,1.4,0c0.4,0.4,0.4,1,0,1.4c-0.2,0.2-0.4,0.3-0.7,0.3C53.6,14.2,53.3,14.1,53.1,13.9 M68.7,13.9L68.7,13.9
	c-0.5-0.2-0.8-0.8-0.6-1.3c0.2-0.5,0.8-0.8,1.3-0.6c0.5,0.2,0.8,0.8,0.6,1.3c-0.1,0.4-0.5,0.7-0.9,0.7C69,14,68.8,14,68.7,13.9
	 M65,12.8c-0.5-0.1-0.9-0.7-0.7-1.2c0.1-0.5,0.7-0.9,1.2-0.7c0.5,0.1,0.9,0.7,0.7,1.2c-0.1,0.5-0.5,0.8-1,0.8
	C65.1,12.8,65.1,12.8,65,12.8 M56.3,11.6c-0.1-0.5,0.2-1.1,0.8-1.2h0c0.5-0.1,1.1,0.2,1.2,0.8s-0.2,1.1-0.8,1.2c-0.1,0-0.2,0-0.2,0
	C56.9,12.4,56.5,12.1,56.3,11.6 M61.2,12.2c-0.5-0.1-1-0.5-0.9-1.1c0-0.6,0.5-1,1.1-0.9c0.6,0.1,1,0.5,0.9,1.1
	C62.3,11.8,61.8,12.2,61.2,12.2L61.2,12.2z"/>
<path class="st2" d="M160.9,69.3c0,28.9-23.5,52.4-52.4,52.4S56.1,98.3,56.1,69.3s23.5-52.4,52.4-52.4S160.9,40.4,160.9,69.3"/>
<path class="st2" d="M108.5,122.7c-29.5,0-53.4-24-53.4-53.4c0-29.5,24-53.4,53.4-53.4s53.4,24,53.4,53.4
	C161.9,98.8,137.9,122.7,108.5,122.7 M108.5,17.9c-28.4,0-51.4,23.1-51.4,51.4c0,28.3,23.1,51.4,51.4,51.4s51.4-23.1,51.4-51.4
	C159.9,41,136.8,17.9,108.5,17.9"/>
<path class="st3" d="M54.6,143v4.4l15.1,8.5l15-8.2l0.1-8v-6.7c0.6-0.6,1.2-1.2,1.7-1.8c-0.2,0.2-0.4,0.3-0.5,0.5
	c-2.1,2.3-5.3,4.6-7.5,6.5c-1.7,1.5-3.9,2.3-6.1,2.3H70h-2.5H66c-2.2,0-4.4-0.8-6.1-2.3c-2.1-1.8-5.1-4-7.2-6.2
	c-0.1-0.1-0.1-0.1-0.2-0.2c0.6,0.7,1.3,1.3,2.1,2c0,0,0,0,0,0v7.2V143L54.6,143L54.6,143z"/>
<path class="st1" d="M54.6,148.3c-0.6,0-1-0.4-1-1v-13.5c0-0.6,0.4-1,1-1c0.6,0,1,0.4,1,1v13.5C55.6,147.8,55.2,148.3,54.6,148.3"/>
<path class="st1" d="M84.8,148c-0.6,0-1-0.4-1-1l0-14.6l0.3-0.3c1.2-1.2,2.6-2.6,3-3.8l6.2-12.6l6.9-3.4l1.6-7.8
	c0-0.6-0.2-1.1-0.6-1.6c-0.4-0.4-1-0.7-1.6-0.7h-2.6l0.2-1.2c0.5-3.1,0.8-6,0.8-8.4l0-1.4c0-3.9-0.8-7.8-2.5-11.4
	c-0.2-0.3-0.3-0.7-0.5-1c-1.9-3.8-4.6-7.1-7.9-9.7c-5-3.9-11-6-17.4-6.1C62.3,63,55.2,66,49.8,71.4c-5.5,5.5-8.7,13.1-8.7,20.8v0.5
	c0,2.5,0.2,5.3,0.7,8.4l0.2,1.2h-2.4c-1.3,0-2.3,1-2.4,2.2l2.2,7.8l6,3.5l5.9,12.6c0.8,2.2,4.3,5,7.1,7.3c0.7,0.6,1.4,1.2,2.1,1.7
	c1.5,1.3,3.5,2,5.5,2.1h6.5c0.6,0,1,0.4,1,1s-0.4,1-1,1H66c-2.5,0-4.9-0.9-6.8-2.5c-0.6-0.5-1.3-1.1-2-1.7c-3.1-2.5-6.7-5.4-7.7-8
	l-5.6-11.9l-6.2-3.6l-2.5-9c0-2.4,2-4.4,4.4-4.4h0.1c-0.4-2.8-0.6-5.3-0.6-7.6v-0.5c0-8.2,3.4-16.3,9.3-22.2
	c5.8-5.7,13.3-8.9,21.1-8.9c0.1,0,0.1,0,0.2,0c6.8,0,13.3,2.3,18.6,6.5c3.5,2.8,6.5,6.4,8.5,10.4c0.2,0.3,0.3,0.7,0.5,1.1
	c1.8,3.8,2.7,8,2.7,12.2l0,1.3c0,2.2-0.2,4.8-0.7,7.6h0.2c1.2,0,2.2,0.5,3.1,1.3c0.8,0.8,1.2,1.9,1.2,3.1l0,0.2l-1.8,8.9l-7.2,3.6
	l-5.9,11.9c-0.5,1.3-1.8,2.8-3.1,4.1l0,13.7C85.8,147.6,85.3,148,84.8,148"/>
<path class="st1" d="M6,192l-2,0l0.1-19.3c0-5.9,3.8-7.8,9.1-9.9l31.1-10.6l5.5-10.2h4.4v2H51l-5.3,9.8l-31.8,10.9
	c-5.3,2-7.8,3.5-7.8,8L6,192z"/>
<path class="st1" d="M70,157.2l-15.9-8.9c-0.5-0.3-0.7-0.9-0.4-1.4c0.3-0.5,0.9-0.7,1.4-0.4l14.9,8.3l14.3-8
	c0.5-0.3,1.1-0.1,1.4,0.4c0.3,0.5,0.1,1.1-0.4,1.4L70,157.2z"/>
<path class="st1" d="M136,192l-2,0l0.1-19.2c0-4.8-3-6.2-8-8.1l-31.8-10.8l-6.1-9.9H85v-2h4.3l6.3,10.3l31.2,10.6
	c5.3,1.9,9.3,3.9,9.3,10L136,192z"/>
<path class="st1" d="M79,169c-0.3,0-0.5-0.1-0.7-0.3l-8.3-9.2l-8.3,9.2c-0.4,0.4-1,0.4-1.4,0.1c-0.4-0.4-0.4-1-0.1-1.4l9.7-10.8
	l9.7,10.8c0.4,0.4,0.3,1-0.1,1.4C79.5,168.9,79.2,169,79,169"/>
<path class="st1" d="M149,70.6H95.1c-0.6,0-1-0.4-1-1s0.4-1,1-1H149c0.6,0,1,0.4,1,1S149.5,70.6,149,70.6"/>
<path class="st1" d="M108,122.7c-0.6,0-1-0.4-1-1c0-0.6,0.4-1,1-1c4.9,0,9.7-2.4,13.9-6.9c0.4-0.4,1-0.4,1.4,0c0.4,0.4,0.4,1,0,1.4
	C118.8,120.1,113.4,122.7,108,122.7"/>
<path class="st1" d="M127.6,109c-0.2,0-0.4,0-0.5-0.1c-0.5-0.3-0.6-0.9-0.3-1.4c5.9-9.8,9.3-23.7,9.3-38.2c0-28.4-12.6-51.4-28-51.4
	c-13.5,0-25.1,17.7-27.5,42.2c-0.1,0.6-0.5,1-1.1,0.9c-0.5-0.1-0.9-0.5-0.9-1.1c2.5-25.5,15-44,29.5-44c16.5,0,30,24,30,53.4
	c0,14.8-3.5,29.1-9.6,39.2C128.2,108.8,127.9,109,127.6,109"/>
<path class="st1" d="M153.1,70.6c-0.6,0-1-0.4-1-1s0.4-1,1-1h0.1c0.6,0,1,0.4,1,1S153.6,70.6,153.1,70.6"/>
<path class="st1" d="M159.7,128.3c-4.1,0-9.4-1.6-15.8-4.6c-10.3-5-23.1-13.8-35.8-24.9c-0.4-0.4-0.5-1-0.1-1.4
	c0.4-0.4,1-0.5,1.4-0.1c25.7,22.4,49.2,33.8,55.7,27.2c0.4-0.4,1-0.4,1.4,0c0.4,0.4,0.4,1,0,1.4
	C164.9,127.5,162.6,128.3,159.7,128.3"/>
<path class="st1" d="M53,27.6c-0.4,0-0.8-0.3-1-0.7c-2.1-6.8-1.7-11.6,1.1-14.4c0.4-0.4,1-0.4,1.4,0c0.4,0.4,0.4,1,0,1.4
	c-2.2,2.2-2.4,6.5-0.6,12.4c0.2,0.5-0.1,1.1-0.7,1.2C53.2,27.6,53.1,27.6,53,27.6"/>
<path class="st1" d="M54,31c-0.1,0-0.3,0-0.4-0.1c-0.1-0.1-0.2-0.1-0.3-0.2C53.1,30.6,53,30.3,53,30s0.1-0.5,0.3-0.7
	c0.1-0.1,0.2-0.2,0.3-0.2c0.4-0.2,0.8-0.1,1.1,0.2c0.2,0.2,0.3,0.5,0.3,0.7s-0.1,0.5-0.3,0.7c-0.1,0.1-0.2,0.2-0.3,0.2
	C54.3,31,54.1,31,54,31"/>
<path class="st1" d="M105.7,96.6c-0.3,0-0.5-0.1-0.7-0.3c-0.2-0.2-0.3-0.4-0.3-0.7c0-0.3,0.1-0.5,0.3-0.7c0.4-0.4,1-0.4,1.4,0
	c0.2,0.2,0.3,0.4,0.3,0.7c0,0.1,0,0.1,0,0.2c0,0.1,0,0.1,0,0.2c0,0.1-0.1,0.1-0.1,0.2c0,0.1-0.1,0.1-0.1,0.2
	C106.2,96.5,105.9,96.6,105.7,96.6"/>
<path class="st4" d="M25.9,85.7v-4.3c0-2.5,1.1-4.8,2.9-6.5c3.2-3.1,5.2-7.4,5.2-12.2c0-9.7-8.1-17.5-17.9-16.9
	C7.3,46.2,0.3,53.4,0,62.1c-0.2,5.1,1.9,9.7,5.3,12.9c1.7,1.6,2.8,3.9,2.8,6.2v4.5"/>
<path class="st1" d="M17.1,96.8c-0.5,0-1-0.4-1-1c0-0.6,0.4-1,1-1l3.8,0c1-0.1,1.9-0.6,2.6-1.3c0.9-0.9,1.3-2,1.3-3.2v-4.4
	c0-0.6,0.4-1,1-1c0.6,0,1,0.4,1,1v4.4c0,1.7-0.7,3.4-1.9,4.6c-1,1-2.4,1.7-3.9,1.9l-0.1,0L17.1,96.8L17.1,96.8z"/>
<path class="st1" d="M29.1,86.7h-24c-0.6,0-1-0.4-1-1c0-0.6,0.4-1,1-1h24c0.6,0,1,0.4,1,1C30.1,86.2,29.7,86.7,29.1,86.7"/>
<path class="st1" d="M17.1,96.8h-3.5c-1.7,0-3.4-0.7-4.6-1.9c-1.2-1.2-1.9-2.9-1.9-4.6v-4c0-0.6,0.4-1,1-1c0.6,0,1,0.4,1,1v4
	c0,1.2,0.5,2.3,1.3,3.2c0.9,0.9,2,1.3,3.2,1.3h3.5c0.6,0,1,0.4,1,1C18.1,96.3,17.7,96.8,17.1,96.8"/>
<path class="st1" d="M7,55.3c-0.2,0-0.5-0.1-0.6-0.2c-0.4-0.4-0.5-1-0.1-1.4l0.1-0.2c0.4-0.4,1-0.5,1.4-0.1c0.4,0.4,0.5,1,0.1,1.4
	L7.7,55C7.5,55.2,7.3,55.3,7,55.3"/>
<path class="st1" d="M26.1,54.5c-0.3,0-0.5-0.1-0.7-0.3c-2.3-2.3-5.3-3.5-8.5-3.5c-2.3,0-4.5,0.7-6.5,1.9c-0.5,0.3-1.1,0.2-1.4-0.3
	c-0.3-0.5-0.2-1.1,0.3-1.4c2.2-1.4,4.9-2.2,7.5-2.2c3.7,0,7.3,1.5,9.9,4.1c0.4,0.4,0.4,1,0,1.4C26.6,54.4,26.4,54.5,26.1,54.5"/>
<polygon class="st1" points="20.9,85.7 18.9,85.7 18.9,75.5 24.9,61.5 24.9,59.7 26.9,59.7 26.9,61.9 20.9,75.9 "/>
<polygon class="st1" points="14.9,85.7 12.9,85.7 12.9,75.9 6.9,61.9 6.9,59.7 8.9,59.7 8.9,61.5 14.9,75.5 "/>
<path class="st1" d="M21.9,61.7h-2v-2h2V61.7z M17.9,61.7h-2v-2h2V61.7z M13.9,61.7h-2v-2h2V61.7z"/>
<path class="st1" d="M22.5,151c-3.6,0-6.5-2.9-6.5-6.5V96c0-0.6,0.4-1,1-1c0.6,0,1,0.4,1,1v48.5c0,2.5,2,4.5,4.5,4.5s4.5-2,4.5-4.5
	v-19c0-3.6,2.9-6.5,6.5-6.5s6.5,2.9,6.5,6.5v4.3c0,0.6-0.4,1-1,1c-0.6,0-1-0.4-1-1v-4.3c0-2.5-2-4.5-4.5-4.5c-2.5,0-4.5,2-4.5,4.5
	v19C29,148.1,26.1,151,22.5,151"/>
<path class="st1" d="M39,135c-0.1,0-0.1,0-0.2,0c-0.1,0-0.1,0-0.2-0.1c-0.1,0-0.1-0.1-0.2-0.1c0,0-0.1-0.1-0.1-0.1
	c-0.2-0.2-0.3-0.4-0.3-0.7c0-0.1,0-0.3,0.1-0.4s0.1-0.2,0.2-0.3c0,0,0.1-0.1,0.1-0.1c0.1,0,0.1-0.1,0.2-0.1c0.1,0,0.1-0.1,0.2-0.1
	c0.3-0.1,0.7,0,0.9,0.3c0.1,0.1,0.2,0.2,0.2,0.3s0.1,0.2,0.1,0.4c0,0.1,0,0.1,0,0.2c0,0.1,0,0.1-0.1,0.2c0,0.1,0,0.1-0.1,0.2
	c0,0.1-0.1,0.1-0.1,0.1C39.5,134.9,39.3,135,39,135"/>
<path class="st1" d="M39,139c-0.1,0-0.1,0-0.2,0c-0.1,0-0.1,0-0.2-0.1c-0.1,0-0.1-0.1-0.2-0.1c0,0-0.1-0.1-0.1-0.1
	c-0.1-0.1-0.2-0.2-0.2-0.3c0-0.1-0.1-0.2-0.1-0.4c0-0.3,0.1-0.5,0.3-0.7c0,0,0.1-0.1,0.1-0.1c0.1,0,0.1-0.1,0.2-0.1
	c0.1,0,0.1-0.1,0.2-0.1c0.3-0.1,0.7,0,0.9,0.3c0.2,0.2,0.3,0.4,0.3,0.7c0,0.1,0,0.3-0.1,0.4c0,0.1-0.1,0.2-0.2,0.3
	C39.5,138.9,39.3,139,39,139"/>
<path class="st1" d="M39,143c-0.1,0-0.1,0-0.2,0c-0.1,0-0.1,0-0.2-0.1c-0.1,0-0.1-0.1-0.2-0.1c0,0-0.1-0.1-0.1-0.1
	c-0.2-0.2-0.3-0.4-0.3-0.7c0-0.1,0-0.3,0.1-0.4s0.1-0.2,0.2-0.3l0.1-0.1c0.1,0,0.1-0.1,0.2-0.1c0.1,0,0.1-0.1,0.2-0.1
	c0.3-0.1,0.7,0,0.9,0.3c0.1,0.1,0.2,0.2,0.2,0.3s0.1,0.2,0.1,0.4c0,0.1,0,0.1,0,0.2c0,0.1,0,0.1-0.1,0.2c0,0.1,0,0.1-0.1,0.2
	c0,0.1-0.1,0.1-0.1,0.1C39.5,142.9,39.3,143,39,143"/>
<path class="st1" d="M183.9,164.6h-46.3v-29.5h46.3V164.6z M139.7,162.6h42.3v-25.5h-42.3V162.6z"/>
<path class="st1" d="M160.8,151.2c-0.2,0-0.4-0.1-0.5-0.2l-16.1-10.3c-0.5-0.3-0.6-0.9-0.3-1.4c0.3-0.5,0.9-0.6,1.4-0.3l15.6,9.9
	l14.9-9.6c0.5-0.3,1.1-0.2,1.4,0.3c0.3,0.5,0.2,1.1-0.3,1.4l-15.5,9.9C161.2,151.1,161,151.2,160.8,151.2"/>
<path class="st1" d="M179.5,161.1c-0.3,0-0.6-0.1-0.8-0.4l-8.9-10.7c-0.4-0.4-0.3-1.1,0.1-1.4c0.4-0.4,1.1-0.3,1.4,0.1l8.9,10.7
	c0.4,0.4,0.3,1.1-0.1,1.4C180,161,179.8,161.1,179.5,161.1"/>
<path class="st1" d="M142,161.1c-0.2,0-0.5-0.1-0.6-0.2c-0.4-0.4-0.5-1-0.1-1.4l8.9-10.7c0.4-0.4,1-0.5,1.4-0.1
	c0.4,0.4,0.5,1,0.1,1.4l-8.9,10.7C142.6,160.9,142.3,161.1,142,161.1"/>
<rect x="161.6" y="166.5" class="st1" width="2" height="14"/>
<path class="st1" d="M162.6,183.9c-0.3,0-0.5-0.1-0.7-0.3c-0.2-0.2-0.3-0.4-0.3-0.7c0-0.3,0.1-0.5,0.3-0.7c0.4-0.4,1-0.4,1.4,0
	c0.2,0.2,0.3,0.4,0.3,0.7c0,0.3-0.1,0.5-0.3,0.7C163.2,183.8,162.9,183.9,162.6,183.9"/>
<rect x="170.3" y="166.5" class="st1" width="2" height="5.3"/>
<path class="st1" d="M171.3,175.2c-0.1,0-0.3,0-0.4-0.1c-0.1-0.1-0.2-0.1-0.3-0.2c-0.2-0.2-0.3-0.4-0.3-0.7c0-0.1,0-0.3,0.1-0.4
	c0.1-0.1,0.1-0.2,0.2-0.3c0.1-0.1,0.2-0.2,0.3-0.2c0.4-0.2,0.8-0.1,1.1,0.2c0.1,0.1,0.2,0.2,0.2,0.3c0.1,0.1,0.1,0.2,0.1,0.4
	c0,0.3-0.1,0.5-0.3,0.7C171.9,175.1,171.6,175.2,171.3,175.2"/>
<rect x="152.9" y="166.5" class="st1" width="2" height="8.2"/>
<path class="st1" d="M153.9,178.1c-0.1,0-0.1,0-0.2,0c-0.1,0-0.1,0-0.2-0.1c-0.1,0-0.1-0.1-0.2-0.1c0,0-0.1-0.1-0.2-0.1
	c-0.2-0.2-0.3-0.4-0.3-0.7c0-0.3,0.1-0.5,0.3-0.7c0.1-0.1,0.1-0.1,0.2-0.1c0.1,0,0.1-0.1,0.2-0.1c0.1,0,0.1,0,0.2-0.1
	c0.1,0,0.3,0,0.4,0c0.1,0,0.1,0,0.2,0.1c0.1,0,0.1,0.1,0.2,0.1c0.1,0,0.1,0.1,0.1,0.1c0.1,0.1,0.2,0.2,0.2,0.3
	c0.1,0.1,0.1,0.2,0.1,0.4c0,0.1,0,0.3-0.1,0.4c-0.1,0.1-0.1,0.2-0.2,0.3c0,0.1-0.1,0.1-0.1,0.1c-0.1,0-0.1,0.1-0.2,0.1
	c-0.1,0-0.1,0-0.2,0.1C154.1,178.1,154,178.1,153.9,178.1"/>
<path class="st5" d="M155.2,37c-0.4,0-0.8-0.1-1.2-0.2c-2.1-0.7-3.2-2.9-2.6-5h0c0.7-2.1,3-3.2,5-2.5c2.1,0.7,3.2,2.9,2.6,5
	c0,0,0,0,0,0h0C158.4,36,156.9,37,155.2,37 M153.3,32.4c-0.3,1,0.3,2.2,1.3,2.5c1,0.3,2.2-0.2,2.5-1.3c0.3-1-0.2-2.2-1.3-2.5
	C154.7,30.8,153.6,31.4,153.3,32.4"/>
<path class="st5" d="M158.2,50.4l-6.1,0l0-3.2c0-0.8-0.6-1.3-1.1-1.5c-0.5-0.2-1.2-0.1-1.7,0.6l-1.9,2.6l-4.9-3.6l1.9-2.6
	c0.5-0.7,0.3-1.4,0-1.8c-0.3-0.4-0.9-0.8-1.7-0.6l-3.1,1l-1.9-5.8l3.1-1c0.8-0.3,1.1-0.9,1.1-1.5c0-0.5-0.3-1.2-1.1-1.5l-3.1-1
	l1.9-5.7l3.1,1c0.8,0.3,1.4-0.1,1.7-0.6c0.3-0.4,0.5-1.1,0-1.8l-1.9-2.6l4.9-3.6l1.9,2.6c0.5,0.7,1.2,0.7,1.7,0.6
	c0.5-0.2,1.1-0.6,1.1-1.5l0-3.2l6.1,0l0,3.2c0,0.8,0.6,1.3,1.1,1.5c0.5,0.2,1.2,0.1,1.7-0.6l1.9-2.6l4.9,3.6l-1.9,2.6
	c-0.5,0.7-0.3,1.4,0,1.8c0.3,0.4,0.9,0.8,1.7,0.6l3.1-1l1.9,5.8l-3.1,1c-0.8,0.3-1.1,0.9-1.1,1.5c0,0.5,0.3,1.2,1.1,1.5l3.1,1
	l-1.9,5.7l-3.1-1c-0.8-0.3-1.4,0.1-1.7,0.6c-0.3,0.4-0.5,1.1,0,1.8l1.9,2.6l-4.9,3.6l-1.9-2.6c-0.5-0.7-1.2-0.7-1.7-0.6
	c-0.5,0.2-1.1,0.6-1.1,1.5L158.2,50.4z M154.1,48.3l2.1,0l0-1.2c0-1.6,1-2.9,2.5-3.4c1.5-0.5,3,0,4,1.3l0.7,1l1.7-1.2l-0.7-1
	c-0.9-1.3-0.9-2.9,0-4.2c0.9-1.3,2.5-1.8,4-1.3l1.2,0.4l0.6-1.9l-1.2-0.4c-1.5-0.5-2.4-1.8-2.4-3.4c0-1.6,1-2.9,2.5-3.4l1.2-0.4
	l-0.6-2l-1.2,0.4c-1.5,0.5-3,0-4-1.3c-0.9-1.3-0.9-2.9,0-4.2l0.7-1l-1.7-1.2l-0.7,1c-0.9,1.3-2.5,1.8-4,1.3
	c-1.5-0.5-2.4-1.8-2.4-3.4l0-1.2l-2.1,0l0,1.2c0,1.6-1,2.9-2.5,3.4c-1.5,0.5-3,0-4-1.3l-0.7-1l-1.7,1.2l0.7,1c0.9,1.3,0.9,2.9,0,4.2
	c-0.9,1.3-2.5,1.8-4,1.3l-1.2-0.4l-0.6,1.9l1.2,0.4c1.5,0.5,2.4,1.8,2.4,3.4c0,1.6-1,2.9-2.5,3.4l-1.2,0.4l0.6,2l1.2-0.4
	c1.5-0.5,3,0,4,1.3c0.9,1.3,0.9,2.9,0,4.2l-0.7,1L147,46l0.7-1c0.9-1.3,2.5-1.8,4-1.3c1.5,0.5,2.4,1.8,2.4,3.4L154.1,48.3z"/>
<path class="st0" d="M155.2,41.1c-0.8,0-1.7-0.1-2.5-0.4c-2.1-0.7-3.7-2.1-4.7-4c-1-1.9-1.1-4.1-0.5-6.1l0,0c1.4-4.3,6-6.6,10.2-5.2
	c4.3,1.4,6.6,6,5.2,10.2h0c-0.7,2-2.1,3.7-4,4.7C157.7,40.9,156.5,41.1,155.2,41.1 M149.4,31.1L149.4,31.1c-0.5,1.6-0.4,3.2,0.4,4.7
	c0.7,1.5,2,2.5,3.6,3c1.6,0.5,3.2,0.4,4.7-0.4c1.5-0.7,2.5-2,3-3.6h0c0.5-1.5,0.3-3.2-0.4-4.6c-0.7-1.5-2-2.5-3.6-3
	C153.9,26.2,150.4,27.9,149.4,31.1"/>
<path class="st4" d="M29,29c0,1.7-1.3,3-3,3c-1.7,0-3-1.3-3-3s1.3-3,3-3C27.7,26,29,27.4,29,29"/>
<path class="st5" d="M172,97c-2.2,0-4-1.8-4-4c0-2.2,1.8-4,4-4c2.2,0,4,1.8,4,4C176,95.2,174.2,97,172,97 M172,91c-1.1,0-2,0.9-2,2
	c0,1.1,0.9,2,2,2c1.1,0,2-0.9,2-2C174,91.9,173.1,91,172,91"/>
<path class="st4" d="M92,2c0,1.1-0.9,2-2,2c-1.1,0-2-0.9-2-2s0.9-2,2-2C91.1,0,92,0.9,92,2"/>
<rect x="42.5" y="32.5" class="st1" width="2" height="4"/>
<rect x="42.5" y="42.5" class="st1" width="2" height="4"/>
<rect x="46.5" y="38.5" class="st1" width="4" height="2"/>
<rect x="36.5" y="38.5" class="st1" width="4" height="2"/>
<path class="st1" d="M110.1,141.2c-2.2,0-4-1.8-4-4c0-2.2,1.8-4,4-4s4,1.8,4,4C114.1,139.4,112.3,141.2,110.1,141.2 M110.1,135.2
	c-1.1,0-2,0.9-2,2s0.9,2,2,2c1.1,0,2-0.9,2-2S111.2,135.2,110.1,135.2"/>
<path class="st1" d="M120.1,151.2c-2.2,0-4-1.8-4-4c0-2.2,1.8-4,4-4s4,1.8,4,4C124.1,149.4,122.3,151.2,120.1,151.2 M120.1,145.2
	c-1.1,0-2,0.9-2,2s0.9,2,2,2c1.1,0,2-0.9,2-2S121.2,145.2,120.1,145.2"/>
<rect x="105.2" y="141.2" transform="matrix(0.7071 -0.7071 0.7071 0.7071 -66.8018 123.0426)" class="st1" width="19.8" height="2"/>
</svg>
