<?xml version="1.0" encoding="utf-8"?>
<!-- Generator: Adobe Illustrator 21.1.0, SVG Export Plug-In . SVG Version: 6.00 Build 0)  -->
<svg version="1.1" id="Layer_1" xmlns="http://www.w3.org/2000/svg" xmlns:xlink="http://www.w3.org/1999/xlink" x="0px" y="0px"
	 viewBox="0 0 191.9 192.4" style="enable-background:new 0 0 191.9 192.4;" xml:space="preserve">
<style type="text/css">
	.st0{fill:#DFE0E0;}
	.st1{fill:#48515A;}
	.st2{fill:#74CEDF;}
	.st3{fill:#475059;}
	.st4{fill:#F68E71;}
	.st5{fill:#D5D892;}
	.st6{fill:#6F7173;}
</style>
<g>
	<path class="st0" d="M108.4,68.4c2.9,7.9,8,14.6,14.7,19.5c1.5-1.6,2.5-3.7,2.7-6C118.9,78.9,112.9,74.3,108.4,68.4L108.4,68.4z"/>
	<path class="st0" d="M181.4,28.6c1.6,4.5,2.5,9.4,2.5,14.4c0,23.2-18.8,42-42,42c-2.1,0-4.2-0.2-6.2-0.5c-2.4,2.6-5.5,4.6-9,5.6
		c1.7,1,3.4,1.9,5.2,2.6c-0.5,5.2-4.8,9.2-10.1,9.2h5.1c5.9,0,11.2-2.5,14.9-6.5c2,0.3,4.1,0.5,6.2,0.5c23.2,0,42-18.8,42-42
		C189.9,44.4,186.7,35.6,181.4,28.6L181.4,28.6z"/>
	<path class="st0" d="M76.7,80.6c0.3,1.2,0.3,2.4,0,3.6l-4.6,19.1c0,2.8,2.3,5.1,5.1,5.1h10c-2.8,0-5.1-2.3-5.1-5.1l4.6-19.1
		c0.3-1.2,0.3-2.4,0-3.6l-2.1-8c-1.5-5.8-6.7-9.8-12.7-9.8v4.7c1.2,1.5,2.2,3.2,2.7,5.2L76.7,80.6L76.7,80.6z"/>
	<path class="st0" d="M114.7,123.6h0.4c4.3,0,7.8-3.6,7.6-8c-0.2-4.1-3.9-7.2-8-7.2h-10c4.1,0,7.8,3.1,8,7.2c0.2,4.4-3.3,8-7.6,8
		h-0.4c4.1,0,7.8,3.1,8,7.2c0.2,4.1-2.9,7.6-6.9,8c-0.2,0-3,0-3.3,0c4.7,0,8.3,4.2,7.5,9c-0.6,3.6-4,6.1-7.7,6.2v0.4
		c3.2,1,5.4,4.1,5.2,7.6c-0.2,4.1-3.9,7.2-8,7.2h5c4.1,0,7.8-3.1,8-7.2c0.2-4.4-3.3-8-7.6-8h7.2c3.8,0,7.3-2.5,7.9-6.2
		c0.9-4.8-2.8-9-7.5-9c0.3,0,3,0,3.3,0c4-0.4,7.1-3.9,6.9-8C122.5,126.7,118.8,123.6,114.7,123.6L114.7,123.6z"/>
	<path class="st1" d="M115.1,124.6h-12.7c-0.6,0-1-0.4-1-1c0-0.6,0.4-1,1-1h12.7c0.6,0,1,0.4,1,1
		C116.1,124.2,115.6,124.6,115.1,124.6L115.1,124.6z"/>
	<path class="st1" d="M115.1,139.8h-12.7c-0.6,0-1-0.4-1-1c0-0.6,0.4-1,1-1h12.7c0.6,0,1,0.4,1,1
		C116.1,139.4,115.6,139.8,115.1,139.8L115.1,139.8z"/>
	<path class="st1" d="M104.9,155.1h-2.5c-0.6,0-1-0.4-1-1c0-0.6,0.4-1,1-1h2.5c0.6,0,1,0.4,1,1C105.9,154.6,105.5,155.1,104.9,155.1
		L104.9,155.1z"/>
	<path class="st1" d="M95.2,116.6c-0.3,0-0.5-0.1-0.7-0.3c-0.2-0.2-0.3-0.4-0.3-0.7c0-0.3,0.1-0.5,0.3-0.7c0.4-0.4,1.1-0.4,1.4,0
		c0.2,0.2,0.3,0.4,0.3,0.7c0,0.3-0.1,0.5-0.3,0.7C95.8,116.5,95.5,116.6,95.2,116.6L95.2,116.6z"/>
	<path class="st1" d="M95.2,131.8c-0.3,0-0.5-0.1-0.7-0.3c-0.2-0.2-0.3-0.4-0.3-0.7c0-0.3,0.1-0.5,0.3-0.7c0.4-0.4,1.1-0.4,1.4,0
		c0.2,0.2,0.3,0.4,0.3,0.7c0,0.3-0.1,0.5-0.3,0.7C95.8,131.7,95.5,131.8,95.2,131.8L95.2,131.8z"/>
	<path class="st1" d="M95.2,147.1c-0.3,0-0.5-0.1-0.7-0.3c-0.2-0.2-0.3-0.4-0.3-0.7c0-0.1,0-0.3,0.1-0.4c0.1-0.1,0.1-0.2,0.2-0.3
		c0.4-0.4,1.1-0.4,1.4,0c0.1,0.1,0.2,0.2,0.2,0.3c0,0.1,0.1,0.2,0.1,0.4c0,0.3-0.1,0.5-0.3,0.7C95.8,147,95.5,147.1,95.2,147.1
		L95.2,147.1z"/>
	<polygon class="st2" points="0,105.9 33.9,105.9 33.9,175 0,175 0,105.9 	"/>
	<polygon class="st1" points="158.9,33.9 124.9,33.9 124.9,31.9 158.9,31.9 158.9,33.9 	"/>
	<polygon class="st1" points="158.9,38.1 124.9,38.1 124.9,36.1 158.9,36.1 158.9,38.1 	"/>
	<path class="st1" d="M95.2,162.1c-0.3,0-0.5-0.1-0.7-0.3c-0.2-0.2-0.3-0.4-0.3-0.7c0-0.3,0.1-0.5,0.3-0.7c0.4-0.4,1.1-0.4,1.4,0
		c0.2,0.2,0.3,0.4,0.3,0.7c0,0.3-0.1,0.5-0.3,0.7C95.8,162,95.5,162.1,95.2,162.1L95.2,162.1z"/>
	<path class="st1" d="M27.3,162c-1.1,0-2,0.9-2,2c0,1.1,0.9,2,2,2c1.1,0,2-0.9,2-2C29.3,162.9,28.4,162,27.3,162L27.3,162z
		 M27.3,168c-2.2,0-4-1.8-4-4c0-2.2,1.8-4,4-4c2.2,0,4,1.8,4,4C31.3,166.2,29.5,168,27.3,168L27.3,168z"/>
	<path class="st1" d="M27.3,161.7c-0.6,0-1-0.4-1-1V152c0-0.6,0.4-1,1-1c0.6,0,1,0.4,1,1v8.7C28.3,161.3,27.9,161.7,27.3,161.7
		L27.3,161.7z"/>
	<path class="st1" d="M141.9,2c-22.6,0-41,18.4-41,41c0,16.6,9.9,31.5,25.3,37.9c0.4,0.2,0.7,0.6,0.6,1c-0.3,3.4-2.1,6.3-4.6,8.1
		c4.9-0.3,9.3-2.5,12.7-6.1c0.2-0.2,0.6-0.4,0.9-0.3c2,0.3,4.1,0.5,6.1,0.5c22.6,0,41-18.4,41-41S164.5,2,141.9,2L141.9,2z
		 M120.8,92h-5.1c-0.6,0-1-0.4-1-1s0.4-1,1-1c4.5,0,8.3-3.2,9-7.6C109,75.6,98.9,60.2,98.9,43c0-23.7,19.3-43,43-43
		c23.7,0,43,19.3,43,43c0,23.7-19.3,43-43,43c-1.9,0-3.9-0.1-5.9-0.4C132,89.7,126.5,92,120.8,92L120.8,92z"/>
	<polygon class="st1" points="158.9,42.1 124.9,42.1 124.9,40.1 158.9,40.1 158.9,42.1 	"/>
	<polygon class="st1" points="150.1,57.4 146.3,53.6 147.7,52.2 150.1,54.6 159.2,45.5 160.6,46.9 150.1,57.4 	"/>
	<polygon class="st1" points="136.2,57.7 128.2,49.7 129.6,48.3 137.6,56.3 136.2,57.7 	"/>
	<polygon class="st1" points="129.6,57.7 128.2,56.3 136.2,48.3 137.6,49.7 129.6,57.7 	"/>
	<path class="st1" d="M126.9,59h12V47h-12V59L126.9,59z M140.9,61h-16V45h16V61L140.9,61z"/>
	<polygon class="st1" points="158.9,61 142.9,61 142.9,45 155.7,45 155.7,47 144.9,47 144.9,59 156.9,59 156.9,52.1 158.9,52.1 
		158.9,61 	"/>
	<path class="st3" d="M137.3,155.3l1.5,9l-0.2,0.3c-1.2,2.3-1.9,4.8-2,7.5c-0.2,4.6,1.4,8.9,4.5,12.3c3.1,3.4,7.3,5.3,11.9,5.5
		c9.4,0.4,17.4-7,17.8-16.5c0.4-9.4-7-17.4-16.5-17.8c-2.6-0.1-5.2,0.4-7.6,1.4l-0.3,0.1L137.3,155.3L137.3,155.3z M153.8,191.9
		c-0.2,0-0.5,0-0.8,0c-5.1-0.2-9.8-2.4-13.3-6.1c-3.5-3.8-5.3-8.6-5.1-13.7c0.1-2.8,0.8-5.5,2.1-8l-1.9-11.3l11.4,2.4
		c2.6-1.1,5.3-1.6,8.2-1.5c10.5,0.4,18.8,9.3,18.4,19.9C172.5,183.8,164,191.9,153.8,191.9L153.8,191.9z"/>
	<path class="st4" d="M162.6,173.9c0.8-0.9,1.2-2.1,1.2-3.4c0-3-2.4-5.5-5.5-5.5c-1.9,0-3.5,0.9-4.5,2.4c-1-1.4-2.6-2.4-4.5-2.4
		c-3,0-5.5,2.4-5.5,5.5c0,1.3,0.5,2.5,1.2,3.4l0,0c0.2,0.3,8.7,9,8.7,9S162.4,174.1,162.6,173.9L162.6,173.9L162.6,173.9z"/>
	<path class="st4" d="M149.4,166c-2.5,0-4.5,2-4.5,4.5c0,1,0.3,2,1,2.8c0.3,0.3,4.7,4.8,8,8.2c3.3-3.4,7.6-7.8,8-8.2l0,0
		c0.6-0.8,1-1.8,1-2.8c0-2.5-2-4.5-4.5-4.5c-1.5,0-2.8,0.7-3.7,1.9l-0.8,1.2l-0.8-1.2C152.2,166.7,150.8,166,149.4,166L149.4,166z
		 M153.9,184.4l-0.7-0.7c-3.2-3.3-8.6-8.9-8.8-9.1c-0.9-1.2-1.4-2.6-1.4-4.1c0-3.6,2.9-6.5,6.5-6.5c1.7,0,3.3,0.7,4.5,1.8
		c1.2-1.2,2.8-1.8,4.5-1.8c3.6,0,6.5,2.9,6.5,6.5c0,1.5-0.5,2.9-1.4,4l0,0c-0.4,0.5-5.7,5.9-8.8,9.1L153.9,184.4L153.9,184.4z"/>
	<path class="st5" d="M65.8,23.9l2.7,5.4l5.9,0.9c1.6,0.2,2.3,2.3,1.1,3.4l-4.3,4.2l1,5.9c0.3,1.6-1.4,2.9-2.9,2.1L64,43l-5.3,2.8
		c-1.5,0.8-3.2-0.5-2.9-2.1l1-5.9l-4.3-4.2c-1.2-1.2-0.5-3.2,1.1-3.4l5.9-0.9l2.7-5.4C62.9,22.4,65,22.4,65.8,23.9L65.8,23.9z"/>
	<path class="st5" d="M64,23.3c-0.6,0-1.1,0.3-1.3,0.8l-2.8,5.6l-6.2,0.9c-0.6,0.1-1,0.5-1.2,1c-0.2,0.6,0,1.1,0.4,1.5l4.5,4.4
		l-1.1,6.2c-0.1,0.6,0.1,1.1,0.6,1.5c0.5,0.3,1.1,0.4,1.6,0.1l5.5-2.9l5.5,2.9c0.5,0.3,1.1,0.2,1.6-0.1c0.5-0.3,0.7-0.9,0.6-1.5
		l-1.1-6.2l4.5-4.4c0.4-0.4,0.6-1,0.4-1.5c-0.2-0.6-0.6-0.9-1.2-1l-6.2-0.9l-2.8-5.6C65.1,23.6,64.6,23.3,64,23.3L64,23.3z
		 M57.7,46.5c-0.5,0-1-0.2-1.5-0.5c-0.8-0.6-1.2-1.5-1-2.4l1-5.6l-4.1-4c-0.7-0.7-0.9-1.7-0.6-2.6c0.3-0.9,1.1-1.6,2-1.7l5.7-0.8
		l2.5-5.1c0.4-0.9,1.3-1.4,2.2-1.4c1,0,1.8,0.5,2.2,1.4l2.5,5.1l5.7,0.8c0.9,0.1,1.7,0.8,2,1.7c0.3,0.9,0.1,1.9-0.6,2.6l-4.1,4
		l1,5.6c0.2,0.9-0.2,1.9-1,2.4c-0.8,0.6-1.8,0.6-2.6,0.2L64,43.5l-5.1,2.7C58.5,46.4,58.1,46.5,57.7,46.5L57.7,46.5z"/>
	<path class="st4" d="M173.4,115c-9.1,0-16.5,7.4-16.5,16.5c0,9.1,7.4,16.5,16.5,16.5c9.1,0,16.5-7.4,16.5-16.5
		C189.9,122.4,182.5,115,173.4,115L173.4,115z M173.4,150c-10.2,0-18.5-8.3-18.5-18.5c0-10.2,8.3-18.5,18.5-18.5
		c10.2,0,18.5,8.3,18.5,18.5C191.9,141.7,183.6,150,173.4,150L173.4,150z"/>
	<path class="st6" d="M169,126.6c-0.4-0.7-1.1-1.1-1.8-1.1c-0.8,0-1.4,0.4-1.8,1.1l-1.7-1c0.7-1.3,2.1-2.1,3.5-2.1
		c1.4,0,2.8,0.8,3.5,2.1L169,126.6L169,126.6z"/>
	<path class="st6" d="M181.4,126.6c-0.4-0.7-1.1-1.1-1.8-1.1c-0.8,0-1.4,0.4-1.8,1.1l-1.7-1c0.7-1.3,2.1-2.1,3.5-2.1
		c1.4,0,2.8,0.8,3.5,2.1L181.4,126.6L181.4,126.6z"/>
	<path class="st6" d="M164.4,133.5c0.5,4.5,4.3,8,8.9,8s8.4-3.5,8.9-8H164.4L164.4,133.5z M173.4,143.5c-6.1,0-11-4.9-11-11v-1h22v1
		C184.4,138.6,179.5,143.5,173.4,143.5L173.4,143.5z"/>
	<path class="st3" d="M49.2,81.5l-1.9-0.6l0.3-1l-1.3-0.4c-1.5-0.5-2.5-1.9-2.5-3.5c0-1.6,1-3,2.5-3.5l1.3-0.4l-0.7-2.2l-1.3,0.4
		c-1.5,0.5-3.2,0-4.1-1.3c-1-1.3-0.9-3,0-4.3l0.8-1.1l-1.8-1.3l-0.8,1.1c-1,1.3-2.6,1.8-4.1,1.3c-1.5-0.5-2.5-1.9-2.5-3.5l0-1.3
		l-2.3,0l0,1.3c0,1.6-1,3-2.5,3.5c-1.5,0.5-3.2,0-4.1-1.3l-0.8-1.1l-1.8,1.3l0.8,1.1c1,1.3,0.9,3,0,4.3c-1,1.3-2.6,1.8-4.1,1.3
		l-1.3-0.4l-0.3,1l-1.9-0.6l1-2.9l3.2,1c0.9,0.3,1.5-0.1,1.9-0.6c0.3-0.5,0.5-1.2,0-2l-2-2.7l5.1-3.7l2,2.7c0.5,0.7,1.3,0.8,1.9,0.6
		c0.6-0.2,1.2-0.7,1.2-1.6l0-3.3l6.3,0l0,3.3c0,0.9,0.6,1.4,1.2,1.6c0.6,0.2,1.3,0.1,1.9-0.6l2-2.7l5.1,3.7l-2,2.7
		c-0.5,0.7-0.3,1.5,0,2c0.3,0.5,1,0.9,1.9,0.6l3.2-1l1.9,6l-3.2,1c-0.9,0.3-1.2,1-1.2,1.6c0,0.6,0.3,1.3,1.2,1.6l3.2,1L49.2,81.5
		L49.2,81.5z"/>
	<path class="st4" d="M40,78.6l-1.9-0.6c0.5-1.6,0.4-3.4-0.4-4.9c-0.8-1.5-2.1-2.7-3.8-3.2c-3.4-1.1-7.1,0.8-8.2,4.2l-1.9-0.6
		c1.4-4.4,6.2-6.9,10.7-5.4c2.2,0.7,3.9,2.2,4.9,4.2C40.5,74.1,40.7,76.4,40,78.6L40,78.6z"/>
	<path class="st4" d="M32,84.3c-0.9,0-1.8-0.1-2.6-0.4c-4.4-1.4-6.9-6.2-5.4-10.7l1.9,0.6c-1.1,3.4,0.8,7.1,4.1,8.2
		c3.4,1.1,7.1-0.8,8.2-4.1l1.9,0.6c-0.7,2.2-2.2,3.9-4.2,4.9C34.6,84,33.3,84.3,32,84.3L32,84.3z"/>
	<path class="st3" d="M35.1,94l-6.3,0l0-3.3c0-0.9-0.6-1.4-1.2-1.6c-0.6-0.2-1.3-0.1-1.9,0.6l-2,2.7l-5.1-3.7l2-2.7
		c0.5-0.7,0.3-1.5,0-2c-0.3-0.5-1-0.9-1.9-0.6l-3.2,1l-1.9-6l3.2-1c0.9-0.3,1.2-1,1.2-1.6c0-0.6-0.3-1.3-1.2-1.6l-3.2-1l1.1-3.3
		l1.9,0.6l-0.4,1.4l1.3,0.4c1.5,0.5,2.5,1.9,2.5,3.5c0,1.6-1,3-2.5,3.5l-1.3,0.4l0.7,2.2l1.3-0.4c1.5-0.5,3.2,0,4.1,1.3
		c1,1.3,0.9,3,0,4.3l-0.8,1.1l1.8,1.3l0.8-1.1c1-1.3,2.6-1.8,4.1-1.3c1.5,0.5,2.5,1.9,2.5,3.5l0,1.3l2.3,0l0-1.3c0-1.6,1-3,2.5-3.5
		c1.5-0.5,3.2,0,4.1,1.3l0.8,1.1l1.8-1.3l-0.8-1.1c-1-1.3-0.9-3,0-4.3c1-1.3,2.6-1.8,4.1-1.3l1.3,0.4l0.5-1.5l1.9,0.6l-1.1,3.4
		l-3.2-1c-0.8-0.3-1.5,0.1-1.9,0.6c-0.3,0.5-0.5,1.2,0,2l2,2.7l-5.1,3.7l-2-2.7c-0.5-0.7-1.3-0.8-1.9-0.6c-0.6,0.2-1.2,0.7-1.2,1.6
		L35.1,94L35.1,94z"/>
	<path class="st5" d="M35.9,76c0,2.2-1.8,4-4,4c-2.2,0-4-1.8-4-4s1.8-4,4-4C34.1,72,35.9,73.8,35.9,76L35.9,76z"/>
	<path class="st5" d="M31.9,72.5c-1.9,0-3.5,1.6-3.5,3.5s1.6,3.5,3.5,3.5s3.5-1.6,3.5-3.5S33.8,72.5,31.9,72.5L31.9,72.5z
		 M31.9,80.5c-2.5,0-4.5-2-4.5-4.5s2-4.5,4.5-4.5c2.5,0,4.5,2,4.5,4.5S34.4,80.5,31.9,80.5L31.9,80.5z"/>
	<polygon class="st1" points="27.9,20 25.9,20 25.9,16 27.9,16 27.9,20 	"/>
	<polygon class="st1" points="27.9,30 25.9,30 25.9,26 27.9,26 27.9,30 	"/>
	<polygon class="st1" points="33.9,24 29.9,24 29.9,22 33.9,22 33.9,24 	"/>
	<polygon class="st1" points="23.9,24 19.9,24 19.9,22 23.9,22 23.9,24 	"/>
	<path class="st1" d="M62.2,166.1c-3.5-0.8-6.9-1.7-10.3-2.8c-0.1,0-0.2-0.1-0.3-0.1h-9.2v2h9c3.8,1.3,7.8,2.3,11.7,3.1L62.2,166.1
		L62.2,166.1z"/>
	<path class="st1" d="M123.7,130.8c-0.2-3-2-5.7-4.7-7.1c0.9-0.4,1.7-1,2.4-1.8c1.6-1.7,2.5-4,2.4-6.4c-0.2-4.5-4.3-8.2-9-8.2H87.2
		c-2.2,0-4-1.8-4.1-4l4.6-19c0.3-1.3,0.3-2.8,0-4.1l-2.1-8C84,66,78.4,61.7,71.9,61.7c-0.6,0-1,0.4-1,1v15l-11.4,29.6
		c-0.6,1.6-2.1,2.6-3.8,2.6H42.5v2h13.3c2.5,0,4.8-1.6,5.7-3.9l11.4-29.7c0-0.1,0.1-0.2,0.1-0.4V63.7c5.1,0.4,9.4,4,10.7,9l2.1,8
		c0.3,1,0.3,2.1,0,3.1l-4.6,19.1c0,0.1,0,0.2,0,0.2c0,3.4,2.7,6.1,6.1,6.1h27.5c3.7,0,6.9,2.8,7,6.3c0.1,1.8-0.5,3.6-1.8,4.9
		c-1.3,1.3-3,2.1-4.8,2.1h-0.4c-0.6,0-1,0.4-1,1c0,0.6,0.4,1,1,1c3.7,0,6.9,2.8,7,6.3c0.2,3.5-2.4,6.6-5.9,6.9c-0.2,0-2.2,0-2.8,0
		l-0.3,0c-0.6,0-1.1,0.4-1.1,1c0,0.6,0.4,1,1,1h0.1c1.9,0,3.7,0.9,5,2.4c1.3,1.5,1.8,3.5,1.4,5.5c-0.5,3.1-3.5,5.4-6.9,5.4h-7.2
		c-0.6,0-1,0.4-1,1c0,0.6,0.4,1,1,1c1.8,0,3.5,0.7,4.8,2.1c1.3,1.3,1.9,3.1,1.8,4.9c-0.2,3.5-3.3,6.3-7,6.3H82.9
		c-1.6,0-3.2-0.1-4.8-0.1l5,2.1h21.5c4.7,0,8.8-3.7,9-8.2c0.1-2.4-0.7-4.7-2.4-6.4c-0.2-0.2-0.5-0.5-0.7-0.7h1.7c4.4,0,8.2-3,8.9-7
		c0.5-2.6-0.2-5.2-1.9-7.1c-0.5-0.5-1-1-1.5-1.4C121.3,138.3,123.9,134.8,123.7,130.8L123.7,130.8z"/>
	<path class="st1" d="M61.7,162.3l10.5,25.3l4.5-9l8.4,8.4l1.4-1.4l-8.4-8.4l7.7-4.6L61.7,162.3L61.7,162.3z M72,192.4l-14-33.9
		l32.1,13.7l-8.8,5.3l8,8l-4.2,4.2l-7.8-7.8L72,192.4L72,192.4z"/>
	<path class="st2" d="M149.9,107c0,1.7-1.3,3-3,3c-1.7,0-3-1.3-3-3s1.3-3,3-3C148.5,104,149.9,105.3,149.9,107L149.9,107z"/>
	<path class="st2" d="M183.9,92c0,1.1-0.9,2-2,2c-1.1,0-2-0.9-2-2c0-1.1,0.9-2,2-2C183,90,183.9,90.9,183.9,92L183.9,92z"/>
	<polygon class="st1" points="163.9,94 161.9,94 161.9,90 163.9,90 163.9,94 	"/>
	<polygon class="st1" points="163.9,104 161.9,104 161.9,100 163.9,100 163.9,104 	"/>
	<polygon class="st1" points="169.9,98 165.9,98 165.9,96 169.9,96 169.9,98 	"/>
	<polygon class="st1" points="159.9,98 155.9,98 155.9,96 159.9,96 159.9,98 	"/>
	<polygon class="st1" points="93.9,10 91.9,10 91.9,6 93.9,6 93.9,10 	"/>
	<polygon class="st1" points="93.9,20 91.9,20 91.9,16 93.9,16 93.9,20 	"/>
	<polygon class="st1" points="99.9,14 95.9,14 95.9,12 99.9,12 99.9,14 	"/>
	<polygon class="st1" points="89.9,14 85.9,14 85.9,12 89.9,12 89.9,14 	"/>
	<path class="st1" d="M136.2,131.8c0.2,0,0.3,0,0.5,0.1l2.8,1.5l1.1-0.2l-1,0.2l-0.5-3.2c-0.1-0.3,0.1-0.7,0.3-0.9l2.3-2.2l0.1-1.1
		l-0.1,1l-3.2-0.5c-0.3,0-0.6-0.3-0.8-0.5l-1.4-2.9c0,0,0,0-0.1,0l-1.5,2.9c-0.1,0.3-0.4,0.5-0.8,0.5l-3.2,0.5l-0.7,0.8l0.7-0.7
		l2.3,2.2c0.2,0.2,0.3,0.6,0.3,0.9l-0.5,3.2l0.1,0.1l2.8-1.5C135.9,131.9,136,131.8,136.2,131.8L136.2,131.8z M132.9,135.4
		c-0.4,0-0.9-0.1-1.2-0.4c-0.6-0.5-1-1.2-0.8-2l0.5-2.7l-1.9-1.9c-0.6-0.6-0.8-1.4-0.5-2.1c0.2-0.8,0.9-1.3,1.7-1.4l2.7-0.4l1.2-2.4
		c0.4-0.7,1.1-1.2,1.9-1.2c0.8,0,1.5,0.4,1.9,1.2l0,0l1.2,2.4l2.7,0.4c0.8,0.1,1.4,0.7,1.7,1.4c0.2,0.8,0,1.6-0.5,2.1l-1.9,1.9
		l0.5,2.7c0.1,0.8-0.2,1.6-0.8,2c-0.6,0.5-1.5,0.5-2.2,0.2l-2.4-1.3l-2.4,1.3C133.5,135.4,133.2,135.4,132.9,135.4L132.9,135.4z"/>
	<polygon class="st1" points="42.9,171 33.9,171 33.9,169 40.9,169 40.9,108.8 33.9,108.8 33.9,106.8 42.9,106.8 42.9,171 	"/>
</g>
</svg>
