<?xml version="1.0" encoding="utf-8"?>
<!-- Generator: Adobe Illustrator 21.1.0, SVG Export Plug-In . SVG Version: 6.00 Build 0)  -->
<svg version="1.1" id="Layer_1" xmlns="http://www.w3.org/2000/svg" xmlns:xlink="http://www.w3.org/1999/xlink" x="0px" y="0px"
	 viewBox="0 0 182.6 192" style="enable-background:new 0 0 182.6 192;" xml:space="preserve">
<style type="text/css">
	.st0{fill:#D5D892;}
	.st1{fill:#475059;}
	.st2{fill:#48515A;}
	.st3{fill:#5FE0ED;}
	.st4{fill:#F58E70;}
</style>
<path class="st0" d="M57.9,97.8c-2.3-1.8-5.3-3-8.5-3h-4.1c-12,0-21.8-9.8-21.8-21.8V45.7c0-5.2,4.2-9.4,9.4-9.4
	c5.2,0,9.4,4.2,9.4,9.4v7.6c0,4.3,3.5,7.7,7.7,7.7h0.2c1.9,0,3.6,1.2,4.2,2.8c0.7,2,0,3.5-0.5,4.2c-0.8,1.2-2.2,1.9-3.7,1.9
	c-2.4,0-4.4-2-4.4-4.4h-6c0,5.8,4.7,10.4,10.5,10.4c2.8,0,5.5-1.1,7.4-3.1V58.1c-1.9-1.9-4.5-3-7.4-3h-0.2c-1,0-1.7-0.8-1.7-1.7
	v-7.6c0-8.5-6.9-15.4-15.4-15.4c-8.5,0-15.4,6.9-15.4,15.4V73c0,15.3,12.5,27.8,27.8,27.8h4.1c3.8,0,7,2.7,7.3,6.2
	c0.2,2-0.4,3.9-1.8,5.3c-1.3,1.4-3.2,2.3-5.1,2.3v6c3.6,0,7.1-1.5,9.6-4.2c1.5-1.6,2.5-3.6,3-5.7C60,106.9,58.4,102.5,57.9,97.8"/>
<path class="st0" d="M151.9,30.4c-8.5,0-15.4,6.9-15.4,15.4v7.6c0,1-0.8,1.7-1.7,1.7h-0.2c-2.8,0-5.5,1.1-7.4,3v14.8
	c1.9,1.9,4.6,3.1,7.4,3.1c5.8,0,10.4-4.7,10.4-10.4h-6c0,2.4-2,4.4-4.5,4.4c-1.4,0-2.8-0.7-3.6-1.9c-0.5-0.7-1.2-2.2-0.5-4.2
	c0.6-1.7,2.3-2.8,4.2-2.8h0.2c4.3,0,7.7-3.5,7.7-7.7v-7.6c0-5.2,4.2-9.4,9.4-9.4s9.4,4.2,9.4,9.4V73c0,12-9.8,21.8-21.8,21.8h-4.1
	c-3.2,0-6.1,1.1-8.4,2.9c-0.5,4.8-2.1,9.2-4.6,13c0.5,2.1,1.5,4.1,3,5.7c2.4,2.7,5.9,4.2,9.6,4.2v-6c-1.9,0-3.8-0.8-5.1-2.3
	c-1.3-1.5-2-3.4-1.8-5.3c0.3-3.5,3.5-6.2,7.3-6.2h4.1c15.3,0,27.8-12.5,27.8-27.8V45.7C167.3,37.3,160.4,30.4,151.9,30.4"/>
<polygon class="st1" points="135.8,28.8 110.2,28.8 110.2,26.8 135.4,26.8 141.9,23.8 135.4,20.8 117.2,20.8 117.2,18.8 135.8,18.8 
	146.7,23.8 "/>
<rect x="113.4" y="23" class="st1" width="21" height="2"/>
<polygon class="st0" points="70.7,180.1 56,180.1 56,188 129.3,188 129.3,180.1 114.3,180.1 "/>
<path class="st0" d="M60.8,43.8v50.9c0,14.7,12,26.7,26.7,26.7h4.1l-5,15.6h-4.2c-0.6,0-1,0.4-1,1c0,0.6,0.4,1,1,1h4l4.1,9.8v0.6
	c0,11.6-8.7,21.2-19.8,22.6l0,4.8l43.6-0.1l0-4.7c-5-0.6-9.5-2.9-13.1-6.5c-4.3-4.3-6.7-10-6.7-16.1v-0.6l4-9.8h4c0.6,0,1-0.4,1-1
	c0-0.6-0.4-1-1-1h-4.2l-4.9-15.6h4.1c14.7,0,26.7-12,26.7-26.7V43.8H60.8z M93,99c-12.2,0-22.1-9.9-22.1-22.1
	c0-12.2,9.9-22.1,22.1-22.1c12.2,0,22.1,9.9,22.1,22.1S105.2,99,93,99"/>
<path class="st2" d="M117.3,178.1H67.7c-0.6,0-1-0.4-1-1l0-7.8c0-0.3,0.1-0.5,0.3-0.7c0.2-0.2,0.4-0.3,0.7-0.3
	c10.3,0,18.7-8.3,18.8-18.6l-2.8-6.6h-1.3c-2.8,0-5-2.2-5-5c0-2.8,2.2-5,5-5h1.3l2.5-7.6c-16.3-0.7-29.4-14.2-29.4-30.7V40.8
	c0-0.6,0.4-1,1-1h15.8c0.6,0,1,0.4,1,1c0,0.6-0.4,1-1,1H58.8v52.9c0,15.8,12.9,28.7,28.7,28.7c0.3,0,0.6,0.2,0.8,0.4
	c0.2,0.3,0.2,0.6,0.1,0.9l-3.1,9.6c-0.1,0.4-0.5,0.7-1,0.7h-2c-1.7,0-3,1.3-3,3c0,1.7,1.3,3,3,3h2c0.4,0,0.8,0.2,0.9,0.6l3.1,7.4
	c0.1,0.1,0.1,0.3,0.1,0.4c0,11.2-8.8,20.3-19.8,20.8l0,5.9h47.6l0-5.9c-5.2-0.2-10-2.4-13.7-6.1c-3.9-3.9-6.1-9.2-6.1-14.7
	c0-0.1,0-0.3,0.1-0.4l3-7.4c0.2-0.4,0.5-0.6,0.9-0.6h2c1.7,0,3-1.3,3-3c0-1.7-1.3-3-3-3h-2c-0.4,0-0.8-0.3-1-0.7l-3-9.6
	c-0.1-0.3,0-0.6,0.1-0.9c0.2-0.3,0.5-0.4,0.8-0.4c15.8,0,28.7-12.9,28.7-28.7V41.8h-13.7c-0.6,0-1-0.4-1-1c0-0.6,0.4-1,1-1h14.7
	c0.6,0,1,0.4,1,1v53.9c0,16.5-13.1,30-29.4,30.7l2.4,7.6h1.3c2.8,0,5,2.2,5,5c0,2.8-2.2,5-5,5h-1.3l-2.7,6.6c0,5,2,9.6,5.5,13.1
	c3.6,3.6,8.3,5.5,13.3,5.5c0.3,0,0.5,0.1,0.7,0.3c0.2,0.2,0.3,0.4,0.3,0.7l0,7.8C118.3,177.7,117.8,178.1,117.3,178.1"/>
<path class="st2" d="M132.3,192H53c-0.6,0-1-0.4-1-1v-13.9c0-0.6,0.4-1,1-1h15.4c0.6,0,1,0.4,1,1c0,0.6-0.4,1-1,1H54V190h77.3v-11.9
	h-14.9c-0.6,0-1-0.4-1-1c0-0.6,0.4-1,1-1h15.9c0.6,0,1,0.4,1,1V191C133.3,191.6,132.9,192,132.3,192"/>
<path class="st2" d="M97.4,115.5c-0.6,0-1-0.4-1-1s0.4-1,1-1c10.4,0,18.8-8.4,18.8-18.8V92c0-0.6,0.4-1,1-1s1,0.4,1,1v2.7
	C118.3,106.1,108.9,115.5,97.4,115.5 M117.3,64.2c-0.6,0-1-0.4-1-1V51.7h-7.8c-0.6,0-1-0.4-1-1c0-0.6,0.4-1,1-1h8.8c0.6,0,1,0.4,1,1
	v12.5C118.3,63.7,117.8,64.2,117.3,64.2"/>
<path class="st2" d="M117.2,68c-0.3,0-0.5-0.1-0.7-0.3c0,0-0.1-0.1-0.1-0.2c0-0.1-0.1-0.1-0.1-0.2c0-0.1-0.1-0.1-0.1-0.2
	c0-0.1,0-0.1,0-0.2c0-0.3,0.1-0.5,0.3-0.7c0.3-0.3,0.7-0.4,1.1-0.2c0.1,0,0.2,0.1,0.3,0.2c0.2,0.2,0.3,0.4,0.3,0.7s-0.1,0.5-0.3,0.7
	c-0.1,0.1-0.2,0.2-0.3,0.2C117.4,68,117.3,68,117.2,68"/>
<path class="st2" d="M104.4,171h-26c-0.6,0-1-0.4-1-1s0.4-1,1-1h26c0.6,0,1,0.4,1,1S105,171,104.4,171"/>
<path class="st2" d="M96.4,137h-8c-0.6,0-1-0.4-1-1s0.4-1,1-1h8c0.6,0,1,0.4,1,1S97,137,96.4,137"/>
<path class="st2" d="M96.4,141h-8c-0.6,0-1-0.4-1-1s0.4-1,1-1h8c0.6,0,1,0.4,1,1S97,141,96.4,141"/>
<path class="st2" d="M117.2,89c-0.3,0-0.5-0.1-0.7-0.3c0,0-0.1-0.1-0.1-0.2c0-0.1-0.1-0.1-0.1-0.2c0-0.1-0.1-0.1-0.1-0.2
	c0-0.1,0-0.1,0-0.2c0-0.3,0.1-0.5,0.3-0.7c0.3-0.3,0.7-0.4,1.1-0.2c0.1,0,0.2,0.1,0.3,0.2c0.2,0.2,0.3,0.4,0.3,0.7
	c0,0.3-0.1,0.5-0.3,0.7c-0.1,0.1-0.2,0.2-0.3,0.2C117.4,89,117.3,89,117.2,89"/>
<path class="st2" d="M93.4,115.4c-0.1,0-0.3,0-0.4-0.1c-0.1-0.1-0.2-0.1-0.3-0.2c-0.2-0.2-0.3-0.5-0.3-0.7c0-0.1,0-0.1,0-0.2
	c0-0.1,0-0.1,0.1-0.2c0-0.1,0.1-0.1,0.1-0.2c0-0.1,0.1-0.1,0.1-0.2c0.3-0.3,0.7-0.4,1.1-0.2c0.1,0.1,0.2,0.1,0.3,0.2
	c0,0,0.1,0.1,0.1,0.2c0,0.1,0.1,0.1,0.1,0.2c0,0.1,0,0.1,0.1,0.2c0,0.1,0,0.1,0,0.2c0,0.3-0.1,0.5-0.3,0.7c-0.1,0.1-0.2,0.2-0.3,0.2
	C93.7,115.4,93.6,115.4,93.4,115.4"/>
<path class="st2" d="M136.5,53.4h-2v-7.6c0-9.6,7.8-17.4,17.4-17.4v2c-8.5,0-15.4,6.9-15.4,15.4V53.4z"/>
<path class="st2" d="M135,114.6c-2,0-3.8-0.8-5.1-2.3c-1.3-1.5-2-3.4-1.8-5.3c0.3-3.5,3.5-6.2,7.3-6.2h4.1
	c15.3,0,27.8-12.5,27.8-27.8h2c0,16.4-13.4,29.8-29.8,29.8h-4.1c-2.7,0-5.1,1.9-5.3,4.4c-0.1,1.4,0.3,2.8,1.3,3.8
	c0.9,1,2.2,1.6,3.6,1.6V114.6z"/>
<path class="st2" d="M135,122.6c-4.2,0-8.2-1.8-11-4.9l1.5-1.3c2.4,2.7,5.9,4.2,9.6,4.2V122.6z"/>
<path class="st2" d="M161.3,73h-2V45.7c0-4.1-3.3-7.4-7.4-7.4v-2c5.2,0,9.4,4.2,9.4,9.4V73z"/>
<path class="st2" d="M134.5,70c-1.4,0-2.8-0.7-3.6-1.9c-0.5-0.7-1.2-2.2-0.5-4.2c0.6-1.7,2.3-2.8,4.2-2.8h0.2c4.3,0,7.7-3.5,7.7-7.7
	v-7.6h2v7.6c0,5.4-4.4,9.7-9.7,9.7h-0.2c-1,0-2,0.6-2.3,1.5c-0.4,1.1-0.1,1.9,0.3,2.4c0.5,0.7,1.2,1,2,1V70z"/>
<path class="st2" d="M134.6,78v-2c5.8,0,10.4-4.7,10.4-10.4h2C147,72.4,141.5,78,134.6,78"/>
<path class="st2" d="M50.4,53.4h-2v-7.6c0-8.5-6.9-15.4-15.4-15.4v-2c9.6,0,17.4,7.8,17.4,17.4V53.4z"/>
<path class="st2" d="M49.9,114.6v-2c1.4,0,2.7-0.6,3.6-1.6c0.9-1,1.4-2.4,1.3-3.8c-0.2-2.5-2.6-4.4-5.3-4.4h-4.1
	C29,102.8,15.6,89.4,15.6,73h2c0,15.3,12.5,27.8,27.8,27.8h4.1c3.8,0,7,2.7,7.3,6.2c0.2,2-0.4,3.9-1.8,5.3
	C53.7,113.8,51.9,114.6,49.9,114.6"/>
<path class="st2" d="M49.9,122.6v-2c3.6,0,7.1-1.5,9.6-4.2l1.5,1.3C58.1,120.8,54.1,122.6,49.9,122.6"/>
<path class="st2" d="M25.6,73h-2V45.7c0-5.2,4.2-9.4,9.4-9.4v2c-4.1,0-7.4,3.3-7.4,7.4V73z"/>
<path class="st2" d="M50.4,70v-2c0.8,0,1.5-0.4,2-1c0.3-0.5,0.7-1.3,0.3-2.4c-0.3-0.8-1.2-1.4-2.3-1.4h-0.2c-5.4,0-9.7-4.4-9.7-9.7
	v-7.6h2v7.6c0,4.3,3.5,7.7,7.7,7.7h0.2c1.9,0,3.6,1.2,4.2,2.8c0.7,2,0,3.5-0.5,4.2C53.1,69.3,51.8,70,50.4,70"/>
<path class="st2" d="M50.3,78c-6.9,0-12.4-5.6-12.4-12.4h2c0,5.8,4.7,10.4,10.4,10.4V78z"/>
<path class="st2" d="M93,84.9c-0.6,0-1-0.4-1-1V70.9h-3.2c-0.6,0-1-0.4-1-1s0.4-1,1-1H93c0.6,0,1,0.4,1,1v14.1
	C94,84.5,93.6,84.9,93,84.9"/>
<path class="st2" d="M97.3,84.9h-8.4c-0.6,0-1-0.4-1-1c0-0.6,0.4-1,1-1h8.4c0.6,0,1,0.4,1,1C98.3,84.5,97.8,84.9,97.3,84.9"/>
<path class="st2" d="M93,93C84.2,93,77,85.8,77,76.9c0-0.6,0.4-1,1-1c0.6,0,1,0.4,1,1C79,84.7,85.3,91,93,91c4.1,0,8-1.8,10.6-4.9
	c0.4-0.4,1-0.5,1.4-0.1c0.4,0.4,0.5,1,0.1,1.4C102.1,90.9,97.7,93,93,93"/>
<path class="st2" d="M93,99c-12.2,0-22.1-9.9-22.1-22.1c0-0.6,0.4-1,1-1c0.6,0,1,0.4,1,1C72.9,88,82,97,93,97c0.6,0,1,0.4,1,1
	C94,98.6,93.6,99,93,99"/>
<path class="st2" d="M114.2,77.9c-0.6,0-1-0.4-1-1c0-11.1-9-20.1-20.1-20.1c-0.6,0-1-0.4-1-1c0-0.6,0.4-1,1-1
	c12.2,0,22.1,9.9,22.1,22.1C115.2,77.4,114.7,77.9,114.2,77.9"/>
<polygon class="st3" points="117.1,1 69.2,1 60.4,10.7 67.3,19.8 79,19.8 72.2,10.8 72.4,10.5 113.8,10.5 114,10.9 93.2,38.1 
	93.1,38.4 85.1,27.8 73.5,27.8 87.6,46.3 94.4,46.3 98.7,46.3 125.8,10.7 "/>
<path class="st1" d="M38.4,164c-9.4,0-17-7.6-17-17c0-9.4,7.6-17,17-17s17,7.6,17,17C55.4,156.4,47.8,164,38.4,164 M38.4,132
	c-8.3,0-15,6.7-15,15s6.7,15,15,15s15-6.7,15-15S46.7,132,38.4,132 M38.4,158c-6.1,0-11-4.9-11-11s4.9-11,11-11s11,4.9,11,11
	S44.5,158,38.4,158 M38.4,138c-5,0-9,4-9,9s4,9,9,9s9-4,9-9S43.4,138,38.4,138"/>
<path class="st1" d="M38.4,152c-2.8,0-5-2.2-5-5s2.2-5,5-5s5,2.2,5,5S41.2,152,38.4,152 M38.4,144c-1.7,0-3,1.3-3,3c0,1.7,1.3,3,3,3
	s3-1.3,3-3C41.4,145.4,40.1,144,38.4,144"/>
<path class="st4" d="M38.4,143c-2.2,0-4,1.8-4,4s1.8,4,4,4s4-1.8,4-4S40.6,143,38.4,143"/>
<path class="st4" d="M38.4,152c-2.8,0-5-2.2-5-5s2.2-5,5-5s5,2.2,5,5S41.2,152,38.4,152 M38.4,144c-1.7,0-3,1.3-3,3c0,1.7,1.3,3,3,3
	s3-1.3,3-3C41.4,145.4,40.1,144,38.4,144"/>
<rect x="11.4" y="146" class="st1" width="27" height="2"/>
<path class="st1" d="M8.8,152H0l5-5l-5-5h8.8l5,5L8.8,152z M4.8,150H8l3-3l-3-3H4.8l3,3L4.8,150z"/>
<path class="st2" d="M125.8,11.7c-0.3,0-0.5-0.1-0.7-0.3l-8.8-9.7c-0.4-0.4-0.3-1,0.1-1.4c0.4-0.4,1-0.3,1.4,0.1l8.8,9.7
	c0.4,0.4,0.3,1-0.1,1.4C126.3,11.6,126.1,11.7,125.8,11.7"/>
<path class="st2" d="M98.7,47.3h-4.3c-0.6,0-1-0.4-1-1c0-0.6,0.4-1,1-1h4.3c0.6,0,1,0.4,1,1C99.7,46.8,99.2,47.3,98.7,47.3"/>
<rect x="60.8" y="9.5" class="st1" width="64.2" height="2"/>
<path class="st2" d="M66.1,19.8h2.5l-6.9-9l8.2-9.1c0.4-0.4,0.3-1-0.1-1.4c-0.4-0.4-1-0.3-1.4,0.1L59.7,10c-0.3,0.4-0.3,0.9-0.1,1.3
	L66.1,19.8z"/>
<path class="st2" d="M98.7,45.3H88.1L74.7,27.8h-2.5l14.6,19.1c0.2,0.2,0.5,0.4,0.8,0.4h11.1c0.6,0,1-0.4,1-1
	C99.7,45.7,99.2,45.3,98.7,45.3"/>
<path class="st2" d="M92.9,53.5c-1.9,0-3.4-1.5-3.4-3.4c0-1.9,1.5-3.4,3.4-3.4s3.4,1.5,3.4,3.4C96.3,51.9,94.8,53.5,92.9,53.5
	 M92.9,48.6c-0.8,0-1.4,0.6-1.4,1.4c0,0.8,0.6,1.4,1.4,1.4c0.8,0,1.4-0.6,1.4-1.4C94.3,49.3,93.6,48.6,92.9,48.6"/>
<path class="st1" d="M101.6,28.8H50.2c-2.8,0-5-2.2-5-5c0-2.8,2.2-5,5-5h57.4v2H50.2c-1.7,0-3,1.3-3,3c0,1.7,1.3,3,3,3h51.4V28.8z"
	/>
<rect x="55.8" y="20.2" class="st1" width="2" height="7.6"/>
<rect x="56.8" y="22.7" class="st1" width="47" height="2"/>
<path class="st2" d="M87.7,46.6c-0.2,0-0.4-0.1-0.6-0.2c-0.4-0.3-0.5-1-0.2-1.4l26.3-34.7c0.3-0.4,1-0.5,1.4-0.2
	c0.4,0.3,0.5,1,0.2,1.4L88.5,46.2C88.3,46.5,88,46.6,87.7,46.6"/>
<path class="st0" d="M32.4,112c0,1.1-0.9,2-2,2c-1.1,0-2-0.9-2-2s0.9-2,2-2C31.5,110,32.4,110.9,32.4,112"/>
<path class="st0" d="M166.4,107c0,1.7-1.3,3-3,3s-3-1.3-3-3s1.3-3,3-3S166.4,105.3,166.4,107"/>
<path class="st0" d="M72.4,133c0,1.7-1.3,3-3,3c-1.7,0-3-1.3-3-3s1.3-3,3-3C71.1,130,72.4,131.3,72.4,133"/>
<path class="st0" d="M162.4,18c0,1.1,0.9,2,2,2c1.1,0,2-0.9,2-2s-0.9-2-2-2C163.3,16,162.4,16.9,162.4,18"/>
<path class="st2" d="M18.4,31c-2.8,0-5-2.2-5-5s2.2-5,5-5s5,2.2,5,5S21.2,31,18.4,31 M18.4,23c-1.7,0-3,1.3-3,3s1.3,3,3,3
	c1.7,0,3-1.3,3-3S20.1,23,18.4,23"/>
<path class="st2" d="M127.4,143c-2.2,0-4-1.8-4-4s1.8-4,4-4c2.2,0,4,1.8,4,4S129.6,143,127.4,143 M127.4,137c-1.1,0-2,0.9-2,2
	s0.9,2,2,2c1.1,0,2-0.9,2-2S128.5,137,127.4,137"/>
<path class="st1" d="M181.6,175.6l-1.9-0.6l0.3-1l-1.3-0.4c-1.5-0.5-2.5-1.9-2.5-3.5c0-1.6,1-3,2.5-3.5l1.3-0.4l-0.7-2.2l-1.3,0.4
	c-1.5,0.5-3.2,0-4.1-1.3c-0.9-1.3-0.9-3,0-4.3l0.8-1.1l-1.8-1.3l-0.8,1.1c-1,1.3-2.6,1.8-4.1,1.3c-1.5-0.5-2.5-1.9-2.5-3.5l0-1.3
	l-2.3,0l0,1.3c0,1.6-1,3-2.5,3.5c-1.5,0.5-3.1,0-4.1-1.3l-0.8-1.1l-1.8,1.3l0.8,1.1c1,1.3,0.9,3,0,4.3c-1,1.3-2.6,1.8-4.1,1.3
	l-1.3-0.4l-0.3,1l-1.9-0.6l1-2.9l3.2,1c0.9,0.3,1.5-0.1,1.9-0.6c0.3-0.5,0.5-1.2,0-2l-2-2.7l5.1-3.7l2,2.7c0.5,0.7,1.3,0.8,1.9,0.6
	c0.6-0.2,1.2-0.7,1.2-1.6l0-3.3l6.3,0l0,3.3c0,0.9,0.6,1.4,1.2,1.6c0.6,0.2,1.3,0.1,1.9-0.6l2-2.7l5.1,3.7l-2,2.7
	c-0.5,0.7-0.3,1.5,0,2c0.3,0.5,1,0.9,1.9,0.6l3.2-1l1.9,6l-3.2,1c-0.9,0.3-1.2,1-1.2,1.6c0,0.6,0.3,1.3,1.2,1.6l3.2,1L181.6,175.6z"
	/>
<path class="st4" d="M172.4,172.6l-1.9-0.6c0.5-1.6,0.4-3.4-0.4-4.9c-0.8-1.5-2.1-2.7-3.8-3.2c-3.4-1.1-7.1,0.8-8.2,4.1l-1.9-0.6
	c1.4-4.4,6.2-6.9,10.7-5.4c2.2,0.7,3.9,2.2,4.9,4.2C173,168.2,173.1,170.5,172.4,172.6"/>
<path class="st4" d="M164.4,178.4c-0.9,0-1.8-0.1-2.6-0.4c-4.4-1.4-6.9-6.2-5.4-10.7l1.9,0.6c-1.1,3.4,0.8,7.1,4.1,8.2
	c3.4,1.1,7.1-0.8,8.2-4.1l1.9,0.6C171.3,176.1,168,178.4,164.4,178.4"/>
<path class="st1" d="M167.5,188.1l-6.3,0l0-3.3c0-0.9-0.6-1.4-1.2-1.6c-0.6-0.2-1.3-0.1-1.9,0.6l-2,2.7l-5.1-3.7l2-2.7
	c0.5-0.7,0.3-1.5,0-2c-0.3-0.5-1-0.9-1.9-0.6l-3.2,1l-1.9-6l3.2-1c0.8-0.3,1.2-1,1.2-1.6c0-0.6-0.3-1.3-1.2-1.6l-3.2-1l1.1-3.3
	l1.9,0.6l-0.4,1.4l1.3,0.4c1.5,0.5,2.5,1.9,2.5,3.5c0,1.6-1,3-2.5,3.5l-1.3,0.4l0.7,2.2l1.3-0.4c1.5-0.5,3.2,0,4.1,1.3
	c0.9,1.3,0.9,3,0,4.3l-0.8,1.1l1.8,1.3l0.8-1.1c1-1.3,2.6-1.8,4.1-1.3c1.5,0.5,2.5,1.9,2.5,3.5l0,1.3l2.3,0l0-1.3c0-1.6,1-3,2.5-3.5
	c1.5-0.5,3.2,0,4.1,1.3l0.8,1.1l1.8-1.3l-0.8-1.1c-1-1.3-0.9-3,0-4.3c1-1.3,2.6-1.8,4.1-1.3l1.3,0.4l0.5-1.5l1.9,0.6l-1.1,3.4
	l-3.2-1c-0.9-0.3-1.5,0.1-1.9,0.6c-0.3,0.5-0.5,1.2,0,2l2,2.7l-5.1,3.7l-2-2.7c-0.5-0.7-1.3-0.8-1.9-0.6c-0.6,0.2-1.2,0.7-1.2,1.6
	L167.5,188.1z"/>
<path class="st0" d="M168.3,170.1c0,2.2-1.8,4-4,4s-4-1.8-4-4s1.8-4,4-4S168.3,167.9,168.3,170.1"/>
<path class="st0" d="M164.3,174.6c-2.5,0-4.5-2-4.5-4.5s2-4.5,4.5-4.5s4.5,2,4.5,4.5S166.8,174.6,164.3,174.6 M164.3,166.6
	c-1.9,0-3.5,1.6-3.5,3.5c0,1.9,1.6,3.5,3.5,3.5c1.9,0,3.5-1.6,3.5-3.5C167.8,168.2,166.3,166.6,164.3,166.6"/>
</svg>
