<?xml version="1.0" encoding="utf-8"?>
<!-- Generator: Adobe Illustrator 21.1.0, SVG Export Plug-In . SVG Version: 6.00 Build 0)  -->
<svg version="1.1" id="Layer_1" xmlns="http://www.w3.org/2000/svg" xmlns:xlink="http://www.w3.org/1999/xlink" x="0px" y="0px"
	 viewBox="0 0 192.4 192" style="enable-background:new 0 0 192.4 192;" xml:space="preserve">
<style type="text/css">
	.st0{fill:#D5D892;}
	.st1{fill:#DEDEDD;}
	.st2{fill:#48515A;}
	.st3{fill:#74CEDF;}
	.st4{fill:#475059;}
	.st5{fill:#F68E71;}
</style>
<path class="st0" d="M120.9,98h-16V88h6l0-4l4,4h6V98L120.9,98z M134.2,73.4l-9.6-9.6l-13.8,13.8l-7.2-7.2L81.9,92.1l-7.2-7.2
	l-15.7,15.7l0,11.8l75.3-0.2L134.2,73.4L134.2,73.4z"/>
<path class="st1" d="M128.9,28c0,14.9,12.1,27,27,27c14.9,0,27-12.1,27-27s-12.1-27-27-27C141,1,128.9,13.1,128.9,28L128.9,28z"/>
<path class="st2" d="M178.4,29h-4c-0.6,0-1-0.4-1-1c0-0.6,0.4-1,1-1h4c0.6,0,1,0.4,1,1C179.4,28.6,178.9,29,178.4,29L178.4,29z"/>
<path class="st2" d="M178.4,29h-4c-0.6,0-1-0.4-1-1c0-0.6,0.4-1,1-1h4c0.6,0,1,0.4,1,1C179.4,28.6,178.9,29,178.4,29L178.4,29z"/>
<path class="st2" d="M167.3,48.7c-0.3,0-0.7-0.2-0.9-0.5l-2-3.5c-0.3-0.5-0.1-1.1,0.4-1.4c0.5-0.3,1.1-0.1,1.4,0.4l2,3.5
	c0.3,0.5,0.1,1.1-0.4,1.4C167.6,48.6,167.5,48.7,167.3,48.7L167.3,48.7z"/>
<path class="st2" d="M171.8,19.5c-0.3,0-0.7-0.2-0.9-0.5c-0.3-0.5-0.1-1.1,0.4-1.4l3.5-2c0.5-0.3,1.1-0.1,1.4,0.4
	c0.3,0.5,0.1,1.1-0.4,1.4l-3.5,2C172.2,19.5,172,19.5,171.8,19.5L171.8,19.5z"/>
<path class="st2" d="M175.7,40c-0.2,0-0.3,0-0.5-0.1l-3.5-2c-0.5-0.3-0.6-0.9-0.4-1.4c0.3-0.5,0.9-0.6,1.4-0.4l3.5,2
	c0.5,0.3,0.6,0.9,0.4,1.4C176.3,39.9,176,40,175.7,40L175.7,40z"/>
<path class="st2" d="M165,12.5c-0.2,0-0.3,0-0.5-0.1c-0.5-0.3-0.6-0.9-0.4-1.4l2-3.5c0.3-0.5,0.9-0.6,1.4-0.4
	c0.5,0.3,0.6,0.9,0.4,1.4l-2,3.5C165.7,12.3,165.3,12.5,165,12.5L165,12.5z"/>
<polygon class="st2" points="156.9,43 154.9,43 154.9,26 165.9,26 165.9,28 156.9,28 156.9,43 "/>
<path class="st2" d="M155.9,10c-0.6,0-1-0.4-1-1V5c0-0.6,0.4-1,1-1s1,0.4,1,1v4C156.9,9.6,156.5,10,155.9,10L155.9,10z"/>
<path class="st2" d="M155.9,52c-0.6,0-1-0.4-1-1v-4c0-0.6,0.4-1,1-1c0.6,0,1,0.4,1,1v4C156.9,51.6,156.5,52,155.9,52L155.9,52z"/>
<path class="st2" d="M155.9,10c-0.6,0-1-0.4-1-1V5c0-0.6,0.4-1,1-1s1,0.4,1,1v4C156.9,9.6,156.5,10,155.9,10L155.9,10z"/>
<path class="st2" d="M155.9,52c-0.6,0-1-0.4-1-1v-4c0-0.6,0.4-1,1-1c0.6,0,1,0.4,1,1v4C156.9,51.6,156.5,52,155.9,52L155.9,52z"/>
<path class="st2" d="M144.5,48.7c-0.2,0-0.3,0-0.5-0.1c-0.5-0.3-0.6-0.9-0.4-1.4l2-3.5c0.3-0.5,0.9-0.6,1.4-0.4
	c0.5,0.3,0.6,0.9,0.4,1.4l-2,3.5C145.2,48.5,144.8,48.7,144.5,48.7L144.5,48.7z"/>
<path class="st2" d="M140,19.5c-0.2,0-0.3,0-0.5-0.1l-3.5-2c-0.5-0.3-0.6-0.9-0.4-1.4c0.3-0.5,0.9-0.6,1.4-0.4l3.5,2
	c0.5,0.3,0.6,0.9,0.4,1.4C140.6,19.3,140.3,19.5,140,19.5L140,19.5z"/>
<path class="st2" d="M146.8,12.5c-0.3,0-0.7-0.2-0.9-0.5l-2-3.5c-0.3-0.5-0.1-1.1,0.4-1.4c0.5-0.3,1.1-0.1,1.4,0.4l2,3.5
	c0.3,0.5,0.1,1.1-0.4,1.4C147.1,12.5,147,12.5,146.8,12.5L146.8,12.5z"/>
<polygon class="st1" points="83.9,157 83.9,146 109.9,146 109.9,157 83.9,157 "/>
<path class="st1" d="M84.9,156h24v-9h-24V156L84.9,156z M110.9,158h-28v-13h28V158L110.9,158z"/>
<polygon class="st1" points="118.9,126 118.9,122 124.9,122 124.9,126 118.9,126 "/>
<path class="st1" d="M119.9,125h4v-2h-4V125L119.9,125z M125.9,127h-8v-6h8V127L125.9,127z"/>
<polygon class="st1" points="68.9,126 68.9,122 74.9,122 74.9,126 68.9,126 "/>
<path class="st1" d="M69.9,125h4v-2h-4V125L69.9,125z M75.9,127h-8v-6h8V127L75.9,127z"/>
<polygon class="st1" points="133.9,134 133.9,130 139.9,130 139.9,134 133.9,134 "/>
<path class="st1" d="M134.9,133h4v-2h-4V133L134.9,133z M140.9,135h-8v-6h8V135L140.9,135z"/>
<polygon class="st1" points="123.9,134 123.9,130 129.9,130 129.9,134 123.9,134 "/>
<path class="st1" d="M124.9,133h4v-2h-4V133L124.9,133z M130.9,135h-8v-6h8V135L130.9,135z"/>
<polygon class="st1" points="113.9,134 113.9,130 119.9,130 119.9,134 113.9,134 "/>
<path class="st1" d="M114.9,133h4v-2h-4V133L114.9,133z M120.9,135h-8v-6h8V135L120.9,135z"/>
<polygon class="st1" points="103.9,134 103.9,130 109.9,130 109.9,134 103.9,134 "/>
<path class="st1" d="M104.9,133h4v-2h-4V133L104.9,133z M110.9,135h-8v-6h8V135L110.9,135z"/>
<polygon class="st1" points="83.9,134 83.9,130 89.9,130 89.9,134 83.9,134 "/>
<path class="st1" d="M84.9,133h4v-2h-4V133L84.9,133z M90.9,135h-8v-6h8V135L90.9,135z"/>
<polygon class="st1" points="73.9,134 73.9,130 79.9,130 79.9,134 73.9,134 "/>
<path class="st1" d="M74.9,133h4v-2h-4V133L74.9,133z M80.9,135h-8v-6h8V135L80.9,135z"/>
<polygon class="st1" points="63.9,134 63.9,130 69.9,130 69.9,134 63.9,134 "/>
<path class="st1" d="M64.9,133h4v-2h-4V133L64.9,133z M70.9,135h-8v-6h8V135L70.9,135z"/>
<polygon class="st1" points="53.9,134 53.9,130 59.9,130 59.9,134 53.9,134 "/>
<path class="st1" d="M54.9,133h4v-2h-4V133L54.9,133z M60.9,135h-8v-6h8V135L60.9,135z"/>
<polygon class="st1" points="128.9,142 128.9,138 134.9,138 134.9,142 128.9,142 "/>
<path class="st1" d="M129.9,141h4v-2h-4V141L129.9,141z M135.9,143h-8v-6h8V143L135.9,143z"/>
<polygon class="st1" points="118.9,142 118.9,138 124.9,138 124.9,142 118.9,142 "/>
<path class="st1" d="M119.9,141h4v-2h-4V141L119.9,141z M125.9,143h-8v-6h8V143L125.9,143z"/>
<polygon class="st1" points="108.9,142 108.9,138 114.9,138 114.9,142 108.9,142 "/>
<path class="st1" d="M109.9,141h4v-2h-4V141L109.9,141z M115.9,143h-8v-6h8V143L115.9,143z"/>
<polygon class="st1" points="78.9,142 78.9,138 84.9,138 84.9,142 78.9,142 "/>
<path class="st1" d="M79.9,141h4v-2h-4V141L79.9,141z M85.9,143h-8v-6h8V143L85.9,143z"/>
<polygon class="st1" points="68.9,142 68.9,138 74.9,138 74.9,142 68.9,142 "/>
<path class="st1" d="M69.9,141h4v-2h-4V141L69.9,141z M75.9,143h-8v-6h8V143L75.9,143z"/>
<polygon class="st1" points="58.9,142 58.9,138 64.9,138 64.9,142 58.9,142 "/>
<path class="st1" d="M59.9,141h4v-2h-4V141L59.9,141z M65.9,143h-8v-6h8V143L65.9,143z"/>
<polyline class="st3" points="140.2,192 140.2,177.4 109.7,177.4 109.7,192 "/>
<polyline class="st3" points="84.5,192 84.5,177.4 54,177.4 54,192 "/>
<path class="st2" d="M48.7,72.9h-2V55c0-1.7,1.3-3,3-3h8.7v2h-8.7c-0.6,0-1,0.4-1,1V72.9L48.7,72.9z"/>
<polygon class="st2" points="48.7,86 46.7,86 46.7,81.4 48.7,81.4 48.7,86 "/>
<path class="st2" d="M146.5,72.7h-2V55c0-0.6-0.4-1-1-1h-9.1v-2h9.1c1.7,0,3,1.3,3,3V72.7L146.5,72.7z"/>
<path class="st2" d="M145.5,118.8H47.7c-0.6,0-1-0.4-1-1V97h2v19.8h95.8V81h2v36.8C146.5,118.4,146.1,118.8,145.5,118.8L145.5,118.8
	z"/>
<path class="st2" d="M149.2,167.5h-8.3v-2h8.3c1.4,0,2.6-1.2,2.6-2.6v-5.3l-7.1-38.7H48.6l-7.1,38.7v5.3c0,1.4,1.2,2.6,2.6,2.6h8.8
	v2h-8.8c-2.5,0-4.6-2.1-4.6-4.6l0-5.6l7.4-40.5h99.5l7.4,40.7v5.4C153.8,165.5,151.7,167.5,149.2,167.5L149.2,167.5z"/>
<path class="st2" d="M136.8,172.9C136.8,172.9,136.8,172.9,136.8,172.9S136.8,172.9,136.8,172.9L136.8,172.9z M135.8,178.4
	c-0.6,0-1-0.4-1-1v-4.2c0-0.2-0.1-0.4,0.1-0.7c2.5-6.4,3.7-12.9,3.7-19.4v-14.9c0-1.4-1.2-2.7-2.5-2.8c-0.7,0-1.4,0.2-1.9,0.7
	c-0.4,0.4-0.7,0.9-0.8,1.4l0,11.4c0,0.6-0.4,1-1,1c0,0,0,0,0,0c-0.6,0-1-0.4-1-1v-10.9c0-0.2,0-0.4,0-0.7l0-3c0-1.4-1.1-3.3-2.4-3.4
	c-0.8-0.1-1.5,0.2-2.1,0.7c-0.6,0.5-0.9,1.2-0.9,2V149c0,0.6-0.4,1-1,1c-0.6,0-1-0.4-1-1v-18.5c0-1.4-1.1-2.7-2.4-2.8
	c-0.8-0.1-1.6,0.2-2.2,0.7c-0.6,0.5-0.9,1.2-0.9,1.9v3c0,0,0,0,0,0V149c0,0.6-0.4,1-1,1l0,0c-0.6,0-1-0.4-1-1v-15.6
	c0-1.4-1-2.6-2.3-2.8c-0.8-0.1-1.6,0.1-2.2,0.6c-0.6,0.5-0.9,1.2-0.9,2v23.9c0,0.6-0.4,1-1,1c-0.6,0-1-0.4-1-1V151
	c0-1.5-1.2-2.6-2.6-2.6c-0.7,0-1.4,0.3-1.9,0.8c-0.5,0.5-0.8,1.2-0.8,1.9l0,4.9c-0.1,4.3,0.9,6.9,3.4,9.4l4.9,5.7
	c0.6,0.6,1.1,1.8,1.1,2.8v3.6c0,0.6-0.4,1-1,1c-0.6,0-1-0.4-1-1v-3.6c0-0.4-0.3-1.1-0.6-1.4l-4.9-5.7c-2.8-2.8-4-6-3.9-10.8l0-4.9
	c0-1.2,0.5-2.4,1.4-3.3c0.9-0.9,2-1.4,3.3-1.4c1,0,1.9,0.3,2.6,0.8v-14c0-1.4,0.6-2.7,1.6-3.5c1-0.9,2.4-1.3,3.8-1.1
	c0.8,0.1,1.5,0.4,2.1,0.9c0.2-1,0.7-1.8,1.4-2.5c1-0.9,2.4-1.4,3.7-1.3c2.1,0.2,3.9,2,4.2,4.2c0.9-0.6,2-0.9,3.2-0.8
	c2.4,0.2,4.1,2.9,4.2,5.2c0.8-0.6,1.8-0.8,2.8-0.8c2.4,0.1,4.4,2.3,4.4,4.8v14.9c0,6.6-1.3,13.3-3.8,19.9c0,0,0,0.1,0,0.1v4.3
	C136.8,178,136.4,178.4,135.8,178.4L135.8,178.4z"/>
<polygon class="st2" points="140.1,178.4 109.6,178.4 109.6,176.4 140.1,176.4 140.1,178.4 "/>
<path class="st2" d="M132.4,185.7c-0.1,0-0.1,0-0.2,0c-0.1,0-0.1,0-0.2-0.1c-0.1,0-0.1,0-0.2-0.1c-0.1,0-0.1-0.1-0.1-0.1
	c-0.2-0.2-0.3-0.4-0.3-0.7c0-0.3,0.1-0.5,0.3-0.7c0.4-0.4,1.1-0.4,1.4,0c0.2,0.2,0.3,0.4,0.3,0.7c0,0.1,0,0.3-0.1,0.4
	c-0.1,0.1-0.1,0.2-0.2,0.3C132.9,185.6,132.6,185.7,132.4,185.7L132.4,185.7z"/>
<path class="st2" d="M81.8,178.4c-0.6,0-1-0.4-1-1v-3.6c0-1,0.5-2.2,1.2-2.9l4.8-5.6c2.6-2.6,3.5-5.2,3.4-9.4l0-4.9
	c0-0.7-0.3-1.4-0.8-1.9c-0.5-0.5-1.2-0.8-1.9-0.8c-1.5,0-2.6,1.2-2.6,2.6v6.1c0,0.6-0.4,1-1,1h0c-0.6,0-1-0.4-1-1v-23.9
	c0-0.8-0.3-1.5-0.9-2c-0.6-0.5-1.4-0.7-2.2-0.6c-1.3,0.2-2.3,1.4-2.3,2.9V149c0,0.6-0.4,1-1,1s-1-0.4-1-1v-18.6
	c0-0.7-0.3-1.4-0.9-1.9c-0.6-0.5-1.4-0.8-2.2-0.8c-1.3,0.1-2.4,1.4-2.4,2.8v3.2c0,0,0,0,0,0.1V149c0,0.6-0.4,1-1,1s-1-0.4-1-1
	l0-15.3c0-0.7-0.3-1.4-0.9-1.9c-0.6-0.5-1.3-0.8-2.1-0.7c-1.3,0.1-2.4,2-2.4,3.4l0,3c0,0.2,0,0.4,0,0.7l0,10.9c0,0.6-0.4,1-1,1
	c0,0,0,0,0,0c-0.6,0-1-0.4-1-1l0-11.4c-0.1-0.5-0.4-1-0.8-1.4c-0.5-0.5-1.2-0.8-1.9-0.7c-1.3,0.1-2.5,1.4-2.5,2.8l0,14.9
	c0,6.4,1.3,12.9,3.7,19.4c0.1,0.3,0.1,0.6,0.1,0.7v4.2c0,0.6-0.4,1-1,1c-0.6,0-1-0.4-1-1v-4.3c0,0,0-0.1,0-0.1
	c-2.5-6.6-3.8-13.3-3.8-19.9l0-14.9c0-2.5,2-4.6,4.4-4.8c1,0,2,0.2,2.8,0.8c0.1-2.3,1.8-5,4.2-5.2c1.1-0.1,2.2,0.2,3.2,0.8
	c0.3-2.2,2.1-4,4.2-4.2c1.4-0.1,2.7,0.3,3.7,1.3c0.7,0.7,1.2,1.6,1.4,2.5c0.6-0.5,1.3-0.8,2.1-0.9c1.4-0.2,2.7,0.2,3.8,1.1
	c1,0.9,1.6,2.2,1.6,3.5v14c0.8-0.5,1.7-0.8,2.6-0.8c1.2,0,2.4,0.5,3.3,1.4c0.9,0.9,1.4,2.1,1.4,3.3l0,4.9c0.1,4.8-1.1,7.9-4,10.8
	l-4.8,5.6c-0.4,0.4-0.6,1.1-0.6,1.5v3.6C82.8,178,82.3,178.4,81.8,178.4L81.8,178.4z"/>
<polygon class="st2" points="84.5,178.4 54,178.4 54,176.4 84.5,176.4 84.5,178.4 "/>
<path class="st2" d="M61.7,185.7c-0.1,0-0.1,0-0.2,0c-0.1,0-0.1,0-0.2-0.1c-0.1,0-0.1,0-0.2-0.1c-0.1,0-0.1-0.1-0.1-0.1
	c-0.2-0.2-0.3-0.4-0.3-0.7c0-0.3,0.1-0.5,0.3-0.7c0.4-0.4,1-0.4,1.4,0c0.2,0.2,0.3,0.4,0.3,0.7c0,0.1,0,0.3-0.1,0.4
	c-0.1,0.1-0.1,0.2-0.2,0.3C62.3,185.6,62,185.7,61.7,185.7L61.7,185.7z"/>
<polygon class="st2" points="141.1,113.4 51.7,113.4 51.7,100 53.7,100 53.7,111.4 139.1,111.4 139.2,81.4 141.2,81.4 141.1,113.4 
	"/>
<polygon class="st2" points="141.3,72.9 139.3,72.9 139.3,59 134.1,59 134.1,57 141.3,57 141.3,72.9 "/>
<polygon class="st2" points="53.7,72.6 51.7,72.6 51.7,57 58.6,57 58.6,59 53.7,59 53.7,72.6 "/>
<polygon class="st2" points="53.7,91 51.7,91 51.7,81.3 53.7,81.3 53.7,91 "/>
<path class="st2" d="M58.7,113.4c-0.6,0-1-0.4-1-1V94c0-0.6,0.4-1,1-1c0.6,0,1,0.4,1,1v18.4C59.7,112.9,59.2,113.4,58.7,113.4
	L58.7,113.4z"/>
<path class="st2" d="M134.1,113.4C134.1,113.4,134.1,113.4,134.1,113.4c-0.6,0-1-0.5-1-1l0.2-77L120.4,21H69.8c-0.6,0-1-0.4-1-1
	c0-0.6,0.4-1,1-1h51.6l14,15.6l-0.2,77.7C135.1,112.9,134.6,113.4,134.1,113.4L134.1,113.4z"/>
<path class="st2" d="M58.7,85c-0.6,0-1-0.4-1-1V39.5c0-0.6,0.4-1,1-1c0.6,0,1,0.4,1,1V84C59.7,84.6,59.2,85,58.7,85L58.7,85z"/>
<polygon class="st2" points="134.1,36 119.9,36 119.9,20 121.9,20 121.9,34 134.1,34 134.1,36 "/>
<path class="st2" d="M125.2,52.5l3.7,3.7v-7.5h-7.5L125.2,52.5L125.2,52.5z M34.1,101.5l-1.4-1.4l12.9-12.9l7.2,7.2l21.7-21.7
	l7.2,7.2l21.7-21.7l7.2,7.2l12.3-12.3l-6.4-6.4H131v14.3l-6.4-6.4l-13.7,13.7l-7.2-7.2L81.9,82.8l-7.2-7.2L52.9,97.3L45.6,90
	L34.1,101.5L34.1,101.5z"/>
<path class="st2" d="M5.2,130.1c-0.1,0-0.3,0-0.4-0.1c-0.1-0.1-0.2-0.1-0.3-0.2c-0.1,0-0.1-0.1-0.1-0.1c0-0.1-0.1-0.1-0.1-0.2
	c0-0.1,0-0.1,0-0.2c0-0.1,0-0.1,0-0.2c0-0.3,0.1-0.5,0.3-0.7c0.1-0.1,0.2-0.2,0.3-0.2c0.4-0.1,0.8-0.1,1.1,0.2
	c0.2,0.2,0.3,0.4,0.3,0.7c0,0.1,0,0.1,0,0.2c0,0.1,0,0.1-0.1,0.2c0,0.1,0,0.1-0.1,0.2c0,0.1-0.1,0.1-0.1,0.1
	C5.7,130,5.4,130.1,5.2,130.1L5.2,130.1z"/>
<path class="st2" d="M27.3,107c-0.4-0.4-0.4-1,0-1.4l0,0c0.4-0.4,1-0.4,1.4,0l0,0c0.4,0.4,0.4,1,0,1.4l0,0c-0.2,0.2-0.5,0.3-0.7,0.3
	l0,0C27.7,107.3,27.5,107.2,27.3,107L27.3,107z M24.4,109.8c-0.4-0.4-0.4-1,0-1.4l0,0c0.4-0.4,1-0.4,1.4,0l0,0c0.4,0.4,0.4,1,0,1.4
	l0,0c-0.2,0.2-0.5,0.3-0.7,0.3l0,0C24.9,110.1,24.6,110,24.4,109.8L24.4,109.8z M21.6,112.7c-0.4-0.4-0.4-1,0-1.4l0,0
	c0.4-0.4,1-0.4,1.4,0l0,0c0.4,0.4,0.4,1,0,1.4l0,0c-0.2,0.2-0.5,0.3-0.7,0.3l0,0C22,113,21.8,112.9,21.6,112.7L21.6,112.7z
	 M18.7,115.5c-0.4-0.4-0.4-1,0-1.4l0,0c0.4-0.4,1-0.4,1.4,0l0,0c0.4,0.4,0.4,1,0,1.4l0,0c-0.2,0.2-0.5,0.3-0.7,0.3l0,0
	C19.2,115.8,18.9,115.7,18.7,115.5L18.7,115.5z M15.9,118.4c-0.4-0.4-0.4-1,0-1.4l0,0c0.4-0.4,1-0.4,1.4,0l0,0c0.4,0.4,0.4,1,0,1.4
	l0,0c-0.2,0.2-0.5,0.3-0.7,0.3l0,0C16.3,118.7,16.1,118.6,15.9,118.4L15.9,118.4z M13,121.2c-0.4-0.4-0.4-1,0-1.4l0,0
	c0.4-0.4,1-0.4,1.4,0l0,0c0.4,0.4,0.4,1,0,1.4l0,0c-0.2,0.2-0.4,0.3-0.7,0.3l0,0C13.5,121.5,13.2,121.4,13,121.2L13,121.2z
	 M10.2,124.1c-0.4-0.4-0.4-1,0-1.4l0,0c0.4-0.4,1-0.4,1.4,0l0,0c0.4,0.4,0.4,1,0,1.4l0,0c-0.2,0.2-0.4,0.3-0.7,0.3l0,0
	C10.6,124.4,10.4,124.3,10.2,124.1L10.2,124.1z M7.3,126.9c-0.4-0.4-0.4-1,0-1.4l0,0c0.4-0.4,1-0.4,1.4,0l0,0c0.4,0.4,0.4,1,0,1.4
	l0,0c-0.2,0.2-0.5,0.3-0.7,0.3l0,0C7.8,127.2,7.5,127.1,7.3,126.9L7.3,126.9z"/>
<path class="st2" d="M30.8,104.4c-0.1,0-0.3,0-0.4-0.1c-0.1-0.1-0.2-0.1-0.3-0.2c-0.2-0.2-0.3-0.4-0.3-0.7c0-0.3,0.1-0.5,0.3-0.7
	c0.4-0.4,1-0.4,1.4,0c0.2,0.2,0.3,0.4,0.3,0.7c0,0.1,0,0.1,0,0.2c0,0.1,0,0.1-0.1,0.2c0,0.1-0.1,0.1-0.1,0.2c0,0.1-0.1,0.1-0.1,0.2
	c-0.1,0.1-0.2,0.2-0.3,0.2C31.1,104.4,31,104.4,30.8,104.4L30.8,104.4z"/>
<polygon class="st1" points="58.9,126 58.9,122 64.9,122 64.9,126 58.9,126 "/>
<path class="st1" d="M59.9,125h4v-2h-4V125L59.9,125z M65.9,127h-8v-6h8V127L65.9,127z"/>
<polygon class="st1" points="78.9,126 78.9,122 84.9,122 84.9,126 78.9,126 "/>
<path class="st1" d="M79.9,125h4v-2h-4V125L79.9,125z M85.9,127h-8v-6h8V127L85.9,127z"/>
<polygon class="st1" points="88.9,126 88.9,122 94.9,122 94.9,126 88.9,126 "/>
<path class="st1" d="M89.9,125h4v-2h-4V125L89.9,125z M95.9,127h-8v-6h8V127L95.9,127z"/>
<polygon class="st1" points="98.9,126 98.9,122 104.9,122 104.9,126 98.9,126 "/>
<path class="st1" d="M99.9,125h4v-2h-4V125L99.9,125z M105.9,127h-8v-6h8V127L105.9,127z"/>
<polygon class="st1" points="108.9,126 108.9,122 114.9,122 114.9,126 108.9,126 "/>
<path class="st1" d="M109.9,125h4v-2h-4V125L109.9,125z M115.9,127h-8v-6h8V127L115.9,127z"/>
<polygon class="st1" points="128.9,126 128.9,122 134.9,122 134.9,126 128.9,126 "/>
<path class="st1" d="M129.9,125h4v-2h-4V125L129.9,125z M135.9,127h-8v-6h8V127L135.9,127z"/>
<polygon class="st1" points="93.9,134 93.9,130 99.9,130 99.9,134 93.9,134 "/>
<path class="st1" d="M94.9,133h4v-2h-4V133L94.9,133z M100.9,135h-8v-6h8V135L100.9,135z"/>
<polygon class="st1" points="88.9,142 88.9,138 94.9,138 94.9,142 88.9,142 "/>
<path class="st1" d="M89.9,141h4v-2h-4V141L89.9,141z M95.9,143h-8v-6h8V143L95.9,143z"/>
<polygon class="st1" points="98.9,142 98.9,138 104.9,138 104.9,142 98.9,142 "/>
<path class="st1" d="M99.9,141h4v-2h-4V141L99.9,141z M105.9,143h-8v-6h8V143L105.9,143z"/>
<polygon class="st4" points="78.9,30 63.9,30 63.9,28 78.9,28 78.9,30 "/>
<polygon class="st4" points="96.9,34 63.9,34 63.9,32 96.9,32 96.9,34 "/>
<path class="st4" d="M64.9,42c-0.1,0-0.3,0-0.4-0.1c-0.1,0-0.2-0.1-0.3-0.2c0-0.1-0.1-0.1-0.1-0.1c0-0.1-0.1-0.1-0.1-0.2
	c0-0.1,0-0.1-0.1-0.2c0-0.1,0-0.1,0-0.2c0-0.1,0-0.1,0-0.2c0-0.1,0-0.1,0.1-0.2c0-0.1,0.1-0.1,0.1-0.2c0-0.1,0.1-0.1,0.1-0.1
	c0.3-0.3,0.7-0.4,1.1-0.2c0.1,0.1,0.2,0.1,0.3,0.2c0,0,0.1,0.1,0.1,0.1c0,0.1,0.1,0.1,0.1,0.2c0,0.1,0,0.1,0.1,0.2
	c0,0.1,0,0.1,0,0.2c0,0.1,0,0.1,0,0.2c0,0.1,0,0.1-0.1,0.2c0,0.1-0.1,0.1-0.1,0.2c0,0-0.1,0.1-0.1,0.1c-0.1,0.1-0.2,0.2-0.3,0.2
	C65.2,42,65,42,64.9,42L64.9,42z"/>
<polygon class="st4" points="80.9,42 68.9,42 68.9,40 80.9,40 80.9,42 "/>
<path class="st4" d="M64.9,46c-0.3,0-0.5-0.1-0.7-0.3c-0.1-0.1-0.2-0.2-0.2-0.3c-0.1-0.1-0.1-0.3-0.1-0.4c0-0.3,0.1-0.5,0.3-0.7
	c0.3-0.3,0.7-0.4,1.1-0.2c0.1,0.1,0.2,0.1,0.3,0.2c0.2,0.2,0.3,0.4,0.3,0.7c0,0.3-0.1,0.5-0.3,0.7C65.4,45.9,65.2,46,64.9,46
	L64.9,46z"/>
<polygon class="st4" points="84.9,46 68.9,46 68.9,44 84.9,44 84.9,46 "/>
<path class="st4" d="M64.9,50c-0.3,0-0.5-0.1-0.7-0.3c-0.2-0.2-0.3-0.4-0.3-0.7c0-0.1,0-0.3,0.1-0.4c0-0.1,0.1-0.2,0.2-0.3
	c0.3-0.3,0.7-0.4,1.1-0.2c0.1,0.1,0.2,0.1,0.3,0.2c0.2,0.2,0.3,0.4,0.3,0.7c0,0.3-0.1,0.5-0.3,0.7c-0.1,0.1-0.2,0.2-0.3,0.2
	C65.2,50,65,50,64.9,50L64.9,50z"/>
<polygon class="st4" points="80.9,50 68.9,50 68.9,48 80.9,48 80.9,50 "/>
<path class="st4" d="M64.9,54c-0.3,0-0.5-0.1-0.7-0.3c-0.2-0.2-0.3-0.4-0.3-0.7c0-0.3,0.1-0.5,0.3-0.7c0.3-0.3,0.7-0.4,1.1-0.2
	c0.1,0.1,0.2,0.1,0.3,0.2c0.2,0.2,0.3,0.4,0.3,0.7c0,0.3-0.1,0.5-0.3,0.7c-0.1,0.1-0.2,0.2-0.3,0.2C65.2,54,65,54,64.9,54L64.9,54z"
	/>
<polygon class="st4" points="82.9,54 68.9,54 68.9,52 82.9,52 82.9,54 "/>
<polygon class="st2" points="101.9,168 91.9,168 91.9,166 101.9,166 101.9,168 "/>
<polygon class="st2" points="50.9,160 44.9,160 44.9,158 50.9,158 50.9,160 "/>
<polygon class="st2" points="148.9,160 142.9,160 142.9,158 148.9,158 148.9,160 "/>
<polygon class="st2" points="98.9,162 94.9,162 94.9,160 98.9,160 98.9,162 "/>
<polygon class="st0" points="191.4,93 191.4,116.3 153.9,116.3 153.9,93 191.4,93 "/>
<path class="st0" d="M154.9,115.3h35.5V94h-35.5V115.3L154.9,115.3z M192.4,117.3h-39.5V92h39.5V117.3L192.4,117.3z"/>
<path class="st2" d="M172.7,105.9c-0.2,0-0.4-0.1-0.5-0.2l-16.6-10.5c-0.5-0.3-0.6-0.9-0.3-1.4c0.3-0.5,0.9-0.6,1.4-0.3l16,10.2
	l15.4-9.9c0.5-0.3,1.1-0.2,1.4,0.3c0.3,0.5,0.2,1.1-0.3,1.4l-15.9,10.2C173.1,105.8,172.9,105.9,172.7,105.9L172.7,105.9z"/>
<path class="st2" d="M188.6,114.3c-0.3,0-0.6-0.1-0.8-0.4l-7.6-9.1c-0.4-0.4-0.3-1.1,0.1-1.4c0.4-0.4,1.1-0.3,1.4,0.1l7.6,9.1
	c0.4,0.4,0.3,1.1-0.1,1.4C189,114.2,188.8,114.3,188.6,114.3L188.6,114.3z"/>
<path class="st2" d="M156.8,114.3c-0.2,0-0.5-0.1-0.6-0.2c-0.4-0.4-0.5-1-0.1-1.4l7.6-9.1c0.4-0.4,1-0.5,1.4-0.1
	c0.4,0.4,0.5,1,0.1,1.4l-7.6,9.1C157.4,114.1,157.1,114.3,156.8,114.3L156.8,114.3z"/>
<polygon class="st2" points="173.9,132 171.9,132 171.9,120 173.9,120 173.9,132 "/>
<path class="st2" d="M172.9,136c-0.1,0-0.3,0-0.4-0.1c-0.1,0-0.2-0.1-0.3-0.2c-0.2-0.2-0.3-0.4-0.3-0.7c0-0.1,0-0.1,0-0.2
	c0-0.1,0-0.1,0.1-0.2c0-0.1,0.1-0.1,0.1-0.2c0-0.1,0.1-0.1,0.1-0.2c0.1-0.1,0.2-0.2,0.3-0.2c0.4-0.2,0.8-0.1,1.1,0.2
	c0.1,0.1,0.1,0.1,0.1,0.2c0,0.1,0.1,0.1,0.1,0.2c0,0.1,0,0.1,0.1,0.2c0,0.1,0,0.1,0,0.2c0,0.3-0.1,0.5-0.3,0.7
	c-0.1,0.1-0.2,0.2-0.3,0.2C173.2,136,173.1,136,172.9,136L172.9,136z"/>
<polygon class="st2" points="179.9,126 177.9,126 177.9,120 179.9,120 179.9,126 "/>
<path class="st2" d="M178.9,130c-0.1,0-0.1,0-0.2,0c-0.1,0-0.1,0-0.2-0.1c-0.1,0-0.1-0.1-0.2-0.1c-0.1,0-0.1-0.1-0.1-0.1
	c-0.1,0-0.1-0.1-0.1-0.1c0-0.1-0.1-0.1-0.1-0.2c0-0.1,0-0.1-0.1-0.2c0-0.1,0-0.1,0-0.2c0-0.1,0-0.1,0-0.2c0-0.1,0-0.1,0.1-0.2
	c0-0.1,0.1-0.1,0.1-0.2c0-0.1,0.1-0.1,0.1-0.2c0,0,0.1-0.1,0.1-0.1c0.1,0,0.1-0.1,0.2-0.1c0.1,0,0.1,0,0.2-0.1c0.2,0,0.4,0,0.6,0.1
	c0.1,0.1,0.2,0.1,0.3,0.2c0.1,0.1,0.1,0.1,0.1,0.2c0,0.1,0.1,0.1,0.1,0.2c0,0.1,0,0.1,0.1,0.2c0,0.1,0,0.1,0,0.2c0,0.1,0,0.1,0,0.2
	c0,0.1,0,0.1-0.1,0.2c0,0.1-0.1,0.1-0.1,0.2c0,0.1-0.1,0.1-0.1,0.1c-0.1,0.1-0.2,0.2-0.3,0.2C179.2,130,179.1,130,178.9,130
	L178.9,130z"/>
<polygon class="st2" points="167.9,128 165.9,128 165.9,120 167.9,120 167.9,128 "/>
<path class="st2" d="M166.9,132c-0.1,0-0.1,0-0.2,0c-0.1,0-0.1,0-0.2-0.1c-0.1,0-0.1-0.1-0.2-0.1c-0.1,0-0.1-0.1-0.1-0.1
	c-0.1-0.1-0.2-0.2-0.2-0.3c-0.1-0.1-0.1-0.2-0.1-0.4c0-0.1,0-0.1,0-0.2c0-0.1,0-0.1,0.1-0.2c0-0.1,0.1-0.1,0.1-0.2
	c0-0.1,0.1-0.1,0.1-0.1c0.3-0.3,0.7-0.4,1.1-0.2c0.1,0.1,0.2,0.1,0.3,0.2c0.1,0,0.1,0.1,0.1,0.1c0,0.1,0.1,0.1,0.1,0.2
	c0,0.1,0,0.1,0.1,0.2c0,0.1,0,0.1,0,0.2c0,0.1,0,0.3-0.1,0.4c0,0.1-0.1,0.2-0.2,0.3C167.4,131.9,167.2,132,166.9,132L166.9,132z"/>
<polygon class="st0" points="34.9,143 34.9,162 4.4,162 4.4,143 34.9,143 "/>
<path class="st0" d="M5.4,161h28.6v-17H5.4V161L5.4,161z M35.9,163H3.4v-21h32.6V163L35.9,163z"/>
<path class="st2" d="M19.6,153.7c-0.2,0-0.4-0.1-0.5-0.2l-13.2-8.3c-0.5-0.3-0.6-0.9-0.3-1.4c0.3-0.5,0.9-0.6,1.4-0.3l12.7,8
	l11.9-7.6c0.5-0.3,1.1-0.2,1.4,0.3c0.3,0.5,0.2,1.1-0.3,1.4l-12.4,8C20,153.7,19.8,153.7,19.6,153.7L19.6,153.7z"/>
<path class="st2" d="M32.6,160.5c-0.3,0-0.6-0.1-0.8-0.4l-6.2-7.4c-0.4-0.4-0.3-1.1,0.1-1.4c0.4-0.4,1.1-0.3,1.4,0.1l6.2,7.4
	c0.4,0.4,0.3,1.1-0.1,1.4C33,160.5,32.8,160.5,32.6,160.5L32.6,160.5z"/>
<path class="st2" d="M6.7,160.5c-0.2,0-0.5-0.1-0.6-0.2c-0.4-0.4-0.5-1-0.1-1.4l6.2-7.4c0.4-0.4,1-0.5,1.4-0.1
	c0.4,0.4,0.5,1,0.1,1.4l-6.2,7.4C7.3,160.4,7,160.5,6.7,160.5L6.7,160.5z"/>
<polygon class="st2" points="21.9,179 19.9,179 19.9,167 21.9,167 21.9,179 "/>
<path class="st2" d="M20.9,183c-0.1,0-0.3,0-0.4-0.1c-0.1,0-0.2-0.1-0.3-0.2c-0.1-0.1-0.2-0.2-0.2-0.3c0-0.1-0.1-0.2-0.1-0.4
	c0-0.1,0-0.1,0-0.2c0-0.1,0-0.1,0-0.2c0-0.1,0.1-0.1,0.1-0.2c0-0.1,0.1-0.1,0.1-0.1c0.1-0.1,0.2-0.2,0.3-0.2
	c0.2-0.1,0.4-0.1,0.6-0.1c0.1,0,0.1,0,0.2,0.1c0.1,0,0.1,0.1,0.2,0.1c0.1,0,0.1,0.1,0.2,0.1c0,0,0.1,0.1,0.1,0.1
	c0,0.1,0.1,0.1,0.1,0.2c0,0.1,0,0.1,0.1,0.2c0,0.1,0,0.1,0,0.2c0,0.1,0,0.3-0.1,0.4c0,0.1-0.1,0.2-0.2,0.3c-0.1,0-0.1,0.1-0.2,0.1
	c0,0-0.1,0.1-0.2,0.1c-0.1,0-0.1,0.1-0.2,0.1C21.1,183,21,183,20.9,183L20.9,183z"/>
<polygon class="st2" points="27.9,173 25.9,173 25.9,167 27.9,167 27.9,173 "/>
<path class="st2" d="M26.9,177c-0.1,0-0.3,0-0.4-0.1c-0.1,0-0.2-0.1-0.3-0.2c-0.2-0.2-0.3-0.5-0.3-0.7c0-0.3,0.1-0.5,0.3-0.7
	c0.1-0.1,0.2-0.2,0.3-0.2c0.2-0.1,0.5-0.1,0.8,0c0.1,0.1,0.2,0.1,0.3,0.2c0.1,0.1,0.2,0.2,0.2,0.3c0,0.1,0.1,0.2,0.1,0.4
	c0,0.1,0,0.3-0.1,0.4c0,0.1-0.1,0.2-0.2,0.3c-0.1,0.1-0.2,0.2-0.3,0.2C27.2,177,27.1,177,26.9,177L26.9,177z"/>
<polygon class="st2" points="15.9,175 13.9,175 13.9,167 15.9,167 15.9,175 "/>
<path class="st2" d="M14.9,179c-0.1,0-0.1,0-0.2,0c-0.1,0-0.1,0-0.2-0.1c-0.1,0-0.1-0.1-0.2-0.1c-0.1,0-0.1-0.1-0.1-0.1
	c-0.1-0.1-0.1-0.1-0.1-0.2c0-0.1-0.1-0.1-0.1-0.2c0-0.1,0-0.1-0.1-0.2c0-0.1,0-0.1,0-0.2c0-0.1,0-0.1,0-0.2c0-0.1,0-0.1,0.1-0.2
	c0-0.1,0.1-0.1,0.1-0.2c0-0.1,0.1-0.1,0.1-0.1c0-0.1,0.1-0.1,0.1-0.1c0,0,0.1-0.1,0.2-0.1c0.1,0,0.1,0,0.2-0.1c0.1,0,0.3,0,0.4,0
	c0.1,0,0.1,0,0.2,0.1c0.1,0,0.1,0.1,0.2,0.1c0.1,0,0.1,0.1,0.1,0.1c0.1,0,0.1,0.1,0.1,0.1c0,0.1,0.1,0.1,0.1,0.2
	c0,0.1,0,0.1,0.1,0.2c0,0.1,0,0.1,0,0.2c0,0.1,0,0.1,0,0.2c0,0.1,0,0.1-0.1,0.2c0,0.1-0.1,0.1-0.1,0.2c0,0.1-0.1,0.1-0.1,0.2
	c0,0-0.1,0.1-0.1,0.1c0,0-0.1,0.1-0.2,0.1c-0.1,0-0.1,0-0.2,0.1C15,179,15,179,14.9,179L14.9,179z"/>
<polygon class="st4" points="117.9,94 107.9,94 107.9,92 117.9,92 117.9,94 "/>
<path class="st5" d="M45.4,12c-3.9,0-7,3.1-7,7s3.1,7,7,7s7-3.1,7-7S49.3,12,45.4,12L45.4,12z M45.4,29c-5.5,0-10-4.5-10-10
	c0-5.5,4.5-10,10-10s10,4.5,10,10C55.4,24.5,50.9,29,45.4,29L45.4,29z"/>
<path class="st2" d="M45.1,36h0.6l0.8-3.4l0-2l0.8-0.1c1.1-0.2,2.2-0.5,3.3-1.1l0.8-0.4l1.2,1.6l2.7,2.2l0.4-0.3l-1.3-3.2l-1.2-1.6
	l0.6-0.6c0.8-0.8,1.5-1.7,2-2.8l0.4-0.7l1.9,0.6l3.5,0.2l0.2-0.5l-2.9-1.8l-1.9-0.6l0.1-0.8c0.1-0.7,0.1-1.2,0.1-1.7
	c0-0.5,0-1.1-0.1-1.7l-0.1-0.8l1.9-0.6l2.9-1.8l-0.2-0.5L58,13.7l-1.9,0.6l-0.4-0.7c-0.5-1-1.2-2-2-2.8l-0.6-0.6l1.2-1.6l1.3-3.2
	l-0.5-0.3l-2.7,2.2l-1.2,1.6l-0.8-0.4c-1-0.5-2.1-0.9-3.2-1.1l-0.8-0.1l0-2L45.7,2h-0.6l-0.8,3.4v2l-0.8,0.1
	c-1.1,0.2-2.2,0.5-3.2,1.1l-0.8,0.4l-1.2-1.6l-2.7-2.2l-0.4,0.3l1.3,3.2l1.2,1.6L37,10.8c-0.8,0.8-1.5,1.8-2,2.8l-0.4,0.7l-1.9-0.6
	l-3.5-0.2L29.1,14l2.9,1.8l1.9,0.6l-0.1,0.8c-0.1,0.7-0.1,1.2-0.1,1.7c0,0.5,0,1.1,0.1,1.7l0.1,0.8l-1.9,0.6L29.1,24l0.2,0.5
	l3.4-0.2l1.9-0.6l0.4,0.7c0.5,1,1.2,2,2,2.8l0.6,0.6l-1.2,1.6l-1.3,3.2l0.4,0.3l2.6-2.2l1.2-1.6l0.8,0.4c1,0.5,2.1,0.9,3.3,1.1
	l0.8,0.1v2L45.1,36L45.1,36z M47.2,38h-3.7l-1.3-5.2v-0.4c-0.8-0.2-1.5-0.4-2.2-0.7l-0.4,0.5l-3.9,3.3l-3-2.2l2-5L35,28
	c-0.5-0.6-1-1.2-1.4-1.9L33,26.3l-5.1,0.4l-1.1-3.5l4.6-2.8l0.4-0.1c0-0.4-0.1-0.8-0.1-1.2c0-0.4,0-0.8,0.1-1.2l-0.6-0.2l-4.4-2.7
	l1.1-3.5l5.4,0.4l0.4,0.1c0.4-0.7,0.9-1.3,1.4-1.9l-0.4-0.6l-1.9-4.8l3-2.2L39.8,6l0.3,0.4c0.7-0.3,1.4-0.5,2.2-0.7l0-0.7l1.2-5h3.7
	l1.3,5.2v0.4c0.8,0.2,1.5,0.4,2.2,0.7l0.4-0.5l3.9-3.3l3,2.2l-2,5L55.8,10c0.5,0.6,1,1.2,1.4,1.9l0.6-0.2l5.1-0.4l1.1,3.5l-4.6,2.8
	l-0.4,0.1c0,0.4,0.1,0.8,0.1,1.2c0,0.4,0,0.8-0.1,1.2l0.6,0.2l4.4,2.7l-1.1,3.5l-5.4-0.4l-0.4-0.1c-0.4,0.7-0.9,1.3-1.4,1.9l0.4,0.6
	l1.9,4.8l-3,2.2L51,32l-0.3-0.4c-0.7,0.3-1.5,0.5-2.2,0.7l0,0.7L47.2,38L47.2,38z"/>
<path class="st2" d="M45.4,15.8c-1.8,0-3.2,1.5-3.2,3.2c0,1.8,1.5,3.2,3.2,3.2c1.8,0,3.2-1.5,3.2-3.2C48.6,17.2,47.2,15.8,45.4,15.8
	L45.4,15.8z M45.4,24.2c-2.9,0-5.2-2.3-5.2-5.2s2.3-5.2,5.2-5.2c2.9,0,5.2,2.3,5.2,5.2S48.3,24.2,45.4,24.2L45.4,24.2z"/>
<path class="st4" d="M33.9,49.4L32,48.8l0.3-0.9l-1.2-0.4c-1.5-0.5-2.4-1.8-2.4-3.4c0-1.6,1-2.9,2.5-3.4l1.2-0.4l-0.6-2l-1.2,0.4
	c-1.5,0.5-3,0-4-1.3c-0.9-1.3-0.9-2.9,0-4.2l0.7-1l-1.7-1.2l-0.7,1c-0.9,1.3-2.5,1.8-4,1.3c-1.5-0.5-2.4-1.8-2.4-3.4l0-1.2l-2.1,0
	l0,1.2c0,1.6-1,2.9-2.5,3.4c-1.5,0.5-3,0-4-1.3l-0.7-1l-1.7,1.2l0.7,1c0.9,1.3,0.9,2.9,0,4.2c-0.9,1.3-2.5,1.8-4,1.3l-1.2-0.4
	l-0.3,0.9l-1.9-0.6l0.9-2.8l3.1,1c0.8,0.3,1.4-0.1,1.7-0.6c0.3-0.4,0.5-1.1,0-1.8l-1.9-2.6l4.9-3.6l1.9,2.6c0.5,0.7,1.2,0.7,1.7,0.6
	c0.5-0.2,1.1-0.6,1.1-1.5l0-3.2l6.1,0l0,3.2c0,0.8,0.6,1.3,1.1,1.5c0.5,0.2,1.2,0.1,1.7-0.6l1.9-2.6l4.9,3.6l-1.9,2.6
	c-0.5,0.7-0.3,1.4,0,1.8c0.3,0.4,0.9,0.8,1.7,0.6l3.1-1l1.9,5.8l-3.1,1c-0.8,0.3-1.1,0.9-1.1,1.5c0,0.5,0.3,1.2,1.1,1.5l3.1,1
	L33.9,49.4L33.9,49.4z"/>
<path class="st4" d="M25.1,46.6L23.2,46c0.5-1.6,0.4-3.2-0.4-4.7c-0.7-1.5-2-2.5-3.6-3c-1.6-0.5-3.2-0.4-4.7,0.4
	c-1.5,0.7-2.5,2-3,3.6l-1.9-0.6c0.7-2.1,2.1-3.7,4-4.7c1.9-1,4.1-1.2,6.2-0.5c2.1,0.7,3.7,2.1,4.7,4C25.6,42.4,25.8,44.6,25.1,46.6
	L25.1,46.6z"/>
<path class="st4" d="M17.4,52.2c-0.8,0-1.7-0.1-2.5-0.4c-4.3-1.4-6.6-6-5.2-10.2l1.9,0.6c-1,3.2,0.7,6.7,3.9,7.7
	c3.2,1,6.7-0.7,7.7-3.9l1.9,0.6C24,50,20.8,52.2,17.4,52.2L17.4,52.2z"/>
<path class="st4" d="M20.4,61.4l-6.1,0l0-3.2c0-0.8-0.5-1.3-1.1-1.5c-0.5-0.2-1.2-0.1-1.7,0.6l-1.9,2.6l-4.9-3.6l1.9-2.6
	c0.5-0.7,0.3-1.4,0-1.8c-0.3-0.4-0.9-0.8-1.7-0.6l-3.1,1L0,46.5l3.1-1c0.8-0.3,1.1-0.9,1.1-1.5c0-0.5-0.3-1.2-1.1-1.5l-3.1-1l1-3.2
	L2.9,39l-0.4,1.3l1.2,0.4c1.5,0.5,2.4,1.8,2.4,3.4c0,1.6-1,2.9-2.5,3.4l-1.2,0.4l0.6,2l1.2-0.4c1.5-0.5,3,0,4,1.3
	c0.9,1.3,0.9,2.9,0,4.2l-0.7,1L9.2,57l0.7-1c0.9-1.3,2.5-1.8,4-1.3c1.5,0.5,2.4,1.8,2.4,3.4l0,1.2l2.1,0l0-1.2c0-1.6,1-2.9,2.5-3.4
	c1.5-0.5,3,0,4,1.3l0.7,1l1.7-1.2l-0.7-1c-0.9-1.3-0.9-2.9,0-4.2c0.9-1.3,2.5-1.8,4-1.3l1.2,0.4l0.5-1.4L34,49L33,52.3l-3.1-1
	c-0.8-0.3-1.4,0.1-1.7,0.6c-0.3,0.4-0.5,1.1,0,1.8l1.9,2.6l-4.9,3.6l-1.9-2.6c-0.5-0.7-1.2-0.7-1.7-0.6c-0.5,0.2-1.1,0.6-1.1,1.5
	L20.4,61.4L20.4,61.4z"/>
<path class="st2" d="M170.9,69c-1.7,0-3,1.3-3,3c0,1.7,1.3,3,3,3c1.7,0,3-1.3,3-3C173.9,70.3,172.6,69,170.9,69L170.9,69z M170.9,77
	c-2.8,0-5-2.2-5-5c0-2.8,2.2-5,5-5c2.8,0,5,2.2,5,5C175.9,74.8,173.7,77,170.9,77L170.9,77z"/>
<path class="st2" d="M15.9,79c-2.2,0-4,1.8-4,4c0,2.2,1.8,4,4,4s4-1.8,4-4C19.9,80.8,18.1,79,15.9,79L15.9,79z M15.9,89
	c-3.3,0-6-2.7-6-6c0-3.3,2.7-6,6-6s6,2.7,6,6C21.9,86.3,19.2,89,15.9,89L15.9,89z"/>
<path class="st2" d="M175.5,7L175.5,7L175.5,7c-0.4-0.4-0.4-1,0-1.4l0,0c0.4-0.4,1-0.4,1.4,0l0,0c0.4,0.4,0.4,1,0,1.4l0,0
	c-0.2,0.2-0.4,0.3-0.7,0.3l0,0C176,7.3,175.7,7.2,175.5,7L175.5,7z M178,10c-0.3-0.4-0.2-1.1,0.2-1.4l0,0c0.4-0.3,1.1-0.2,1.4,0.2
	l0,0c0.3,0.4,0.2,1.1-0.2,1.4l0,0c-0.2,0.1-0.4,0.2-0.6,0.2l0,0C178.5,10.4,178.2,10.2,178,10L178,10z M180.1,13.2
	c-0.3-0.5-0.1-1.1,0.4-1.4l0,0c0.5-0.3,1.1-0.1,1.4,0.4l0,0c0.3,0.5,0.1,1.1-0.4,1.4l0,0c-0.1,0.1-0.3,0.1-0.5,0.1l0,0
	C180.7,13.7,180.3,13.5,180.1,13.2L180.1,13.2z M181.8,16.7c-0.2-0.5,0-1.1,0.6-1.3l0,0c0.5-0.2,1.1,0,1.3,0.6l0,0
	c0.2,0.5,0,1.1-0.6,1.3l0,0c-0.1,0.1-0.2,0.1-0.4,0.1l0,0C182.4,17.3,182,17.1,181.8,16.7L181.8,16.7z M183.1,20.3
	c-0.1-0.5,0.2-1.1,0.7-1.2l0,0c0.5-0.1,1.1,0.2,1.2,0.7l0,0c0.1,0.5-0.2,1.1-0.7,1.2l0,0c-0.1,0-0.2,0-0.3,0l0,0
	C183.6,21.1,183.2,20.8,183.1,20.3L183.1,20.3z M183.8,24.1c-0.1-0.5,0.3-1,0.9-1.1l0,0c0.6-0.1,1.1,0.3,1.1,0.9l0,0
	c0.1,0.5-0.3,1-0.9,1.1l0,0c-0.1,0-0.1,0-0.1,0l0,0C184.3,25,183.9,24.6,183.8,24.1L183.8,24.1z M184,28L184,28L184,28
	c0-0.6,0.4-1,1-1l0,0c0.5,0,1,0.4,1,1l0,0c0,0.5-0.5,1-1,1l0,0C184.5,29,184,28.5,184,28L184,28z"/>
<path class="st2" d="M157.1,63c-0.3,0-0.5-0.1-0.7-0.3l-3-3c-0.3-0.3-0.4-0.7-0.2-1.1c0.2-0.4,0.5-0.6,0.9-0.6
	c15.5,0,28.4-11.6,29.9-27.1c0.1-0.5,0.5-0.9,1.1-0.9c0.6,0.1,1,0.5,0.9,1.1c-1.5,15.7-14,27.7-29.5,28.8l1.4,1.4
	c0.4,0.4,0.4,1,0,1.4C157.6,62.9,157.3,63,157.1,63L157.1,63z"/>
<path class="st4" d="M156,82h-21.6v-2H156c1.7,0,3-1.3,3-3c0-0.8-0.3-1.6-0.9-2.1c-0.6-0.6-1.3-0.9-2.1-0.9h-21.6v-2H156
	c1.3,0,2.6,0.5,3.5,1.5c0.9,0.9,1.5,2.2,1.5,3.5C161,79.8,158.8,82,156,82L156,82z"/>
<polygon class="st4" points="150.4,81 148.4,81 148.4,73.4 150.4,73.4 150.4,81 "/>
<polygon class="st4" points="149.4,78 134.4,78 134.4,76 149.4,76 149.4,78 "/>
<polygon class="st4" points="58.4,82 39.4,82 28.5,77 39.4,72 58.4,72 58.4,74 39.8,74 33.3,77 39.8,80 58.4,80 58.4,82 "/>
<polygon class="st4" points="58.4,78 40.4,78 40.4,76 58.4,76 58.4,78 "/>
</svg>
