<?xml version="1.0" encoding="utf-8"?>
<!-- Generator: Adobe Illustrator 21.1.0, SVG Export Plug-In . SVG Version: 6.00 Build 0)  -->
<svg version="1.1" id="Layer_1" xmlns="http://www.w3.org/2000/svg" xmlns:xlink="http://www.w3.org/1999/xlink" x="0px" y="0px"
	 viewBox="0 0 177.6 192" style="enable-background:new 0 0 177.6 192;" xml:space="preserve">
<style type="text/css">
	.st0{fill:#D5D892;}
	.st1{fill:#DFE0E0;}
	.st2{fill:#475059;}
	.st3{fill:#48515A;}
	.st4{fill:#F58E70;}
</style>
<path class="st0" d="M95.1,106.8c0-2.2,1.8-4,4-4h16.8c0.4-2.2,0.7-4.5,0.7-6.8c0-18.7-14.6-33.9-33-34.9v3.1l6.3,0
	c1,0.1,1.8,1,1.8,2.1l0,4.9c0,1.3-0.5,2.7-1.3,3.7l-1.9,2.4v1l-9.9,0v-1l-1.8-2.4c-0.8-1-1.2-2.3-1.2-3.7v-5c0-1.1,0.9-2,2-2l2,0
	v-3.1c-18.4,1.1-33,16.3-33,34.9c0,7.8,2.6,15,6.9,20.8l0.2-0.2c0.9-0.9,2.1-1.5,3.5-1.7l3-0.4l0.7-0.7l7,7l-0.7,0.7l-0.4,3
	c-0.1,1-0.5,1.9-1,2.6c4.8,2.4,10.1,3.8,15.8,3.8c14,0,26.1-8.3,31.7-20.2H99.1C96.9,110.8,95.1,109.1,95.1,106.8 M84.2,104
	c-4.1,0-7.5-3.4-7.5-7.5S80,89,84.2,89c4.1,0,7.5,3.4,7.5,7.5S88.3,104,84.2,104"/>
<path class="st1" d="M115.7,154.8c-10,5.8-21.7,9.2-34.1,9.2c-13.7,0-26.4-4-37-11c1.3,2,2.7,4,4.3,5.8
	c11.7,9.5,26.6,15.1,42.8,15.1c8.5,0,16.6-1.6,24.1-4.4V154.8z"/>
<path class="st1" d="M149.2,102.8h10.3c-0.7-14.2-5.7-27.3-13.8-37.9c-0.9,0.6-1.9,1.2-2.9,1.7c4.3,8.9,6.7,18.9,6.7,29.4
	C149.6,98.3,149.5,100.6,149.2,102.8"/>
<path class="st1" d="M147.9,110.8c-2.8,12.4-8.9,23.6-17.5,32.4h18c6.2-9.4,10.1-20.5,10.9-32.4H147.9z"/>
<path class="st2" d="M79.6,78.1h-2v-0.6l-1.6-2.1c-0.9-1.2-1.4-2.7-1.4-4.3v-5c0-1.7,1.3-3,3-3l1,0l0-5.1c0-1.2,0.8-2.4,1.9-2.8
	c1.3-0.5,2.7,0,3.8,1.2c0.2,0.2,0.3,0.5,0.3,0.8l0,6l5.3,0c1.6,0.1,2.8,1.5,2.8,3.1l0,4.9c0,1.6-0.5,3.1-1.5,4.3l-1.7,2.1v0.6h-2
	v-1.3l2.1-2.6c0.7-0.9,1.1-2,1.1-3.1l0-4.9c0-0.6-0.4-1-0.9-1.1l-7.2,0l0-7.6c-0.5-0.4-1-0.6-1.4-0.4c-0.4,0.1-0.7,0.5-0.7,0.9
	l0,7.1l-3,0c-0.6,0-1,0.4-1,1v5c0,1.1,0.4,2.2,1,3l2,2.7V78.1z M82.8,57.7C82.8,57.7,82.8,57.7,82.8,57.7
	C82.8,57.7,82.8,57.7,82.8,57.7"/>
<rect x="78.5" y="64.1" class="st2" width="2" height="3.9"/>
<path class="st2" d="M49.1,133.3c-1.5,0-2.7-0.7-3.2-1.9c-0.5-1.1-0.3-2.5,0.6-3.4l3.6-3.6l-0.7-0.7c-0.6-0.6-0.9-1.3-0.9-2.1
	c0-0.8,0.3-1.6,0.9-2.1l3.5-3.5c1.1-1.1,2.5-1.8,4-2l2.6-0.3l0.4-0.4l1.4,1.4l-0.9,0.9l-3.3,0.4c-1.1,0.1-2.1,0.6-2.9,1.4l-3.5,3.5
	c-0.2,0.2-0.3,0.4-0.3,0.7c0,0.3,0.1,0.5,0.3,0.7l2.1,2.1l-5,5c-0.3,0.3-0.4,0.7-0.2,1.1c0.2,0.4,0.7,0.7,1.3,0.7l5.4-5.4l5.1,5.2
	c0.3,0.3,0.9,0.2,1.3-0.2l3.4-3.4c0.8-0.8,1.3-1.8,1.4-2.9l0.4-3.3l0.9-0.9l1.4,1.4l-0.4,0.4l-0.3,2.7c-0.2,1.6-0.9,3-2,4.1
	l-3.4,3.4c-1.1,1.1-2.9,1.2-4.1,0.3l-3.8-3.8l-4.2,4.2c-0.2,0.2-0.5,0.3-0.7,0.3C49.4,133.3,49.2,133.3,49.1,133.3"/>
<rect x="51" y="122.1" transform="matrix(0.7071 -0.7071 0.7071 0.7071 -71.5049 73.4819)" class="st2" width="3.9" height="2"/>
<rect x="80.6" y="44" class="st3" width="2" height="8.3"/>
<rect x="80.6" y="139.7" class="st3" width="2" height="8.3"/>
<rect x="29.6" y="95" class="st3" width="8.3" height="2"/>
<rect x="125.3" y="95" class="st3" width="8.3" height="2"/>
<rect x="55.7" y="50.7" transform="matrix(0.866 -0.5 0.5 0.866 -18.7582 35.3921)" class="st3" width="2" height="4"/>
<rect x="37.4" y="69" transform="matrix(0.5 -0.866 0.866 0.5 -42.307 68.72)" class="st3" width="2" height="4"/>
<rect x="36.4" y="120" transform="matrix(0.866 -0.5 0.5 0.866 -55.3616 35.392)" class="st3" width="4" height="2"/>
<rect x="123" y="70" transform="matrix(0.866 -0.5 0.5 0.866 -18.7588 71.9959)" class="st3" width="4" height="2"/>
<rect x="54.7" y="138.3" transform="matrix(0.5 -0.866 0.866 0.5 -92.3074 118.7176)" class="st3" width="4" height="2"/>
<path class="st2" d="M84.2,105c-4.7,0-8.5-3.8-8.5-8.5c0-4.7,3.8-8.5,8.5-8.5c4.7,0,8.5,3.8,8.5,8.5C92.7,101.2,88.8,105,84.2,105
	 M84.2,90c-3.6,0-6.5,2.9-6.5,6.5s2.9,6.5,6.5,6.5s6.5-2.9,6.5-6.5S87.7,90,84.2,90"/>
<path class="st2" d="M99.1,111.8c-2.8,0-5-2.2-5-5c0-2.8,2.2-5,5-5h67.6l10.8,5l-10.8,5L99.1,111.8z M99.1,103.8c-1.7,0-3,1.3-3,3
	s1.3,3,3,3l67.2,0l6.5-3l-6.5-3H99.1z"/>
<rect x="104.7" y="103.2" class="st2" width="2" height="7.6"/>
<rect x="105.7" y="105.8" class="st2" width="60" height="2"/>
<path class="st3" d="M160.9,171.7h-46.3v-29.5h46.3V171.7z M116.7,169.7h42.3v-25.5h-42.3V169.7z"/>
<path class="st3" d="M137.8,158.3c-0.2,0-0.4-0.1-0.5-0.2l-16.1-10.3l1.1-1.7l15.6,9.9l14.9-9.6l1.1,1.7l-15.5,9.9
	C138.2,158.2,138,158.3,137.8,158.3"/>
<rect x="151.1" y="154.8" transform="matrix(0.7682 -0.6402 0.6402 0.7682 -68.3394 134.8699)" class="st3" width="2" height="13.9"/>
<rect x="116.5" y="160.8" transform="matrix(0.6402 -0.7682 0.7682 0.6402 -79.8577 153.0915)" class="st3" width="13.9" height="2"/>
<rect x="138.6" y="173.6" class="st3" width="2" height="14"/>
<path class="st3" d="M139.6,192c-0.1,0-0.3,0-0.4-0.1c-0.1-0.1-0.2-0.1-0.3-0.2c-0.1-0.1-0.2-0.2-0.2-0.3c-0.1-0.1-0.1-0.2-0.1-0.4
	s0-0.3,0.1-0.4c0-0.1,0.1-0.2,0.2-0.3c0.1-0.1,0.2-0.2,0.3-0.2c0.2-0.1,0.5-0.1,0.8,0c0.1,0.1,0.2,0.1,0.3,0.2
	c0.1,0.1,0.2,0.2,0.2,0.3c0.1,0.1,0.1,0.2,0.1,0.4s0,0.3-0.1,0.4c-0.1,0.1-0.1,0.2-0.2,0.3C140.2,191.9,139.9,192,139.6,192"/>
<rect x="147.3" y="173.6" class="st3" width="2" height="5.3"/>
<path class="st3" d="M148.3,183.3c-0.3,0-0.5-0.1-0.7-0.3c-0.2-0.2-0.3-0.4-0.3-0.7c0-0.1,0-0.3,0.1-0.4c0-0.1,0.1-0.2,0.2-0.3
	c0.2-0.2,0.6-0.3,0.9-0.3c0.1,0,0.1,0,0.2,0.1c0.1,0,0.1,0.1,0.2,0.1c0.1,0,0.1,0.1,0.1,0.1c0.1,0.1,0.2,0.2,0.2,0.3
	c0,0.1,0.1,0.2,0.1,0.4c0,0.3-0.1,0.5-0.3,0.7C148.8,183.2,148.6,183.3,148.3,183.3"/>
<rect x="129.9" y="173.6" class="st3" width="2" height="8.2"/>
<path class="st3" d="M130.9,186.2c-0.3,0-0.5-0.1-0.7-0.3c-0.1-0.1-0.2-0.2-0.2-0.3c-0.1-0.1-0.1-0.2-0.1-0.4c0-0.3,0.1-0.5,0.3-0.7
	c0.3-0.3,0.7-0.4,1.1-0.2c0.1,0.1,0.2,0.1,0.3,0.2c0.1,0.1,0.2,0.2,0.2,0.3c0,0.1,0.1,0.2,0.1,0.4c0,0.1,0,0.3-0.1,0.4
	c0,0.1-0.1,0.2-0.2,0.3C131.5,186.1,131.2,186.2,130.9,186.2"/>
<path class="st2" d="M134.2,65.5c-9.4,0-17-7.6-17-17s7.6-17,17-17s17,7.6,17,17S143.6,65.5,134.2,65.5 M119.2,48.5
	c0,8.3,6.7,15,15,15s15-6.7,15-15s-6.7-15-15-15S119.2,40.3,119.2,48.5 M134.2,59.5c-6.1,0-11-4.9-11-11s4.9-11,11-11s11,4.9,11,11
	S140.3,59.5,134.2,59.5 M134.2,39.5c-5,0-9,4-9,9s4,9,9,9s9-4,9-9S139.2,39.5,134.2,39.5"/>
<path class="st2" d="M134.2,53.5c-2.8,0-5-2.2-5-5s2.2-5,5-5s5,2.2,5,5S137,53.5,134.2,53.5 M134.2,45.5c-1.7,0-3,1.3-3,3s1.3,3,3,3
	c1.7,0,3-1.3,3-3S135.9,45.5,134.2,45.5"/>
<path class="st4" d="M134.2,44.5c-2.2,0-4,1.8-4,4s1.8,4,4,4s4-1.8,4-4S136.5,44.5,134.2,44.5"/>
<path class="st4" d="M134.2,53.5c-2.8,0-5-2.2-5-5s2.2-5,5-5s5,2.2,5,5S137,53.5,134.2,53.5 M134.2,45.5c-1.7,0-3,1.3-3,3s1.3,3,3,3
	c1.7,0,3-1.3,3-3S135.9,45.5,134.2,45.5"/>
<rect x="107.2" y="47.5" class="st2" width="27" height="2"/>
<path class="st2" d="M104.7,53.5h-8.8l5-5l-5-5h8.8l5,5L104.7,53.5z M100.7,51.5h3.2l3-3l-3-3h-3.2l3,3L100.7,51.5z"/>
<path class="st2" d="M66.6,21c-2.8,0-5-2.2-5-5s2.2-5,5-5c2.8,0,5,2.2,5,5S69.4,21,66.6,21 M66.6,13c-1.7,0-3,1.3-3,3s1.3,3,3,3
	c1.7,0,3-1.3,3-3S68.3,13,66.6,13"/>
<path class="st4" d="M166.7,139c0-1.7,1.3-3,3-3s3,1.3,3,3s-1.3,3-3,3S166.7,140.7,166.7,139"/>
<path class="st4" d="M169.7,143c-2.2,0-4-1.8-4-4c0-2.2,1.8-4,4-4c2.2,0,4,1.8,4,4C173.7,141.2,171.9,143,169.7,143 M169.7,137
	c-1.1,0-2,0.9-2,2c0,1.1,0.9,2,2,2s2-0.9,2-2C171.7,137.9,170.8,137,169.7,137"/>
<path class="st3" d="M30.9,175.6c-9.3,0-17.1-2.6-22.7-8.1l1.4-1.4c18.5,18.5,64.8,2.3,103.6-36l-4.3-2.8l14.5-7.9l-3.5,14.3
	l-4.7-2.8C86.8,159.1,54.2,175.6,30.9,175.6 M113,127.3l5.6,3.3l1.8-7.3L113,127.3z"/>
<path class="st3" d="M158.3,59.4c-0.1,0-0.1,0-0.2,0c-0.5-0.1-0.9-0.6-0.8-1.2c3.1-14.7,0.9-26.3-6.3-33.5c-0.4-0.4-0.4-1,0-1.4
	c0.4-0.4,1-0.4,1.4,0c7.7,7.7,10,19.9,6.8,35.4C159.2,59,158.7,59.4,158.3,59.4"/>
<path class="st3" d="M8.9,167.8c-0.3,0-0.5-0.1-0.7-0.3c-0.1-0.1-0.2-0.2-0.2-0.3c-0.1-0.1-0.1-0.2-0.1-0.4c0-0.3,0.1-0.5,0.3-0.7
	c0.1-0.1,0.2-0.2,0.3-0.2c0.4-0.2,0.8-0.1,1.1,0.2c0.2,0.2,0.3,0.4,0.3,0.7c0,0.1,0,0.3-0.1,0.4c-0.1,0.1-0.1,0.2-0.2,0.3
	C9.4,167.6,9.2,167.8,8.9,167.8"/>
<path class="st3" d="M5.6,164.4c-0.3-0.4-0.2-1.1,0.2-1.4c0.4-0.3,1.1-0.2,1.4,0.2h0c0.3,0.4,0.2,1.1-0.2,1.4
	c-0.2,0.1-0.4,0.2-0.6,0.2C6.1,164.8,5.8,164.6,5.6,164.4 M3.5,160.9c-0.2-0.5-0.1-1.1,0.4-1.3c0.5-0.3,1.1-0.1,1.3,0.4
	c0.2,0.5,0.1,1.1-0.4,1.4c-0.1,0.1-0.3,0.1-0.4,0.1C4,161.4,3.6,161.2,3.5,160.9 M1.9,157.2c-0.2-0.5,0.1-1.1,0.6-1.3
	c0.5-0.2,1.1,0.1,1.3,0.6c0.2,0.5-0.1,1.1-0.6,1.3c-0.1,0-0.2,0.1-0.3,0.1C2.4,157.8,2,157.6,1.9,157.2 M0.8,153.3
	c-0.1-0.5,0.2-1.1,0.8-1.2c0.5-0.1,1.1,0.2,1.2,0.8c0.1,0.5-0.2,1.1-0.8,1.2c-0.1,0-0.1,0-0.2,0C1.3,154.1,0.9,153.7,0.8,153.3
	 M0.2,149.3L0.2,149.3c0-0.5,0.4-1,0.9-1.1c0.5-0.1,1,0.3,1.1,0.9c0.1,0.6-0.3,1-0.9,1.1H1.2C0.7,150.2,0.3,149.8,0.2,149.3
	 M0,145.3c0-0.5,0.4-1,1-1c0.5,0,1,0.4,1,1c0,0.5-0.4,1-1,1h0C0.5,146.3,0,145.9,0,145.3 M1,142.4c-0.5,0-1-0.5-0.9-1.1
	c0-0.6,0.5-1,1.1-0.9c0.5,0,1,0.5,0.9,1.1C2.1,142,1.6,142.4,1,142.4L1,142.4z M1.3,138.5c-0.5-0.1-0.9-0.6-0.9-1.1
	c0.1-0.6,0.6-0.9,1.1-0.9c0.5,0.1,0.9,0.6,0.9,1.1c-0.1,0.5-0.5,0.9-1,0.9C1.4,138.5,1.4,138.5,1.3,138.5 M1.9,134.6
	c-0.5-0.1-0.9-0.6-0.8-1.2c0.1-0.5,0.6-0.9,1.2-0.8c0.5,0.1,0.9,0.6,0.8,1.2c-0.1,0.5-0.5,0.8-1,0.8C2,134.6,2,134.6,1.9,134.6
	 M2.7,130.8c-0.5-0.1-0.9-0.7-0.7-1.2l0,0c0.1-0.5,0.7-0.9,1.2-0.7c0.5,0.1,0.9,0.7,0.7,1.2c-0.1,0.5-0.5,0.8-1,0.8
	C2.9,130.8,2.8,130.8,2.7,130.8 M3.7,127c-0.5-0.2-0.8-0.7-0.7-1.2c0.2-0.5,0.7-0.8,1.2-0.7c0.5,0.2,0.8,0.7,0.7,1.2
	c-0.1,0.4-0.5,0.7-1,0.7C3.9,127.1,3.8,127,3.7,127 M4.8,123.3c-0.5-0.2-0.8-0.7-0.6-1.3c0.2-0.5,0.8-0.8,1.3-0.6
	c0.5,0.2,0.8,0.7,0.6,1.3c-0.1,0.4-0.5,0.7-0.9,0.7C5,123.3,4.9,123.3,4.8,123.3 M6.2,119.6c-0.5-0.3-0.7-0.9-0.4-1.3
	c0.3-0.5,0.9-0.7,1.4-0.4c0.5,0.3,0.7,0.9,0.4,1.3c-0.2,0.3-0.5,0.5-0.9,0.5C6.5,119.7,6.3,119.7,6.2,119.6 M8,116.2
	c-0.5-0.3-0.6-0.9-0.4-1.4c0.3-0.5,0.9-0.6,1.4-0.4c0.5,0.3,0.6,0.9,0.3,1.4c-0.2,0.3-0.5,0.5-0.9,0.5C8.4,116.3,8.2,116.3,8,116.2"
	/>
<path class="st3" d="M10.7,113c-0.3,0-0.5-0.1-0.7-0.3c-0.1-0.1-0.2-0.2-0.2-0.3c-0.1-0.1-0.1-0.2-0.1-0.4c0-0.3,0.1-0.5,0.3-0.7
	c0.4-0.4,1.1-0.4,1.4,0c0.2,0.2,0.3,0.4,0.3,0.7c0,0.1,0,0.3-0.1,0.4c-0.1,0.1-0.1,0.2-0.2,0.3c-0.1,0.1-0.2,0.2-0.3,0.2
	C10.9,113,10.8,113,10.7,113"/>
<path class="st3" d="M94.3,25.5c-0.2-0.5,0-1.1,0.5-1.3c0.5-0.2,1.1,0,1.3,0.5c0.2,0.5,0,1.1-0.5,1.3c-0.1,0.1-0.3,0.1-0.4,0.1
	C94.8,26.1,94.5,25.8,94.3,25.5 M151,24.6L151,24.6c-0.4-0.4-0.4-1,0-1.4c0.4-0.4,1-0.4,1.4,0c0.4,0.4,0.4,1,0,1.4
	c-0.2,0.2-0.4,0.3-0.7,0.3C151.5,24.9,151.2,24.8,151,24.6 M97.9,23.8c-0.2-0.5,0-1.1,0.5-1.3c0.5-0.2,1.1,0,1.3,0.5
	c0.2,0.5,0,1.1-0.5,1.3c-0.1,0.1-0.3,0.1-0.4,0.1C98.5,24.4,98.1,24.2,97.9,23.8 M101.6,22.2c-0.2-0.5,0-1.1,0.6-1.3
	c0.5-0.2,1.1,0.1,1.3,0.6c0.2,0.5,0,1.1-0.6,1.3c-0.1,0.1-0.2,0.1-0.4,0.1C102.1,22.9,101.8,22.6,101.6,22.2 M148.1,22.2
	c-0.5-0.3-0.6-1-0.2-1.4c0.3-0.5,0.9-0.6,1.4-0.2h0c0.4,0.3,0.6,0.9,0.2,1.4c-0.2,0.3-0.5,0.4-0.8,0.4
	C148.5,22.3,148.3,22.3,148.1,22.2 M105.3,20.8c-0.2-0.5,0.1-1.1,0.6-1.3c0.5-0.2,1.1,0.1,1.3,0.6c0.2,0.5-0.1,1.1-0.6,1.3
	c-0.1,0-0.2,0-0.3,0C105.9,21.5,105.5,21.2,105.3,20.8 M144.8,20.2L144.8,20.2c-0.5-0.2-0.7-0.9-0.5-1.4c0.2-0.5,0.8-0.7,1.3-0.4
	c0.5,0.2,0.7,0.8,0.4,1.3c-0.2,0.4-0.5,0.5-0.9,0.5C145.1,20.3,145,20.3,144.8,20.2 M109.1,19.5c-0.2-0.5,0.1-1.1,0.7-1.2
	c0.5-0.2,1.1,0.1,1.2,0.7c0.2,0.5-0.1,1.1-0.7,1.2h0c-0.1,0-0.2,0-0.3,0C109.7,20.2,109.3,20,109.1,19.5 M113,18.4
	c-0.1-0.5,0.2-1.1,0.7-1.2c0.5-0.1,1.1,0.2,1.2,0.7c0.1,0.5-0.2,1.1-0.7,1.2c-0.1,0-0.2,0-0.2,0C113.5,19.2,113.1,18.9,113,18.4
	 M141.3,18.7c-0.5-0.2-0.8-0.7-0.6-1.3c0.2-0.5,0.7-0.8,1.3-0.6c0.5,0.2,0.8,0.7,0.6,1.3c-0.1,0.4-0.5,0.7-0.9,0.7
	C141.5,18.8,141.4,18.8,141.3,18.7 M116.9,17.5c-0.1-0.5,0.2-1.1,0.8-1.2c0.5-0.1,1.1,0.2,1.2,0.8c0.1,0.5-0.2,1.1-0.8,1.2
	c-0.1,0-0.1,0-0.2,0C117.4,18.3,117,17.9,116.9,17.5 M137.5,17.7L137.5,17.7c-0.5-0.1-0.9-0.6-0.8-1.2c0.1-0.5,0.6-0.9,1.2-0.8
	c0.5,0.1,0.9,0.6,0.8,1.2c-0.1,0.5-0.5,0.8-1,0.8C137.6,17.8,137.6,17.7,137.5,17.7 M120.8,16.7c-0.1-0.5,0.3-1.1,0.8-1.1v0
	c0.6-0.1,1.1,0.3,1.1,0.8c0.1,0.5-0.3,1.1-0.8,1.1c0,0-0.1,0-0.1,0C121.3,17.6,120.9,17.2,120.8,16.7 M133.7,17.2L133.7,17.2
	c-0.5-0.1-1-0.5-0.9-1.1c0.1-0.6,0.5-1,1.1-0.9c0.6,0.1,1,0.5,0.9,1.1C134.7,16.8,134.3,17.2,133.7,17.2L133.7,17.2z M124.8,16.2
	c0-0.6,0.4-1,0.9-1.1c0.5,0,1,0.4,1.1,0.9c0,0.5-0.4,1-0.9,1.1h0h-0.1C125.2,17.2,124.8,16.8,124.8,16.2 M128.8,16c0-0.6,0.4-1,1-1
	c0.5,0,1,0.4,1,1c0,0.5-0.5,1-1,1C129.2,17,128.7,16.6,128.8,16"/>
<path class="st2" d="M44.8,46.6L42.9,46l0.3-1L42,44.5c-1.5-0.5-2.5-1.9-2.5-3.5c0-1.6,1-3,2.5-3.5l1.3-0.4L42.5,35l-1.3,0.4
	c-1.5,0.5-3.2,0-4.1-1.3s-0.9-3,0-4.3l0.8-1.1l-1.8-1.3l-0.8,1.1c-1,1.3-2.6,1.8-4.1,1.3c-1.5-0.5-2.5-1.9-2.5-3.5l0-1.3l-2.3,0
	l0,1.3c0,1.6-1,3-2.5,3.5c-1.5,0.5-3.2,0-4.1-1.3L19,27.3l-1.8,1.3l0.8,1.1c1,1.3,0.9,3,0,4.3c-1,1.3-2.6,1.8-4.1,1.3l-1.3-0.4
	l-0.3,1l-1.9-0.6l0.9-2.9l3.2,1c0.9,0.3,1.5-0.1,1.9-0.6c0.3-0.5,0.5-1.2,0-2l-2-2.7l5.1-3.7l2,2.7c0.5,0.7,1.3,0.8,1.9,0.6
	c0.6-0.2,1.2-0.7,1.2-1.6l0-3.3l6.3,0l0,3.3c0,0.9,0.6,1.4,1.2,1.6c0.6,0.2,1.3,0.1,1.9-0.6l2-2.7l5.1,3.7l-2,2.7
	c-0.5,0.7-0.3,1.5,0,2c0.3,0.5,1,0.9,1.9,0.6l3.2-1l1.9,6l-3.2,1c-0.8,0.3-1.2,1-1.2,1.6c0,0.6,0.3,1.3,1.2,1.6l3.2,1L44.8,46.6z"/>
<path class="st4" d="M35.6,43.7L33.7,43c1.1-3.4-0.8-7.1-4.1-8.2c-3.4-1.1-7.1,0.8-8.2,4.2l-1.9-0.6c1.4-4.4,6.2-6.9,10.7-5.4
	C34.6,34.4,37.1,39.2,35.6,43.7"/>
<path class="st4" d="M27.6,49.4c-0.9,0-1.8-0.1-2.6-0.4c-2.2-0.7-3.9-2.2-4.9-4.2c-1-2-1.2-4.3-0.5-6.5l1.9,0.6
	c-0.5,1.6-0.4,3.4,0.4,4.9c0.8,1.5,2.1,2.7,3.8,3.2c1.6,0.5,3.4,0.4,4.9-0.4c1.5-0.8,2.7-2.1,3.2-3.8l1.9,0.6
	c-0.7,2.2-2.2,3.9-4.2,4.9C30.2,49.1,28.9,49.4,27.6,49.4"/>
<path class="st2" d="M30.7,59.1l-6.3,0l0-3.3c0-0.9-0.6-1.4-1.2-1.6c-0.6-0.2-1.3-0.1-1.9,0.6l-2,2.7l-5.1-3.7l2-2.7
	c0.5-0.7,0.3-1.5,0-2c-0.3-0.5-1-0.9-1.9-0.6l-3.2,1l-1.9-6l3.2-1c0.8-0.3,1.2-1,1.2-1.6c0-0.6-0.3-1.3-1.2-1.6l-3.2-1l1.1-3.3
	l1.9,0.6L11.9,37l1.3,0.4c1.5,0.5,2.5,1.9,2.5,3.5s-1,3-2.5,3.5l-1.3,0.4l0.7,2.2l1.3-0.4c1.5-0.5,3.2,0,4.1,1.3c1,1.3,0.9,3,0,4.3
	l-0.8,1.1l1.8,1.3l0.8-1.1c1-1.3,2.6-1.8,4.1-1.3c1.5,0.5,2.5,1.9,2.5,3.5l0,1.3l2.3,0l0-1.3c0-1.6,1-3,2.5-3.5
	c1.5-0.5,3.2,0,4.1,1.3l0.8,1.1l1.8-1.3l-0.8-1.1c-1-1.3-0.9-3,0-4.3c1-1.3,2.6-1.8,4.1-1.3l1.3,0.4l0.5-1.5l1.9,0.6l-1.1,3.4
	l-3.2-1c-0.9-0.3-1.5,0.1-1.9,0.6c-0.3,0.5-0.5,1.2,0,2l2,2.7l-5.1,3.7l-2-2.7c-0.5-0.7-1.3-0.8-1.9-0.6c-0.6,0.2-1.2,0.7-1.2,1.6
	L30.7,59.1z"/>
<path class="st0" d="M31.5,41.1c0,2.2-1.8,4-4,4s-4-1.8-4-4s1.8-4,4-4S31.5,38.9,31.5,41.1"/>
<path class="st0" d="M27.5,45.6c-2.5,0-4.5-2-4.5-4.5s2-4.5,4.5-4.5s4.5,2,4.5,4.5S30,45.6,27.5,45.6 M27.5,37.6
	c-1.9,0-3.5,1.6-3.5,3.5s1.6,3.5,3.5,3.5S31,43,31,41.1S29.4,37.6,27.5,37.6"/>
<path class="st2" d="M86.5,103.6l-17.3,17.3l-8.5-8.5l15.9-15.9c0-1.5,0.4-2.8,1.2-4L59.3,111c-0.4,0.4-0.6,0.9-0.6,1.4
	c0,0.5,0.2,1,0.6,1.4l8.5,8.5c0.4,0.4,0.9,0.6,1.4,0.6c0.5,0,1-0.2,1.4-0.6l19.5-19.5l-0.8-0.8C88.5,102.7,87.5,103.3,86.5,103.6"/>
<path class="st2" d="M76.7,96.5c0-1.3,0.3-2.4,0.9-3.5l-0.1-12.8c0-0.3,0.1-0.5,0.3-0.7c0.2-0.2,0.4-0.3,0.7-0.3l10-0.1
	c0.3,0,0.5,0.1,0.7,0.3c0.2,0.2,0.3,0.4,0.3,0.7l0.1,11.2c1,1.1,1.8,2.4,2,3.9l-0.1-15.1c0-0.8-0.3-1.6-0.9-2.1
	c-0.6-0.6-1.4-0.9-2.1-0.9l-10,0.1c-0.8,0-1.6,0.3-2.1,0.9c-0.6,0.6-0.9,1.3-0.9,2.1l0.1,16.8l1.1,0C76.7,96.8,76.7,96.6,76.7,96.5"
	/>
<rect x="102.7" class="st3" width="2" height="4"/>
<rect x="102.7" y="10" class="st3" width="2" height="4"/>
<rect x="106.7" y="6" class="st3" width="4" height="2"/>
<rect x="96.7" y="6" class="st3" width="4" height="2"/>
<path class="st3" d="M81.6,27c-12.6,0-24.3,3.4-34.5,9.3c0.2,0.7,0.3,1.4,0.4,2.1c10-5.9,21.7-9.4,34.1-9.4c12.9,0,24.9,3.7,35.1,10
	c0.3-0.6,0.7-1.2,1-1.7C107.2,30.8,94.8,27,81.6,27"/>
<path class="st3" d="M142,67c4.2,8.8,6.6,18.6,6.6,29c0,36.9-30.1,67-67,67c-36.9,0-67-30.1-67-67c0-12.9,3.7-25,10.1-35.2
	c-0.7-0.1-1.4-0.3-2.1-0.4c-6.3,10.4-10,22.6-10,35.7c0,38,31,69,69,69s69-31,69-69c0-10.7-2.4-20.8-6.8-29.9
	C143.2,66.4,142.6,66.7,142,67"/>
</svg>
