<?xml version="1.0" encoding="utf-8"?>
<!-- Generator: Adobe Illustrator 21.1.0, SVG Export Plug-In . SVG Version: 6.00 Build 0)  -->
<svg version="1.1" id="Layer_1" xmlns="http://www.w3.org/2000/svg" xmlns:xlink="http://www.w3.org/1999/xlink" x="0px" y="0px"
	 viewBox="0 0 191.8 192" style="enable-background:new 0 0 191.8 192;" xml:space="preserve">
<style type="text/css">
	.st0{fill:#48515A;}
	.st1{fill:#D5D892;}
	.st2{fill:#F58E70;}
	.st3{fill:#DEDEDD;}
	.st4{fill:#475059;}
	.st5{fill:#5FE0ED;}
</style>
<path class="st0" d="M122.4,145.1H63.6v-15.7c0-7.1-3-13.9-8.5-19.2C43.6,99.4,37.3,84.1,37.8,68.4C38.7,40,61.6,16.6,90,15.1
	c15.3-0.8,29.9,4.5,41,15.1c11.1,10.5,17.2,24.8,17.2,40.1c0,15.1-6,29.3-17,39.8c-5.7,5.5-8.8,12.6-8.8,20.1V145.1z M65.6,143.1
	h54.8v-13c0-8.1,3.3-15.7,9.4-21.6c10.6-10.1,16.4-23.7,16.4-38.3c0-14.7-5.9-28.5-16.6-38.6c-10.7-10.1-24.7-15.3-39.5-14.5
	c-27.3,1.5-49.4,24-50.2,51.4c-0.5,15.2,5.6,29.9,16.6,40.3c5.9,5.6,9.2,12.9,9.2,20.6V143.1z"/>
<path class="st1" d="M102.8,173h-18c-8.3,0-15-6.7-15-15v-3h48v3C117.8,166.3,111.1,173,102.8,173"/>
<path class="st1" d="M102.8,173.5h-18c-8.5,0-15.5-7-15.5-15.5v-3.5h49v3.5C118.3,166.5,111.3,173.5,102.8,173.5 M70.3,155.5v2.5
	c0,8,6.5,14.5,14.5,14.5h18c8,0,14.5-6.5,14.5-14.5v-2.5H70.3z"/>
<path class="st2" d="M165.8,123.9c-7.5,0-13.7-6.1-13.7-13.7s6.1-13.7,13.7-13.7c7.5,0,13.7,6.1,13.7,13.7S173.3,123.9,165.8,123.9
	 M165.8,99.5c-5.9,0-10.7,4.8-10.7,10.7c0,5.9,4.8,10.7,10.7,10.7s10.7-4.8,10.7-10.7C176.5,104.3,171.7,99.5,165.8,99.5"/>
<path class="st0" d="M167.3,137h-3c-0.5,0-0.9-0.3-1-0.8l-1.5-6.1c0-0.1,0-0.2,0-0.2l0-1c-1.3-0.3-2.5-0.7-3.8-1.2l-0.6,0.8
	c0,0.1-0.1,0.1-0.2,0.2l-4.8,4c-0.4,0.3-0.9,0.3-1.2,0l-2.5-1.8c-0.4-0.3-0.5-0.8-0.3-1.2l2.3-5.8c0-0.1,0.1-0.1,0.1-0.2l0.6-0.8
	c-0.9-1-1.6-2-2.3-3.2l-0.9,0.3c-0.1,0-0.2,0-0.2,0l-6.2,0.4c-0.5,0-0.9-0.3-1-0.7l-0.9-2.9c-0.1-0.4,0-0.9,0.4-1.2l5.3-3.3
	c0.1,0,0.1-0.1,0.2-0.1l0.9-0.3c-0.1-0.7-0.1-1.3-0.1-2c0-0.6,0-1.3,0.1-2l-0.9-0.3c-0.1,0-0.2-0.1-0.2-0.1l-5.3-3.3
	c-0.4-0.2-0.6-0.7-0.4-1.2l0.9-2.9c0.1-0.4,0.6-0.7,1-0.7l6.2,0.4c0.1,0,0.2,0,0.2,0l0.9,0.3c0.7-1.1,1.4-2.2,2.3-3.2l-0.6-0.8
	c0-0.1-0.1-0.1-0.1-0.2l-2.3-5.8c-0.2-0.4,0-0.9,0.3-1.2l2.5-1.8c0.4-0.3,0.9-0.3,1.2,0l4.8,4c0.1,0.1,0.1,0.1,0.2,0.2l0.6,0.8
	c1.2-0.5,2.4-0.9,3.7-1.2v-1c0-0.1,0-0.2,0-0.2l1.5-6.1c0.1-0.4,0.5-0.8,1-0.8h3c0.5,0,0.9,0.3,1,0.8l1.5,6.1c0,0.1,0,0.2,0,0.2v1
	c1.3,0.3,2.5,0.7,3.7,1.2l0.6-0.8c0-0.1,0.1-0.1,0.2-0.2l4.8-4c0.4-0.3,0.9-0.3,1.2,0l2.5,1.8c0.4,0.3,0.5,0.8,0.3,1.2l-2.4,5.8
	c0,0.1-0.1,0.1-0.1,0.2l-0.6,0.8c0.9,1,1.7,2,2.3,3.2l0.9-0.3c0.1,0,0.2,0,0.2,0l6.2-0.4c0.5,0,0.9,0.3,1,0.7l0.9,2.9
	c0.1,0.4,0,0.9-0.4,1.2l-5.3,3.3c-0.1,0-0.1,0.1-0.2,0.1l-0.9,0.3c0.1,0.7,0.1,1.3,0.1,2c0,0.6,0,1.3-0.1,2l0.9,0.3
	c0.1,0,0.2,0.1,0.2,0.1l5.3,3.3c0.4,0.2,0.6,0.7,0.4,1.2l-0.9,2.9c-0.1,0.4-0.6,0.7-1,0.7l-6.2-0.4c-0.1,0-0.2,0-0.2,0l-0.9-0.3
	c-0.7,1.1-1.4,2.2-2.3,3.2l0.6,0.8c0,0.1,0.1,0.1,0.1,0.2l2.3,5.8c0.2,0.4,0,0.9-0.3,1.2l-2.5,1.8c-0.4,0.3-0.9,0.3-1.2,0l-4.8-4
	c-0.1-0.1-0.1-0.1-0.2-0.2l-0.6-0.8c-1.2,0.5-2.5,0.9-3.7,1.2v1c0,0.1,0,0.2,0,0.2l-1.5,6.1C168.2,136.7,167.8,137,167.3,137
	 M165.1,135h1.5l1.3-5.2v-1.7c0-0.5,0.4-0.9,0.8-1c1.7-0.3,3.3-0.8,4.8-1.6c0.4-0.2,1-0.1,1.3,0.3l1,1.4l4.1,3.4l1.2-0.9l-2-5
	l-1-1.4c-0.3-0.4-0.2-0.9,0.1-1.3c1.2-1.2,2.2-2.6,3-4.1c0.2-0.4,0.7-0.6,1.2-0.5l1.6,0.5l5.3,0.4l0.5-1.4l-4.5-2.8l-1.6-0.5
	c-0.5-0.2-0.8-0.6-0.7-1.1c0.1-1,0.2-1.7,0.2-2.5c0-0.8-0.1-1.6-0.2-2.5c-0.1-0.5,0.2-0.9,0.7-1.1l1.6-0.5l4.5-2.8l-0.5-1.4
	l-5.3,0.4l-1.6,0.5c-0.5,0.2-1-0.1-1.2-0.5c-0.8-1.5-1.8-2.9-3-4.1c-0.3-0.3-0.4-0.9-0.1-1.3l1-1.4l2-4.9l-1.2-0.9l-4.1,3.4l-1,1.4
	c-0.3,0.4-0.8,0.5-1.3,0.3c-1.5-0.7-3.1-1.3-4.8-1.5c-0.5-0.1-0.8-0.5-0.8-1v-1.7l-1.3-5.2h-1.5l-1.3,5.2l0,1.7c0,0.5-0.4,0.9-0.8,1
	c-1.7,0.3-3.3,0.8-4.8,1.5c-0.4,0.2-1,0.1-1.3-0.3l-1-1.4l-4.1-3.4l-1.2,0.9l2,5l1,1.3c0.3,0.4,0.2,0.9-0.1,1.3
	c-1.2,1.2-2.2,2.6-3,4.1c-0.2,0.4-0.7,0.6-1.2,0.5l-1.6-0.5l-5.3-0.4l-0.5,1.4l4.5,2.8l1.6,0.5c0.5,0.2,0.8,0.6,0.7,1.1
	c-0.1,1-0.2,1.8-0.2,2.5c0,0.8,0.1,1.6,0.2,2.5c0.1,0.5-0.2,0.9-0.7,1.1l-1.6,0.5l-4.5,2.8l0.5,1.4l5.3-0.4l1.6-0.5
	c0.5-0.2,1,0.1,1.2,0.5c0.8,1.5,1.8,2.9,3,4.1c0.3,0.3,0.4,0.9,0.1,1.3l-1,1.3l-2,5l1.2,0.9l4.1-3.4l1-1.4c0.3-0.4,0.8-0.5,1.3-0.3
	c1.5,0.7,3.1,1.3,4.8,1.5c0.5,0.1,0.8,0.5,0.8,1l0,1.7L165.1,135z"/>
<path class="st0" d="M165.8,117.3c-3.9,0-7.1-3.2-7.1-7.1c0-3.9,3.2-7.1,7.1-7.1s7.1,3.2,7.1,7.1
	C172.8,114.1,169.7,117.3,165.8,117.3 M165.8,105.1c-2.8,0-5.1,2.3-5.1,5.1c0,2.8,2.3,5.1,5.1,5.1s5.1-2.3,5.1-5.1
	C170.8,107.4,168.6,105.1,165.8,105.1"/>
<path class="st2" d="M25,159.1c-13.8,0-25-11.2-25-25s11.2-25,25-25s25,11.2,25,25S38.8,159.1,25,159.1 M25,111.1
	c-12.7,0-23,10.3-23,23c0,12.7,10.3,23,23,23s23-10.3,23-23C48,121.4,37.7,111.1,25,111.1"/>
<path class="st0" d="M45,135.1h-3.6c-0.6,0-1-0.4-1-1c0-0.6,0.4-1,1-1H45c0.6,0,1,0.4,1,1C46,134.6,45.5,135.1,45,135.1"/>
<path class="st0" d="M45,135.1h-3.6c-0.6,0-1-0.4-1-1c0-0.6,0.4-1,1-1H45c0.6,0,1,0.4,1,1C46,134.6,45.5,135.1,45,135.1"/>
<path class="st0" d="M35.1,152.5c-0.3,0-0.7-0.2-0.9-0.5l-1.8-3.1c-0.3-0.5-0.1-1.1,0.4-1.4c0.5-0.3,1.1-0.1,1.4,0.4L36,151
	c0.3,0.5,0.1,1.1-0.4,1.4C35.5,152.5,35.3,152.5,35.1,152.5"/>
<path class="st0" d="M39.1,126.6c-0.3,0-0.7-0.2-0.9-0.5c-0.3-0.5-0.1-1.1,0.4-1.4l3.1-1.8c0.5-0.3,1.1-0.1,1.4,0.4
	c0.3,0.5,0.1,1.1-0.4,1.4l-3.1,1.8C39.5,126.6,39.3,126.6,39.1,126.6"/>
<path class="st0" d="M42.5,144.9c-0.2,0-0.3,0-0.5-0.1L39,143c-0.5-0.3-0.6-0.9-0.4-1.4c0.3-0.5,0.9-0.6,1.4-0.4L43,143
	c0.5,0.3,0.6,0.9,0.4,1.4C43.2,144.7,42.9,144.9,42.5,144.9"/>
<path class="st0" d="M33.1,120.4c-0.2,0-0.3,0-0.5-0.1c-0.5-0.3-0.6-0.9-0.4-1.4l1.8-3.1c0.3-0.5,0.9-0.6,1.4-0.4
	c0.5,0.3,0.6,0.9,0.4,1.4l-1.8,3.1C33.7,120.2,33.4,120.4,33.1,120.4"/>
<polygon class="st0" points="26,146.2 24,146.2 24,132.2 33.8,132.2 33.8,134.2 26,134.2 "/>
<path class="st0" d="M25,118.2c-0.6,0-1-0.4-1-1v-3.6c0-0.6,0.4-1,1-1s1,0.4,1,1v3.6C26,117.7,25.5,118.2,25,118.2"/>
<path class="st0" d="M25,155.5c-0.6,0-1-0.4-1-1V151c0-0.6,0.4-1,1-1s1,0.4,1,1v3.6C26,155.1,25.6,155.5,25,155.5"/>
<path class="st0" d="M8.6,135.1H5c-0.6,0-1-0.4-1-1c0-0.6,0.4-1,1-1h3.6c0.6,0,1,0.4,1,1C9.6,134.6,9.1,135.1,8.6,135.1"/>
<path class="st0" d="M25,118.2c-0.6,0-1-0.4-1-1v-3.6c0-0.6,0.4-1,1-1s1,0.4,1,1v3.6C26,117.7,25.5,118.2,25,118.2"/>
<path class="st0" d="M25,155.5c-0.6,0-1-0.4-1-1V151c0-0.6,0.4-1,1-1s1,0.4,1,1v3.6C26,155.1,25.6,155.5,25,155.5"/>
<path class="st0" d="M8.6,135.1H5c-0.6,0-1-0.4-1-1c0-0.6,0.4-1,1-1h3.6c0.6,0,1,0.4,1,1C9.6,134.6,9.1,135.1,8.6,135.1"/>
<path class="st0" d="M14.8,152.5c-0.2,0-0.3,0-0.5-0.1c-0.5-0.3-0.6-0.9-0.4-1.4l1.8-3.1c0.3-0.5,0.9-0.6,1.4-0.4
	c0.5,0.3,0.6,0.9,0.4,1.4l-1.8,3.1C15.5,152.4,15.2,152.5,14.8,152.5"/>
<path class="st0" d="M10.8,126.6c-0.2,0-0.3,0-0.5-0.1l-3.1-1.8c-0.5-0.3-0.6-0.9-0.4-1.4c0.3-0.5,0.9-0.6,1.4-0.4l3.1,1.8
	c0.5,0.3,0.6,0.9,0.4,1.4C11.5,126.4,11.2,126.6,10.8,126.6"/>
<path class="st0" d="M7.4,144.9c-0.3,0-0.7-0.2-0.9-0.5c-0.3-0.5-0.1-1.1,0.4-1.4l3.1-1.8c0.5-0.3,1.1-0.1,1.4,0.4
	c0.3,0.5,0.1,1.1-0.4,1.4l-3.1,1.8C7.7,144.8,7.6,144.9,7.4,144.9"/>
<path class="st0" d="M16.9,120.4c-0.3,0-0.7-0.2-0.9-0.5l-1.8-3.1c-0.3-0.5-0.1-1.1,0.4-1.4c0.5-0.3,1.1-0.1,1.4,0.4l1.8,3.1
	c0.3,0.5,0.1,1.1-0.4,1.4C17.2,120.4,17.1,120.4,16.9,120.4"/>
<rect x="65.2" y="144" class="st3" width="56" height="8"/>
<path class="st3" d="M122.2,153h-58v-10h58V153z M66.2,151h54v-6h-54V151z"/>
<rect x="61.2" y="143.1" class="st0" width="64" height="2"/>
<path class="st0" d="M105.2,177H84c-5,0-9.7-1.9-13.2-5.5c-3.5-3.5-5.5-8.2-5.5-13.2v-6.3h2v6.3c0,4.4,1.7,8.6,4.9,11.8
	c3.1,3.1,7.3,4.9,11.8,4.9h21.1c3.6-0.4,7.1-2.2,9.8-4.9c3.1-3.1,4.9-7.3,4.9-11.8v-6.3h2v6.3c0,5-1.9,9.7-5.5,13.2
	C113.3,174.6,109.4,176.5,105.2,177L105.2,177z"/>
<path class="st4" d="M108.2,113.6c-0.4,0-0.8-0.3-0.9-0.7c-0.2-0.5,0.1-1.1,0.6-1.3c17.4-6.3,29.1-22.9,29.1-41.4v-4l-2.8,2.8
	c-0.4,0.4-1,0.4-1.4,0c-0.4-0.4-0.4-1,0-1.4l4.6-4.6c0.3-0.3,0.7-0.4,1.1-0.2c0.4,0.2,0.6,0.5,0.6,0.9v6.4
	c0,19.4-12.2,36.8-30.4,43.3C108.4,113.6,108.3,113.6,108.2,113.6"/>
<path class="st4" d="M99.2,116.2h-6.3c-19.4,0-36.9-12.3-43.4-30.6c-0.2-0.5,0.1-1.1,0.6-1.3c0.5-0.2,1.1,0.1,1.3,0.6
	c6.2,17.5,22.9,29.3,41.5,29.3h3.9l-2.9-2.9c-0.4-0.4-0.4-1,0-1.4c0.4-0.4,1-0.4,1.4,0l4.7,4.7c0.3,0.3,0.4,0.7,0.2,1.1
	C100,116,99.6,116.2,99.2,116.2"/>
<path class="st4" d="M47.9,77.8c-0.1,0-0.3,0-0.4-0.1c-0.4-0.2-0.6-0.5-0.6-0.9v-6.6c0-19.4,12.3-36.9,30.6-43.4
	c0.5-0.2,1.1,0.1,1.3,0.6c0.2,0.5-0.1,1.1-0.6,1.3c-17.5,6.2-29.3,22.9-29.3,41.5v4.1l3.2-3.2c0.4-0.4,1-0.4,1.4,0
	c0.4,0.4,0.4,1,0,1.4l-4.9,4.9C48.5,77.7,48.2,77.8,47.9,77.8"/>
<path class="st4" d="M115.2,32.1c-0.2,0-0.3,0-0.5-0.1c-6.6-3.8-14.1-5.7-21.7-5.7h-4.1l3.1,3.1c0.4,0.4,0.4,1,0,1.4
	c-0.4,0.4-1,0.4-1.4,0l-4.8-4.8c-0.3-0.3-0.4-0.7-0.2-1.1c0.2-0.4,0.5-0.6,0.9-0.6h6.6c8,0,15.8,2.1,22.7,6c0.5,0.3,0.6,0.9,0.4,1.4
	C115.9,31.9,115.5,32.1,115.2,32.1"/>
<path class="st4" d="M135.3,56.1c-0.4,0-0.8-0.3-0.9-0.7c-3.5-9.9-10.5-18.2-19.7-23.4c-0.5-0.3-0.6-0.9-0.4-1.4
	c0.3-0.5,0.9-0.6,1.4-0.4c9.6,5.5,16.9,14.2,20.6,24.5c0.2,0.5-0.1,1.1-0.6,1.3C135.5,56,135.4,56.1,135.3,56.1"/>
<rect x="61.2" y="147.1" class="st0" width="64" height="2"/>
<rect x="61.2" y="151.1" class="st0" width="64" height="2"/>
<path class="st0" d="M151.1,85c-0.3,0-0.5-0.1-0.7-0.3c-0.2-0.2-0.3-0.4-0.3-0.7c0-0.1,0-0.3,0.1-0.4c0-0.1,0.1-0.2,0.2-0.3
	c0.4-0.4,1.1-0.4,1.4,0c0.1,0.1,0.2,0.2,0.2,0.3c0.1,0.1,0.1,0.2,0.1,0.4c0,0.3-0.1,0.5-0.3,0.7C151.7,84.9,151.4,85,151.1,85"/>
<path class="st0" d="M92.4,130c0-0.6,0.4-1,1-1c0.6,0,1,0.4,1,1c0,0.6-0.4,1-1,1h0C92.9,131,92.4,130.6,92.4,130 M89.4,130.9
	c-0.6,0-1-0.5-1-1.1c0-0.5,0.5-1,1.1-0.9c0.5,0,1,0.5,0.9,1C90.4,130.5,89.9,130.9,89.4,130.9C89.4,130.9,89.4,130.9,89.4,130.9
	 M96.4,129.9c0-0.6,0.4-1,0.9-1.1c0.5,0,1,0.4,1.1,0.9s-0.4,1-0.9,1.1h-0.1C96.9,130.8,96.5,130.4,96.4,129.9 M85.3,130.5
	c-0.6-0.1-0.9-0.6-0.9-1.1c0.1-0.6,0.6-0.9,1.1-0.9c0.6,0.1,0.9,0.6,0.9,1.1c-0.1,0.5-0.5,0.9-1,0.9
	C85.4,130.5,85.3,130.5,85.3,130.5 M100.5,129.5c-0.1-0.5,0.3-1.1,0.8-1.1c0.5-0.1,1.1,0.3,1.1,0.8c0.1,0.5-0.3,1.1-0.9,1.1
	c0,0-0.1,0-0.1,0C101,130.4,100.5,130,100.5,129.5 M81.2,129.9c-0.5-0.1-0.9-0.6-0.8-1.2c0.1-0.5,0.6-0.9,1.2-0.8
	c0.5,0.1,0.9,0.6,0.8,1.2c-0.1,0.5-0.5,0.8-1,0.8C81.4,129.9,81.3,129.9,81.2,129.9 M104.4,128.9c-0.1-0.5,0.2-1.1,0.8-1.2
	c0.5-0.1,1.1,0.2,1.2,0.8c0.1,0.5-0.2,1.1-0.8,1.2c-0.1,0-0.1,0-0.2,0C104.9,129.7,104.5,129.3,104.4,128.9 M77.3,129
	c-0.5-0.1-0.8-0.7-0.7-1.2c0.1-0.5,0.7-0.9,1.2-0.7c0.5,0.1,0.9,0.7,0.7,1.2c-0.1,0.4-0.5,0.8-1,0.8C77.4,129,77.3,129,77.3,129
	 M108.3,128c-0.2-0.5,0.2-1.1,0.7-1.2c0.5-0.2,1.1,0.2,1.2,0.7c0.2,0.5-0.1,1.1-0.7,1.2c-0.1,0-0.2,0-0.3,0
	C108.9,128.7,108.5,128.4,108.3,128 M73.3,127.8c-0.5-0.2-0.8-0.8-0.6-1.3c0.2-0.5,0.7-0.8,1.3-0.6c0.5,0.2,0.8,0.7,0.6,1.3
	c-0.1,0.4-0.5,0.7-0.9,0.7C73.6,127.9,73.4,127.9,73.3,127.8 M112.2,126.8c-0.2-0.5,0.1-1.1,0.6-1.3c0.5-0.2,1.1,0.1,1.3,0.6
	c0.2,0.5-0.1,1.1-0.6,1.3c-0.1,0-0.2,0.1-0.3,0.1C112.7,127.5,112.3,127.2,112.2,126.8 M69.5,126.4c-0.5-0.2-0.8-0.8-0.5-1.3
	c0.2-0.5,0.8-0.8,1.3-0.5c0.5,0.2,0.8,0.8,0.5,1.3c-0.2,0.4-0.5,0.6-0.9,0.6C69.8,126.5,69.6,126.5,69.5,126.4 M116,125.4
	c-0.2-0.5,0-1.1,0.5-1.3v0c0.5-0.2,1.1,0,1.3,0.5c0.2,0.5,0,1.1-0.5,1.3c-0.1,0-0.3,0.1-0.4,0.1C116.5,126,116.1,125.7,116,125.4
	 M65.8,124.7c-0.5-0.2-0.7-0.8-0.4-1.3c0.2-0.5,0.8-0.7,1.3-0.4c0.5,0.2,0.7,0.8,0.4,1.3c-0.2,0.3-0.5,0.6-0.9,0.6
	C66.1,124.8,65.9,124.8,65.8,124.7 M119.6,123.7c-0.3-0.5-0.1-1.1,0.4-1.3c0.5-0.3,1.1-0.1,1.3,0.4s0.1,1.1-0.4,1.3
	c-0.2,0.1-0.3,0.1-0.5,0.1C120.1,124.2,119.8,124,119.6,123.7 M62.2,122.8c-0.5-0.3-0.6-0.9-0.4-1.4c0.3-0.5,0.9-0.6,1.4-0.4
	c0.5,0.3,0.6,0.9,0.4,1.4c-0.2,0.3-0.5,0.5-0.9,0.5C62.5,122.9,62.4,122.9,62.2,122.8 M123.1,121.8c-0.3-0.5-0.1-1.1,0.3-1.4
	c0.5-0.3,1.1-0.1,1.4,0.3s0.1,1.1-0.3,1.4c-0.2,0.1-0.3,0.1-0.5,0.1C123.7,122.2,123.3,122.1,123.1,121.8 M58.7,120.6
	c-0.5-0.3-0.6-0.9-0.3-1.4c0.3-0.5,0.9-0.6,1.4-0.3c0.5,0.3,0.6,0.9,0.3,1.4c-0.2,0.3-0.5,0.4-0.8,0.4
	C59.1,120.8,58.9,120.7,58.7,120.6 M126.5,119.6c-0.3-0.4-0.2-1.1,0.2-1.4c0.4-0.3,1.1-0.2,1.4,0.2c0.3,0.5,0.2,1.1-0.2,1.4
	c-0.2,0.1-0.4,0.2-0.6,0.2C127,120,126.7,119.9,126.5,119.6 M55.4,118.2L55.4,118.2c-0.4-0.3-0.5-1-0.2-1.4c0.3-0.4,1-0.5,1.4-0.2
	c0.4,0.3,0.5,1,0.2,1.4c-0.2,0.2-0.5,0.4-0.8,0.4C55.8,118.4,55.6,118.4,55.4,118.2 M129.8,117.2c-0.3-0.4-0.3-1.1,0.1-1.4
	c0.4-0.3,1.1-0.3,1.4,0.2c0.3,0.4,0.3,1-0.1,1.4c-0.2,0.1-0.4,0.2-0.6,0.2C130.3,117.6,130,117.5,129.8,117.2 M52.3,115.6
	c-0.4-0.4-0.4-1-0.1-1.4c0.4-0.4,1-0.4,1.4-0.1c0.4,0.4,0.5,1,0.1,1.4c-0.2,0.2-0.5,0.3-0.8,0.3C52.7,115.9,52.5,115.8,52.3,115.6
	 M132.9,114.7c-0.4-0.4-0.4-1,0.1-1.4c0.4-0.4,1-0.4,1.4,0c0.4,0.4,0.3,1-0.1,1.4c-0.2,0.2-0.4,0.3-0.7,0.3
	C133.3,115,133.1,114.9,132.9,114.7 M49.3,112.8c-0.4-0.4-0.4-1,0-1.4c0.4-0.4,1-0.4,1.4,0c0.4,0.4,0.4,1,0,1.4
	c-0.2,0.2-0.5,0.3-0.7,0.3C49.8,113.1,49.5,113,49.3,112.8 M135.8,111.9c-0.4-0.4-0.4-1,0-1.4c0.4-0.4,1-0.4,1.4,0
	c0.4,0.4,0.4,1,0,1.4c-0.2,0.2-0.5,0.3-0.7,0.3C136.2,112.1,136,112.1,135.8,111.9 M46.6,109.8c-0.4-0.4-0.3-1,0.1-1.4
	c0.4-0.4,1-0.3,1.4,0.1s0.3,1-0.1,1.4c-0.2,0.2-0.4,0.2-0.7,0.2C47,110.1,46.7,110,46.6,109.8 M44,106.6c-0.3-0.4-0.2-1.1,0.2-1.4
	c0.4-0.3,1.1-0.2,1.4,0.2c0.3,0.4,0.2,1.1-0.2,1.4c-0.2,0.1-0.4,0.2-0.6,0.2C44.5,107,44.2,106.9,44,106.6 M41.6,103.3
	c-0.3-0.5-0.2-1.1,0.3-1.4c0.5-0.3,1.1-0.2,1.4,0.3c0.3,0.5,0.2,1.1-0.3,1.4c-0.2,0.1-0.4,0.2-0.5,0.2
	C42.2,103.7,41.8,103.5,41.6,103.3 M39.5,99.8L39.5,99.8c-0.3-0.5-0.1-1.1,0.4-1.4c0.5-0.3,1.1-0.1,1.4,0.4c0.3,0.5,0.1,1.1-0.4,1.4
	c-0.2,0.1-0.3,0.1-0.5,0.1C40,100.3,39.7,100.1,39.5,99.8 M37.6,96.1L37.6,96.1c-0.2-0.5,0-1.1,0.5-1.3c0.5-0.2,1.1,0,1.3,0.5
	s0,1.1-0.5,1.3c-0.1,0.1-0.3,0.1-0.4,0.1C38.2,96.7,37.8,96.5,37.6,96.1 M36,92.4c-0.2-0.5,0-1.1,0.6-1.3c0.5-0.2,1.1,0,1.3,0.6h0
	c0.2,0.5,0,1.1-0.6,1.3c-0.1,0-0.2,0.1-0.4,0.1C36.6,93,36.2,92.8,36,92.4 M34.6,88.5c-0.2-0.5,0.1-1.1,0.7-1.2
	c0.5-0.2,1.1,0.1,1.3,0.7c0.2,0.5-0.1,1.1-0.6,1.2c-0.1,0-0.2,0.1-0.3,0.1C35.2,89.2,34.8,88.9,34.6,88.5 M33.5,84.6
	c-0.1-0.5,0.2-1.1,0.7-1.2c0.5-0.1,1.1,0.2,1.2,0.7c0.1,0.5-0.2,1.1-0.7,1.2c-0.1,0-0.2,0-0.2,0C34.1,85.3,33.7,85,33.5,84.6
	 M32.7,80.6c-0.1-0.5,0.3-1.1,0.8-1.2c0.5-0.1,1.1,0.3,1.1,0.8h0c0.1,0.6-0.3,1.1-0.8,1.2c-0.1,0-0.1,0-0.2,0
	C33.2,81.4,32.8,81.1,32.7,80.6 M151.8,81c-0.6-0.1-0.9-0.6-0.8-1.2c0.1-0.5,0.6-0.9,1.2-0.8c0.5,0.1,0.9,0.6,0.8,1.2
	c-0.1,0.5-0.5,0.8-1,0.8C151.9,81.1,151.8,81.1,151.8,81 M32.1,76.5c-0.1-0.6,0.3-1,0.9-1.1c0.5-0.1,1,0.3,1.1,0.9
	c0.1,0.5-0.3,1-0.9,1.1h-0.1C32.6,77.4,32.2,77,32.1,76.5 M152.4,77.1c-0.5-0.1-0.9-0.5-0.9-1.1c0.1-0.5,0.6-0.9,1.1-0.9
	c0.5,0.1,0.9,0.6,0.9,1.1c-0.1,0.5-0.5,0.9-1,0.9C152.4,77.1,152.4,77.1,152.4,77.1 M31.8,72.5c0-0.6,0.4-1,1-1c0.5,0,1,0.4,1,1
	c0,0.6-0.4,1-1,1h0C32.3,73.4,31.9,73,31.8,72.5 M152.7,73.1c-0.6,0-1-0.5-1-1c0-0.6,0.5-1,1-1c0.6,0,1,0.5,1,1
	C153.7,72.6,153.3,73.1,152.7,73.1L152.7,73.1z M32.8,69.4c-0.6,0-1-0.5-1-1c0-0.5,0.5-1,1-1c0.5,0,1,0.5,1,1
	C33.8,69,33.3,69.4,32.8,69.4L32.8,69.4z M151.8,68.1c0-0.6,0.4-1,1-1c0.5,0,1,0.4,1,1c0,0.6-0.4,1-1,1h0
	C152.2,69,151.8,68.6,151.8,68.1 M33,65.4c-0.5-0.1-1-0.5-0.9-1.1c0.1-0.5,0.5-0.9,1.1-0.9c0.5,0.1,1,0.5,0.9,1.1v0
	C34,65,33.6,65.4,33,65.4L33,65.4z M151.5,64.1c0-0.5,0.4-1,0.9-1.1c0.6-0.1,1,0.3,1.1,0.9c0.1,0.5-0.3,1-0.9,1.1h-0.1
	C152,65,151.5,64.6,151.5,64.1 M33.4,61.4c-0.5-0.1-0.9-0.6-0.8-1.1c0.1-0.5,0.6-0.9,1.1-0.8c0.5,0.1,0.9,0.6,0.8,1.1
	c-0.1,0.5-0.5,0.8-1,0.8C33.5,61.4,33.4,61.4,33.4,61.4 M151,60.2c-0.1-0.5,0.3-1.1,0.8-1.1c0.5-0.1,1,0.3,1.1,0.8
	c0.1,0.5-0.3,1.1-0.8,1.1c-0.1,0-0.1,0-0.2,0C151.5,61,151.1,60.7,151,60.2 M34.1,57.4c-0.5-0.1-0.9-0.7-0.8-1.2
	c0.1-0.5,0.7-0.9,1.2-0.8c0.5,0.1,0.9,0.7,0.8,1.2c-0.1,0.5-0.5,0.8-1,0.8C34.2,57.4,34.2,57.4,34.1,57.4 M150.2,56.3L150.2,56.3
	c-0.1-0.5,0.2-1.1,0.7-1.2c0.5-0.1,1.1,0.2,1.2,0.8c0.1,0.5-0.2,1.1-0.7,1.2c-0.1,0-0.2,0-0.2,0C150.7,57.1,150.3,56.8,150.2,56.3
	 M35.1,53.5c-0.5-0.2-0.8-0.7-0.7-1.2c0.2-0.5,0.7-0.8,1.2-0.7c0.5,0.2,0.8,0.7,0.7,1.2c-0.1,0.4-0.5,0.7-1,0.7
	C35.3,53.6,35.2,53.5,35.1,53.5 M149.2,52.5c-0.2-0.5,0.1-1.1,0.7-1.3c0.5-0.2,1.1,0.1,1.2,0.7c0.2,0.5-0.1,1.1-0.7,1.3
	c-0.1,0-0.2,0-0.3,0C149.7,53.2,149.3,53,149.2,52.5 M36.3,49.7c-0.5-0.2-0.8-0.8-0.6-1.3c0.2-0.5,0.8-0.8,1.3-0.6
	c0.5,0.2,0.8,0.8,0.6,1.3c-0.2,0.4-0.5,0.7-0.9,0.7C36.5,49.8,36.4,49.7,36.3,49.7 M147.9,48.8c-0.2-0.5,0.1-1.1,0.6-1.3
	c0.5-0.2,1.1,0.1,1.3,0.6c0.2,0.5-0.1,1.1-0.6,1.3c-0.1,0-0.2,0.1-0.4,0.1C148.4,49.4,148,49.2,147.9,48.8 M37.8,46
	c-0.5-0.2-0.7-0.8-0.5-1.3s0.8-0.7,1.3-0.5s0.7,0.8,0.5,1.3c-0.2,0.4-0.5,0.6-0.9,0.6C38.1,46.1,37.9,46,37.8,46 M146.3,45.1
	c-0.2-0.5,0-1.1,0.5-1.3c0.5-0.2,1.1,0,1.3,0.5s0,1.1-0.5,1.3c-0.1,0.1-0.3,0.1-0.4,0.1C146.8,45.7,146.5,45.5,146.3,45.1
	 M39.5,42.3c-0.5-0.3-0.7-0.9-0.4-1.3c0.3-0.5,0.9-0.7,1.4-0.4c0.5,0.3,0.7,0.9,0.4,1.4c-0.2,0.3-0.5,0.5-0.9,0.5
	C39.8,42.5,39.7,42.4,39.5,42.3 M144.5,41.6c-0.3-0.5-0.1-1.1,0.4-1.3c0.5-0.3,1.1-0.1,1.4,0.4c0.3,0.5,0.1,1.1-0.4,1.4
	c-0.2,0.1-0.3,0.1-0.5,0.1C145,42.1,144.7,41.9,144.5,41.6 M41.5,38.8c-0.5-0.3-0.6-0.9-0.3-1.4c0.3-0.5,0.9-0.6,1.4-0.3
	c0.5,0.3,0.6,0.9,0.3,1.4C42.7,38.8,42.4,39,42,39C41.8,39,41.7,38.9,41.5,38.8 M142.5,38.2L142.5,38.2c-0.3-0.5-0.2-1.1,0.3-1.4
	c0.5-0.3,1.1-0.2,1.4,0.3c0.3,0.5,0.2,1.1-0.3,1.4c-0.2,0.1-0.4,0.2-0.5,0.2C143,38.7,142.7,38.5,142.5,38.2 M43.7,35.5
	c-0.5-0.3-0.5-1-0.2-1.4c0.3-0.4,1-0.5,1.4-0.2c0.4,0.3,0.5,1,0.2,1.4c-0.2,0.3-0.5,0.4-0.8,0.4C44.1,35.7,43.9,35.6,43.7,35.5
	 M140.3,35c-0.3-0.4-0.2-1.1,0.2-1.4c0.4-0.3,1.1-0.2,1.4,0.2c0.3,0.4,0.2,1.1-0.2,1.4c-0.2,0.1-0.4,0.2-0.6,0.2
	C140.8,35.4,140.5,35.2,140.3,35 M46.1,32.3c-0.4-0.4-0.5-1-0.1-1.4c0.3-0.4,1-0.5,1.4-0.1c0.4,0.4,0.5,1,0.1,1.4
	c-0.2,0.2-0.5,0.4-0.8,0.4C46.5,32.5,46.3,32.4,46.1,32.3 M137.8,31.9c-0.3-0.4-0.3-1.1,0.1-1.4c0.4-0.4,1-0.3,1.4,0.1
	s0.3,1.1-0.1,1.4c-0.2,0.2-0.4,0.2-0.6,0.2C138.3,32.2,138,32.1,137.8,31.9 M48.7,29.2c-0.4-0.4-0.4-1,0-1.4c0.4-0.4,1-0.4,1.4,0
	c0.4,0.4,0.4,1,0,1.4v0c-0.2,0.2-0.5,0.3-0.7,0.3C49.2,29.5,48.9,29.4,48.7,29.2 M135.1,28.9c-0.4-0.4-0.4-1,0-1.4
	c0.4-0.4,1-0.4,1.4,0c0.4,0.4,0.4,1,0,1.4c-0.2,0.2-0.4,0.3-0.7,0.3C135.6,29.2,135.3,29.1,135.1,28.9 M51.6,26.4
	c-0.4-0.4-0.3-1,0.1-1.4v0c0.4-0.4,1-0.4,1.4,0.1c0.4,0.4,0.3,1-0.1,1.4c-0.2,0.2-0.4,0.3-0.7,0.3C52,26.7,51.8,26.6,51.6,26.4
	 M132.3,26.2c-0.4-0.4-0.4-1-0.1-1.4c0.4-0.4,1-0.4,1.4-0.1c0.4,0.4,0.4,1,0.1,1.4c-0.2,0.2-0.5,0.3-0.7,0.3
	C132.7,26.4,132.5,26.3,132.3,26.2 M54.6,23.7c-0.3-0.4-0.3-1.1,0.2-1.4c0.4-0.4,1.1-0.3,1.4,0.2c0.3,0.4,0.3,1.1-0.2,1.4
	c-0.2,0.1-0.4,0.2-0.6,0.2C55.1,24.1,54.8,24,54.6,23.7 M129.3,23.6c-0.4-0.3-0.5-1-0.2-1.4c0.3-0.4,1-0.5,1.4-0.2
	c0.4,0.3,0.5,1,0.2,1.4c-0.2,0.2-0.5,0.4-0.8,0.4C129.7,23.8,129.5,23.8,129.3,23.6 M57.8,21.3c-0.3-0.5-0.2-1.1,0.2-1.4
	c0.5-0.3,1.1-0.2,1.4,0.2c0.3,0.4,0.2,1.1-0.2,1.4c-0.2,0.1-0.4,0.2-0.6,0.2C58.3,21.7,58,21.5,57.8,21.3 M126.1,21.3L126.1,21.3
	c-0.5-0.3-0.6-0.9-0.3-1.4c0.3-0.4,0.9-0.6,1.4-0.3c0.5,0.3,0.6,0.9,0.3,1.4c-0.2,0.3-0.5,0.4-0.8,0.4
	C126.5,21.5,126.3,21.4,126.1,21.3 M61.1,19c-0.3-0.5-0.1-1.1,0.3-1.4c0.5-0.3,1.1-0.1,1.4,0.3c0.3,0.5,0.1,1.1-0.3,1.4
	c-0.2,0.1-0.3,0.1-0.5,0.1C61.6,19.5,61.3,19.3,61.1,19 M122.8,19.2c-0.5-0.3-0.6-0.9-0.4-1.4c0.3-0.5,0.9-0.6,1.4-0.4
	c0.5,0.3,0.6,0.9,0.3,1.4c-0.2,0.3-0.5,0.5-0.9,0.5C123.1,19.3,122.9,19.3,122.8,19.2 M64.6,17c-0.2-0.5-0.1-1.1,0.4-1.3
	c0.5-0.2,1.1-0.1,1.3,0.4c0.2,0.5,0.1,1.1-0.4,1.3c-0.1,0.1-0.3,0.1-0.5,0.1C65.1,17.5,64.8,17.3,64.6,17 M119.3,17.3
	c-0.5-0.2-0.7-0.9-0.4-1.4c0.2-0.5,0.8-0.7,1.3-0.4c0.5,0.2,0.7,0.8,0.4,1.3c-0.2,0.4-0.5,0.6-0.9,0.6
	C119.6,17.4,119.4,17.3,119.3,17.3 M68.2,15.2c-0.2-0.5,0-1.1,0.5-1.3c0.5-0.2,1.1,0,1.3,0.5c0.2,0.5,0,1.1-0.5,1.3
	c-0.1,0.1-0.3,0.1-0.4,0.1C68.8,15.8,68.4,15.6,68.2,15.2 M115.7,15.6c-0.5-0.2-0.8-0.8-0.5-1.3c0.2-0.5,0.8-0.8,1.3-0.5
	c0.5,0.2,0.8,0.8,0.5,1.3c-0.2,0.4-0.5,0.6-0.9,0.6C116,15.7,115.8,15.7,115.7,15.6 M71.9,13.7c-0.2-0.5,0.1-1.1,0.6-1.3
	c0.5-0.2,1.1,0.1,1.3,0.6c0.2,0.5-0.1,1.1-0.6,1.3c-0.1,0-0.2,0.1-0.3,0.1C72.5,14.4,72.1,14.1,71.9,13.7 M112,14.2
	c-0.5-0.2-0.8-0.8-0.6-1.3s0.8-0.8,1.3-0.6c0.5,0.2,0.8,0.8,0.6,1.3c-0.1,0.4-0.5,0.7-0.9,0.7C112.2,14.3,112.1,14.2,112,14.2
	 M75.8,12.4c-0.1-0.5,0.2-1.1,0.7-1.2c0.5-0.2,1.1,0.2,1.2,0.7c0.1,0.5-0.2,1.1-0.7,1.2c-0.1,0-0.2,0-0.3,0
	C76.3,13.2,75.9,12.9,75.8,12.4 M108.2,13L108.2,13c-0.5-0.1-0.8-0.7-0.7-1.2c0.1-0.5,0.7-0.9,1.2-0.7c0.5,0.1,0.9,0.7,0.7,1.2
	c-0.1,0.5-0.5,0.7-1,0.7C108.4,13.1,108.3,13.1,108.2,13 M79.7,11.4c-0.1-0.5,0.2-1.1,0.8-1.2c0.5-0.1,1.1,0.2,1.2,0.8
	s-0.2,1.1-0.8,1.2c-0.1,0-0.1,0-0.2,0C80.2,12.2,79.8,11.9,79.7,11.4 M104.4,12.1c-0.5-0.1-0.9-0.6-0.8-1.2c0.1-0.5,0.6-0.9,1.2-0.8
	c0.5,0.1,0.9,0.6,0.8,1.2c-0.1,0.5-0.5,0.8-1,0.8C104.5,12.2,104.5,12.1,104.4,12.1 M83.6,10.7c-0.1-0.6,0.3-1.1,0.8-1.1
	c0.6-0.1,1.1,0.3,1.1,0.9c0.1,0.6-0.3,1.1-0.8,1.1c0,0-0.1,0-0.1,0C84.1,11.5,83.7,11.2,83.6,10.7 M100.5,11.5
	c-0.6-0.1-0.9-0.6-0.9-1.1c0.1-0.5,0.6-0.9,1.1-0.9c0.5,0.1,0.9,0.6,0.9,1.1c-0.1,0.5-0.5,0.9-1,0.9
	C100.6,11.5,100.5,11.5,100.5,11.5 M87.6,10.2c0-0.6,0.4-1,0.9-1.1c0.6,0,1,0.4,1.1,0.9c0,0.5-0.4,1-0.9,1.1h-0.1
	C88.1,11.1,87.6,10.7,87.6,10.2 M96.6,11.1c-0.6,0-1-0.5-0.9-1.1c0-0.6,0.5-1,1.1-0.9c0.6,0,1,0.5,0.9,1.1
	C97.6,10.7,97.2,11.1,96.6,11.1L96.6,11.1z M91.6,10c0-0.6,0.4-1,1-1c0.6,0,1,0.4,1,1c0,0.5-0.4,1-1,1C92.1,11,91.6,10.6,91.6,10"/>
<path class="st0" d="M139.2,109c-0.3,0-0.5-0.1-0.7-0.3c-0.2-0.2-0.3-0.4-0.3-0.7c0-0.3,0.1-0.5,0.3-0.7c0.3-0.3,0.7-0.4,1.1-0.2
	c0.1,0.1,0.2,0.1,0.3,0.2c0.2,0.2,0.3,0.4,0.3,0.7c0,0.3-0.1,0.5-0.3,0.7c-0.1,0.1-0.2,0.2-0.3,0.2C139.5,109,139.4,109,139.2,109"
	/>
<path class="st5" d="M28.8,22c0,2.2-1.8,4-4,4s-4-1.8-4-4s1.8-4,4-4S28.8,19.8,28.8,22"/>
<path class="st0" d="M29.8,177c-3.3,0-6-2.7-6-6c0-3.3,2.7-6,6-6s6,2.7,6,6C35.8,174.3,33.1,177,29.8,177 M29.8,167
	c-2.2,0-4,1.8-4,4c0,2.2,1.8,4,4,4s4-1.8,4-4C33.8,168.8,32,167,29.8,167"/>
<path class="st1" d="M60.8,182c0-2.2-1.8-4-4-4s-4,1.8-4,4s1.8,4,4,4S60.8,184.2,60.8,182"/>
<rect x="142.8" class="st0" width="2" height="4"/>
<rect x="142.8" y="10" class="st0" width="2" height="4"/>
<rect x="146.8" y="6" class="st0" width="4" height="2"/>
<rect x="136.8" y="6" class="st0" width="4" height="2"/>
<rect x="172.8" y="158" class="st0" width="2" height="4"/>
<rect x="172.8" y="168" class="st0" width="2" height="4"/>
<rect x="176.8" y="164" class="st0" width="4" height="2"/>
<rect x="166.8" y="164" class="st0" width="4" height="2"/>
<rect x="16.8" y="88" class="st0" width="2" height="4"/>
<rect x="16.8" y="98" class="st0" width="2" height="4"/>
<rect x="20.8" y="94" class="st0" width="4" height="2"/>
<rect x="10.8" y="94" class="st0" width="4" height="2"/>
<path class="st0" d="M7.8,67c-2.2,0-4-1.8-4-4c0-2.2,1.8-4,4-4s4,1.8,4,4C11.8,65.2,10,67,7.8,67 M7.8,61c-1.1,0-2,0.9-2,2
	s0.9,2,2,2s2-0.9,2-2S8.9,61,7.8,61"/>
<path class="st3" d="M92.8,100.1L92.8,100.1c5.5,0,10.7-1.4,15.1-4c0,0,1.9-1.2,2-1.3c3.4-1.5,6.5-3.6,9.2-6.2l3.7-3.7
	c0.7-0.7,0.8-2,0.1-2.8c-0.8-0.8-2-0.9-2.8-0.2l3-3c0.7-0.7,0.9-2,0.2-2.8c-0.8-0.9-2.2-1-3-0.1l-5.3,5.3l6.4-6.4l1.6,0.8
	c0.5-2.1,0.7-4.4,0.7-6.6c0-5.5-1.4-10.7-4-15.1c0,0-1.2-1.9-1.3-2c-1.5-3.4-3.6-6.5-6.2-9.2l-3.7-3.7c-0.7-0.7-2-0.8-2.8-0.1
	c-0.8,0.8-0.9,2-0.2,2.8l-3-3c-0.7-0.7-2-0.9-2.8-0.2c-0.9,0.8-1,2.2-0.1,3l5.3,5.3l-6.4-6.4l0.9-1.6c-2.2-0.5-4.4-0.7-6.7-0.7
	c-5.5,0-10.7,1.4-15.1,4c0,0-1.9,1.2-2,1.3c-3.4,1.5-6.5,3.6-9.2,6.2l-3.7,3.7c-0.7,0.7-0.8,2-0.1,2.8c0.8,0.8,2,0.9,2.8,0.2l-3,3
	c-0.7,0.7-0.9,2-0.2,2.8c0.8,0.9,2.2,1,3,0.1l5.3-5.3l-6.3,6.3l-1.7-0.9c-0.5,2.2-0.7,4.4-0.7,6.7c0,5.5,1.4,10.7,4,15.1
	c0,0,1.2,1.9,1.3,2c1.5,3.4,3.6,6.5,6.2,9.2l3.7,3.7c0.7,0.7,2,0.8,2.8,0.1c0.8-0.8,0.9-2,0.2-2.8l3,3c0.7,0.7,2,0.9,2.8,0.2
	c0.9-0.8,1-2.2,0.1-3l-5.3-5.3l6.3,6.3 M102.1,49.7l-5.4-5.4c-0.1-0.1-0.1-0.1-0.2-0.2l0,0L102.1,49.7z M68.1,65.1
	C68.1,65.1,68.1,65.1,68.1,65.1L68.1,65.1z M83.5,88.4l5.4,5.4c0,0,0,0,0.1,0.1l0,0L83.5,88.4z M106.1,78.7c0.1-0.1,0.3-0.3,0.6-0.6
	L106.1,78.7z M108.5,76.3c0.8-0.8,0.8-2.1,0-2.8c-0.8-0.8-2.1-0.8-2.9,0l-1.9,1.9c-1.9,1.8-2.5,3.4-2.5,5.4l-0.3,4.1
	c0,0.4,0.3,3.9-2.3,4.4c0,0-0.5,0.2-1,0.3c-1.5,0.4-3.1,0.5-4.7,0.5c-0.6,0-1.2,0-1.8-0.1l0,0l-7.7-7.7c0.2,0.2,1.4,1.4,2.4,2.4
	c0.8,0.8,2.1,0.8,2.8,0c0.8-0.8,0.8-2.1,0-2.9l-1.9-1.9c-1.8-1.9-3.4-2.5-5.4-2.5L77,77.1c-0.4,0-3.9,0.3-4.4-2.3c0,0-0.2-0.5-0.3-1
	c-0.4-1.5-0.5-3.1-0.5-4.7c0-0.4,0-1.4,0.1-1.9l7.7-7.7l-2.4,2.4c-0.8,0.8-0.8,2.1,0,2.8c0.8,0.8,2.1,0.8,2.9,0l1.9-1.9
	c1.9-1.8,2.5-3.4,2.5-5.4l0.3-4.1c0-0.4-0.3-3.9,2.3-4.4c0,0,0.5-0.2,1-0.3c1.5-0.4,3.1-0.5,4.7-0.5c0.5,0,1,0,1.5,0l0.1-0.3l8,8
	c-0.2-0.2-1.4-1.4-2.4-2.4c-0.8-0.8-2.1-0.8-2.8,0c-0.8,0.8-0.8,2.1,0,2.9l1.9,1.9c1.8,1.9,3.4,2.5,5.4,2.5l4.1,0.3
	c0.4,0,3.9-0.3,4.4,2.3c0,0,0.2,0.5,0.3,1c0.4,1.5,0.5,3.1,0.5,4.7c0,0.6,0,1.3-0.1,1.9l0,0L108.5,76.3z M117.5,73
	C117.6,73,117.6,72.9,117.5,73L117.5,73L117.5,73z"/>
<path class="st0" d="M124.8,69h-2c0-5.1-1.3-10.2-3.8-14.7c-1.2-2-1.3-2-1.3-2.1c-1.5-3.3-3.5-6.3-6-8.9l-3.7-3.7
	c-0.4-0.4-1.1-0.4-1.4-0.1c-0.2,0.2-0.3,0.4-0.3,0.7c0,0.2,0.1,0.4,0.2,0.6l2.2,2.3l-1.4,1.4l-2.1-2.1c-0.1-0.1-0.1-0.1-0.2-0.2
	l-2.9-2.9c-0.4-0.4-1-0.5-1.4-0.1c-0.2,0.2-0.4,0.5-0.4,0.7c0,0.3,0.1,0.6,0.3,0.8l5.3,5.3l-1.4,1.4l-6.5-6.5
	c-0.4-0.4-1.1-0.4-1.4-0.1C96.2,41,96,41.3,96,41.6c0,0.3,0.1,0.6,0.3,0.7l1.2,1.2c0,0,0,0,0,0l5.4,5.4l-1.4,1.4L96,44.9
	c-0.4-0.4-1-0.4-1.4-0.1c-0.3,0.2-0.4,0.5-0.4,0.8c0,0.3,0.1,0.6,0.3,0.8l8.7,8.7l-1.4,1.4L99.3,54c-0.4-0.4-1-0.4-1.4,0
	c-0.2,0.2-0.3,0.4-0.3,0.7c0,0.3,0.1,0.5,0.3,0.7l1.9,1.9c1.6,1.6,2.8,2.2,4.7,2.2l4.2,0.3c4.1-0.1,5.1,1.9,5.3,3.1
	c0,0,0.2,0.5,0.3,1l-2,0.5c-0.1-0.5-0.3-1-0.3-1c-0.2-1.2-1.3-1.7-3.3-1.6l-0.1,0l-4.2-0.3h0c-2.3,0-4.1-0.8-6-2.8l-1.9-1.9
	c-0.6-0.6-0.9-1.3-0.9-2.1c0-0.8,0.3-1.6,0.9-2.1c0.3-0.3,0.5-0.4,0.8-0.6l-4.3-4.3c-0.6-0.6-0.9-1.5-0.9-2.4
	c0.1-0.9,0.5-1.7,1.2-2.2c0.2-0.2,0.5-0.3,0.8-0.4C94,42.4,94,41.9,94,41.5c0-0.9,0.4-1.7,1.1-2.3c0.9-0.8,2.2-0.9,3.3-0.4
	c0.2-0.5,0.5-0.9,0.9-1.2c1.2-1,3-0.9,4.1,0.3l1.1,1.1c0.2-0.3,0.4-0.6,0.7-0.9c1.2-1.1,3.1-1,4.2,0.2l3.7,3.7
	c2.7,2.7,4.9,5.9,6.5,9.5c0.1,0.1,1.2,1.9,1.2,1.9C123.4,58.1,124.8,63.5,124.8,69"/>
<path class="st0" d="M84.4,100.9c-0.8,0-1.6-0.3-2.2-0.9l-1.1-1.1c-0.2,0.3-0.4,0.6-0.7,0.9c-1.2,1.1-3,1-4.2-0.2l-3.7-3.7
	c-2.7-2.7-4.9-5.9-6.5-9.5c-0.1-0.1-1.2-1.9-1.2-1.9c-2.7-4.8-4.1-10.2-4.1-15.7h2c0,5.1,1.3,10.2,3.8,14.7c1.2,2,1.3,2,1.3,2.1
	c1.5,3.3,3.5,6.3,6,8.9l3.7,3.7c0.4,0.4,1.1,0.4,1.4,0.1c0.2-0.2,0.3-0.4,0.3-0.7c0-0.2-0.1-0.4-0.2-0.6L77,94.8l1.4-1.4l2.1,2.1
	c0.1,0.1,0.1,0.1,0.2,0.2l2.9,2.9c0.4,0.4,1,0.5,1.4,0.1c0.2-0.2,0.4-0.5,0.4-0.7c0-0.3-0.1-0.6-0.3-0.8l-5.3-5.3l1.4-1.4l5.3,5.3
	c0,0,0,0,0,0l1.3,1.3c0.4,0.4,1.1,0.4,1.4,0.1c0.2-0.2,0.4-0.5,0.4-0.8c0-0.3-0.1-0.6-0.3-0.7l-1.2-1.2l0,0L82.8,89l1.4-1.4l5.4,5.4
	c0.4,0.4,1,0.5,1.4,0.2c0.3-0.2,0.4-0.5,0.4-0.8c0-0.3-0.1-0.6-0.3-0.8l-8.7-8.7l1.4-1.4l2.4,2.4c0.4,0.4,1,0.4,1.4,0
	c0.2-0.2,0.3-0.4,0.3-0.7c0-0.3-0.1-0.5-0.3-0.7l-1.9-1.9c-1.6-1.6-2.8-2.2-4.7-2.2L77,78c-4.1,0.1-5.1-1.9-5.3-3.1
	c0,0-0.2-0.5-0.3-1l1.9-0.5c0.1,0.5,0.3,1,0.3,1c0.2,1.2,1.3,1.7,3.3,1.6l0.1,0l4.2,0.3h0c2.3,0,4.1,0.8,6,2.8l1.9,1.9
	c0.6,0.6,0.9,1.3,0.9,2.1c0,0.8-0.3,1.6-0.9,2.1c-0.2,0.2-0.5,0.4-0.8,0.6l4.3,4.3c0.6,0.6,0.9,1.5,0.9,2.4
	c-0.1,0.9-0.5,1.7-1.2,2.2c-0.2,0.2-0.5,0.3-0.8,0.4c0.2,0.4,0.2,0.8,0.2,1.3c0,0.9-0.4,1.7-1.1,2.3c-0.9,0.8-2.2,0.9-3.3,0.4
	c-0.2,0.5-0.5,0.9-0.9,1.2C85.8,100.7,85.1,100.9,84.4,100.9"/>
<path class="st0" d="M69.5,69.6c-0.1,0-0.2,0-0.2,0c-0.9-0.1-1.7-0.5-2.2-1.2c-0.2-0.2-0.3-0.5-0.4-0.8c-0.4,0.2-0.8,0.2-1.3,0.2
	c-0.9,0-1.7-0.4-2.3-1.1c-0.8-0.9-0.9-2.2-0.4-3.3c-0.5-0.2-0.9-0.5-1.2-0.9c-1-1.2-0.9-3,0.3-4.1l1.1-1.1c-0.3-0.2-0.7-0.4-0.9-0.7
	c-1.1-1.2-1-3,0.2-4.2l3.7-3.7c2.7-2.7,5.9-4.9,9.5-6.5c0.1-0.1,1.9-1.2,1.9-1.2c4.8-2.7,10.2-4.1,15.7-4.1v2
	c-5.1,0-10.2,1.3-14.7,3.8c-2,1.2-2,1.3-2.1,1.3c-3.3,1.5-6.3,3.5-8.9,6l-3.7,3.7c-0.4,0.4-0.4,1.1-0.1,1.4c0.2,0.2,0.4,0.3,0.7,0.3
	c0.2,0,0.4-0.1,0.6-0.2l2.3-2.2l1.4,1.4l-2.1,2.1c-0.1,0.1-0.1,0.1-0.2,0.2l-2.9,2.9c-0.4,0.4-0.5,1-0.1,1.4
	c0.2,0.2,0.5,0.4,0.7,0.4c0.3,0,0.6-0.1,0.8-0.3l5.3-5.3l1.4,1.4l-6.5,6.5c-0.4,0.4-0.4,1.1-0.1,1.4c0.2,0.2,0.5,0.4,0.8,0.4
	c0.3,0,0.6-0.1,0.7-0.3l6.6-6.6l1.4,1.4l-5.4,5.4c-0.4,0.4-0.5,1-0.2,1.4c0.2,0.3,0.5,0.4,0.8,0.4c0.3,0,0.6-0.1,0.8-0.3l8.7-8.7
	l1.4,1.4l-2.4,2.4c-0.2,0.2-0.3,0.4-0.3,0.7c0,0.3,0.1,0.5,0.3,0.7c0.2,0.2,0.4,0.3,0.7,0.3h0c0.3,0,0.5-0.1,0.7-0.3l1.9-1.9
	c1.6-1.6,2.2-2.8,2.2-4.7l0.3-4.2c-0.1-4.1,1.9-5.1,3.1-5.3c0,0,0.5-0.2,1-0.3l0.5,1.9c-0.5,0.1-1,0.3-1,0.3
	c-1.2,0.2-1.7,1.3-1.6,3.3l0,0.1l-0.3,4.2c0,2.3-0.8,4.1-2.8,6l-1.9,1.9c-0.6,0.6-1.3,0.9-2.1,0.9h0c-0.8,0-1.6-0.3-2.1-0.9
	c-0.3-0.3-0.4-0.5-0.6-0.8l-4.3,4.3C71,69.3,70.3,69.6,69.5,69.6"/>
<path class="st0" d="M92.8,101v-2c5.1,0,10.2-1.3,14.6-3.9c2-1.2,2-1.3,2.1-1.3c3.3-1.5,6.3-3.5,8.9-6l3.7-3.7
	c0.4-0.4,0.4-1.1,0.1-1.4c-0.2-0.2-0.4-0.3-0.7-0.3c-0.2,0-0.4,0.1-0.6,0.2l-2.3,2.2l-1.4-1.4l2.1-2.1c0.1-0.1,0.1-0.1,0.2-0.2
	l2.9-2.9c0.4-0.4,0.5-1,0.1-1.4c-0.2-0.2-0.5-0.4-0.7-0.4c-0.3,0-0.6,0.1-0.8,0.3l-5.3,5.3l-1.4-1.4l6.5-6.5
	c0.4-0.4,0.4-1.1,0.1-1.4c-0.2-0.2-0.5-0.4-0.8-0.4c-0.3,0-0.6,0.1-0.7,0.3l-1.2,1.2c0,0,0,0,0,0l-5.4,5.4l-1.4-1.4l5.4-5.4
	c0.4-0.4,0.4-1,0.1-1.4c-0.2-0.3-0.5-0.4-0.8-0.4c-0.3,0-0.6,0.1-0.8,0.3l-6.3,6.3c0,0,0,0,0,0l-2.4,2.4l-1.4-1.4l2.4-2.4
	c0.4-0.4,0.4-1,0-1.4c-0.2-0.2-0.4-0.3-0.7-0.3h0c-0.3,0-0.5,0.1-0.7,0.3l-1.9,1.9c-1.6,1.6-2.2,2.8-2.2,4.7l-0.3,4.2
	c0.1,4.1-1.9,5.1-3.1,5.3c0,0-0.5,0.2-1,0.3l-0.5-1.9c0.5-0.1,1-0.3,1-0.3c1.2-0.2,1.7-1.3,1.6-3.3l0-0.1l0.3-4.2
	c0-2.3,0.8-4.1,2.8-6l1.9-1.9c0.6-0.6,1.3-0.9,2.1-0.9h0c0.8,0,1.6,0.3,2.1,0.9c0.2,0.2,0.4,0.5,0.6,0.8l4.3-4.3
	c0.6-0.6,1.5-0.9,2.4-0.9c0.9,0.1,1.7,0.5,2.2,1.2c0.2,0.2,0.3,0.5,0.4,0.8c0.4-0.2,0.8-0.2,1.3-0.2c0.9,0,1.7,0.4,2.3,1.1
	c0.8,0.9,0.9,2.2,0.4,3.3c0.5,0.2,0.9,0.5,1.2,0.9c1,1.2,0.9,3-0.3,4.1l-1.1,1.1c0.3,0.2,0.6,0.4,0.9,0.7c1.1,1.2,1,3-0.2,4.2
	l-3.7,3.7c-2.7,2.7-5.9,4.9-9.5,6.5c-0.1,0.1-1.9,1.2-1.9,1.2C103.6,99.6,98.2,101,92.8,101"/>
<path class="st4" d="M152.8,169h-45.6l-10.8-5l10.8-5h45.6c2.8,0,5,2.2,5,5S155.5,169,152.8,169 M107.6,167h45.2c1.7,0,3-1.3,3-3
	c0-1.7-1.3-3-3-3h-45.2l-6.5,3L107.6,167z"/>
<rect x="145.2" y="160.4" class="st4" width="2" height="7.6"/>
<rect x="108.2" y="163" class="st4" width="38" height="2"/>
<rect x="122.8" y="178" class="st0" width="2" height="4"/>
<rect x="122.8" y="188" class="st0" width="2" height="4"/>
<rect x="126.8" y="184" class="st0" width="4" height="2"/>
<rect x="116.8" y="184" class="st0" width="4" height="2"/>
<path class="st5" d="M176.8,58c0,2.2-1.8,4-4,4s-4-1.8-4-4s1.8-4,4-4S176.8,55.8,176.8,58"/>
<rect x="90" y="176" class="st0" width="2" height="8"/>
<rect x="96" y="176" class="st0" width="2" height="8"/>
<path class="st0" d="M91,188c-0.6,0-1-0.4-1-1c0-0.6,0.4-1,1-1c0.6,0,1,0.4,1,1v0C92,187.6,91.5,188,91,188"/>
<path class="st0" d="M97,188c-0.6,0-1-0.4-1-1c0-0.6,0.4-1,1-1c0.6,0,1,0.4,1,1v0C98,187.6,97.5,188,97,188"/>
<path class="st0" d="M91,192c-0.6,0-1-0.4-1-1c0-0.6,0.4-1,1-1c0.6,0,1,0.4,1,1v0C92,191.6,91.5,192,91,192"/>
<path class="st0" d="M97,192c-0.6,0-1-0.4-1-1c0-0.6,0.4-1,1-1c0.6,0,1,0.4,1,1v0C98,191.6,97.5,192,97,192"/>
</svg>
