<?xml version="1.0" encoding="utf-8"?>
<!-- Generator: Adobe Illustrator 21.1.0, SVG Export Plug-In . SVG Version: 6.00 Build 0)  -->
<svg version="1.1" id="Layer_1" xmlns="http://www.w3.org/2000/svg" xmlns:xlink="http://www.w3.org/1999/xlink" x="0px" y="0px"
	 viewBox="0 0 123.7 129.5" style="enable-background:new 0 0 123.7 129.5;" xml:space="preserve">
<style type="text/css">
	.st0{fill:#6E7A86;}
	.st1{fill:#FFFFFF;}
	.st2{fill:#231F20;}
	.st3{fill:#84DBFF;}
	.st4{fill:#E6E9EE;}
	.st5{fill:#FFD05B;}
	.st6{fill:#FF7058;}
</style>
<g>
	<path class="st0" d="M103.8,128.7v-6.6c0-21.6-17.5-39.1-39.1-39.1h0c-21.6,0-39.1,17.5-39.1,39.1v6.6H103.8z"/>
	<path class="st1" d="M75,78.7v4.1c0,2.8-1.2,5.4-3,7.3c-1.9,1.9-4.4,3-7.3,3c-5.7,0-10.3-4.6-10.3-10.3v-4.1H75z"/>
	<g>
		<polygon class="st1" points="70.8,115.8 64.8,122.1 58.8,115.8 58.7,115.8 62.4,100.8 61.3,97.3 68.2,97.3 67.1,100.8 		"/>
		<path class="st2" d="M64.8,122.9c-0.2,0-0.4-0.1-0.5-0.2l-6-6.2c0,0-0.1-0.1-0.1-0.1c-0.1-0.2-0.2-0.4-0.1-0.6l3.6-14.8l-1-3.4
			c-0.1-0.2,0-0.5,0.1-0.7c0.1-0.2,0.4-0.3,0.6-0.3h6.8c0.2,0,0.5,0.1,0.6,0.3c0.1,0.2,0.2,0.4,0.1,0.7l-1,3.4l3.6,14.8
			c0.1,0.2,0,0.5-0.2,0.7l-6,6.3C65.2,122.8,65,122.9,64.8,122.9z M59.6,115.6l5.2,5.4l5.2-5.4L66.4,101c0-0.1,0-0.3,0-0.4l0.8-2.6
			h-4.8l0.8,2.6c0,0.1,0,0.3,0,0.4L59.6,115.6z"/>
	</g>
	<g>
		<path class="st3" d="M105.6,66.6V25.4c0-0.6-0.5-1.1-1.1-1.1H25c-0.6,0-1.1,0.5-1.1,1.1v41.1H105.6z"/>
	</g>
	<path class="st4" d="M72.8,22.3c-0.7-3.8-4.1-6.6-8.1-6.6c-4,0-7.3,2.9-8.1,6.6H72.8z"/>
	<g>
		<g>
			<path class="st2" d="M121.7,5.5c-0.2,0-0.4-0.1-0.5-0.2c-0.3-0.3-0.3-0.8,0-1.1l1.3-1.3c0.3-0.3,0.8-0.3,1.1,0
				c0.3,0.3,0.3,0.8,0,1.1l-1.3,1.3C122.1,5.5,121.9,5.5,121.7,5.5z"/>
		</g>
		<g>
			<path class="st2" d="M117.7,9.6c-0.2,0-0.4-0.1-0.5-0.2c-0.3-0.3-0.3-0.8,0-1.1l1.3-1.3c0.3-0.3,0.8-0.3,1.1,0
				c0.3,0.3,0.3,0.8,0,1.1l-1.3,1.3C118,9.5,117.8,9.6,117.7,9.6z"/>
		</g>
		<g>
			<path class="st2" d="M123,9.6c-0.2,0-0.4-0.1-0.5-0.2l-1.3-1.3c-0.3-0.3-0.3-0.8,0-1.1c0.3-0.3,0.8-0.3,1.1,0l1.3,1.3
				c0.3,0.3,0.3,0.8,0,1.1C123.4,9.5,123.2,9.6,123,9.6z"/>
		</g>
		<g>
			<path class="st2" d="M118.9,5.5c-0.2,0-0.4-0.1-0.5-0.2L117.1,4c-0.3-0.3-0.3-0.8,0-1.1c0.3-0.3,0.8-0.3,1.1,0l1.3,1.3
				c0.3,0.3,0.3,0.8,0,1.1C119.3,5.5,119.1,5.5,118.9,5.5z"/>
		</g>
	</g>
	<g>
		<g>
			<path class="st2" d="M4.8,42c-0.2,0-0.4-0.1-0.5-0.2C4,41.5,4,41,4.2,40.7l1.3-1.3c0.3-0.3,0.8-0.3,1.1,0c0.3,0.3,0.3,0.8,0,1.1
				l-1.3,1.3C5.2,41.9,5,42,4.8,42z"/>
		</g>
		<g>
			<path class="st2" d="M0.8,46c-0.2,0-0.4-0.1-0.5-0.2c-0.3-0.3-0.3-0.8,0-1.1l1.3-1.3c0.3-0.3,0.8-0.3,1.1,0
				c0.3,0.3,0.3,0.8,0,1.1l-1.3,1.3C1.1,45.9,0.9,46,0.8,46z"/>
		</g>
		<g>
			<path class="st2" d="M6.1,46c-0.2,0-0.4-0.1-0.5-0.2l-1.3-1.3c-0.3-0.3-0.3-0.8,0-1.1c0.3-0.3,0.8-0.3,1.1,0l1.3,1.3
				c0.3,0.3,0.3,0.8,0,1.1C6.4,45.9,6.3,46,6.1,46z"/>
		</g>
		<g>
			<path class="st2" d="M2,42c-0.2,0-0.4-0.1-0.5-0.2l-1.3-1.3c-0.3-0.3-0.3-0.8,0-1.1c0.3-0.3,0.8-0.3,1.1,0l1.3,1.3
				c0.3,0.3,0.3,0.8,0,1.1C2.4,41.9,2.2,42,2,42z"/>
		</g>
	</g>
	<g>
		<g>
			<path class="st2" d="M114.6,92.5c-0.2,0-0.4-0.1-0.5-0.2c-0.3-0.3-0.3-0.8,0-1.1l1.3-1.3c0.3-0.3,0.8-0.3,1.1,0
				c0.3,0.3,0.3,0.8,0,1.1l-1.3,1.3C115,92.4,114.8,92.5,114.6,92.5z"/>
		</g>
		<g>
			<path class="st2" d="M110.6,96.5c-0.2,0-0.4-0.1-0.5-0.2c-0.3-0.3-0.3-0.8,0-1.1l1.3-1.3c0.3-0.3,0.8-0.3,1.1,0
				c0.3,0.3,0.3,0.8,0,1.1l-1.3,1.3C111,96.4,110.8,96.5,110.6,96.5z"/>
		</g>
		<g>
			<path class="st2" d="M115.9,96.5c-0.2,0-0.4-0.1-0.5-0.2l-1.3-1.3c-0.3-0.3-0.3-0.8,0-1.1c0.3-0.3,0.8-0.3,1.1,0l1.3,1.3
				c0.3,0.3,0.3,0.8,0,1.1C116.3,96.4,116.1,96.5,115.9,96.5z"/>
		</g>
		<g>
			<path class="st2" d="M111.9,92.5c-0.2,0-0.4-0.1-0.5-0.2l-1.3-1.3c-0.3-0.3-0.3-0.8,0-1.1c0.3-0.3,0.8-0.3,1.1,0l1.3,1.3
				c0.3,0.3,0.3,0.8,0,1.1C112.3,92.4,112.1,92.5,111.9,92.5z"/>
		</g>
	</g>
	<g>
		<g>
			<g>
				<path class="st1" d="M93.4,30.7h-5.8c-0.4,0-0.8-0.3-0.8-0.8c0-0.4,0.3-0.8,0.8-0.8h5.8c0.4,0,0.8,0.3,0.8,0.8
					C94.1,30.4,93.8,30.7,93.4,30.7z"/>
			</g>
			<g>
				<path class="st1" d="M95.7,33.6h-2.8c-0.4,0-0.8-0.3-0.8-0.8c0-0.4,0.3-0.8,0.8-0.8h2.8c0.4,0,0.8,0.3,0.8,0.8
					C96.4,33.3,96.1,33.6,95.7,33.6z"/>
			</g>
			<g>
				<path class="st1" d="M98.7,30.7H96c-0.4,0-0.8-0.3-0.8-0.8c0-0.4,0.3-0.8,0.8-0.8h2.7c0.4,0,0.8,0.3,0.8,0.8
					C99.5,30.4,99.1,30.7,98.7,30.7z"/>
			</g>
			<g>
				<path class="st1" d="M90.8,33.6h-0.6c-0.4,0-0.8-0.3-0.8-0.8c0-0.4,0.3-0.8,0.8-0.8h0.6c0.4,0,0.8,0.3,0.8,0.8
					C91.5,33.3,91.2,33.6,90.8,33.6z"/>
			</g>
		</g>
		<g>
			<g>
				<path class="st1" d="M34.1,58.8h-5.8c-0.4,0-0.8-0.3-0.8-0.8s0.3-0.8,0.8-0.8h5.8c0.4,0,0.8,0.3,0.8,0.8S34.5,58.8,34.1,58.8z"
					/>
			</g>
			<g>
				<path class="st1" d="M36.3,61.7h-2.8c-0.4,0-0.8-0.3-0.8-0.8c0-0.4,0.3-0.8,0.8-0.8h2.8c0.4,0,0.8,0.3,0.8,0.8
					C37.1,61.4,36.7,61.7,36.3,61.7z"/>
			</g>
			<g>
				<path class="st1" d="M39.4,58.8h-2.7c-0.4,0-0.8-0.3-0.8-0.8s0.3-0.8,0.8-0.8h2.7c0.4,0,0.8,0.3,0.8,0.8S39.8,58.8,39.4,58.8z"
					/>
			</g>
			<g>
				<path class="st1" d="M31.4,61.7h-0.6c-0.4,0-0.8-0.3-0.8-0.8c0-0.4,0.3-0.8,0.8-0.8h0.6c0.4,0,0.8,0.3,0.8,0.8
					C32.2,61.4,31.8,61.7,31.4,61.7z"/>
			</g>
		</g>
	</g>
	<path class="st2" d="M104.5,21.6H73.4c-0.4-1.6-1.2-3-2.4-4.1L87.2,1.3c0.3-0.3,0.3-0.8,0-1.1c-0.3-0.3-0.8-0.3-1.1,0L69.8,16.5
		c-1.5-1-3.2-1.6-5.1-1.6c-1.9,0-3.7,0.6-5.2,1.7L43.2,0.2c-0.3-0.3-0.8-0.3-1.1,0c-0.3,0.3-0.3,0.8,0,1.1l16.3,16.3
		c-1.1,1.1-1.9,2.5-2.3,4H25c-2.1,0-3.8,1.7-3.8,3.8v50.2c0,2.1,1.7,3.8,3.8,3.8h28.7v3.3c0,0.4,0,0.7,0.1,1.1
		c-16.7,4.8-28.9,20.1-28.9,38.3v7.3h79.7v-7.3c0-18.2-12.2-33.5-28.9-38.3c0-0.4,0.1-0.7,0.1-1.1v-3.3h28.7c2.1,0,3.8-1.7,3.8-3.8
		V25.4C108.3,23.3,106.6,21.6,104.5,21.6z M64.8,16.5c3.2,0,6.1,2.1,7.1,5.1H57.7C58.7,18.6,61.5,16.5,64.8,16.5z M103.1,122.2v5.8
		H87.6v-12.5h-1.5V128H43.4v-12.5h-1.5V128H26.4v-5.8c0-17.4,11.7-32.2,27.6-36.8c1.2,4.9,5.5,8.5,10.7,8.5c2.9,0,5.7-1.1,7.8-3.2
		c1.5-1.5,2.5-3.3,2.9-5.2C91.4,90,103.1,104.7,103.1,122.2z M55.2,82.8v-3.3h19v3.3c0,2.5-1,4.9-2.8,6.7c-1.8,1.8-4.2,2.8-6.7,2.8
		C59.5,92.3,55.2,88.1,55.2,82.8z M106.8,75.6c0,1.3-1.1,2.3-2.3,2.3H25c-1.3,0-2.3-1.1-2.3-2.3v-6.3h84.2V75.6z M106.8,67.9H22.7
		V25.4c0-1.3,1.1-2.3,2.3-2.3h79.5c1.3,0,2.3,1.1,2.3,2.3V67.9z"/>
	<g>
		<g>
			<rect x="55.1" y="72.6" class="st2" width="2.1" height="1.5"/>
		</g>
		<g>
			<rect x="59.4" y="72.6" class="st2" width="2.1" height="1.5"/>
		</g>
		<g>
			<rect x="63.7" y="72.6" class="st2" width="2.1" height="1.5"/>
		</g>
		<g>
			<rect x="68" y="72.6" class="st2" width="2.1" height="1.5"/>
		</g>
		<g>
			<rect x="72.4" y="72.6" class="st2" width="2.1" height="1.5"/>
		</g>
	</g>
	<path class="st1" d="M85.6,47.1c-0.1-1.1-1.1-2-2.3-2l-1.6,0c1.3,0,2.3-1.1,2.2-2.4c-0.1-1.1-1.1-2-2.3-2H73c-0.5,0-0.9-0.5-0.7-1
		l0.6-1.6c0.6-1.4,1.2-3.5,0.1-6.5c-0.5-1.5-1.9-2.5-3.5-2.5h-1.1V34c0,0.7-0.2,1.4-0.6,2l-2.9,4.8c-0.7,1.1-1.8,1.7-3,1.8l-2.7,0.2
		v15l7.4,0.3h13.8c1.1,0,2.1-0.8,2.3-2c0.1-1.3-0.9-2.4-2.2-2.4h0.8c1.1,0,2.1-0.8,2.3-2c0.1-1.3-0.9-2.4-2.2-2.4h1.9
		C84.7,49.5,85.7,48.4,85.6,47.1z"/>
	<rect x="55.6" y="39.7" class="st1" width="3.8" height="20.1"/>
	<polyline class="st4" points="43.9,37.2 55.6,37.2 55.6,61.7 43.9,61.7 	"/>
	<g>
		<path class="st2" d="M86.3,47c-0.1-1.2-1-2.2-2.1-2.5c0.3-0.5,0.5-1.2,0.4-1.8c-0.1-1.5-1.5-2.6-3-2.6L73,40l0.6-1.6
			c0.7-1.7,1.2-3.9,0.2-7c-0.6-1.8-2.3-3.1-4.2-3.1h-1.1c-0.4,0-0.8,0.3-0.8,0.8V34c0,0.6-0.2,1.1-0.5,1.6l-2.9,4.8
			c-0.5,0.9-1.4,1.4-2.4,1.5L60.1,42v-2.3c0-0.4-0.3-0.8-0.8-0.8h-3v-1.7c0-0.4-0.3-0.8-0.8-0.8H43.9V38h10.9v23H43.9v1.5h11.7
			c0.4,0,0.8-0.3,0.8-0.8v-1.1h3c0.4,0,0.8-0.3,0.8-0.8v-1.2l6.6,0.3h13.8c1.5,0,2.9-1.2,3-2.6c0.1-0.7-0.1-1.5-0.6-2.1
			c0.8-0.5,1.4-1.3,1.5-2.3c0.1-0.6-0.1-1.2-0.4-1.8c0.6-0.1,1.1-0.4,1.5-0.9C86.1,48.6,86.4,47.8,86.3,47z M58.6,59.1h-2.3V40.4
			h2.3V59.1z M84.5,48.2c-0.3,0.3-0.7,0.5-1,0.5l-4.5,0c-0.4,0-0.8,0.3-0.8,0.8c0,0.4,0.3,0.8,0.8,0.8c0,0,2.6,0,2.7,0
			c0.4,0,0.8,0.2,1,0.5c0.3,0.3,0.4,0.7,0.4,1.1c-0.1,0.7-0.7,1.3-1.5,1.3l-2.6,0c-0.4,0-0.8,0.3-0.8,0.8c0,0.4,0.3,0.8,0.8,0.8
			c0,0,1.7,0,1.7,0c0.4,0,0.8,0.2,1,0.5c0.3,0.3,0.4,0.7,0.4,1.1c-0.1,0.7-0.7,1.3-1.5,1.3l-13.8,0l-6.7-0.3V43.5l2-0.1
			c1.5-0.1,2.8-0.9,3.6-2.2l2.9-4.8c0.4-0.7,0.7-1.6,0.7-2.4v-4h0.3c1.3,0,2.4,0.8,2.8,2c0.9,2.6,0.5,4.4-0.1,5.9l-0.6,1.6
			c-0.2,0.5-0.1,1,0.2,1.4c0.3,0.4,0.7,0.7,1.2,0.7h8.6c0.8,0,1.4,0.6,1.5,1.3c0,0.4-0.1,0.8-0.4,1.1c-0.3,0.3-0.7,0.5-1,0.5H80
			c-0.4,0-0.8,0.3-0.8,0.8s0.3,0.8,0.8,0.8h3.3c0.8,0,1.4,0.6,1.5,1.3C84.9,47.6,84.8,47.9,84.5,48.2z"/>
		<path class="st2" d="M77.3,44.4h-0.7c-0.4,0-0.8,0.3-0.8,0.8s0.3,0.8,0.8,0.8h0.7c0.4,0,0.8-0.3,0.8-0.8S77.8,44.4,77.3,44.4z"/>
		<path class="st2" d="M76.4,48.7h-0.7c-0.4,0-0.8,0.3-0.8,0.8c0,0.4,0.3,0.8,0.8,0.8h0.7c0.4,0,0.8-0.3,0.8-0.8
			C77.2,49,76.8,48.7,76.4,48.7z"/>
		<path class="st2" d="M76.4,53h-0.7c-0.4,0-0.8,0.3-0.8,0.8c0,0.4,0.3,0.8,0.8,0.8h0.7c0.4,0,0.8-0.3,0.8-0.8
			C77.2,53.4,76.8,53,76.4,53z"/>
	</g>
	<g>
		<circle class="st1" cx="49.4" cy="57.2" r="1.8"/>
		<path class="st2" d="M49.4,59.7c-1.4,0-2.6-1.2-2.6-2.6c0-1.4,1.2-2.6,2.6-2.6c1.4,0,2.6,1.2,2.6,2.6C52,58.6,50.8,59.7,49.4,59.7
			z M49.4,56.1c-0.6,0-1.1,0.5-1.1,1.1c0,0.6,0.5,1.1,1.1,1.1c0.6,0,1.1-0.5,1.1-1.1C50.5,56.6,50,56.1,49.4,56.1z"/>
	</g>
	<g>
		<path class="st2" d="M14.6,10c-1.6,0-3-1.3-3-3c0-1.6,1.3-3,3-3c1.6,0,3,1.3,3,3C17.5,8.6,16.2,10,14.6,10z M14.6,5.5
			c-0.8,0-1.5,0.7-1.5,1.5c0,0.8,0.7,1.5,1.5,1.5C15.4,8.5,16,7.8,16,7C16,6.2,15.4,5.5,14.6,5.5z"/>
	</g>
	<g>
		<circle class="st5" cx="120.1" cy="27.5" r="2.4"/>
	</g>
	<g>
		<circle class="st6" cx="38" cy="10.6" r="1.5"/>
	</g>
	<g>
		<circle class="st3" cx="7.2" cy="86.9" r="2.4"/>
	</g>
</g>
</svg>
