<?xml version="1.0" encoding="utf-8"?>
<!-- Generator: Adobe Illustrator 21.1.0, SVG Export Plug-In . SVG Version: 6.00 Build 0)  -->
<svg version="1.1" id="Layer_1" xmlns="http://www.w3.org/2000/svg" xmlns:xlink="http://www.w3.org/1999/xlink" x="0px" y="0px"
	 viewBox="0 0 129.5 126" style="enable-background:new 0 0 129.5 126;" xml:space="preserve">
<style type="text/css">
	.st0{fill:#231F20;}
	.st1{fill:#FFFFFF;}
	.st2{fill:#E6E9EE;}
	.st3{fill:#FFD05B;}
	.st4{fill:#FF7058;}
	.st5{fill:#6E7A86;}
</style>
<g>
	<g>
		<path class="st0" d="M90.4,2.8c-0.2,0-0.4-0.1-0.5-0.2c-0.3-0.3-0.3-0.8,0-1.1l1.3-1.3c0.3-0.3,0.8-0.3,1.1,0
			c0.3,0.3,0.3,0.8,0,1.1l-1.3,1.3C90.8,2.7,90.6,2.8,90.4,2.8z"/>
	</g>
	<g>
		<path class="st0" d="M86.4,6.8c-0.2,0-0.4-0.1-0.5-0.2c-0.3-0.3-0.3-0.8,0-1.1l1.3-1.3c0.3-0.3,0.8-0.3,1.1,0
			c0.3,0.3,0.3,0.8,0,1.1l-1.3,1.3C86.8,6.7,86.6,6.8,86.4,6.8z"/>
	</g>
	<g>
		<path class="st0" d="M91.7,6.8c-0.2,0-0.4-0.1-0.5-0.2l-1.3-1.3c-0.3-0.3-0.3-0.8,0-1.1c0.3-0.3,0.8-0.3,1.1,0l1.3,1.3
			c0.3,0.3,0.3,0.8,0,1.1C92.1,6.7,91.9,6.8,91.7,6.8z"/>
	</g>
	<g>
		<path class="st0" d="M87.7,2.8c-0.2,0-0.4-0.1-0.5-0.2l-1.3-1.3c-0.3-0.3-0.3-0.8,0-1.1c0.3-0.3,0.8-0.3,1.1,0l1.3,1.3
			c0.3,0.3,0.3,0.8,0,1.1C88,2.7,87.8,2.8,87.7,2.8z"/>
	</g>
	<g>
		<path class="st0" d="M5.3,80.7c-0.2,0-0.4-0.1-0.5-0.2c-0.3-0.3-0.3-0.8,0-1.1L6,78.1c0.3-0.3,0.8-0.3,1.1,0
			c0.3,0.3,0.3,0.8,0,1.1l-1.3,1.3C5.7,80.6,5.5,80.7,5.3,80.7z"/>
	</g>
	<g>
		<path class="st0" d="M1.3,84.7c-0.2,0-0.4-0.1-0.5-0.2c-0.3-0.3-0.3-0.8,0-1.1L2,82.2c0.3-0.3,0.8-0.3,1.1,0s0.3,0.8,0,1.1
			l-1.3,1.3C1.6,84.6,1.5,84.7,1.3,84.7z"/>
	</g>
	<g>
		<path class="st0" d="M6.6,84.7c-0.2,0-0.4-0.1-0.5-0.2l-1.3-1.3c-0.3-0.3-0.3-0.8,0-1.1c0.3-0.3,0.8-0.3,1.1,0l1.3,1.3
			c0.3,0.3,0.3,0.8,0,1.1C7,84.6,6.8,84.7,6.6,84.7z"/>
	</g>
	<g>
		<path class="st0" d="M2.5,80.7c-0.2,0-0.4-0.1-0.5-0.2l-1.3-1.3c-0.3-0.3-0.3-0.8,0-1.1c0.3-0.3,0.8-0.3,1.1,0l1.3,1.3
			c0.3,0.3,0.3,0.8,0,1.1C2.9,80.6,2.7,80.7,2.5,80.7z"/>
	</g>
	<g>
		<path class="st0" d="M108.8,122c-0.2,0-0.4-0.1-0.5-0.2c-0.3-0.3-0.3-0.8,0-1.1l1.3-1.3c0.3-0.3,0.8-0.3,1.1,0
			c0.3,0.3,0.3,0.8,0,1.1l-1.3,1.3C109.2,121.9,109,122,108.8,122z"/>
	</g>
	<g>
		<path class="st0" d="M104.8,126c-0.2,0-0.4-0.1-0.5-0.2c-0.3-0.3-0.3-0.8,0-1.1l1.3-1.3c0.3-0.3,0.8-0.3,1.1,0
			c0.3,0.3,0.3,0.8,0,1.1l-1.3,1.3C105.1,125.9,105,126,104.8,126z"/>
	</g>
	<g>
		<path class="st0" d="M110.1,126c-0.2,0-0.4-0.1-0.5-0.2l-1.3-1.3c-0.3-0.3-0.3-0.8,0-1.1c0.3-0.3,0.8-0.3,1.1,0l1.3,1.3
			c0.3,0.3,0.3,0.8,0,1.1C110.5,125.9,110.3,126,110.1,126z"/>
	</g>
	<g>
		<path class="st0" d="M106,122c-0.2,0-0.4-0.1-0.5-0.2l-1.3-1.3c-0.3-0.3-0.3-0.8,0-1.1c0.3-0.3,0.8-0.3,1.1,0l1.3,1.3
			c0.3,0.3,0.3,0.8,0,1.1C106.4,121.9,106.2,122,106,122z"/>
	</g>
	<polygon class="st1" points="64.7,31.5 64.7,52.8 86.1,43.2 86.1,21.9 	"/>
	<polygon class="st1" points="64.7,31.5 64.7,52.8 43.4,43.2 43.4,21.9 	"/>
	<path class="st0" d="M64.7,53.5c-0.1,0-0.2,0-0.3-0.1l-21.3-9.5c-0.3-0.1-0.4-0.4-0.4-0.7V21.9c0-0.3,0.1-0.5,0.3-0.6
		c0.2-0.1,0.5-0.2,0.7-0.1l21.3,9.5c0.3,0.1,0.4,0.4,0.4,0.7v21.3c0,0.3-0.1,0.5-0.3,0.6C65,53.5,64.9,53.5,64.7,53.5z M44.2,42.8
		L64,51.6V31.9l-19.8-8.9V42.8z"/>
	<polygon class="st1" points="86.1,21.9 64.7,31.5 43.4,21.9 64.7,12.4 	"/>
	<polygon class="st1" points="107.4,31.5 107.4,52.8 128.7,43.2 128.7,21.9 	"/>
	<polygon class="st1" points="107.4,31.5 107.4,52.8 86.1,43.2 86.1,21.9 	"/>
	<polygon class="st2" points="128.7,21.9 107.4,31.5 86.1,21.9 107.4,12.4 	"/>
	<polygon class="st3" points="43.4,62.4 43.4,83.7 64.7,74.1 64.7,52.8 	"/>
	<polygon class="st4" points="43.4,62.4 43.4,83.7 22.1,74.1 22.1,52.8 	"/>
	<polygon class="st1" points="64.7,52.8 43.4,62.3 22.1,52.8 43.4,43.3 	"/>
	<polygon class="st5" points="64.7,93.5 64.7,114.8 86.1,105.3 86.1,83.9 	"/>
	<polygon class="st1" points="64.7,93.5 64.7,114.8 43.4,105.3 43.4,83.9 	"/>
	<polygon class="st1" points="86.1,83.9 64.7,93.5 43.4,83.9 64.7,74.4 	"/>
	<g>
		<rect x="85.3" y="77.4" class="st0" width="1.5" height="1"/>
		<rect x="85.3" y="80.4" class="st0" width="1.5" height="1"/>
		<rect x="87.3" y="60.8" transform="matrix(0.9129 -0.4082 0.4082 0.9129 -17.4846 41.2165)" class="st0" width="1" height="1.5"/>
		<rect x="101" y="54.7" transform="matrix(0.9129 -0.4082 0.4082 0.9129 -13.7897 46.2717)" class="st0" width="1" height="1.5"/>
		
			<rect x="103.8" y="53.5" transform="matrix(0.9129 -0.4082 0.4082 0.9129 -13.0509 47.2826)" class="st0" width="1" height="1.5"/>
		<rect x="85.3" y="65.4" class="st0" width="1.5" height="1"/>
		<rect x="98.3" y="55.9" transform="matrix(0.9126 -0.4088 0.4088 0.9126 -14.5358 45.3296)" class="st0" width="1" height="1.5"/>
		<rect x="90.1" y="59.6" transform="matrix(0.9129 -0.4082 0.4082 0.9129 -16.7457 42.2276)" class="st0" width="1" height="1.5"/>
		<rect x="85.3" y="74.4" class="st0" width="1.5" height="1"/>
		<rect x="85.3" y="62.4" class="st0" width="1.5" height="1"/>
		<rect x="95.5" y="57.1" transform="matrix(0.9126 -0.4088 0.4088 0.9126 -15.2764 44.3203)" class="st0" width="1" height="1.5"/>
		<rect x="92.8" y="58.4" transform="matrix(0.9129 -0.4083 0.4083 0.9129 -16.0072 43.2416)" class="st0" width="1" height="1.5"/>
		<rect x="85.3" y="68.4" class="st0" width="1.5" height="1"/>
		<rect x="85.3" y="71.4" class="st0" width="1.5" height="1"/>
		<rect x="80.9" y="59.9" transform="matrix(0.409 -0.9126 0.9126 0.409 -6.8348 110.1709)" class="st0" width="1.5" height="1"/>
		<rect x="83.6" y="61.1" transform="matrix(0.4091 -0.9125 0.9125 0.4091 -6.3455 113.3753)" class="st0" width="1.5" height="1"/>
		<rect x="75.4" y="57.4" transform="matrix(0.4083 -0.9128 0.9128 0.4083 -7.8023 103.7831)" class="st0" width="1.5" height="1"/>
		<rect x="78.1" y="58.6" transform="matrix(0.4084 -0.9128 0.9128 0.4084 -7.3048 107.0008)" class="st0" width="1.5" height="1"/>
		<rect x="67.2" y="53.7" transform="matrix(0.4091 -0.9125 0.9125 0.4091 -9.3418 94.0391)" class="st0" width="1.5" height="1"/>
		<rect x="72.7" y="56.2" transform="matrix(0.4083 -0.9128 0.9128 0.4083 -8.3033 100.559)" class="st0" width="1.5" height="1"/>
		<rect x="69.9" y="55" transform="matrix(0.409 -0.9126 0.9126 0.409 -8.8342 97.2772)" class="st0" width="1.5" height="1"/>
		<rect x="21.3" y="43.5" class="st0" width="1.5" height="1"/>
		<rect x="21.3" y="37.5" class="st0" width="1.5" height="1"/>
		<rect x="21.3" y="40.5" class="st0" width="1.5" height="1"/>
		<rect x="21.3" y="46.5" class="st0" width="1.5" height="1"/>
		<rect x="21.3" y="49.5" class="st0" width="1.5" height="1"/>
		<rect x="31.5" y="26.3" transform="matrix(0.9126 -0.4088 0.4088 0.9126 -8.2385 15.457)" class="st0" width="1" height="1.5"/>
		<rect x="34.3" y="25" transform="matrix(0.9129 -0.4083 0.4083 0.9129 -7.4927 16.4446)" class="st0" width="1" height="1.5"/>
		<rect x="37" y="23.8" transform="matrix(0.9129 -0.4083 0.4083 0.9129 -6.7537 17.4557)" class="st0" width="1" height="1.5"/>
		<rect x="39.8" y="22.6" transform="matrix(0.9129 -0.4083 0.4083 0.9129 -6.0148 18.4668)" class="st0" width="1" height="1.5"/>
		<rect x="28.8" y="27.5" transform="matrix(0.9126 -0.4088 0.4088 0.9126 -8.9791 14.4458)" class="st0" width="1" height="1.5"/>
		<rect x="21.3" y="31.5" class="st0" width="1.5" height="1"/>
		<rect x="23.3" y="29.9" transform="matrix(0.9129 -0.4083 0.4083 0.9129 -10.4488 12.4003)" class="st0" width="1" height="1.5"/>
		<rect x="26.1" y="28.7" transform="matrix(0.9129 -0.4083 0.4083 0.9129 -9.7101 13.4119)" class="st0" width="1" height="1.5"/>
		<rect x="21.3" y="34.5" class="st0" width="1.5" height="1"/>
		<rect x="3.2" y="22.8" transform="matrix(0.4091 -0.9125 0.9125 0.4091 -18.9655 17.39)" class="st0" width="1.5" height="1"/>
		<rect x="5.9" y="24.1" transform="matrix(0.4089 -0.9126 0.9126 0.4089 -18.4672 20.6201)" class="st0" width="1.5" height="1"/>
		<rect x="16.9" y="29" transform="matrix(0.409 -0.9126 0.9126 0.409 -16.4679 33.5106)" class="st0" width="1.5" height="1"/>
		<rect x="14.1" y="27.7" transform="matrix(0.4083 -0.9128 0.9128 0.4083 -16.9659 30.3099)" class="st0" width="1.5" height="1"/>
		<rect x="19.6" y="30.2" transform="matrix(0.4091 -0.9125 0.9125 0.4091 -15.9687 36.7294)" class="st0" width="1.5" height="1"/>
		<rect x="11.4" y="26.5" transform="matrix(0.4083 -0.9128 0.9128 0.4083 -17.4673 27.0849)" class="st0" width="1.5" height="1"/>
		<rect x="8.7" y="25.3" transform="matrix(0.4083 -0.9128 0.9128 0.4083 -17.9688 23.8603)" class="st0" width="1.5" height="1"/>
		<path class="st0" d="M129.5,21.9c0-0.1,0-0.2-0.1-0.3c0,0,0,0,0-0.1c-0.1-0.1-0.1-0.2-0.2-0.2c0,0,0,0,0,0c0,0,0,0,0,0
			c0,0,0,0-0.1,0l-21.3-9.6c-0.2-0.1-0.4-0.1-0.6,0l-21,9.4l-21-9.4c-0.2-0.1-0.4-0.1-0.6,0l-21,9.4l-21-9.4c-0.2-0.1-0.4-0.1-0.6,0
			L0.4,21.2C0.2,21.3,0,21.6,0,21.9v21.3c0,0.3,0.2,0.6,0.4,0.7l20.9,9.4v20.9c0,0.3,0.2,0.6,0.4,0.7l20.9,9.4v21.1
			c0,0.3,0.2,0.6,0.4,0.7l21.3,9.5c0,0,0,0,0,0c0.1,0,0.2,0.1,0.3,0.1c0.1,0,0.2,0,0.3-0.1c0,0,0,0,0,0l21.3-9.5
			c0.3-0.1,0.4-0.4,0.4-0.7V84.2l20.9-9.3c0.3-0.1,0.4-0.4,0.4-0.7V53.3l20.9-9.4c0.3-0.1,0.4-0.4,0.4-0.7L129.5,21.9
			C129.5,21.9,129.5,21.9,129.5,21.9z M86.8,23.1l14.9,6.7l4.9,2.2v19.7l-19.8-8.9V23.1z M65.5,51.6V31.9l12.8-5.7l7-3.2v19.7
			L65.5,51.6z M64.7,13.2l19.5,8.7l-8.6,3.8l-10.9,4.9l-19.5-8.7L64.7,13.2z M44.2,23.1L64,31.9v19.7l-19.8-8.9V23.1z M1.5,42.8
			V22.7l0.2-0.4l20.4-9.1l20.6,9.2v20.4L22.1,52L1.5,42.8z M42.7,82.5l-19.8-8.9V54l13.7,6.1l6.1,2.7V82.5z M41.5,60.7l-17.6-7.9
			l19.5-8.7l19.5,8.7l-19.5,8.7L41.5,60.7z M44.2,62.8L64,54v19.7l-19.8,8.9V62.8z M64,113.7l-19.8-8.9V85.1l12,5.4L64,94V113.7z
			 M64.7,92.7l-5.6-2.5l-13.9-6.2l19.5-8.7l19.5,8.7L77.3,87L64.7,92.7z M85.3,104.8l-19.8,8.9V94l14-6.3l5.8-2.6V104.8z
			 M106.7,73.6l-20.6,9.2l-20.6-9.2V53.6l0.2-0.4l20.4-9.1l20.6,9.2V73.6z M107.4,30.6l-1.5-0.7l-18-8.1l19.5-8.7l19.5,8.7l-8.7,3.9
			L107.4,30.6z M128,42.8l-19.8,8.9V31.9l12.6-5.6l7.3-3.2V42.8z"/>
	</g>
	<g>
		<path class="st0" d="M42.6,7.6h-8.1c-0.4,0-0.8-0.3-0.8-0.8c0-0.4,0.3-0.8,0.8-0.8h8.1c0.4,0,0.8,0.3,0.8,0.8
			C43.4,7.3,43.1,7.6,42.6,7.6z"/>
	</g>
	<g>
		<path class="st0" d="M45.8,10.6h-4c-0.4,0-0.8-0.3-0.8-0.8c0-0.4,0.3-0.8,0.8-0.8h4c0.4,0,0.8,0.3,0.8,0.8
			C46.6,10.3,46.2,10.6,45.8,10.6z"/>
	</g>
	<g>
		<path class="st0" d="M50.1,7.6h-3.8c-0.4,0-0.8-0.3-0.8-0.8c0-0.4,0.3-0.8,0.8-0.8h3.8c0.4,0,0.8,0.3,0.8,0.8
			C50.8,7.3,50.5,7.6,50.1,7.6z"/>
	</g>
	<g>
		<path class="st0" d="M39,10.6h-0.8c-0.4,0-0.8-0.3-0.8-0.8c0-0.4,0.3-0.8,0.8-0.8H39c0.4,0,0.8,0.3,0.8,0.8
			C39.7,10.3,39.4,10.6,39,10.6z"/>
	</g>
	<g>
		<path class="st0" d="M111.1,92.8H103c-0.4,0-0.8-0.3-0.8-0.8c0-0.4,0.3-0.8,0.8-0.8h8.1c0.4,0,0.8,0.3,0.8,0.8
			C111.8,92.4,111.5,92.8,111.1,92.8z"/>
	</g>
	<g>
		<path class="st0" d="M114.3,95.7h-4c-0.4,0-0.8-0.3-0.8-0.8c0-0.4,0.3-0.8,0.8-0.8h4c0.4,0,0.8,0.3,0.8,0.8
			C115,95.4,114.7,95.7,114.3,95.7z"/>
	</g>
	<g>
		<path class="st0" d="M118.5,92.8h-3.8c-0.4,0-0.8-0.3-0.8-0.8c0-0.4,0.3-0.8,0.8-0.8h3.8c0.4,0,0.8,0.3,0.8,0.8
			C119.3,92.4,118.9,92.8,118.5,92.8z"/>
	</g>
	<g>
		<path class="st0" d="M107.4,95.7h-0.8c-0.4,0-0.8-0.3-0.8-0.8c0-0.4,0.3-0.8,0.8-0.8h0.8c0.4,0,0.8,0.3,0.8,0.8
			C108.2,95.4,107.8,95.7,107.4,95.7z"/>
	</g>
	<g>
		<path class="st0" d="M22.4,116.5h-8.1c-0.4,0-0.8-0.3-0.8-0.8c0-0.4,0.3-0.8,0.8-0.8h8.1c0.4,0,0.8,0.3,0.8,0.8
			C23.2,116.2,22.8,116.5,22.4,116.5z"/>
	</g>
	<g>
		<path class="st0" d="M25.6,119.5h-4c-0.4,0-0.8-0.3-0.8-0.8c0-0.4,0.3-0.8,0.8-0.8h4c0.4,0,0.8,0.3,0.8,0.8
			C26.3,119.1,26,119.5,25.6,119.5z"/>
	</g>
	<g>
		<path class="st0" d="M29.9,116.5h-3.8c-0.4,0-0.8-0.3-0.8-0.8c0-0.4,0.3-0.8,0.8-0.8h3.8c0.4,0,0.8,0.3,0.8,0.8
			C30.6,116.2,30.3,116.5,29.9,116.5z"/>
	</g>
	<g>
		<path class="st0" d="M18.7,119.5H18c-0.4,0-0.8-0.3-0.8-0.8c0-0.4,0.3-0.8,0.8-0.8h0.8c0.4,0,0.8,0.3,0.8,0.8
			C19.5,119.1,19.2,119.5,18.7,119.5z"/>
	</g>
	<circle class="st3" cx="114.7" cy="4.8" r="2.8"/>
	<circle class="st5" cx="6.6" cy="7.6" r="2.8"/>
	<circle class="st2" cx="22.1" cy="93.5" r="2.8"/>
	<circle class="st5" cx="78.1" cy="119.9" r="2.8"/>
</g>
</svg>
