<?xml version="1.0" encoding="utf-8"?>
<!-- Generator: Adobe Illustrator 21.1.0, SVG Export Plug-In . SVG Version: 6.00 Build 0)  -->
<svg version="1.1" id="Layer_1" xmlns="http://www.w3.org/2000/svg" xmlns:xlink="http://www.w3.org/1999/xlink" x="0px" y="0px"
	 viewBox="0 0 129.5 128.5" style="enable-background:new 0 0 129.5 128.5;" xml:space="preserve">
<style type="text/css">
	.st0{fill:#CED5E0;}
	.st1{fill:#84DBFF;}
	.st2{fill:#231F20;}
	.st3{fill:#FFFFFF;}
	.st4{fill:#6E7A86;}
	.st5{fill:#FFD05B;}
</style>
<g>
	<g>
		<polygon class="st0" points="79.8,117.6 46.6,117.6 49.6,122.7 76.8,122.7 		"/>
	</g>
	<g>
		
			<rect x="37.5" y="36.4" transform="matrix(-1.836970e-16 1 -1 -1.836970e-16 146.6239 20.2241)" class="st1" width="51.4" height="94.1"/>
	</g>
	<g>
		<g>
			<path class="st2" d="M117.7,33.3c-0.2,0-0.4-0.1-0.5-0.2c-0.3-0.3-0.3-0.8,0-1.1l1.3-1.3c0.3-0.3,0.8-0.3,1.1,0
				c0.3,0.3,0.3,0.8,0,1.1l-1.3,1.3C118.1,33.3,117.9,33.3,117.7,33.3z"/>
		</g>
		<g>
			<path class="st2" d="M113.6,37.5c-0.2,0-0.4-0.1-0.5-0.2c-0.3-0.3-0.3-0.8,0-1.1l1.3-1.3c0.3-0.3,0.8-0.3,1.1,0
				c0.3,0.3,0.3,0.8,0,1.1l-1.3,1.3C114,37.4,113.8,37.5,113.6,37.5z"/>
		</g>
		<g>
			<path class="st2" d="M119,37.5c-0.2,0-0.4-0.1-0.5-0.2l-1.3-1.3c-0.3-0.3-0.3-0.8,0-1.1c0.3-0.3,0.8-0.3,1.1,0l1.3,1.3
				c0.3,0.3,0.3,0.8,0,1.1C119.4,37.4,119.2,37.5,119,37.5z"/>
		</g>
		<g>
			<path class="st2" d="M114.9,33.3c-0.2,0-0.4-0.1-0.5-0.2l-1.3-1.3c-0.3-0.3-0.3-0.8,0-1.1c0.3-0.3,0.8-0.3,1.1,0l1.3,1.3
				c0.3,0.3,0.3,0.8,0,1.1C115.3,33.3,115.1,33.3,114.9,33.3z"/>
		</g>
	</g>
	<g>
		<g>
			<path class="st2" d="M56.6,28.9c-0.2,0-0.4-0.1-0.5-0.2c-0.3-0.3-0.3-0.8,0-1.1l1.3-1.3c0.3-0.3,0.8-0.3,1.1,0
				c0.3,0.3,0.3,0.8,0,1.1l-1.3,1.3C57,28.8,56.8,28.9,56.6,28.9z"/>
		</g>
		<g>
			<path class="st2" d="M52.5,33c-0.2,0-0.4-0.1-0.5-0.2c-0.3-0.3-0.3-0.8,0-1.1l1.3-1.3c0.3-0.3,0.8-0.3,1.1,0
				c0.3,0.3,0.3,0.8,0,1.1L53,32.8C52.9,32.9,52.7,33,52.5,33z"/>
		</g>
		<g>
			<path class="st2" d="M57.9,33c-0.2,0-0.4-0.1-0.5-0.2l-1.3-1.3c-0.3-0.3-0.3-0.8,0-1.1c0.3-0.3,0.8-0.3,1.1,0l1.3,1.3
				c0.3,0.3,0.3,0.8,0,1.1C58.3,32.9,58.1,33,57.9,33z"/>
		</g>
		<g>
			<path class="st2" d="M53.8,28.9c-0.2,0-0.4-0.1-0.5-0.2L52,27.3c-0.3-0.3-0.3-0.8,0-1.1c0.3-0.3,0.8-0.3,1.1,0l1.3,1.3
				c0.3,0.3,0.3,0.8,0,1.1C54.2,28.8,54,28.9,53.8,28.9z"/>
		</g>
	</g>
	<g>
		<g>
			<path class="st2" d="M127.4,98.4c-0.2,0-0.4-0.1-0.5-0.2c-0.3-0.3-0.3-0.8,0-1.1l1.3-1.3c0.3-0.3,0.8-0.3,1.1,0
				c0.3,0.3,0.3,0.8,0,1.1l-1.3,1.3C127.8,98.4,127.6,98.4,127.4,98.4z"/>
		</g>
		<g>
			<path class="st2" d="M123.3,102.6c-0.2,0-0.4-0.1-0.5-0.2c-0.3-0.3-0.3-0.8,0-1.1l1.3-1.3c0.3-0.3,0.8-0.3,1.1,0
				c0.3,0.3,0.3,0.8,0,1.1l-1.3,1.3C123.7,102.5,123.5,102.6,123.3,102.6z"/>
		</g>
		<g>
			<path class="st2" d="M128.8,102.6c-0.2,0-0.4-0.1-0.5-0.2l-1.3-1.3c-0.3-0.3-0.3-0.8,0-1.1c0.3-0.3,0.8-0.3,1.1,0l1.3,1.3
				c0.3,0.3,0.3,0.8,0,1.1C129.1,102.5,128.9,102.6,128.8,102.6z"/>
		</g>
		<g>
			<path class="st2" d="M124.6,98.4c-0.2,0-0.4-0.1-0.5-0.2l-1.3-1.3c-0.3-0.3-0.3-0.8,0-1.1c0.3-0.3,0.8-0.3,1.1,0l1.3,1.3
				c0.3,0.3,0.3,0.8,0,1.1C125,98.4,124.8,98.4,124.6,98.4z"/>
		</g>
	</g>
	<g>
		<g>
			<path class="st3" d="M30.3,2.8l-4-1.8l-0.1,0.2c-0.9,1.5-2.5,2.4-4.3,2.2c-0.3,0-0.7,0-1,0c-1.8,0-3.4-0.9-4.2-2.5l-0.1-0.2
				l-4.1,1.5l0.1,0.3c0.5,1.7-0.1,3.5-1.5,4.6c-0.3,0.2-0.5,0.5-0.7,0.7c-1.2,1.2-3,1.7-4.7,1.2L5.5,9l-1.8,4L4,13.1
				c1.5,0.9,2.4,2.5,2.2,4.3c0,0.3,0,0.7,0,1c0,1.8-0.9,3.4-2.5,4.2l-0.2,0.1L5,26.7l0.3-0.1c1.7-0.5,3.5,0.1,4.6,1.5
				c0.2,0.3,0.5,0.5,0.7,0.7c1.2,1.2,1.7,3,1.2,4.7l-0.1,0.3l4,1.8l0.1-0.2c0.9-1.5,2.5-2.4,4.3-2.2c0.3,0,0.7,0,1,0
				c1.8,0,3.4,0.9,4.2,2.5l0.1,0.2l4.1-1.5l-0.1-0.3c-0.5-1.7,0.1-3.5,1.5-4.6c0.3-0.2,0.5-0.5,0.7-0.7c1.2-1.2,3-1.7,4.7-1.2
				l0.3,0.1l1.8-4l-0.2-0.1c-1.5-0.9-2.4-2.5-2.2-4.3c0-0.3,0-0.7,0-1c0-1.8,0.9-3.4,2.5-4.2l0.2-0.1L37,9.9L36.8,10
				c-1.7,0.5-3.5-0.1-4.6-1.5c-0.2-0.3-0.5-0.5-0.7-0.7c-1.2-1.2-1.7-3-1.2-4.7L30.3,2.8z"/>
			<path class="st2" d="M25.4,36.6c-0.3,0-0.5-0.2-0.7-0.4L24.6,36c-0.6-1.3-2-2.1-3.5-2.1H21c-0.3,0-0.7,0-1,0
				c-1.5-0.1-2.9,0.6-3.6,1.9L16.3,36c-0.2,0.3-0.6,0.5-1,0.3l-4-1.8c-0.4-0.2-0.5-0.6-0.4-0.9l0.1-0.3c0.5-1.4,0.1-2.9-1-3.9
				c-0.3-0.3-0.5-0.5-0.7-0.8c-1-1.1-2.5-1.6-3.9-1.2l-0.3,0.1c-0.4,0.1-0.8-0.1-0.9-0.5l-1.6-4.1c-0.1-0.4,0-0.8,0.4-0.9l0.2-0.1
				c1.3-0.6,2.1-2,2.1-3.5c0-0.4,0-0.7,0-1.1c0.1-1.5-0.6-2.9-1.9-3.6l-0.2-0.1C3,13.4,2.9,13,3,12.6l1.8-4C5,8.3,5.4,8.1,5.7,8.3
				L6,8.4c1.3,0.5,2.9,0.1,3.9-1c0.3-0.3,0.5-0.5,0.8-0.7c1.1-1,1.6-2.5,1.2-3.9l-0.1-0.3c-0.1-0.4,0.1-0.8,0.5-0.9L16.4,0
				c0.4-0.1,0.8,0,0.9,0.4l0.1,0.2c0.6,1.3,2,2.1,3.5,2.1H21c0.3,0,0.7,0,1,0c1.5,0.1,2.9-0.6,3.6-1.9l0.1-0.2
				c0.2-0.3,0.6-0.5,1-0.3l4,1.8c0.4,0.2,0.5,0.6,0.4,0.9L31,3.3c-0.5,1.4-0.1,2.9,1,3.9c0.3,0.3,0.5,0.5,0.7,0.8
				c1,1.1,2.5,1.6,3.9,1.2l0.3-0.1c0.4-0.1,0.8,0.1,0.9,0.5l1.5,4.1c0.1,0.4,0,0.8-0.4,0.9l-0.2,0.1c-1.3,0.6-2.1,2-2.1,3.5
				c0,0.4,0,0.7,0,1.1c-0.1,1.5,0.6,2.9,1.9,3.6l0.2,0.1c0.3,0.2,0.5,0.6,0.3,1l-1.8,4c-0.2,0.4-0.6,0.5-0.9,0.4L36,28.3
				c-1.3-0.5-2.9-0.1-3.9,1c-0.3,0.3-0.5,0.5-0.8,0.7c-1.1,1-1.6,2.5-1.2,3.9l0.1,0.3c0.1,0.4-0.1,0.8-0.5,0.9l-4.1,1.5
				C25.5,36.6,25.4,36.6,25.4,36.6z M21.1,32.4c1.9,0,3.7,1,4.6,2.5l2.8-1.1c-0.3-1.8,0.3-3.7,1.8-5c0.2-0.2,0.5-0.4,0.7-0.7
				c1.3-1.3,3.3-1.9,5.1-1.5l1.2-2.8c-1.5-1-2.4-2.8-2.3-4.8c0-0.3,0-0.6,0-1c0-2,1-3.7,2.5-4.6l-1.1-2.8c-1.8,0.3-3.7-0.3-5-1.8
				c-0.2-0.2-0.4-0.5-0.7-0.7C29.5,6.9,29,5,29.4,3.2L26.7,2c-1,1.5-2.8,2.4-4.8,2.3c-0.3,0-0.6,0-0.9,0l-0.1-0.8v0.8
				c-1.9,0-3.7-1-4.6-2.5l-2.8,1.1c0.4,1.8-0.3,3.7-1.8,5C11.4,8,11.2,8.2,11,8.4c-1.3,1.3-3.3,1.9-5.1,1.5l-1.2,2.8
				c1.5,1,2.4,2.8,2.3,4.8c0,0.3,0,0.6,0,1c0,2-1,3.7-2.5,4.6l1.1,2.8c1.8-0.3,3.7,0.3,5,1.8c0.2,0.2,0.4,0.5,0.7,0.7
				c1.4,1.4,1.9,3.3,1.5,5.1l2.8,1.2c1-1.5,2.8-2.4,4.8-2.3c0.3,0,0.6,0,0.9,0H21.1z"/>
		</g>
		<g>
			<path class="st2" d="M21,30.3c-0.1,0-0.3,0-0.4,0l0-1.5c0.1,0,0.3,0,0.4,0c0.2,0,0.4,0,0.5,0l0.1,1.5
				C21.5,30.3,21.2,30.3,21,30.3z M18.5,30.1c-0.3-0.1-0.7-0.2-1-0.3l0.4-1.4c0.3,0.1,0.6,0.2,0.9,0.2L18.5,30.1z M23.8,30l-0.3-1.5
				c0.3-0.1,0.6-0.2,0.9-0.3l0.5,1.4C24.5,29.8,24.1,29.9,23.8,30z M15.5,29c-0.3-0.2-0.6-0.3-0.9-0.5l0.8-1.3
				c0.3,0.2,0.5,0.3,0.8,0.5L15.5,29z M26.7,28.9L26,27.5c0.3-0.1,0.5-0.3,0.8-0.5l0.8,1.2C27.4,28.5,27.1,28.7,26.7,28.9z
				 M12.9,27.1c-0.3-0.2-0.5-0.5-0.8-0.8l1.1-1c0.2,0.2,0.4,0.5,0.7,0.7L12.9,27.1z M29.3,27l-1-1.1c0.2-0.2,0.4-0.4,0.6-0.7l1.1,1
				C29.8,26.5,29.6,26.7,29.3,27z M10.8,24.7c-0.2-0.3-0.4-0.6-0.5-0.9l1.3-0.7c0.1,0.3,0.3,0.5,0.5,0.8L10.8,24.7z M31.3,24.5
				L30,23.7c0.2-0.3,0.3-0.5,0.4-0.8l1.4,0.7C31.7,23.9,31.5,24.2,31.3,24.5z M9.5,21.8c-0.1-0.3-0.2-0.7-0.3-1l1.5-0.3
				c0.1,0.3,0.1,0.6,0.2,0.9L9.5,21.8z M32.6,21.5l-1.4-0.4c0.1-0.3,0.2-0.6,0.2-0.9l1.5,0.3C32.7,20.9,32.7,21.2,32.6,21.5z
				 M9,18.6c0-0.1,0-0.2,0-0.3c0-0.2,0-0.5,0-0.7l1.5,0.1c0,0.2,0,0.4,0,0.7l0,0.3L9,18.6z M31.5,18.4c0-0.4,0-0.6,0-0.9l1.5-0.1
				c0,0.3,0,0.7,0,1L31.5,18.4z M10.8,15.8l-1.5-0.4c0.1-0.3,0.2-0.7,0.3-1l1.4,0.5C11,15.2,10.9,15.5,10.8,15.8z M31.2,15.6
				c-0.1-0.3-0.2-0.6-0.3-0.9l1.4-0.5c0.1,0.3,0.2,0.7,0.3,1L31.2,15.6z M11.8,13.2l-1.3-0.7c0.2-0.3,0.4-0.6,0.6-0.9l1.2,0.8
				C12.1,12.7,12,12.9,11.8,13.2z M30.1,13c-0.2-0.3-0.3-0.5-0.5-0.8l1.2-0.9c0.2,0.3,0.4,0.6,0.6,0.9L30.1,13z M13.5,11l-1.1-1
				c0.2-0.3,0.5-0.5,0.8-0.7l1,1.1C13.9,10.5,13.7,10.8,13.5,11z M28.4,10.8c-0.2-0.2-0.5-0.4-0.7-0.6l1-1.2
				c0.3,0.2,0.5,0.5,0.8,0.7L28.4,10.8z M15.7,9.3L14.9,8c0.3-0.2,0.6-0.3,0.9-0.5l0.6,1.4C16.2,9,16,9.1,15.7,9.3z M26.1,9.2
				c-0.3-0.2-0.5-0.3-0.8-0.4l0.6-1.4c0.3,0.1,0.6,0.3,1,0.5L26.1,9.2z M24.7,8.5c-0.3-0.1-0.6-0.2-0.9-0.3l0.4-1.4
				c0.3,0.1,0.7,0.2,1,0.3L24.7,8.5z M18.3,8.2l-0.4-1.4c0.3-0.1,0.7-0.2,1-0.2L19.2,8C18.9,8,18.6,8.1,18.3,8.2z M22,7.9
				c-0.3,0-0.6,0-0.9,0V6.3c0.4,0,0.7,0,1.1,0L22,7.9z"/>
		</g>
		<g>
			<ellipse transform="matrix(0.4094 -0.9123 0.9123 0.4094 -4.306 29.9793)" class="st4" cx="21" cy="18.3" rx="8.9" ry="8.9"/>
		</g>
		<g>
			<ellipse transform="matrix(0.4094 -0.9123 0.9123 0.4094 -4.306 29.9791)" class="st3" cx="21" cy="18.3" rx="4.5" ry="4.5"/>
			<path class="st2" d="M21,23.5c-0.7,0-1.5-0.2-2.1-0.5c-1.3-0.6-2.2-1.6-2.7-2.9c-0.5-1.3-0.5-2.7,0.1-4c0.8-1.9,2.7-3.1,4.8-3.1
				c0.7,0,1.5,0.2,2.1,0.5c2.6,1.2,3.8,4.3,2.6,6.9C24.9,22.3,23.1,23.5,21,23.5z M21,14.6c-1.5,0-2.8,0.9-3.4,2.2
				c-0.4,0.9-0.4,1.9-0.1,2.8c0.4,0.9,1,1.7,2,2.1c0.5,0.2,1,0.3,1.5,0.3c1.5,0,2.8-0.9,3.4-2.2c0.8-1.9,0-4.1-1.9-4.9
				C22,14.7,21.5,14.6,21,14.6z"/>
		</g>
	</g>
	<circle class="st3" cx="86.4" cy="49.4" r="17.2"/>
	<path class="st2" d="M125.7,116.7H117V53.8c0-2.8-2.3-5.2-5.2-5.2h-7.5c-0.4-9.6-8.3-17.2-18-17.2c-9.7,0-17.6,7.7-18,17.2H14.5
		c-2.8,0-5.2,2.3-5.2,5.2v62.9H0.8c-0.4,0-0.8,0.3-0.8,0.8v4.4c0,3.7,3,6.7,6.7,6.7h113.1c3.7,0,6.7-3,6.7-6.7v-4.4
		C126.4,117,126.1,116.7,125.7,116.7z M86.4,32.9c9.1,0,16.5,7.4,16.5,16.5c0,9.1-7.4,16.5-16.5,16.5c-9.1,0-16.5-7.4-16.5-16.5
		C69.9,40.3,77.3,32.9,86.4,32.9z M10.9,53.8c0-2,1.6-3.7,3.7-3.7h53.9c0.4,9.6,8.3,17.2,18,17.2c9.7,0,17.6-7.7,18-17.2h7.5
		c2,0,3.7,1.6,3.7,3.7v62.9H10.9V53.8z M124.9,121.8c0,2.9-2.3,5.2-5.2,5.2H6.7c-2.9,0-5.2-2.3-5.2-5.2v-3.6h123.4V121.8z"/>
	<g>
		<circle class="st4" cx="86.4" cy="49.4" r="14.9"/>
	</g>
	<g>
		<rect x="79.4" y="37.8" transform="matrix(0.866 -0.5 0.5 0.866 -8.5741 45.2721)" class="st2" width="1.5" height="1.6"/>
	</g>
	<g>
		<rect x="91.9" y="59.4" transform="matrix(0.866 -0.5 0.5 0.866 -17.6711 54.3672)" class="st2" width="1.5" height="1.6"/>
	</g>
	<g>
		<rect x="74.9" y="42.4" transform="matrix(0.5 -0.866 0.866 0.5 0.4183 87.0879)" class="st2" width="1.5" height="1.6"/>
	</g>
	<g>
		<rect x="96.4" y="54.8" transform="matrix(0.5 -0.866 0.866 0.5 0.4203 111.945)" class="st2" width="1.5" height="1.6"/>
	</g>
	<g>
		<rect x="73.2" y="48.6" class="st2" width="1.6" height="1.5"/>
	</g>
	<g>
		<rect x="98" y="48.6" class="st2" width="1.6" height="1.5"/>
	</g>
	<g>
		<rect x="74.8" y="54.9" transform="matrix(0.866 -0.5001 0.5001 0.866 -17.672 45.2747)" class="st2" width="1.6" height="1.5"/>
	</g>
	<g>
		<rect x="96.4" y="42.4" transform="matrix(0.866 -0.5 0.5 0.866 -8.5737 54.3687)" class="st2" width="1.6" height="1.5"/>
	</g>
	<g>
		<rect x="79.4" y="59.4" transform="matrix(0.5 -0.866 0.866 0.5 -12.0071 99.5148)" class="st2" width="1.6" height="1.5"/>
	</g>
	<g>
		<rect x="91.8" y="37.9" transform="matrix(0.5001 -0.866 0.866 0.5001 12.8417 99.5122)" class="st2" width="1.6" height="1.5"/>
	</g>
	<g>
		<polygon class="st2" points="92.6,50.1 85.6,50.1 85.6,41.1 87.1,41.1 87.1,48.6 92.6,48.6 		"/>
	</g>
	<g>
		<rect x="85.6" y="36.2" class="st2" width="1.5" height="1.6"/>
	</g>
	<g>
		<rect x="85.6" y="61" class="st2" width="1.5" height="1.6"/>
	</g>
	<path class="st3" d="M56,73.3v-8.2H33.6v8.2c0,4.5,6,8.4,9.2,10.2c-3.2,1.8-9.2,5.7-9.2,10.2v8.2H56v-8.2c0-4.5-6-8.4-9.2-10.2
		C50,81.7,56,77.8,56,73.3z"/>
	<g>
		<path class="st2" d="M56.7,73.3v-7.4h2.1v-1.5H30.7v1.5h2.1v7.4c0,4.4,4.9,8,8.4,10.2c-3.6,2.1-8.4,5.8-8.4,10.2v7.4h-2.1v1.5
			h28.1V101h-2.1v-7.4c0-4.4-4.9-8-8.4-10.2C51.9,81.3,56.7,77.6,56.7,73.3z M46.4,82.8c-0.2,0.1-0.4,0.4-0.4,0.7
			c0,0.3,0.1,0.5,0.4,0.7c2.6,1.5,8.8,5.3,8.8,9.5v2h-0.6v1.5h0.6v3.9H34.4v-3.9h0.2v-1.5h-0.2v-2c0-4.2,6.2-8.1,8.8-9.5
			c0.2-0.1,0.4-0.4,0.4-0.7c0-0.3-0.1-0.5-0.4-0.7c-1.9-1-5.5-3.2-7.4-5.9v-1.4h-0.8c-0.3-0.7-0.5-1.5-0.5-2.2v-7.4h20.9v7.4
			C55.2,77.5,49.1,81.3,46.4,82.8z"/>
		<rect x="45.6" y="95.6" class="st2" width="1" height="1.5"/>
		<rect x="51.6" y="95.6" class="st2" width="1" height="1.5"/>
		<rect x="48.6" y="95.6" class="st2" width="1" height="1.5"/>
		<rect x="39.6" y="95.6" class="st2" width="1" height="1.5"/>
		<rect x="42.6" y="95.6" class="st2" width="1" height="1.5"/>
		<rect x="36.6" y="95.6" class="st2" width="1" height="1.5"/>
		<rect x="37.7" y="75.5" class="st2" width="1" height="1.5"/>
		<rect x="43.7" y="75.5" class="st2" width="1" height="1.5"/>
		<rect x="40.7" y="75.5" class="st2" width="1" height="1.5"/>
		<rect x="46.7" y="75.5" class="st2" width="1" height="1.5"/>
		<rect x="52.7" y="75.5" class="st2" width="1" height="1.5"/>
		<rect x="49.7" y="75.5" class="st2" width="1" height="1.5"/>
		<path class="st2" d="M44.3,85.9C44.1,86,44,86.2,44,86.4c0,0.2,0.1,0.4,0.2,0.5c0.1,0.1,0.3,0.2,0.5,0.2c0.2,0,0.4-0.1,0.5-0.2
			c0.1-0.2,0.2-0.3,0.2-0.5c0-0.2-0.1-0.4-0.2-0.5C45,85.6,44.6,85.6,44.3,85.9z"/>
		<path class="st2" d="M44.3,88.4C44.1,88.6,44,88.8,44,89c0,0.2,0.1,0.4,0.2,0.5c0.1,0.1,0.3,0.2,0.5,0.2c0.2,0,0.4-0.1,0.5-0.2
			c0.1-0.1,0.2-0.3,0.2-0.5c0-0.2-0.1-0.4-0.2-0.5C45,88.1,44.5,88.1,44.3,88.4z"/>
		<path class="st2" d="M44.3,91c-0.1,0.1-0.2,0.3-0.2,0.5c0,0.2,0.1,0.4,0.2,0.5c0.1,0.1,0.3,0.2,0.5,0.2c0.2,0,0.4-0.1,0.5-0.2
			c0.1-0.1,0.2-0.3,0.2-0.5c0-0.2-0.1-0.4-0.2-0.5C45,90.7,44.5,90.7,44.3,91z"/>
	</g>
	<g>
		<path class="st2" d="M70.2,25.2c-1.2,0-2.4-0.2-3.6-0.5c-0.3-0.1-0.4-0.3-0.5-0.5c-0.1-0.3,0-0.5,0.2-0.7l5.5-5.5L70.3,13
			l-4.9-1.6L59.9,17c-0.2,0.2-0.5,0.3-0.7,0.2c-0.3-0.1-0.5-0.3-0.5-0.5c-1.3-4.3-0.2-9,3-12.1c2.3-2.3,5.3-3.6,8.6-3.6
			c3.3,0,6.3,1.3,8.6,3.6c0.6,0.6,1.2,1.3,1.6,2.1h26.1c0.6-1.1,1.3-2.1,2.2-3c2.3-2.3,5.3-3.6,8.6-3.6c1.2,0,2.4,0.2,3.6,0.5
			c0.3,0.1,0.4,0.3,0.5,0.5c0.1,0.3,0,0.5-0.2,0.7l-5.5,5.5l1.6,4.9l4.9,1.6l5.5-5.5c0.2-0.2,0.5-0.3,0.7-0.2
			c0.3,0.1,0.5,0.3,0.5,0.5c1.3,4.3,0.2,9-3,12.1c-2.3,2.3-5.3,3.6-8.6,3.6c-3.3,0-6.3-1.3-8.6-3.6c-0.9-0.9-1.6-1.9-2.2-3H81.5
			c-0.6,1.5-1.5,2.8-2.6,3.9C76.5,24,73.5,25.2,70.2,25.2z M68.4,23.6c0.6,0.1,1.2,0.2,1.9,0.2c2.8,0,5.5-1.1,7.5-3.1
			c1.1-1.1,1.9-2.4,2.5-3.9c0.1-0.3,0.4-0.5,0.7-0.5H107c0.3,0,0.6,0.2,0.7,0.4c0.5,1.1,1.2,2.2,2.1,3c2,2,4.7,3.1,7.5,3.1
			c2.9,0,5.5-1.1,7.5-3.1c2.5-2.5,3.6-6,3-9.4l-4.9,4.9c-0.2,0.2-0.5,0.3-0.8,0.2l-5.7-1.8c-0.2-0.1-0.4-0.3-0.5-0.5l-1.8-5.7
			c-0.1-0.3,0-0.6,0.2-0.8l4.9-4.9c-0.6-0.1-1.2-0.2-1.9-0.2c-2.8,0-5.5,1.1-7.5,3.1c-0.9,0.9-1.6,1.9-2.1,3
			c-0.1,0.3-0.4,0.4-0.7,0.4h-27c-0.3,0-0.5-0.1-0.6-0.4c-0.5-0.8-1-1.5-1.6-2.1c-2-2-4.7-3.1-7.5-3.1c-2.9,0-5.5,1.1-7.5,3.1
			c-2.5,2.5-3.6,6-3,9.4l4.9-4.9c0.2-0.2,0.5-0.3,0.8-0.2l5.7,1.8c0.2,0.1,0.4,0.3,0.5,0.5l1.8,5.7c0.1,0.3,0,0.6-0.2,0.8L68.4,23.6
			z"/>
	</g>
	<g>
		<g>
			<path class="st3" d="M92.5,77.8h-8.3c-0.4,0-0.8-0.3-0.8-0.8c0-0.4,0.3-0.8,0.8-0.8h8.3c0.4,0,0.8,0.3,0.8,0.8
				C93.3,77.4,93,77.8,92.5,77.8z"/>
		</g>
		<g>
			<path class="st3" d="M95.8,80.8h-4.1c-0.4,0-0.8-0.3-0.8-0.8c0-0.4,0.3-0.8,0.8-0.8h4.1c0.4,0,0.8,0.3,0.8,0.8
				C96.6,80.5,96.2,80.8,95.8,80.8z"/>
		</g>
		<g>
			<path class="st3" d="M100.2,77.8h-3.9c-0.4,0-0.8-0.3-0.8-0.8c0-0.4,0.3-0.8,0.8-0.8h3.9c0.4,0,0.8,0.3,0.8,0.8
				C100.9,77.4,100.6,77.8,100.2,77.8z"/>
		</g>
		<g>
			<path class="st3" d="M88.8,80.8H88c-0.4,0-0.8-0.3-0.8-0.8c0-0.4,0.3-0.8,0.8-0.8h0.8c0.4,0,0.8,0.3,0.8,0.8
				C89.5,80.5,89.2,80.8,88.8,80.8z"/>
		</g>
	</g>
	<g>
		<g>
			<path class="st2" d="M38.9,40.8h-8.3c-0.4,0-0.8-0.3-0.8-0.8c0-0.4,0.3-0.8,0.8-0.8h8.3c0.4,0,0.8,0.3,0.8,0.8
				C39.7,40.5,39.3,40.8,38.9,40.8z"/>
		</g>
		<g>
			<path class="st2" d="M42.2,43.8h-4.1c-0.4,0-0.8-0.3-0.8-0.8s0.3-0.8,0.8-0.8h4.1c0.4,0,0.8,0.3,0.8,0.8S42.6,43.8,42.2,43.8z"/>
		</g>
		<g>
			<path class="st2" d="M46.5,40.8h-3.9c-0.4,0-0.8-0.3-0.8-0.8c0-0.4,0.3-0.8,0.8-0.8h3.9c0.4,0,0.8,0.3,0.8,0.8
				C47.3,40.5,46.9,40.8,46.5,40.8z"/>
		</g>
		<g>
			<path class="st2" d="M35.2,43.8h-0.8c-0.4,0-0.8-0.3-0.8-0.8s0.3-0.8,0.8-0.8h0.8c0.4,0,0.8,0.3,0.8,0.8S35.6,43.8,35.2,43.8z"/>
		</g>
	</g>
	<g>
		<g>
			<path class="st3" d="M74.3,99.7H66c-0.4,0-0.8-0.3-0.8-0.8c0-0.4,0.3-0.8,0.8-0.8h8.3c0.4,0,0.8,0.3,0.8,0.8
				C75.1,99.4,74.7,99.7,74.3,99.7z"/>
		</g>
		<g>
			<path class="st3" d="M77.6,102.7h-4.1c-0.4,0-0.8-0.3-0.8-0.8s0.3-0.8,0.8-0.8h4.1c0.4,0,0.8,0.3,0.8,0.8S78,102.7,77.6,102.7z"
				/>
		</g>
		<g>
			<path class="st3" d="M81.9,99.7h-3.9c-0.4,0-0.8-0.3-0.8-0.8c0-0.4,0.3-0.8,0.8-0.8h3.9c0.4,0,0.8,0.3,0.8,0.8
				C82.7,99.4,82.3,99.7,81.9,99.7z"/>
		</g>
		<g>
			<path class="st3" d="M70.6,102.7h-0.8c-0.4,0-0.8-0.3-0.8-0.8s0.3-0.8,0.8-0.8h0.8c0.4,0,0.8,0.3,0.8,0.8S71,102.7,70.6,102.7z"
				/>
		</g>
	</g>
	<g>
		<circle class="st1" cx="46.6" cy="9.7" r="2.2"/>
	</g>
	<g>
		<circle class="st5" cx="3.4" cy="43.6" r="2.2"/>
	</g>
	<g>
		<circle class="st4" cx="126.5" cy="64.3" r="2.2"/>
	</g>
</g>
</svg>
