<?xml version="1.0" encoding="utf-8"?>
<!-- Generator: Adobe Illustrator 21.1.0, SVG Export Plug-In . SVG Version: 6.00 Build 0)  -->
<svg version="1.1" id="Layer_1" xmlns="http://www.w3.org/2000/svg" xmlns:xlink="http://www.w3.org/1999/xlink" x="0px" y="0px"
	 viewBox="0 0 129.5 117.6" style="enable-background:new 0 0 129.5 117.6;" xml:space="preserve">
<style type="text/css">
	.st0{fill:#E6E9EE;}
	.st1{fill:#FF7058;}
	.st2{fill:#6E7A86;}
	.st3{fill:#84DBFF;}
	.st4{fill:#231F20;}
	.st5{fill:#FFFFFF;}
</style>
<g>
	<polygon class="st0" points="109.2,57 109.2,40.5 69.9,40.5 69.9,92.7 69.9,112.5 125.7,112.5 125.7,57 	"/>
	<polygon class="st0" points="43.1,20.3 43.1,3.7 3.7,3.7 3.7,56 3.7,75.8 59.6,75.8 59.6,20.3 	"/>
	<g>
		<circle class="st1" cx="79.3" cy="3.7" r="2.7"/>
	</g>
	<g>
		<circle class="st2" cx="49.2" cy="115.2" r="2.4"/>
	</g>
	<g>
		<circle class="st3" cx="9.1" cy="107.9" r="2.4"/>
	</g>
	<g>
		<circle class="st2" cx="117.8" cy="14.6" r="2.7"/>
	</g>
	<g>
		<g>
			<path class="st4" d="M91.6,23c-0.2,0-0.4-0.1-0.5-0.2c-0.3-0.3-0.3-0.8,0-1.1l1.3-1.3c0.3-0.3,0.8-0.3,1.1,0
				c0.3,0.3,0.3,0.8,0,1.1l-1.3,1.3C92,23,91.8,23,91.6,23z"/>
		</g>
		<g>
			<path class="st4" d="M87.6,27.1c-0.2,0-0.4-0.1-0.5-0.2c-0.3-0.3-0.3-0.8,0-1.1l1.3-1.3c0.3-0.3,0.8-0.3,1.1,0
				c0.3,0.3,0.3,0.8,0,1.1l-1.3,1.3C88,27,87.8,27.1,87.6,27.1z"/>
		</g>
		<g>
			<path class="st4" d="M92.9,27.1c-0.2,0-0.4-0.1-0.5-0.2l-1.3-1.3c-0.3-0.3-0.3-0.8,0-1.1c0.3-0.3,0.8-0.3,1.1,0l1.3,1.3
				c0.3,0.3,0.3,0.8,0,1.1C93.3,27,93.1,27.1,92.9,27.1z"/>
		</g>
		<g>
			<path class="st4" d="M88.9,23c-0.2,0-0.4-0.1-0.5-0.2l-1.3-1.3c-0.3-0.3-0.3-0.8,0-1.1c0.3-0.3,0.8-0.3,1.1,0l1.3,1.3
				c0.3,0.3,0.3,0.8,0,1.1C89.3,23,89.1,23,88.9,23z"/>
		</g>
	</g>
	<path class="st4" d="M54.3,69.3c-0.2,0-0.4-0.1-0.5-0.2c-0.3-0.3-0.3-0.8,0-1.1l1.7-1.7h-2c-4.5,0-8.2-3.7-8.2-8.2
		c0-4.5,3.7-8.2,8.2-8.2h15.3c0.4,0,0.8,0.3,0.8,0.8c0,0.4-0.3,0.8-0.8,0.8H53.5c-3.7,0-6.7,3-6.7,6.7c0,3.7,3,6.7,6.7,6.7h3.8
		c0.3,0,0.6,0.2,0.7,0.5c0.1,0.3,0.1,0.6-0.2,0.8l-3,3C54.7,69.3,54.5,69.3,54.3,69.3z"/>
	<path class="st4" d="M76,66.4H61.5c-0.4,0-0.8-0.3-0.8-0.8c0-0.4,0.3-0.8,0.8-0.8H76c3.7,0,6.7-3,6.7-6.7c0-3.7-3-6.7-6.7-6.7h-3.8
		c-0.3,0-0.6-0.2-0.7-0.5c-0.1-0.3-0.1-0.6,0.2-0.8l3-3c0.3-0.3,0.8-0.3,1.1,0c0.3,0.3,0.3,0.8,0,1.1L74,49.9h2
		c4.5,0,8.2,3.7,8.2,8.2C84.3,62.7,80.6,66.4,76,66.4z"/>
	<g>
		<path class="st4" d="M15.6,37.7c-1.6,0-2.9-1.3-2.9-2.9v-2.7c0-1.6,1.3-2.9,2.9-2.9c1.6,0,2.9,1.3,2.9,2.9v2.7
			C18.5,36.4,17.2,37.7,15.6,37.7z M15.6,30.7c-0.8,0-1.4,0.6-1.4,1.4v2.7c0,0.8,0.6,1.4,1.4,1.4c0.8,0,1.4-0.6,1.4-1.4v-2.7
			C17,31.3,16.4,30.7,15.6,30.7z"/>
	</g>
	<g>
		<path class="st4" d="M21.5,37.7c-0.4,0-0.8-0.3-0.8-0.8v-5.2l0,0c-0.3,0.3-0.8,0.3-1.1,0c-0.3-0.3-0.3-0.8,0-1.1l1.3-1.3
			c0.2-0.2,0.5-0.3,0.8-0.2c0.3,0.1,0.5,0.4,0.5,0.7v7C22.2,37.4,21.9,37.7,21.5,37.7z"/>
	</g>
	<g>
		<path class="st4" d="M26.3,37.7c-1.6,0-2.9-1.3-2.9-2.9v-2.7c0-1.6,1.3-2.9,2.9-2.9c1.6,0,2.9,1.3,2.9,2.9v2.7
			C29.2,36.4,27.9,37.7,26.3,37.7z M26.3,30.7c-0.8,0-1.4,0.6-1.4,1.4v2.7c0,0.8,0.6,1.4,1.4,1.4c0.8,0,1.4-0.6,1.4-1.4v-2.7
			C27.7,31.3,27,30.7,26.3,30.7z"/>
	</g>
	<g>
		<path class="st4" d="M32.2,37.7c-0.4,0-0.7-0.3-0.7-0.8v-5.2l0,0c-0.3,0.3-0.8,0.3-1.1,0c-0.3-0.3-0.3-0.8,0-1.1l1.3-1.3
			c0.2-0.2,0.5-0.3,0.8-0.2c0.3,0.1,0.5,0.4,0.5,0.7v7C32.9,37.4,32.6,37.7,32.2,37.7z"/>
	</g>
	<g>
		<path class="st4" d="M37,37.7c-1.6,0-2.9-1.3-2.9-2.9v-2.7c0-1.6,1.3-2.9,2.9-2.9c1.6,0,2.9,1.3,2.9,2.9v2.7
			C39.9,36.4,38.6,37.7,37,37.7z M37,30.7c-0.8,0-1.4,0.6-1.4,1.4v2.7c0,0.8,0.6,1.4,1.4,1.4c0.8,0,1.4-0.6,1.4-1.4v-2.7
			C38.4,31.3,37.7,30.7,37,30.7z"/>
	</g>
	<g>
		<path class="st4" d="M42.9,37.7c-0.4,0-0.8-0.3-0.8-0.8v-5.2l0,0c-0.3,0.3-0.8,0.3-1.1,0c-0.3-0.3-0.3-0.8,0-1.1l1.3-1.3
			c0.2-0.2,0.5-0.3,0.8-0.2c0.3,0.1,0.5,0.4,0.5,0.7v7C43.6,37.4,43.3,37.7,42.9,37.7z"/>
	</g>
	<g>
		<path class="st4" d="M30.1,49.4c-1.6,0-2.9-1.3-2.9-2.9v-2.7c0-1.6,1.3-2.9,2.9-2.9c1.6,0,2.9,1.3,2.9,2.9v2.7
			C33,48.1,31.7,49.4,30.1,49.4z M30.1,42.3c-0.8,0-1.4,0.6-1.4,1.4v2.7c0,0.8,0.6,1.4,1.4,1.4c0.8,0,1.4-0.6,1.4-1.4v-2.7
			C31.5,43,30.8,42.3,30.1,42.3z"/>
	</g>
	<g>
		<path class="st4" d="M14.7,49.4c-0.4,0-0.8-0.3-0.8-0.8v-5.2l0,0c-0.3,0.3-0.8,0.3-1.1,0c-0.3-0.3-0.3-0.8,0-1.1l1.3-1.3
			c0.2-0.2,0.5-0.3,0.8-0.2c0.3,0.1,0.5,0.4,0.5,0.7v7C15.5,49,15.2,49.4,14.7,49.4z"/>
	</g>
	<g>
		<path class="st4" d="M19.4,49.4c-1.6,0-2.9-1.3-2.9-2.9v-2.7c0-1.6,1.3-2.9,2.9-2.9c1.6,0,2.9,1.3,2.9,2.9v2.7
			C22.3,48.1,21,49.4,19.4,49.4z M19.4,42.3c-0.8,0-1.4,0.6-1.4,1.4v2.7c0,0.8,0.6,1.4,1.4,1.4c0.8,0,1.4-0.6,1.4-1.4v-2.7
			C20.8,43,20.2,42.3,19.4,42.3z"/>
	</g>
	<g>
		<path class="st4" d="M25.4,49.4c-0.4,0-0.8-0.3-0.8-0.8v-5.2l0,0c-0.3,0.3-0.8,0.3-1.1,0c-0.3-0.3-0.3-0.8,0-1.1l1.3-1.3
			c0.2-0.2,0.5-0.3,0.8-0.2c0.3,0.1,0.5,0.4,0.5,0.7v7C26.1,49,25.8,49.4,25.4,49.4z"/>
	</g>
	<g>
		<path class="st4" d="M40.7,49.4c-1.6,0-2.9-1.3-2.9-2.9v-2.7c0-1.6,1.3-2.9,2.9-2.9c1.6,0,2.9,1.3,2.9,2.9v2.7
			C43.6,48.1,42.3,49.4,40.7,49.4z M40.7,42.3c-0.8,0-1.4,0.6-1.4,1.4v2.7c0,0.8,0.6,1.4,1.4,1.4s1.4-0.6,1.4-1.4v-2.7
			C42.1,43,41.5,42.3,40.7,42.3z"/>
	</g>
	<g>
		<path class="st4" d="M36,49.4c-0.4,0-0.8-0.3-0.8-0.8v-5.2l0,0c-0.3,0.3-0.8,0.3-1.1,0c-0.3-0.3-0.3-0.8,0-1.1l1.3-1.3
			c0.2-0.2,0.5-0.3,0.8-0.2c0.3,0.1,0.5,0.4,0.5,0.7v7C36.8,49,36.5,49.4,36,49.4z"/>
	</g>
	<g>
		<path class="st4" d="M85.3,94.3c-1.6,0-2.9-1.3-2.9-2.9v-2.7c0-1.6,1.3-2.9,2.9-2.9c1.6,0,2.9,1.3,2.9,2.9v2.7
			C88.2,93,86.9,94.3,85.3,94.3z M85.3,87.3c-0.8,0-1.4,0.6-1.4,1.4v2.7c0,0.8,0.6,1.4,1.4,1.4s1.4-0.6,1.4-1.4v-2.7
			C86.7,87.9,86,87.3,85.3,87.3z"/>
	</g>
	<g>
		<path class="st4" d="M91.2,94.3c-0.4,0-0.8-0.3-0.8-0.8v-5.2l0,0c-0.3,0.3-0.8,0.3-1.1,0c-0.3-0.3-0.3-0.8,0-1.1l1.3-1.3
			c0.2-0.2,0.5-0.3,0.8-0.2c0.3,0.1,0.5,0.4,0.5,0.7v7C91.9,94,91.6,94.3,91.2,94.3z"/>
	</g>
	<g>
		<path class="st4" d="M96,94.3c-1.6,0-2.9-1.3-2.9-2.9v-2.7c0-1.6,1.3-2.9,2.9-2.9c1.6,0,2.9,1.3,2.9,2.9v2.7
			C98.9,93,97.6,94.3,96,94.3z M96,87.3c-0.8,0-1.4,0.6-1.4,1.4v2.7c0,0.8,0.6,1.4,1.4,1.4s1.4-0.6,1.4-1.4v-2.7
			C97.4,87.9,96.7,87.3,96,87.3z"/>
	</g>
	<g>
		<path class="st4" d="M101.9,94.3c-0.4,0-0.8-0.3-0.8-0.8v-5.2l0,0c-0.3,0.3-0.8,0.3-1.1,0c-0.3-0.3-0.3-0.8,0-1.1l1.3-1.3
			c0.2-0.2,0.5-0.3,0.8-0.2c0.3,0.1,0.5,0.4,0.5,0.7v7C102.6,94,102.3,94.3,101.9,94.3z"/>
	</g>
	<g>
		<path class="st4" d="M106.6,94.3c-1.6,0-2.9-1.3-2.9-2.9v-2.7c0-1.6,1.3-2.9,2.9-2.9c1.6,0,2.9,1.3,2.9,2.9v2.7
			C109.5,93,108.2,94.3,106.6,94.3z M106.6,87.3c-0.8,0-1.4,0.6-1.4,1.4v2.7c0,0.8,0.6,1.4,1.4,1.4c0.8,0,1.4-0.6,1.4-1.4v-2.7
			C108,87.9,107.4,87.3,106.6,87.3z"/>
	</g>
	<g>
		<path class="st4" d="M112.5,94.3c-0.4,0-0.8-0.3-0.8-0.8v-5.2l0,0c-0.3,0.3-0.8,0.3-1.1,0c-0.3-0.3-0.3-0.8,0-1.1L112,86
			c0.2-0.2,0.5-0.3,0.8-0.2c0.3,0.1,0.5,0.4,0.5,0.7v7C113.3,94,113,94.3,112.5,94.3z"/>
	</g>
	<g>
		<path class="st4" d="M99.8,105.9c-1.6,0-2.9-1.3-2.9-2.9v-2.7c0-1.6,1.3-2.9,2.9-2.9c1.6,0,2.9,1.3,2.9,2.9v2.7
			C102.7,104.6,101.4,105.9,99.8,105.9z M99.8,98.9c-0.8,0-1.4,0.6-1.4,1.4v2.7c0,0.8,0.6,1.4,1.4,1.4s1.4-0.6,1.4-1.4v-2.7
			C101.2,99.5,100.5,98.9,99.8,98.9z"/>
	</g>
	<g>
		<path class="st4" d="M84.4,105.9c-0.4,0-0.8-0.3-0.8-0.8v-5.2l0,0c-0.3,0.3-0.8,0.3-1.1,0c-0.3-0.3-0.3-0.8,0-1.1l1.3-1.3
			c0.2-0.2,0.5-0.3,0.8-0.2c0.3,0.1,0.5,0.4,0.5,0.7v7C85.2,105.6,84.9,105.9,84.4,105.9z"/>
	</g>
	<g>
		<path class="st4" d="M89.1,105.9c-1.6,0-2.9-1.3-2.9-2.9v-2.7c0-1.6,1.3-2.9,2.9-2.9c1.6,0,2.9,1.3,2.9,2.9v2.7
			C92,104.6,90.7,105.9,89.1,105.9z M89.1,98.9c-0.8,0-1.4,0.6-1.4,1.4v2.7c0,0.8,0.6,1.4,1.4,1.4s1.4-0.6,1.4-1.4v-2.7
			C90.5,99.5,89.9,98.9,89.1,98.9z"/>
	</g>
	<g>
		<path class="st4" d="M95.1,105.9c-0.4,0-0.8-0.3-0.8-0.8v-5.2l0,0c-0.3,0.3-0.8,0.3-1.1,0c-0.3-0.3-0.3-0.8,0-1.1l1.3-1.3
			c0.2-0.2,0.5-0.3,0.8-0.2c0.3,0.1,0.5,0.4,0.5,0.7v7C95.8,105.6,95.5,105.9,95.1,105.9z"/>
	</g>
	<g>
		<path class="st4" d="M110.4,105.9c-1.6,0-2.9-1.3-2.9-2.9v-2.7c0-1.6,1.3-2.9,2.9-2.9c1.6,0,2.9,1.3,2.9,2.9v2.7
			C113.3,104.6,112,105.9,110.4,105.9z M110.4,98.9c-0.8,0-1.4,0.6-1.4,1.4v2.7c0,0.8,0.6,1.4,1.4,1.4s1.4-0.6,1.4-1.4v-2.7
			C111.8,99.5,111.2,98.9,110.4,98.9z"/>
	</g>
	<g>
		<path class="st4" d="M105.7,105.9c-0.4,0-0.8-0.3-0.8-0.8v-5.2l0,0c-0.3,0.3-0.8,0.3-1.1,0c-0.3-0.3-0.3-0.8,0-1.1l1.3-1.3
			c0.2-0.2,0.5-0.3,0.8-0.2c0.3,0.1,0.5,0.4,0.5,0.7v7C106.5,105.6,106.1,105.9,105.7,105.9z"/>
	</g>
	<path class="st4" d="M129.3,53.5L112.8,37l0,0c-0.1-0.1-0.3-0.2-0.5-0.2H66.9c-0.4,0-0.8,0.3-0.8,0.8v7.1c0,0.4,0.3,0.8,0.8,0.8
		c0.4,0,0.8-0.3,0.8-0.8v-6.3h43.8V54c0,0.4,0.3,0.8,0.8,0.8H128v60H67.7V93.5h3.2c0.3,0,0.5-0.1,0.6-0.4c0.1-0.2,0.1-0.5,0-0.7
		l-3.9-7.3c-0.3-0.5-1.1-0.5-1.3,0l-3.9,7.3c-0.1,0.2-0.1,0.5,0,0.7c0.1,0.2,0.4,0.4,0.6,0.4h3.2v22.1c0,0.4,0.3,0.8,0.8,0.8h61.8
		c0.4,0,0.8-0.3,0.8-0.8V54C129.5,53.8,129.4,53.6,129.3,53.5z M64.3,92l2.7-4.9l2.7,4.9H64.3z M113,53.2V39.3l13.9,13.9H113z"/>
	<path class="st5" d="M38,72.1l-4.1-1.8l-0.1,0.2c-0.9,1.6-2.6,2.4-4.4,2.3c-0.4,0-0.7,0-1.1,0c-1.8,0-3.5-0.9-4.3-2.6L23.9,70
		l-4.2,1.6l0.1,0.3c0.5,1.7-0.1,3.6-1.5,4.8c-0.3,0.2-0.5,0.5-0.8,0.7c-1.3,1.3-3.1,1.8-4.8,1.2l-0.3-0.1l-1.8,4.1l0.2,0.1
		c1.6,0.9,2.4,2.6,2.3,4.4c0,0.4,0,0.7,0,1.1c0,1.8-0.9,3.5-2.6,4.3l-0.3,0.1l1.6,4.2l0.3-0.1c1.7-0.5,3.6,0.1,4.8,1.5
		c0.2,0.3,0.5,0.5,0.7,0.8c1.3,1.3,1.8,3.1,1.2,4.8l-0.1,0.3l4.1,1.8l0.1-0.2c0.9-1.6,2.6-2.4,4.4-2.3c0.4,0,0.7,0,1.1,0
		c1.8,0,3.5,0.9,4.3,2.6l0.1,0.3l4.2-1.6l-0.1-0.3c-0.5-1.7,0.1-3.6,1.5-4.8c0.3-0.2,0.5-0.5,0.8-0.7c1.3-1.3,3.1-1.8,4.8-1.2
		l0.3,0.1l1.8-4.1l-0.2-0.1c-1.6-0.9-2.4-2.6-2.3-4.4c0-0.4,0-0.7,0-1.1c0-1.8,0.9-3.5,2.6-4.3l0.3-0.1l-1.6-4.2l-0.3,0.1
		c-1.7,0.5-3.6-0.1-4.8-1.5c-0.2-0.3-0.5-0.5-0.7-0.8c-1.3-1.3-1.8-3.1-1.2-4.8L38,72.1z"/>
	<path class="st4" d="M58.6,24.2c-0.3,0-0.5,0.1-0.6,0.4c-0.1,0.2-0.1,0.5,0,0.7l3.9,7.3c0.1,0.2,0.4,0.4,0.7,0.4
		c0.3,0,0.5-0.2,0.7-0.4l3.9-7.3c0.1-0.2,0.1-0.5,0-0.7c-0.1-0.2-0.4-0.4-0.6-0.4h-3.1v-6.9c0-0.2-0.1-0.4-0.2-0.5L46.6,0.2
		C46.5,0.1,46.3,0,46.1,0H0.8C0.3,0,0,0.3,0,0.8v78c0,0.4,0.3,0.8,0.8,0.8h10.4l-1.2,2.7c-0.2,0.4,0,0.8,0.3,1l0.2,0.1
		c1.3,0.7,2,2.2,1.9,3.7c0,0.4,0,0.7,0,1.1c0,1.6-0.8,3-2.1,3.6l-0.3,0.1c-0.3,0.2-0.5,0.6-0.4,0.9l1.6,4.2c0.1,0.4,0.5,0.6,0.9,0.5
		l0.3-0.1c1.4-0.4,3,0.1,4,1.3c0.2,0.3,0.5,0.5,0.8,0.8c1.1,1.1,1.5,2.7,1,4.1l-0.1,0.3c-0.1,0.4,0,0.8,0.4,0.9l4.1,1.8
		c0.4,0.2,0.8,0,1-0.3l0.1-0.2c0.7-1.3,2.1-2,3.7-1.9c0.3,0,0.7,0,1,0h0.1c1.6,0,2.9,0.8,3.6,2.1l0.1,0.3c0.1,0.3,0.4,0.4,0.7,0.4
		c0.1,0,0.2,0,0.3,0l4.2-1.6c0.4-0.1,0.6-0.5,0.5-0.9l-0.1-0.3c-0.4-1.4,0.1-3,1.3-4c0.3-0.2,0.5-0.5,0.8-0.8c1.1-1.1,2.7-1.5,4.1-1
		l0.3,0.1c0.4,0.1,0.8,0,0.9-0.4l1.8-4.1c0.2-0.4,0-0.8-0.3-1l-0.2-0.1c-1.3-0.7-2-2.2-1.9-3.7c0-0.4,0-0.7,0-1.1
		c0-1.6,0.8-3,2.1-3.6l0.3-0.1c0.3-0.2,0.5-0.6,0.4-0.9l-1.5-3.8h16.8c0.4,0,0.8-0.3,0.8-0.8v-6c0-0.4-0.3-0.8-0.8-0.8
		c-0.4,0-0.8,0.3-0.8,0.8V78H41c-0.2-0.2-0.4-0.3-0.6-0.5c-0.2-0.3-0.5-0.5-0.8-0.8c-1.1-1.1-1.5-2.7-1-4.1l0.1-0.3
		c0.1-0.4,0-0.8-0.4-0.9l-4.1-1.8c-0.4-0.2-0.8,0-1,0.3l-0.1,0.2c-0.7,1.3-2.1,2-3.7,1.9c-0.3,0-0.7,0-1,0h-0.1
		c-1.6,0-2.9-0.8-3.6-2.1l-0.1-0.3c-0.2-0.3-0.6-0.5-0.9-0.4l-4.2,1.6c-0.4,0.1-0.6,0.5-0.5,0.9l0.1,0.3c0.4,1.4-0.1,3-1.3,4
		c-0.3,0.2-0.5,0.5-0.8,0.8c-1.1,1.1-2.7,1.5-4.1,1l-0.3-0.1c-0.3-0.1-0.6,0-0.8,0.3H1.5V1.5h43.8v15.8c0,0.4,0.3,0.8,0.8,0.8h15.8
		v6.2H58.6z M12.8,79.4c1.8,0.5,3.9-0.1,5.2-1.5c0.2-0.2,0.5-0.5,0.7-0.7c1.5-1.3,2.2-3.3,1.8-5.1l2.9-1.1c1,1.6,2.7,2.6,4.7,2.6
		v-0.8l0.1,0.8c0.3,0,0.6,0,0.9,0c2,0.1,3.9-0.8,4.9-2.3l2.9,1.3c-0.5,1.8,0.1,3.8,1.5,5.2c0.2,0.2,0.5,0.5,0.7,0.7
		c1.3,1.5,3.3,2.2,5.1,1.8l1.1,2.9c-1.6,1-2.6,2.8-2.6,4.8c0,0.3,0,0.7,0,1c-0.1,2,0.8,3.8,2.3,4.9l-1.3,2.9
		c-1.8-0.5-3.9,0.1-5.2,1.5c-0.2,0.2-0.5,0.5-0.7,0.7c-1.5,1.3-2.2,3.3-1.8,5.1l-2.9,1.1c-1-1.6-2.7-2.6-4.7-2.6h-0.1
		c-0.3,0-0.6,0-0.9,0c-2-0.1-3.9,0.8-4.9,2.3l-2.9-1.3c0.5-1.8-0.1-3.8-1.5-5.2c-0.2-0.2-0.5-0.5-0.7-0.7c-1.3-1.5-3.3-2.2-5.1-1.8
		l-1.1-2.9c1.6-1,2.6-2.8,2.6-4.8c0-0.3,0-0.7,0-1c0.1-2-0.8-3.8-2.3-4.9L12.8,79.4z M46.8,16.5V2.6l13.9,13.9H46.8z M65.1,25.7
		l-2.7,4.9l-2.7-4.9H65.1z"/>
	<g>
		<path class="st4" d="M29,100.4l-0.1-1.5c0.3,0,0.6,0,0.9-0.1l0.2,1.5C29.7,100.4,29.3,100.4,29,100.4z M26.8,100.4
			c-0.4,0-0.7-0.1-1-0.2l0.3-1.5c0.3,0.1,0.6,0.1,0.9,0.2L26.8,100.4z M32.1,99.9l-0.5-1.4c0.3-0.1,0.6-0.2,0.9-0.3l0.6,1.4
			C32.8,99.6,32.4,99.8,32.1,99.9z M23.8,99.5c-0.1-0.1-0.3-0.1-0.4-0.2c-0.2-0.1-0.4-0.2-0.5-0.3l0.7-1.3c0.2,0.1,0.3,0.2,0.5,0.2
			c0.1,0.1,0.3,0.1,0.4,0.2L23.8,99.5z M35,98.5l-0.8-1.3c0.3-0.2,0.5-0.3,0.8-0.5l0.9,1.2C35.6,98.1,35.3,98.3,35,98.5z M21,98
			c-0.3-0.2-0.6-0.4-0.8-0.7l1-1.1c0.2,0.2,0.5,0.4,0.7,0.6L21,98z M37.4,96.5l-1.1-1c0.2-0.2,0.4-0.5,0.6-0.7l1.2,0.9
			C37.9,96,37.7,96.2,37.4,96.5z M18.7,95.8c-0.2-0.3-0.4-0.6-0.6-0.9l1.3-0.8c0.2,0.3,0.4,0.5,0.5,0.8L18.7,95.8z M39.3,93.9
			L38,93.2c0.1-0.2,0.2-0.4,0.3-0.7l0.1-0.2l1.4,0.6l-0.1,0.2C39.5,93.4,39.4,93.7,39.3,93.9z M17.1,93c-0.1-0.3-0.3-0.7-0.4-1
			l1.4-0.5c0.1,0.3,0.2,0.6,0.3,0.9L17.1,93z M40.4,90.9l-1.5-0.3c0.1-0.3,0.1-0.6,0.2-0.9l1.5,0.2C40.6,90.2,40.5,90.6,40.4,90.9z
			 M16.2,90c-0.1-0.4-0.1-0.7-0.1-1.1l1.5-0.1c0,0.3,0.1,0.6,0.1,0.9L16.2,90z M39.2,87.8c0-0.3,0-0.6-0.1-0.9l1.5-0.2
			c0,0.4,0.1,0.7,0.1,1.1L39.2,87.8z M17.6,87l-1.5-0.2c0-0.4,0.1-0.7,0.2-1.1l1.5,0.3C17.7,86.3,17.6,86.6,17.6,87z M38.8,85
			c-0.1-0.3-0.2-0.6-0.3-0.9l1.4-0.5c0.1,0.3,0.2,0.7,0.3,1L38.8,85z M18.2,84.2l-1.4-0.5c0.1-0.2,0.2-0.4,0.3-0.7
			c0-0.1,0.1-0.2,0.2-0.3l1.3,0.7l-0.1,0.3C18.4,83.9,18.3,84,18.2,84.2z M37.7,82.5c-0.2-0.3-0.3-0.5-0.5-0.8l1.2-0.9
			c0.2,0.3,0.4,0.6,0.6,0.9L37.7,82.5z M19.6,81.8l-1.2-0.9c0.2-0.3,0.4-0.6,0.7-0.8l1.1,1C19.9,81.3,19.8,81.5,19.6,81.8z
			 M35.9,80.3c-0.2-0.2-0.5-0.4-0.7-0.6l0.9-1.2c0.3,0.2,0.5,0.5,0.8,0.7L35.9,80.3z M21.5,79.7l-1-1.2c0.3-0.2,0.6-0.4,0.9-0.6
			l0.8,1.2C22,79.3,21.7,79.5,21.5,79.7z M33.7,78.6c-0.3-0.1-0.5-0.3-0.8-0.4c-0.3-0.1-0.5-0.2-0.8-0.3l0.5-1.4
			c0.3,0.1,0.6,0.2,0.9,0.4c0.3,0.1,0.6,0.3,0.9,0.5L33.7,78.6z M23.9,78.2l-0.6-1.4c0.3-0.1,0.7-0.3,1-0.4l0.5,1.4
			C24.4,78,24.1,78.1,23.9,78.2z M30.2,77.4c-0.3-0.1-0.6-0.1-0.9-0.1l0.1-1.5c0.4,0,0.7,0.1,1.1,0.1L30.2,77.4z M26.5,77.4
			l-0.3-1.5c0.3-0.1,0.7-0.1,1.1-0.1l0.1,1.5C27.1,77.3,26.8,77.4,26.5,77.4z"/>
	</g>
	<g>
		<ellipse transform="matrix(0.4094 -0.9123 0.9123 0.4094 -63.6155 77.9244)" class="st2" cx="28.4" cy="88.1" rx="9.2" ry="9.2"/>
	</g>
	<g>
		<ellipse transform="matrix(0.4094 -0.9123 0.9123 0.4094 -63.6154 77.9238)" class="st5" cx="28.4" cy="88.1" rx="4.6" ry="4.6"/>
		<path class="st4" d="M28.4,93.5c-0.8,0-1.5-0.2-2.2-0.5c-1.3-0.6-2.3-1.6-2.8-3c-0.5-1.3-0.5-2.8,0.1-4.1c0.9-1.9,2.8-3.2,4.9-3.2
			c0.8,0,1.5,0.2,2.2,0.5c1.3,0.6,2.3,1.6,2.8,3c0.5,1.3,0.5,2.8-0.1,4.1C32.4,92.2,30.5,93.5,28.4,93.5z M28.4,84.2
			c-1.5,0-2.9,0.9-3.5,2.3c-0.4,0.9-0.5,2-0.1,2.9c0.4,1,1.1,1.7,2,2.1c0.5,0.2,1,0.3,1.6,0.3c1.5,0,2.9-0.9,3.5-2.3
			c0.4-0.9,0.5-2,0.1-2.9c-0.4-1-1.1-1.7-2-2.1C29.5,84.4,28.9,84.2,28.4,84.2z"/>
	</g>
	<g>
		<rect x="83.5" y="66.8" class="st4" width="29" height="1.5"/>
	</g>
	<g>
		<rect x="83.5" y="70.4" class="st4" width="29" height="1.5"/>
	</g>
	<g>
		<rect x="83.5" y="73.9" class="st4" width="29" height="1.5"/>
	</g>
	<g>
		<rect x="83.5" y="77.4" class="st4" width="20.6" height="1.5"/>
	</g>
	<g>
		<rect x="9.4" y="21.5" class="st4" width="26.8" height="1.5"/>
	</g>
	<g>
		<rect x="9.4" y="18" class="st4" width="26.8" height="1.5"/>
	</g>
	<g>
		<rect x="9.4" y="14.5" class="st4" width="26.8" height="1.5"/>
	</g>
	<g>
		<rect x="9.4" y="11" class="st4" width="19" height="1.5"/>
	</g>
</g>
</svg>
