<?xml version="1.0" encoding="utf-8"?>
<!-- Generator: Adobe Illustrator 21.1.0, SVG Export Plug-In . SVG Version: 6.00 Build 0)  -->
<svg version="1.1" id="Layer_1" xmlns="http://www.w3.org/2000/svg" xmlns:xlink="http://www.w3.org/1999/xlink" x="0px" y="0px"
	 viewBox="0 0 129.5 127.8" style="enable-background:new 0 0 129.5 127.8;" xml:space="preserve">
<style type="text/css">
	.st0{fill:#231F20;}
	.st1{fill:#84DBFF;}
	.st2{fill:#6E7A86;}
	.st3{fill:#FFD05B;}
	.st4{fill:#FFFFFF;}
</style>
<g>
	<path class="st0" d="M111.6,7.8c-0.2,0-0.4-0.1-0.5-0.2c-0.3-0.3-0.3-0.8,0-1.1l1.3-1.3c0.3-0.3,0.8-0.3,1.1,0
		c0.3,0.3,0.3,0.8,0,1.1l-1.3,1.3C112,7.8,111.8,7.8,111.6,7.8z"/>
	<path class="st0" d="M107.6,11.9c-0.2,0-0.4-0.1-0.5-0.2c-0.3-0.3-0.3-0.8,0-1.1l1.3-1.3c0.3-0.3,0.8-0.3,1.1,0
		c0.3,0.3,0.3,0.8,0,1.1l-1.3,1.3C107.9,11.8,107.7,11.9,107.6,11.9z"/>
	<path class="st0" d="M112.9,11.9c-0.2,0-0.4-0.1-0.5-0.2l-1.3-1.3c-0.3-0.3-0.3-0.8,0-1.1c0.3-0.3,0.8-0.3,1.1,0l1.3,1.3
		c0.3,0.3,0.3,0.8,0,1.1C113.2,11.8,113.1,11.9,112.9,11.9z"/>
	<path class="st0" d="M108.8,7.8c-0.2,0-0.4-0.1-0.5-0.2L107,6.3c-0.3-0.3-0.3-0.8,0-1.1c0.3-0.3,0.8-0.3,1.1,0l1.3,1.3
		c0.3,0.3,0.3,0.8,0,1.1C109.2,7.8,109,7.8,108.8,7.8z"/>
	<path class="st0" d="M9.3,113.1c-0.2,0-0.4-0.1-0.5-0.2c-0.3-0.3-0.3-0.8,0-1.1l1.3-1.3c0.3-0.3,0.8-0.3,1.1,0s0.3,0.8,0,1.1
		l-1.3,1.3C9.7,113,9.5,113.1,9.3,113.1z"/>
	<path class="st0" d="M5.2,117.1c-0.2,0-0.4-0.1-0.5-0.2c-0.3-0.3-0.3-0.8,0-1.1l1.3-1.3c0.3-0.3,0.8-0.3,1.1,0
		c0.3,0.3,0.3,0.8,0,1.1l-1.3,1.3C5.6,117,5.4,117.1,5.2,117.1z"/>
	<path class="st0" d="M10.6,117.1c-0.2,0-0.4-0.1-0.5-0.2l-1.3-1.3c-0.3-0.3-0.3-0.8,0-1.1c0.3-0.3,0.8-0.3,1.1,0l1.3,1.3
		c0.3,0.3,0.3,0.8,0,1.1C10.9,117,10.7,117.1,10.6,117.1z"/>
	<path class="st0" d="M6.5,113.1c-0.2,0-0.4-0.1-0.5-0.2l-1.3-1.3c-0.3-0.3-0.3-0.8,0-1.1c0.3-0.3,0.8-0.3,1.1,0l1.3,1.3
		c0.3,0.3,0.3,0.8,0,1.1C6.9,113,6.7,113.1,6.5,113.1z"/>
	<path class="st0" d="M102.4,88.9c-0.2,0-0.4-0.1-0.5-0.2c-0.3-0.3-0.3-0.8,0-1.1l1.3-1.3c0.3-0.3,0.8-0.3,1.1,0
		c0.3,0.3,0.3,0.8,0,1.1l-1.3,1.3C102.7,88.9,102.5,88.9,102.4,88.9z"/>
	<path class="st0" d="M98.3,93c-0.2,0-0.4-0.1-0.5-0.2c-0.3-0.3-0.3-0.8,0-1.1l1.3-1.3c0.3-0.3,0.8-0.3,1.1,0c0.3,0.3,0.3,0.8,0,1.1
		l-1.3,1.3C98.7,92.9,98.5,93,98.3,93z"/>
	<path class="st0" d="M103.6,93c-0.2,0-0.4-0.1-0.5-0.2l-1.3-1.3c-0.3-0.3-0.3-0.8,0-1.1c0.3-0.3,0.8-0.3,1.1,0l1.3,1.3
		c0.3,0.3,0.3,0.8,0,1.1C104,92.9,103.8,93,103.6,93z"/>
	<path class="st0" d="M99.6,88.9c-0.2,0-0.4-0.1-0.5-0.2l-1.3-1.3c-0.3-0.3-0.3-0.8,0-1.1c0.3-0.3,0.8-0.3,1.1,0l1.3,1.3
		c0.3,0.3,0.3,0.8,0,1.1C100,88.9,99.8,88.9,99.6,88.9z"/>
	<path class="st0" d="M119.3,36.6l-0.1-1.5h0.1V36.6z M117.2,36.6h-1v-1.5h1V36.6z M114.2,36.6h-1v-1.5h1V36.6z M111.2,36.6h-1v-1.5
		h1V36.6z M108.2,36.6h-1v-1.5h1V36.6z M105.2,36.6h-1v-1.5h1V36.6z M102.2,36.6h-1v-1.5h1V36.6z"/>
	<g>
		<path class="st0" d="M120.1,27h-1v-1.5h1V27z M117.1,27h-1v-1.5h1V27z M114.1,27h-1v-1.5h1V27z M111.1,27h-1v-1.5h1V27z M108.1,27
			h-1v-1.5h1V27z"/>
	</g>
	<g>
		<path class="st0" d="M120.6,31.8H119c-0.4,0-0.8-0.3-0.8-0.8c0-0.4,0.3-0.8,0.8-0.8h1.5c0.4,0,0.8,0.3,0.8,0.8
			C121.3,31.5,121,31.8,120.6,31.8z"/>
	</g>
	<g>
		<path class="st0" d="M116.3,31.8h-0.8c-0.4,0-0.8-0.3-0.8-0.8c0-0.4,0.3-0.8,0.8-0.8h0.8c0.4,0,0.8,0.3,0.8,0.8
			C117,31.5,116.7,31.8,116.3,31.8z"/>
	</g>
	<g>
		<path class="st0" d="M112.7,31.8h-9.3c-0.4,0-0.8-0.3-0.8-0.8c0-0.4,0.3-0.8,0.8-0.8h9.3c0.4,0,0.8,0.3,0.8,0.8
			C113.4,31.5,113.1,31.8,112.7,31.8z"/>
	</g>
	<g>
		<path class="st0" d="M128.8,23.6h-1.5c-0.4,0-0.8-0.3-0.8-0.8c0-0.4,0.3-0.8,0.8-0.8h1.5c0.4,0,0.8,0.3,0.8,0.8
			C129.5,23.3,129.2,23.6,128.8,23.6z"/>
	</g>
	<g>
		<path class="st0" d="M124.4,23.6h-0.8c-0.4,0-0.8-0.3-0.8-0.8c0-0.4,0.3-0.8,0.8-0.8h0.8c0.4,0,0.8,0.3,0.8,0.8
			C125.2,23.3,124.9,23.6,124.4,23.6z"/>
	</g>
	<g>
		<path class="st0" d="M120.9,23.6h-9.3c-0.4,0-0.8-0.3-0.8-0.8c0-0.4,0.3-0.8,0.8-0.8h9.3c0.4,0,0.8,0.3,0.8,0.8
			C121.6,23.3,121.3,23.6,120.9,23.6z"/>
	</g>
	<path class="st0" d="M128.8,71.3h-1v-1.5h1V71.3z M125.8,71.3h-1v-1.5h1V71.3z M122.8,71.3h-1v-1.5h1V71.3z M119.8,71.3h-1v-1.5h1
		V71.3z M116.8,71.3h-1v-1.5h1V71.3z M113.8,71.3h-1v-1.5h1V71.3z M110.8,71.3L110.8,71.3l-0.1-1.5L110.8,71.3z"/>
	<g>
		<path class="st0" d="M122.8,61.7h-1v-1.5h1V61.7z M119.8,61.7h-1v-1.5h1V61.7z M116.8,61.7h-1v-1.5h1V61.7z M113.8,61.7h-1v-1.5h1
			V61.7z M110.8,61.7h-1v-1.5h1V61.7z"/>
	</g>
	<g>
		<path class="st0" d="M110.9,66.5h-1.5c-0.4,0-0.8-0.3-0.8-0.8c0-0.4,0.3-0.8,0.8-0.8h1.5c0.4,0,0.8,0.3,0.8,0.8
			C111.6,66.1,111.3,66.5,110.9,66.5z"/>
	</g>
	<g>
		<path class="st0" d="M114.5,66.5h-0.8c-0.4,0-0.8-0.3-0.8-0.8c0-0.4,0.3-0.8,0.8-0.8h0.8c0.4,0,0.8,0.3,0.8,0.8
			C115.3,66.1,114.9,66.5,114.5,66.5z"/>
	</g>
	<g>
		<path class="st0" d="M126.5,66.5h-9.3c-0.4,0-0.8-0.3-0.8-0.8c0-0.4,0.3-0.8,0.8-0.8h9.3c0.4,0,0.8,0.3,0.8,0.8
			C127.3,66.1,126.9,66.5,126.5,66.5z"/>
	</g>
	<g>
		<path class="st0" d="M102.7,58.2h-1.5c-0.4,0-0.8-0.3-0.8-0.8c0-0.4,0.3-0.8,0.8-0.8h1.5c0.4,0,0.8,0.3,0.8,0.8
			C103.4,57.9,103.1,58.2,102.7,58.2z"/>
	</g>
	<g>
		<path class="st0" d="M106.3,58.2h-0.8c-0.4,0-0.8-0.3-0.8-0.8c0-0.4,0.3-0.8,0.8-0.8h0.8c0.4,0,0.8,0.3,0.8,0.8
			C107.1,57.9,106.7,58.2,106.3,58.2z"/>
	</g>
	<g>
		<path class="st0" d="M118.3,58.2h-9.3c-0.4,0-0.8-0.3-0.8-0.8c0-0.4,0.3-0.8,0.8-0.8h9.3c0.4,0,0.8,0.3,0.8,0.8
			C119.1,57.9,118.7,58.2,118.3,58.2z"/>
	</g>
	<circle class="st1" cx="95.7" cy="106.8" r="2.4"/>
	<circle class="st2" cx="87.8" cy="7.1" r="2.4"/>
	<circle class="st3" cx="12.9" cy="97.5" r="2.4"/>
	<path class="st2" d="M32.7,46.2c0,13.5,5.3,28.8,13.7,38.8c-2.4,1.4-4.9,2.3-7.5,2.7c-0.9,0.1-1.9,0.2-2.8,0.2s-1.9-0.1-2.8-0.2
		C15.9,84.9,2.7,58.4,2.7,36.5c0-21.1,12.5-33.8,33.5-33.8c10.9,0,19.6,3.4,25.3,9.7C43.6,14.4,32.7,26.9,32.7,46.2z"/>
	<path class="st0" d="M6,35.9l-1.5,0C4.8,11.2,21.6,5.8,31.6,4.7l0.2,1.5C22.3,7.2,6.3,12.4,6,35.9z"/>
	<path class="st4" d="M93.3,27.3c-5.6-8.9-15.6-13.1-26.9-13.1c-17.5,0-31.7,10-31.7,32c0,20.8,12.7,45,28.9,47.5l-5.1,7.1h15.7
		l-5.1-7.1C80.3,92,89.8,80.1,94.6,66.1"/>
	<path class="st0" d="M95.3,66.3l-1.4-0.5c0.1-0.3,0.2-0.6,0.3-0.9l1.4,0.5C95.6,65.7,95.5,66,95.3,66.3z M96.3,63.4L94.8,63
		c0.1-0.3,0.2-0.6,0.3-1l1.4,0.4C96.5,62.8,96.4,63.1,96.3,63.4z M97.1,60.5l-1.5-0.4c0.1-0.3,0.2-0.6,0.2-1l1.5,0.3
		C97.2,59.9,97.2,60.2,97.1,60.5z M97.7,57.6l-1.5-0.3c0.1-0.3,0.1-0.6,0.2-1l1.5,0.3C97.9,56.9,97.8,57.2,97.7,57.6z M98.3,54.6
		l-1.5-0.2c0-0.3,0.1-0.7,0.1-1l1.5,0.2C98.4,53.9,98.3,54.2,98.3,54.6z M98.6,51.6l-1.5-0.1c0-0.3,0.1-0.7,0.1-1l1.5,0.1
		C98.7,50.9,98.7,51.2,98.6,51.6z M98.8,48.5l-1.5-0.1c0-0.3,0-0.7,0-1l1.5,0C98.9,47.8,98.9,48.2,98.8,48.5z M97.4,45.5
		c0-0.3,0-0.7,0-1l1.5-0.1c0,0.3,0,0.7,0,1L97.4,45.5z M97.3,42.5c0-0.3-0.1-0.7-0.1-1l1.5-0.2c0,0.3,0.1,0.7,0.1,1L97.3,42.5z
		 M96.9,39.6c0-0.3-0.1-0.6-0.2-1l1.5-0.3c0.1,0.3,0.1,0.7,0.2,1L96.9,39.6z M96.4,36.7c-0.1-0.3-0.2-0.6-0.2-0.9l1.5-0.4
		c0.1,0.3,0.2,0.7,0.2,1L96.4,36.7z M95.6,33.9c-0.1-0.3-0.2-0.6-0.3-0.9l1.4-0.5c0.1,0.3,0.2,0.6,0.3,1L95.6,33.9z M94.5,31.2
		c-0.1-0.3-0.3-0.6-0.4-0.9l1.3-0.7c0.1,0.3,0.3,0.6,0.4,0.9L94.5,31.2z M93.2,28.6c-0.2-0.3-0.3-0.6-0.5-0.8l1.3-0.8
		c0.2,0.3,0.4,0.6,0.5,0.9L93.2,28.6z"/>
	<path class="st0" d="M39.5,45.6l-1.5,0c0.3-22.1,15.4-27,24.3-27.9l0.2,1.5C52.1,20.3,39.7,25.8,39.5,45.6z"/>
	<g>
		<rect x="35.5" y="112.5" class="st0" width="1.5" height="1"/>
		<rect x="35.5" y="124.5" class="st0" width="1.5" height="1"/>
		<rect x="35.5" y="115.5" class="st0" width="1.5" height="1"/>
		<rect x="35.5" y="121.5" class="st0" width="1.5" height="1"/>
		<rect x="35.5" y="118.5" class="st0" width="1.5" height="1"/>
		<rect x="35.5" y="127.5" class="st0" width="1.5" height="0.2"/>
		<path class="st0" d="M95.3,66.3l-1.4-0.5C88.7,80.8,79,91.4,69.1,92.9c-0.3,0-0.5,0.2-0.6,0.5c-0.1,0.2-0.1,0.5,0.1,0.7l4.2,5.9
			H60l4.2-5.9c0.2-0.2,0.2-0.5,0.1-0.7c-0.1-0.2-0.3-0.4-0.6-0.5c-16.2-2.5-28.3-26.7-28.3-46.7c0-19.6,11.6-31.2,31-31.2
			c11.8,0,21.1,4.5,26.3,12.7l1.3-0.8c-5.5-8.7-15.2-13.4-27.5-13.4c-0.2,0-0.4,0-0.7,0C59.6,4.9,49.4,0,36.2,0C13.9,0,0,14,0,36.5
			C0,59,13.5,86.3,31.8,90.2l-5,6.9c-0.2,0.2-0.2,0.5-0.1,0.8c0.1,0.3,0.4,0.4,0.7,0.4h8.1v12.8H37V98.3H45c0.3,0,0.5-0.2,0.7-0.4
			c0.1-0.2,0.1-0.6-0.1-0.8l-5-6.9c3.1-0.6,6-2,8.7-3.8c3.9,4,8.3,6.8,13,7.9l-4.4,6.1c-0.2,0.2-0.2,0.5-0.1,0.8
			c0.1,0.3,0.4,0.4,0.7,0.4h7.1v11.4h1.5v-11.4h7.1c0.3,0,0.5-0.2,0.7-0.4c0.1-0.2,0.1-0.6-0.1-0.8l-4.4-6.1
			C80.7,92,90.1,81.4,95.3,66.3z M39.2,88.9c-0.3,0-0.5,0.2-0.6,0.5c-0.1,0.2-0.1,0.5,0.1,0.7l4.9,6.7H28.9l4.9-6.7
			c0.2-0.2,0.2-0.5,0.1-0.7c-0.1-0.2-0.3-0.4-0.6-0.5c-18.2-2.8-31.7-30-31.7-52.4c0-21.9,13-35,34.7-35c12.4,0,22,4.3,27.9,12
			C45.5,14.5,34,26.8,34,46.2c0,13.7,5.6,29.3,14.3,39.1C45.5,87.1,42.4,88.4,39.2,88.9z"/>
		<rect x="65.7" y="120.1" class="st0" width="1.5" height="1"/>
		<rect x="65.7" y="126.1" class="st0" width="1.5" height="1"/>
		<rect x="65.7" y="123.1" class="st0" width="1.5" height="1"/>
		<rect x="65.7" y="117.1" class="st0" width="1.5" height="1"/>
		<rect x="65.7" y="114.1" class="st0" width="1.5" height="1"/>
	</g>
	<line class="st4" x1="101" y1="46.7" x2="120.2" y2="46.7"/>
	<rect x="101" y="46" class="st0" width="19.2" height="1.5"/>
	<circle class="st4" cx="124.3" cy="46.7" r="4.2"/>
	<path class="st0" d="M124.3,51.6c-2.7,0-4.9-2.2-4.9-4.9c0-2.7,2.2-4.9,4.9-4.9c2.7,0,4.9,2.2,4.9,4.9
		C129.3,49.4,127.1,51.6,124.3,51.6z M124.3,43.3c-1.9,0-3.4,1.5-3.4,3.4c0,1.9,1.5,3.4,3.4,3.4s3.4-1.5,3.4-3.4
		C127.8,44.8,126.2,43.3,124.3,43.3z"/>
	<line class="st4" x1="94.6" y1="42.5" x2="90.9" y2="40.1"/>
	<rect x="92" y="39.1" transform="matrix(0.5435 -0.8394 0.8394 0.5435 7.6679 96.7452)" class="st0" width="1.5" height="4.4"/>
	<line class="st4" x1="90.9" y1="53.3" x2="94.6" y2="50.9"/>
	
		<rect x="90.6" y="51.3" transform="matrix(0.8395 -0.5434 0.5434 0.8395 -13.4124 58.7743)" class="st0" width="4.4" height="1.5"/>
	<line class="st4" x1="92" y1="46.7" x2="87.8" y2="46.7"/>
	<rect x="87.8" y="46" class="st0" width="4.2" height="1.5"/>
</g>
</svg>
