<?xml version="1.0" encoding="utf-8"?>
<!-- Generator: Adobe Illustrator 21.1.0, SVG Export Plug-In . SVG Version: 6.00 Build 0)  -->
<svg version="1.1" id="Ńëîé_2" xmlns="http://www.w3.org/2000/svg" xmlns:xlink="http://www.w3.org/1999/xlink" x="0px" y="0px"
	 viewBox="0 0 73.2 125.8" style="enable-background:new 0 0 73.2 125.8;" xml:space="preserve">
<style type="text/css">
	.st0{fill:url(#SVGID_1_);}
	.st1{fill:url(#SVGID_2_);}
</style>
<g>
	<linearGradient id="SVGID_1_" gradientUnits="userSpaceOnUse" x1="36.5859" y1="0" x2="36.5859" y2="125.7979">
		<stop  offset="0" style="stop-color:#E2E7A5"/>
		<stop  offset="0.2748" style="stop-color:#87D4DE"/>
		<stop  offset="0.607" style="stop-color:#3EC7D2"/>
		<stop  offset="1" style="stop-color:#0DA799"/>
	</linearGradient>
	<path class="st0" d="M36.6,0h-0.1C16.4,0,0,16.4,0,36.5C0,43,1.7,49.4,5,55l0.2,0.3c9.1,10.7,12,16.6,12.9,19.2
		c0.2,0.5,0.3,1.1,0.4,1.7l0.2,0.9l1-0.1c0.2,0,0.9,0.1,1.7,0.2c0.9,0.1,1.8-0.2,2.3-0.8c0.5-0.6,0.7-1.4,0.5-2.1
		c-0.8-3.5-4-10.3-14.3-22.5c-2.6-4.6-4-9.8-4-15.2C6,19.7,19.7,6,36.5,6h0.1c16.8,0,30.5,13.7,30.5,30.5c0,5.3-1.4,10.6-4,15.2
		c-13.4,16-14.7,22.6-14.5,24.6V88c0,3.7-3,6.8-6.8,6.8H27.6c-7.2,0-12.8,4-12.8,9.2s5.6,9.2,12.8,9.2h14.2c4.1,0,6.8,2,6.8,3.3
		s-2.6,3.3-6.8,3.3h-22c-1.7,0-3,1.3-3,3s1.3,3,3,3h22c7.2,0,12.8-4.1,12.8-9.3s-5.6-9.3-12.8-9.3H27.6c-4.1,0-6.8-1.9-6.8-3.2
		c0-1.3,2.7-3.2,6.8-3.2h14.2c7.1,0,12.8-5.7,12.8-12.8c0-3.6,0-8.7,0-10.8h0.3L54.6,76c0.2-1,1.6-6.8,13.3-20.7l0.2-0.4
		c3.2-5.6,5-11.9,5-18.4C73.2,16.4,56.8,0,36.6,0z"/>
	<linearGradient id="SVGID_2_" gradientUnits="userSpaceOnUse" x1="36.586" y1="23.0548" x2="36.586" y2="48.2861">
		<stop  offset="0" style="stop-color:#E2E7A5"/>
		<stop  offset="0.2748" style="stop-color:#87D4DE"/>
		<stop  offset="0.607" style="stop-color:#3EC7D2"/>
		<stop  offset="1" style="stop-color:#0DA799"/>
	</linearGradient>
	<path class="st1" d="M44.2,46.8c0.6,0.6,1.4,0.9,2.3,0.9c0.8-0.1,1.5-0.4,1.9-1.1c2.1-2.8,3.1-6.2,2.9-9.7c-0.2-3.9-2-7.5-5-10.2
		c-3-2.6-6.8-3.9-10.7-3.7c-3.9,0.2-7.5,2-10.2,5c-2.6,3-3.9,6.8-3.7,10.7c0.2,3.2,1.4,6.2,3.4,8.6c0.5,0.6,1.2,0.9,2,1c0,0,0,0,0,0
		c0.8,0,1.6-0.4,2.2-1c1-1.1,1-2.9,0-4.2c-1-1.4-1.6-3-1.7-4.7C27.7,36,28.5,33.8,30,32s3.7-2.8,6-2.9c2.3-0.1,4.6,0.6,6.3,2.2
		c1.8,1.6,2.8,3.7,3,6.1c0.1,1.9-0.4,3.7-1.4,5.3C43,44,43.2,45.8,44.2,46.8z"/>
</g>
</svg>
