<?xml version="1.0" encoding="utf-8"?>
<!-- Generator: Adobe Illustrator 21.1.0, SVG Export Plug-In . SVG Version: 6.00 Build 0)  -->
<svg version="1.1" id="Layer_1" xmlns="http://www.w3.org/2000/svg" xmlns:xlink="http://www.w3.org/1999/xlink" x="0px" y="0px"
	 viewBox="0 0 438.5 312.2" style="enable-background:new 0 0 438.5 312.2;" xml:space="preserve">
<style type="text/css">
	.st0{fill:#FFFFFF;}
</style>
<g>
	<path class="st0" d="M364.1,81.8c-14.8,0-26.8,12-26.8,26.8c0,14.8,12,26.8,26.8,26.8c14.8,0,26.8-12,26.8-26.8
		C390.9,93.9,378.9,81.8,364.1,81.8z M364.1,118.3c-5.3,0-9.7-4.3-9.7-9.7s4.3-9.7,9.7-9.7c5.3,0,9.7,4.3,9.7,9.7
		S369.4,118.3,364.1,118.3z"/>
	<path class="st0" d="M428.4,114.8l-2.4-1.4c0.1-1.6,0.2-3.2,0.2-4.8c0-1.6-0.1-3.2-0.2-4.8l2.4-1.4c4.7-2.7,8-7,9.4-12.2
		c1.4-5.2,0.7-10.6-2-15.3l-6.7-11.7c-3.6-6.2-10.3-10-17.4-10c-3.5,0-7,0.9-10,2.7l-2.4,1.4c-2.6-1.8-5.4-3.4-8.3-4.8v-2.8
		c0-10.5-8-19.1-18.3-20V18.3c0-10.1-8.2-18.3-18.3-18.3H18.3C8.2,0,0,8.2,0,18.3v216.1c0,10.1,8.2,18.3,18.3,18.3h117.4
		c-2.3,12.7-7.6,33.4-19.1,44.9c-2.5,2.5-3.2,6.1-1.9,9.4c1.3,3.2,4.4,5.3,7.9,5.3H250c3.5,0,6.6-2.1,7.9-5.3
		c1.3-3.2,0.6-6.9-1.9-9.4c-11.5-11.5-16.8-32.1-19.1-44.9h117.4c10.1,0,18.3-8.2,18.3-18.3v-46.9c10.2-0.9,18.3-9.6,18.3-20v-2.8
		c2.9-1.4,5.6-3,8.3-4.8l2.4,1.4c3.1,1.8,6.5,2.7,10,2.7c7.2,0,13.9-3.9,17.4-10.1l6.7-11.7c2.7-4.7,3.4-10.1,2-15.3
		C436.4,121.8,433.1,117.5,428.4,114.8z M139.5,295.1c8.2-14.8,12-32.1,13.6-42.4h66.3c1.7,10.3,5.5,27.6,13.6,42.4H139.5z
		 M315.3,223.6c-4.7,0-8.6,3.8-8.6,8.6v3.4h-22.3v-3.4c0-4.7-3.8-8.6-8.6-8.6c-4.7,0-8.6,3.8-8.6,8.6v3.4H18.3
		c-0.6,0-1.1-0.5-1.1-1.1v-19.2h338.3v19.2c0,0.6-0.5,1.1-1.1,1.1h-30.5v-3.4C323.9,227.4,320,223.6,315.3,223.6z M414.2,145.4
		c-0.8,1.4-2.6,1.9-4,1.1l-7.3-4.2c-3.1-1.8-7.1-1.5-9.8,0.9c-4.1,3.4-8.6,6.1-13.6,7.9c-3.4,1.2-5.7,4.5-5.7,8.1v8.5
		c0,1.6-1.3,2.9-2.9,2.9h-13.5c-1.6,0-2.9-1.3-2.9-2.9V159c0-3.6-2.3-6.8-5.7-8.1c-5-1.8-9.5-4.4-13.6-7.9c-1.5-1.3-3.5-2-5.5-2
		c-1.5,0-3,0.4-4.3,1.1l-7.3,4.2c-1.4,0.8-3.2,0.3-4-1.1l-6.7-11.6c-0.4-0.7-0.5-1.5-0.3-2.2s0.7-1.4,1.4-1.8l7.3-4.2
		c3.1-1.8,4.8-5.4,4.2-8.9c-0.5-2.6-0.7-5.3-0.7-7.9c0-2.6,0.2-5.2,0.7-7.9c0.6-3.5-1.1-7.1-4.2-8.9l-7.3-4.2
		c-1.4-0.8-1.9-2.6-1.1-4l6.7-11.7c0.8-1.4,2.6-1.9,4-1.1l7.3,4.2c3.1,1.8,7.1,1.4,9.8-0.9c4.1-3.4,8.6-6.1,13.6-7.9
		c3.4-1.2,5.7-4.5,5.7-8.1v-8.5c0-1.6,1.3-2.9,2.9-2.9h13.5c1.6,0,2.9,1.3,2.9,2.9v8.5c0,3.6,2.3,6.8,5.7,8.1
		c5,1.8,9.5,4.4,13.6,7.9c2.8,2.3,6.7,2.7,9.8,0.9l7.3-4.2c1.4-0.8,3.2-0.3,4,1.1l6.7,11.7c0.4,0.7,0.5,1.5,0.3,2.2
		c-0.2,0.8-0.7,1.4-1.4,1.8l-7.3,4.2c-3.1,1.8-4.8,5.4-4.2,8.9l0,0c0.5,2.6,0.7,5.3,0.7,7.9c0,2.6-0.2,5.2-0.7,7.9
		c-0.6,3.5,1,7.1,4.2,8.9l7.3,4.2c0.7,0.4,1.2,1,1.4,1.8c0.2,0.8,0.1,1.6-0.3,2.2L414.2,145.4z M355.5,29.8
		c-10.2,0.9-18.3,9.6-18.3,20v2.8c-2.9,1.4-5.6,3-8.3,4.8l-2.4-1.4c-3.1-1.8-6.5-2.7-10.1-2.7c-7.2,0-13.8,3.8-17.4,10L292.3,75
		c-5.5,9.6-2.2,21.9,7.4,27.5l2.4,1.4c-0.1,1.6-0.2,3.2-0.2,4.8c0,1.6,0.1,3.2,0.2,4.8l-2.4,1.4c-9.6,5.5-12.9,17.9-7.4,27.5
		l6.7,11.6c3.6,6.2,10.3,10.1,17.4,10.1c3.5,0,7-0.9,10-2.7l2.4-1.4c2.6,1.8,5.4,3.4,8.3,4.8v2.8c0,10.5,8,19.1,18.3,20v10.6H17.2
		V18.3c0-0.6,0.5-1.1,1.1-1.1h336.1c0.6,0,1.1,0.5,1.1,1.1V29.8z"/>
</g>
</svg>
