<?xml version="1.0" encoding="utf-8"?>
<!-- Generator: Adobe Illustrator 21.1.0, SVG Export Plug-In . SVG Version: 6.00 Build 0)  -->
<svg version="1.1" id="Layer_1" xmlns="http://www.w3.org/2000/svg" xmlns:xlink="http://www.w3.org/1999/xlink" x="0px" y="0px"
	 viewBox="0 0 65.1 65.1" style="enable-background:new 0 0 65.1 65.1;" xml:space="preserve">
<style type="text/css">
	.st0{fill:#FFFFFF;}
</style>
<g>
	<path class="st0" d="M34.1,31.3c1.9-0.6,3.3-2.3,3.3-4.4c0-2.6-2.1-4.7-4.7-4.7c-2.6,0-4.7,2.1-4.7,4.7c0,2.1,1.4,3.8,3.3,4.4
		c-3.8,0.7-6.7,4-6.7,8v0.6c0,0.6,0.5,1.1,1.1,1.1h14c0.6,0,1.1-0.5,1.1-1.1v-0.6C40.8,35.3,37.9,31.9,34.1,31.3z M32.7,33.3
		c3.1,0,5.6,2.4,5.9,5.4H26.8C27.1,35.7,29.6,33.3,32.7,33.3z M30.2,26.8c0-1.4,1.1-2.5,2.5-2.5c1.4,0,2.5,1.1,2.5,2.5
		c0,1.4-1.1,2.5-2.5,2.5C31.3,29.3,30.2,28.2,30.2,26.8z"/>
	<path class="st0" d="M31.6,10.6v6.1c0,0.6,0.4,1,1,1s1-0.4,1-1v-6.1c2.5-0.5,4.4-2.7,4.4-5.3c0-3-2.4-5.4-5.4-5.4s-5.4,2.4-5.4,5.4
		C27.2,8,29,10.2,31.6,10.6z M32.6,2c1.9,0,3.4,1.5,3.4,3.4s-1.5,3.4-3.4,3.4s-3.4-1.5-3.4-3.4S30.7,2,32.6,2z"/>
	<path class="st0" d="M33.6,54.5v-6.1c0-0.6-0.4-1-1-1s-1,0.4-1,1v6.1c-2.5,0.5-4.4,2.7-4.4,5.3c0,3,2.4,5.4,5.4,5.4
		s5.4-2.4,5.4-5.4C37.9,57.2,36.1,55,33.6,54.5z M32.6,63.1c-1.9,0-3.4-1.5-3.4-3.4s1.5-3.4,3.4-3.4s3.4,1.5,3.4,3.4
		S34.4,63.1,32.6,63.1z M32.6,47.9L32.6,47.9L32.6,47.9L32.6,47.9z"/>
	<path class="st0" d="M17.8,16.3c1.4-2.1,1.2-5-0.6-6.8c-2.1-2.1-5.5-2.1-7.6,0c-1,1-1.6,2.4-1.6,3.8s0.6,2.8,1.6,3.8
		c1,1,2.4,1.6,3.8,1.6c1.1,0,2.1-0.3,3-0.9l5.1,5.1c0.2,0.2,0.4,0.3,0.7,0.3s0.5-0.1,0.7-0.3c0.4-0.4,0.4-1,0-1.4L17.8,16.3z
		 M11,15.7c-0.6-0.6-1-1.5-1-2.4s0.4-1.7,1-2.4c0.6-0.6,1.5-1,2.4-1s1.8,0.4,2.4,1c1.3,1.3,1.3,3.5,0,4.8C14.4,17,12.3,17,11,15.7z"
		/>
	<path class="st0" d="M48.8,47.4l-5.1-5.1c-0.4-0.4-1-0.4-1.4,0c-0.4,0.4-0.4,1,0,1.4l5.1,5.1c-1.4,2.1-1.2,5,0.6,6.8
		c1,1,2.4,1.6,3.8,1.6s2.8-0.6,3.8-1.6s1.6-2.4,1.6-3.8S56.6,49,55.6,48C53.8,46.2,50.9,45.9,48.8,47.4z M51.8,48.4
		c0.9,0,1.8,0.4,2.4,1c1.3,1.3,1.3,3.5,0,4.8c-1.3,1.3-3.5,1.3-4.8,0c-1.3-1.3-1.3-3.5,0-4.8C50,48.8,50.9,48.4,51.8,48.4z"/>
	<path class="st0" d="M10.6,33.6h6.1c0.6,0,1-0.4,1-1s-0.4-1-1-1h-6.1C10.2,29,8,27.2,5.4,27.2c-3,0-5.4,2.4-5.4,5.4
		c0,3,2.4,5.4,5.4,5.4C8,37.9,10.2,36.1,10.6,33.6z M5.4,35.9c-1.9,0-3.4-1.5-3.4-3.4s1.5-3.4,3.4-3.4s3.4,1.5,3.4,3.4
		S7.2,35.9,5.4,35.9z"/>
	<path class="st0" d="M59.8,27.2c-2.6,0-4.8,1.9-5.3,4.4h-6.1c-0.6,0-1,0.4-1,1s0.4,1,1,1h6.1c0.5,2.5,2.7,4.4,5.3,4.4
		c3,0,5.4-2.4,5.4-5.4C65.1,29.6,62.7,27.2,59.8,27.2z M59.8,29.2c1.9,0,3.4,1.5,3.4,3.4s-1.5,3.4-3.4,3.4s-3.4-1.5-3.4-3.4
		S57.9,29.2,59.8,29.2z"/>
	<path class="st0" d="M21.5,42.2l-5.1,5.1c-2.1-1.4-5-1.2-6.8,0.6c-1,1-1.6,2.4-1.6,3.8s0.6,2.8,1.6,3.8s2.4,1.6,3.8,1.6
		s2.8-0.6,3.8-1.6c1.8-1.8,2.1-4.7,0.6-6.8l5.1-5.1c0.4-0.4,0.4-1,0-1.4C22.5,41.8,21.9,41.8,21.5,42.2z M22.6,42.6L22.6,42.6
		L22.6,42.6L22.6,42.6z M11,54.2c-1.3-1.3-1.3-3.5,0-4.8c0.6-0.6,1.5-1,2.4-1s1.8,0.4,2.4,1c1.3,1.3,1.3,3.5,0,4.8
		C14.4,55.5,12.3,55.5,11,54.2z"/>
	<path class="st0" d="M42.9,23.2c0.3,0,0.5-0.1,0.7-0.3l5.1-5.1c0.9,0.6,1.9,0.9,3,0.9c1.4,0,2.8-0.6,3.8-1.6c1-1,1.6-2.4,1.6-3.8
		s-0.6-2.8-1.6-3.8c-2.1-2.1-5.5-2.1-7.6,0c-1.8,1.8-2.1,4.7-0.6,6.8l-5.1,5.1c-0.4,0.4-0.4,1,0,1.4C42.4,23.1,42.7,23.2,42.9,23.2z
		 M54.2,11c0.6,0.6,1,1.5,1,2.4s-0.4,1.7-1,2.4c-1.3,1.3-3.5,1.3-4.8,0c-1.3-1.3-1.3-3.5,0-4.8C50.7,9.7,52.9,9.7,54.2,11z"/>
</g>
</svg>
