<?xml version="1.0" encoding="utf-8"?>
<!-- Generator: Adobe Illustrator 21.1.0, SVG Export Plug-In . SVG Version: 6.00 Build 0)  -->
<svg version="1.1" id="Layer_1" xmlns="http://www.w3.org/2000/svg" xmlns:xlink="http://www.w3.org/1999/xlink" x="0px" y="0px"
	 viewBox="0 0 66.6 51.8" style="enable-background:new 0 0 66.6 51.8;" xml:space="preserve">
<style type="text/css">
	.st0{fill:#FFFFFF;}
</style>
<g>
	<path class="st0" d="M16.4,28.4c0,3.9,3.2,7.2,7.2,7.2s7.2-3.2,7.2-7.2c0-3.9-3.2-7.2-7.2-7.2S16.4,24.5,16.4,28.4z M18.3,28.4
		c0-2.9,2.4-5.3,5.2-5.3s5.2,2.4,5.2,5.3c0,2.9-2.4,5.2-5.2,5.2S18.3,31.3,18.3,28.4z"/>
	<path class="st0" d="M48.6,31.4H37.5c-3.5,0-6.5,2.3-7.3,5.6c-0.6-0.1-1.2-0.2-1.8-0.2h-9.8c-4.5,0-8.2,3.7-8.2,8.2v5.9
		c0,0.5,0.4,1,1,1h24.2c0.5,0,1-0.4,1-1v-4.5h18.6c0.5,0,1-0.4,1-1v-6.5C56.1,34.8,52.7,31.4,48.6,31.4z M54.2,38.9v5.6H36.6
		c-0.2-2.9-1.9-5.5-4.6-6.8c0.5-2.6,2.8-4.4,5.5-4.4h11.1C51.7,33.3,54.2,35.8,54.2,38.9z M18.6,38.7h9.8c3.5,0,6.3,2.8,6.3,6.3v4.9
		H12.4V45C12.4,41.6,15.2,38.7,18.6,38.7z"/>
	<path class="st0" d="M43,30.1c3.9,0,7.2-3.2,7.2-7.2c0-3.9-3.2-7.2-7.2-7.2S35.9,19,35.9,23C35.9,26.9,39.1,30.1,43,30.1z M43,17.7
		c2.9,0,5.2,2.4,5.2,5.2s-2.4,5.2-5.2,5.2s-5.2-2.4-5.2-5.2S40.1,17.7,43,17.7z"/>
	<path class="st0" d="M14.4,22.5c0.2,0,0.4-0.1,0.6-0.2c0.3-0.3,0.4-0.7,0.3-1.1l-1-3c3.2-0.4,5.6-3.1,5.6-6.4
		c0-3.6-2.9-6.4-6.4-6.4h-7C2.9,5.4,0,8.3,0,11.9s2.9,6.4,6.4,6.4h1.4l6.1,4C14.1,22.5,14.3,22.5,14.4,22.5z M13.4,16.4H13
		c-0.3,0-0.6,0.1-0.8,0.4c-0.2,0.3-0.2,0.6-0.1,0.9l0.5,1.5l-4-2.6c-0.2-0.1-0.3-0.2-0.5-0.2H6.4c-2.5,0-4.5-2-4.5-4.5
		s2-4.5,4.5-4.5h7c2.5,0,4.5,2,4.5,4.5S16,16.4,13.4,16.4z"/>
	<path class="st0" d="M5.3,10c-0.9,0-1.6,0.7-1.6,1.6s0.7,1.6,1.6,1.6s1.6-0.7,1.6-1.6S6.2,10,5.3,10z M5.3,11.5
		C5.4,11.5,5.4,11.5,5.3,11.5C5.4,11.7,5.2,11.7,5.3,11.5C5.2,11.5,5.3,11.5,5.3,11.5z"/>
	<path class="st0" d="M9.9,10c-0.9,0-1.6,0.7-1.6,1.6s0.7,1.6,1.6,1.6c0.9,0,1.6-0.7,1.6-1.6S10.8,10,9.9,10z M9.9,11.5
		C10,11.5,10,11.5,9.9,11.5C10,11.7,9.8,11.7,9.9,11.5C9.8,11.5,9.9,11.5,9.9,11.5z"/>
	<path class="st0" d="M14.5,10c-0.9,0-1.6,0.7-1.6,1.6s0.7,1.6,1.6,1.6c0.9,0,1.6-0.7,1.6-1.6S15.4,10,14.5,10z M14.5,11.5
		C14.5,11.5,14.6,11.5,14.5,11.5C14.6,11.7,14.4,11.7,14.5,11.5C14.4,11.5,14.4,11.5,14.5,11.5z"/>
	<path class="st0" d="M52.2,4.6c-0.9,0-1.6,0.7-1.6,1.6s0.7,1.6,1.6,1.6c0.9,0,1.6-0.7,1.6-1.6S53.1,4.6,52.2,4.6z M52.2,6.1
		C52.3,6.1,52.3,6.1,52.2,6.1C52.3,6.3,52.1,6.3,52.2,6.1C52.1,6.1,52.2,6.1,52.2,6.1z"/>
	<path class="st0" d="M56.8,4.6c-0.9,0-1.6,0.7-1.6,1.6s0.7,1.6,1.6,1.6s1.6-0.7,1.6-1.6S57.7,4.6,56.8,4.6z M56.8,6.1
		C56.9,6.1,56.9,6.1,56.8,6.1C56.9,6.3,56.7,6.3,56.8,6.1C56.7,6.1,56.8,6.1,56.8,6.1z"/>
	<path class="st0" d="M61.4,4.6c-0.9,0-1.6,0.7-1.6,1.6s0.7,1.6,1.6,1.6C62.3,7.8,63,7,63,6.2S62.3,4.6,61.4,4.6z M61.4,6.1
		C61.4,6.1,61.5,6.1,61.4,6.1C61.5,6.3,61.3,6.3,61.4,6.1C61.3,6.1,61.3,6.1,61.4,6.1z"/>
	<path class="st0" d="M60.1,0h-7c-3.6,0-6.4,2.9-6.4,6.4c0,3.3,2.4,6,5.6,6.4l-1,3c-0.1,0.4,0,0.8,0.3,1.1c0.2,0.1,0.4,0.2,0.6,0.2
		c0.2,0,0.4-0.1,0.5-0.2l6.1-4h1.4c3.6,0,6.4-2.9,6.4-6.4S63.7,0,60.1,0z M60.1,11h-1.7c-0.2,0-0.4,0.1-0.5,0.2l-4,2.6l0.5-1.5
		c0.1-0.3,0.1-0.6-0.1-0.9c-0.2-0.3-0.5-0.4-0.8-0.4h-0.5c-2.5,0-4.5-2-4.5-4.5s2-4.5,4.5-4.5h7c2.5,0,4.5,2,4.5,4.5
		S62.6,11,60.1,11z"/>
</g>
</svg>
