<?xml version="1.0" encoding="utf-8"?>
<!-- Generator: Adobe Illustrator 21.1.0, SVG Export Plug-In . SVG Version: 6.00 Build 0)  -->
<svg version="1.1" id="_x31_" xmlns="http://www.w3.org/2000/svg" xmlns:xlink="http://www.w3.org/1999/xlink" x="0px" y="0px"
	 viewBox="0 0 112 112" style="enable-background:new 0 0 112 112;" xml:space="preserve">
<style type="text/css">
	.st0{fill:#2797CF;}
	.st1{fill:#FFFFFF;}
</style>
<g>
	<circle id="XMLID_108_" class="st0" cx="56" cy="56" r="56"/>
	<g>
		<polygon id="XMLID_106_" class="st1" points="32.5,53.7 32.5,78.1 44.2,78.1 44.2,51.7 44.2,44.9 32.5,44.9 		"/>
		<circle id="XMLID_105_" class="st1" cx="38.3" cy="34.1" r="5.8"/>
		<path id="XMLID_104_" class="st1" d="M82.1,55.1c-0.8-6.3-3.7-10.2-12.1-10.2c-5,0-8.4,1.9-9.8,4.5h-0.1v-4.5h-9.3v6.4v26.9h9.7
			V61.6c0-4.3,0.8-8.6,6.2-8.6c5.3,0,5.7,5,5.7,8.8v16.2h10V59.8h0C82.4,58.1,82.3,56.5,82.1,55.1z"/>
	</g>
</g>
</svg>
