<?xml version="1.0" encoding="utf-8"?>
<!-- Generator: Adobe Illustrator 21.1.0, SVG Export Plug-In . SVG Version: 6.00 Build 0)  -->
<svg version="1.1" id="_x31_" xmlns="http://www.w3.org/2000/svg" xmlns:xlink="http://www.w3.org/1999/xlink" x="0px" y="0px"
	 viewBox="0 0 112 112" style="enable-background:new 0 0 112 112;" xml:space="preserve">
<style type="text/css">
	.st0{fill:#43BDEF;}
	.st1{fill:#FFFFFF;}
</style>
<g>
	<circle id="XMLID_49_" class="st0" cx="56" cy="56" r="56"/>
	<path id="XMLID_47_" class="st1" d="M83.3,42.5c-2,0.9-4.2,1.5-6.4,1.7c2.3-1.4,4.1-3.5,4.9-6.1c-2.2,1.3-4.6,2.2-7.1,2.7
		c-2-2.1-4.9-3.5-8.2-3.5c-6.2,0-11.2,4.9-11.2,11c0,0.9,0.1,1.7,0.3,2.5c-9.3-0.5-17.5-4.8-23.1-11.5c-1,1.6-1.5,3.5-1.5,5.5
		c0,3.8,2,7.2,5,9.2c-1.8-0.1-3.6-0.6-5.1-1.4c0,0,0,0.1,0,0.1c0,1.4,0.3,2.8,0.8,4c1.4,3.5,4.4,6.1,8.2,6.8C39,63.9,38,64,37,64
		c-0.7,0-1.4-0.1-2.1-0.2c1.4,4.4,5.6,7.6,10.4,7.6c-3.8,3-8.6,4.7-13.9,4.7c-0.9,0-1.8-0.1-2.7-0.2c5,3.1,10.8,4.9,17.1,4.9
		C63.4,81,74.1,68.9,77,56.3c0.5-2.2,0.8-4.5,0.8-6.6c0-0.5,0-1,0-1.4C79.9,46.7,81.8,44.8,83.3,42.5z"/>
</g>
</svg>
